<?xml version="1.0"?>
<!-- Generated by SVGo -->
<svg width="442.627mm" height="152.114mm"
     viewBox="0.000 0.000 442.627 152.114"
     xmlns="http://www.w3.org/2000/svg" 
     xmlns:xlink="http://www.w3.org/1999/xlink">
<polygon points="435.627,5.001 435.783,5.007 435.939,5.025 436.093,5.056 436.245,5.098 436.392,5.153 436.534,5.218 436.671,5.295 436.802,5.382 436.925,5.480 437.041,5.586 437.147,5.702 437.245,5.825 437.332,5.956 437.409,6.093 437.474,6.235 437.529,6.382 437.571,6.534 437.602,6.688 437.620,6.844 437.627,7.001 437.627,145.114 437.620,145.271 437.602,145.427 437.571,145.581 437.529,145.732 437.474,145.879 437.409,146.022 437.332,146.159 437.245,146.290 437.147,146.413 437.041,146.528 436.925,146.635 436.802,146.732 436.671,146.819 436.534,146.896 436.392,146.962 436.245,147.016 436.093,147.059 435.939,147.089 435.783,147.108 435.627,147.114 7.001,147.114 6.844,147.108 6.688,147.089 6.534,147.059 6.382,147.016 6.235,146.962 6.093,146.896 5.956,146.819 5.825,146.732 5.702,146.635 5.586,146.528 5.480,146.413 5.382,146.290 5.295,146.159 5.218,146.022 5.153,145.879 5.098,145.732 5.056,145.581 5.025,145.427 5.007,145.271 5.000,145.114 5.001,7.001 5.007,6.844 5.025,6.688 5.056,6.534 5.098,6.382 5.153,6.235 5.218,6.093 5.295,5.956 5.382,5.825 5.480,5.702 5.586,5.586 5.702,5.480 5.825,5.382 5.956,5.295 6.093,5.218 6.235,5.153 6.382,5.098 6.534,5.056 6.688,5.025 6.844,5.007 7.001,5.000" style="fill:none;stroke-width:0.050000mm;stroke:black"/>
</svg>
