  0
SECTION
  2
HEADER
  9
$ACADVER
  1
AC1009
  9
$FILLMODE
 70
 0
  9
$SPLFRAME
 70
 1
  9
$EXTMIN
 10
0
 20
0
 30
0.0
  9
$EXTMAX
 10
1058.33
 20
1058.33
 30
0.0
  0
ENDSEC
  0
SECTION
  2
TABLES
  0
TABLE
  2
LAYER
 70
1
  0
LAYER
  2
0
 70
     0
 62
     7
  6
CONTINUOUS
  0
ENDTAB
  0
ENDSEC
  0
SECTION
  2
ENTITIES
  0
LINE
  8
0
 62
     0
 10
211.408
 20
142.427
 30
0.0
 11
211.408
 21
140.426
 31
0.0
  0
LINE
  8
0
 62
     0
 10
211.408
 20
140.426
 30
0.0
 11
2.096
 21
140.426
 31
0.0
  0
LINE
  8
0
 62
     0
 10
2.096
 20
140.426
 30
0.0
 11
2.096
 21
2.31372
 31
0.0
  0
LINE
  8
0
 62
     0
 10
2.096
 20
2.31372
 30
0.0
 11
430.72
 21
2.31372
 31
0.0
  0
LINE
  8
0
 62
     0
 10
430.72
 20
2.31372
 30
0.0
 11
430.72
 21
140.426
 31
0.0
  0
LINE
  8
0
 62
     0
 10
430.72
 20
140.426
 30
0.0
 11
221.408
 21
140.426
 31
0.0
  0
LINE
  8
0
 62
     0
 10
221.408
 20
140.426
 30
0.0
 11
221.408
 21
142.427
 31
0.0
  0
LINE
  8
0
 62
     0
 10
221.408
 20
142.427
 30
0.0
 11
430.72
 21
142.427
 31
0.0
  0
LINE
  8
0
 62
     0
 10
430.72
 20
142.427
 30
0.0
 11
430.879
 21
142.42
 31
0.0
  0
LINE
  8
0
 62
     0
 10
430.879
 20
142.42
 30
0.0
 11
431.034
 21
142.402
 31
0.0
  0
LINE
  8
0
 62
     0
 10
431.034
 20
142.402
 30
0.0
 11
431.19
 21
142.372
 31
0.0
  0
LINE
  8
0
 62
     0
 10
431.19
 20
142.372
 30
0.0
 11
431.341
 21
142.329
 31
0.0
  0
LINE
  8
0
 62
     0
 10
431.341
 20
142.329
 30
0.0
 11
431.486
 21
142.274
 31
0.0
  0
LINE
  8
0
 62
     0
 10
431.486
 20
142.274
 30
0.0
 11
431.631
 21
142.209
 31
0.0
  0
LINE
  8
0
 62
     0
 10
431.631
 20
142.209
 30
0.0
 11
431.765
 21
142.132
 31
0.0
  0
LINE
  8
0
 62
     0
 10
431.765
 20
142.132
 30
0.0
 11
431.895
 21
142.045
 31
0.0
  0
LINE
  8
0
 62
     0
 10
431.895
 20
142.045
 30
0.0
 11
432.019
 21
141.948
 31
0.0
  0
LINE
  8
0
 62
     0
 10
432.019
 20
141.948
 30
0.0
 11
432.135
 21
141.841
 31
0.0
  0
LINE
  8
0
 62
     0
 10
432.135
 20
141.841
 30
0.0
 11
432.241
 21
141.726
 31
0.0
  0
LINE
  8
0
 62
     0
 10
432.241
 20
141.726
 30
0.0
 11
432.34
 21
141.603
 31
0.0
  0
LINE
  8
0
 62
     0
 10
432.34
 20
141.603
 30
0.0
 11
432.428
 21
141.472
 31
0.0
  0
LINE
  8
0
 62
     0
 10
432.428
 20
141.472
 30
0.0
 11
432.506
 21
141.334
 31
0.0
  0
LINE
  8
0
 62
     0
 10
432.506
 20
141.334
 30
0.0
 11
432.569
 21
141.192
 31
0.0
  0
LINE
  8
0
 62
     0
 10
432.569
 20
141.192
 30
0.0
 11
432.625
 21
141.046
 31
0.0
  0
LINE
  8
0
 62
     0
 10
432.625
 20
141.046
 30
0.0
 11
432.664
 21
140.893
 31
0.0
  0
LINE
  8
0
 62
     0
 10
432.664
 20
140.893
 30
0.0
 11
432.696
 21
140.74
 31
0.0
  0
LINE
  8
0
 62
     0
 10
432.696
 20
140.74
 30
0.0
 11
432.714
 21
140.583
 31
0.0
  0
LINE
  8
0
 62
     0
 10
432.714
 20
140.583
 30
0.0
 11
432.721
 21
140.426
 31
0.0
  0
LINE
  8
0
 62
     0
 10
432.721
 20
140.426
 30
0.0
 11
432.721
 21
2.31372
 31
0.0
  0
LINE
  8
0
 62
     0
 10
432.721
 20
2.31372
 30
0.0
 11
432.714
 21
2.15663
 31
0.0
  0
LINE
  8
0
 62
     0
 10
432.714
 20
2.15663
 30
0.0
 11
432.696
 21
2.00091
 31
0.0
  0
LINE
  8
0
 62
     0
 10
432.696
 20
2.00091
 30
0.0
 11
432.664
 21
1.84657
 31
0.0
  0
LINE
  8
0
 62
     0
 10
432.664
 20
1.84657
 30
0.0
 11
432.625
 21
1.69636
 31
0.0
  0
LINE
  8
0
 62
     0
 10
432.625
 20
1.69636
 30
0.0
 11
432.569
 21
1.54892
 31
0.0
  0
LINE
  8
0
 62
     0
 10
432.569
 20
1.54892
 30
0.0
 11
432.506
 21
1.4056
 31
0.0
  0
LINE
  8
0
 62
     0
 10
432.506
 20
1.4056
 30
0.0
 11
432.428
 21
1.26917
 31
0.0
  0
LINE
  8
0
 62
     0
 10
432.428
 20
1.26917
 30
0.0
 11
432.34
 21
1.13826
 31
0.0
  0
LINE
  8
0
 62
     0
 10
432.34
 20
1.13826
 30
0.0
 11
432.241
 21
1.01424
 31
0.0
  0
LINE
  8
0
 62
     0
 10
432.241
 20
1.01424
 30
0.0
 11
432.135
 21
0.899859
 31
0.0
  0
LINE
  8
0
 62
     0
 10
432.135
 20
0.899859
 30
0.0
 11
432.019
 21
0.792371
 31
0.0
  0
LINE
  8
0
 62
     0
 10
432.019
 20
0.792371
 30
0.0
 11
431.895
 21
0.695911
 31
0.0
  0
LINE
  8
0
 62
     0
 10
431.895
 20
0.695911
 30
0.0
 11
431.765
 21
0.609092
 31
0.0
  0
LINE
  8
0
 62
     0
 10
431.765
 20
0.609092
 30
0.0
 11
431.631
 21
0.531922
 31
0.0
  0
LINE
  8
0
 62
     0
 10
431.631
 20
0.531922
 30
0.0
 11
431.486
 21
0.465776
 31
0.0
  0
LINE
  8
0
 62
     0
 10
431.486
 20
0.465776
 30
0.0
 11
431.341
 21
0.412034
 31
0.0
  0
LINE
  8
0
 62
     0
 10
431.341
 20
0.412034
 30
0.0
 11
431.19
 21
0.369316
 31
0.0
  0
LINE
  8
0
 62
     0
 10
431.19
 20
0.369316
 30
0.0
 11
431.034
 21
0.338998
 31
0.0
  0
LINE
  8
0
 62
     0
 10
431.034
 20
0.338998
 30
0.0
 11
430.879
 21
0.319705
 31
0.0
  0
LINE
  8
0
 62
     0
 10
430.879
 20
0.319705
 30
0.0
 11
430.72
 21
0.314193
 31
0.0
  0
LINE
  8
0
 62
     0
 10
430.72
 20
0.314193
 30
0.0
 11
2.096
 21
0.314193
 31
0.0
  0
LINE
  8
0
 62
     0
 10
2.096
 20
0.314193
 30
0.0
 11
1.9389
 21
0.319705
 31
0.0
  0
LINE
  8
0
 62
     0
 10
1.9389
 20
0.319705
 30
0.0
 11
1.7818
 21
0.338998
 31
0.0
  0
LINE
  8
0
 62
     0
 10
1.7818
 20
0.338998
 30
0.0
 11
1.62884
 21
0.369316
 31
0.0
  0
LINE
  8
0
 62
     0
 10
1.62884
 20
0.369316
 30
0.0
 11
1.47588
 21
0.412034
 31
0.0
  0
LINE
  8
0
 62
     0
 10
1.47588
 20
0.412034
 30
0.0
 11
1.32981
 21
0.465776
 31
0.0
  0
LINE
  8
0
 62
     0
 10
1.32981
 20
0.465776
 30
0.0
 11
1.18787
 21
0.531922
 31
0.0
  0
LINE
  8
0
 62
     0
 10
1.18787
 20
0.531922
 30
0.0
 11
1.05006
 21
0.609092
 31
0.0
  0
LINE
  8
0
 62
     0
 10
1.05006
 20
0.609092
 30
0.0
 11
0.919152
 21
0.695911
 31
0.0
  0
LINE
  8
0
 62
     0
 10
0.919152
 20
0.695911
 30
0.0
 11
0.796505
 21
0.792371
 31
0.0
  0
LINE
  8
0
 62
     0
 10
0.796505
 20
0.792371
 30
0.0
 11
0.680752
 21
0.899859
 31
0.0
  0
LINE
  8
0
 62
     0
 10
0.680752
 20
0.899859
 30
0.0
 11
0.574643
 21
1.01424
 31
0.0
  0
LINE
  8
0
 62
     0
 10
0.574643
 20
1.01424
 30
0.0
 11
0.4768
 21
1.13826
 31
0.0
  0
LINE
  8
0
 62
     0
 10
0.4768
 20
1.13826
 30
0.0
 11
0.389985
 21
1.26917
 31
0.0
  0
LINE
  8
0
 62
     0
 10
0.389985
 20
1.26917
 30
0.0
 11
0.312815
 21
1.4056
 31
0.0
  0
LINE
  8
0
 62
     0
 10
0.312815
 20
1.4056
 30
0.0
 11
0.248047
 21
1.54892
 31
0.0
  0
LINE
  8
0
 62
     0
 10
0.248047
 20
1.54892
 30
0.0
 11
0.192925
 21
1.69636
 31
0.0
  0
LINE
  8
0
 62
     0
 10
0.192925
 20
1.69636
 30
0.0
 11
0.150206
 21
1.84657
 31
0.0
  0
LINE
  8
0
 62
     0
 10
0.150206
 20
1.84657
 30
0.0
 11
0.119889
 21
2.00091
 31
0.0
  0
LINE
  8
0
 62
     0
 10
0.119889
 20
2.00091
 30
0.0
 11
0.101975
 21
2.15663
 31
0.0
  0
LINE
  8
0
 62
     0
 10
0.101975
 20
2.15663
 30
0.0
 11
0.0950846
 21
2.31372
 31
0.0
  0
LINE
  8
0
 62
     0
 10
0.0950846
 20
2.31372
 30
0.0
 11
0.0950846
 21
140.426
 31
0.0
  0
LINE
  8
0
 62
     0
 10
0.0950846
 20
140.426
 30
0.0
 11
0.101975
 21
140.583
 31
0.0
  0
LINE
  8
0
 62
     0
 10
0.101975
 20
140.583
 30
0.0
 11
0.119889
 21
140.74
 31
0.0
  0
LINE
  8
0
 62
     0
 10
0.119889
 20
140.74
 30
0.0
 11
0.150206
 21
140.893
 31
0.0
  0
LINE
  8
0
 62
     0
 10
0.150206
 20
140.893
 30
0.0
 11
0.192925
 21
141.046
 31
0.0
  0
LINE
  8
0
 62
     0
 10
0.192925
 20
141.046
 30
0.0
 11
0.248047
 21
141.192
 31
0.0
  0
LINE
  8
0
 62
     0
 10
0.248047
 20
141.192
 30
0.0
 11
0.312815
 21
141.334
 31
0.0
  0
LINE
  8
0
 62
     0
 10
0.312815
 20
141.334
 30
0.0
 11
0.389985
 21
141.472
 31
0.0
  0
LINE
  8
0
 62
     0
 10
0.389985
 20
141.472
 30
0.0
 11
0.4768
 21
141.603
 31
0.0
  0
LINE
  8
0
 62
     0
 10
0.4768
 20
141.603
 30
0.0
 11
0.574643
 21
141.726
 31
0.0
  0
LINE
  8
0
 62
     0
 10
0.574643
 20
141.726
 30
0.0
 11
0.680752
 21
141.841
 31
0.0
  0
LINE
  8
0
 62
     0
 10
0.680752
 20
141.841
 30
0.0
 11
0.796505
 21
141.948
 31
0.0
  0
LINE
  8
0
 62
     0
 10
0.796505
 20
141.948
 30
0.0
 11
0.919152
 21
142.045
 31
0.0
  0
LINE
  8
0
 62
     0
 10
0.919152
 20
142.045
 30
0.0
 11
1.05006
 21
142.132
 31
0.0
  0
LINE
  8
0
 62
     0
 10
1.05006
 20
142.132
 30
0.0
 11
1.18787
 21
142.209
 31
0.0
  0
LINE
  8
0
 62
     0
 10
1.18787
 20
142.209
 30
0.0
 11
1.32981
 21
142.274
 31
0.0
  0
LINE
  8
0
 62
     0
 10
1.32981
 20
142.274
 30
0.0
 11
1.47588
 21
142.329
 31
0.0
  0
LINE
  8
0
 62
     0
 10
1.47588
 20
142.329
 30
0.0
 11
1.62884
 21
142.372
 31
0.0
  0
LINE
  8
0
 62
     0
 10
1.62884
 20
142.372
 30
0.0
 11
1.7818
 21
142.402
 31
0.0
  0
LINE
  8
0
 62
     0
 10
1.7818
 20
142.402
 30
0.0
 11
1.9389
 21
142.42
 31
0.0
  0
LINE
  8
0
 62
     0
 10
1.9389
 20
142.42
 30
0.0
 11
2.096
 21
142.427
 31
0.0
  0
LINE
  8
0
 62
     0
 10
2.096
 20
142.427
 30
0.0
 11
211.408
 21
142.427
 31
0.0
  0
ENDSEC
  0
EOF
