  0
SECTION
  2
HEADER
  9
$ACADVER
  1
AC1009
  9
$FILLMODE
 70
 0
  9
$SPLFRAME
 70
 1
  9
$EXTMIN
 10
0
 20
0
 30
0.0
  9
$EXTMAX
 10
1058.33
 20
1058.33
 30
0.0
  0
ENDSEC
  0
SECTION
  2
TABLES
  0
TABLE
  2
LAYER
 70
1
  0
LAYER
  2
0
 70
     0
 62
     7
  6
CONTINUOUS
  0
ENDTAB
  0
ENDSEC
  0
SECTION
  2
ENTITIES
  0
LINE
  8
0
 62
     0
 10
211.558
 20
142.427
 30
0.0
 11
211.558
 21
140.277
 31
0.0
  0
LINE
  8
0
 62
     0
 10
211.558
 20
140.277
 30
0.0
 11
2.24482
 21
140.277
 31
0.0
  0
LINE
  8
0
 62
     0
 10
2.24482
 20
140.277
 30
0.0
 11
2.24482
 21
2.31372
 31
0.0
  0
LINE
  8
0
 62
     0
 10
2.24482
 20
2.31372
 30
0.0
 11
430.72
 21
2.31372
 31
0.0
  0
LINE
  8
0
 62
     0
 10
430.72
 20
2.31372
 30
0.0
 11
430.72
 21
140.277
 31
0.0
  0
LINE
  8
0
 62
     0
 10
430.72
 20
140.277
 30
0.0
 11
221.408
 21
140.277
 31
0.0
  0
LINE
  8
0
 62
     0
 10
221.408
 20
140.277
 30
0.0
 11
221.408
 21
142.427
 31
0.0
  0
LINE
  8
0
 62
     0
 10
221.408
 20
142.427
 30
0.0
 11
430.872
 21
142.427
 31
0.0
  0
LINE
  8
0
 62
     0
 10
430.872
 20
142.427
 30
0.0
 11
431.027
 21
142.42
 31
0.0
  0
LINE
  8
0
 62
     0
 10
431.027
 20
142.42
 30
0.0
 11
431.183
 21
142.402
 31
0.0
  0
LINE
  8
0
 62
     0
 10
431.183
 20
142.402
 30
0.0
 11
431.338
 21
142.372
 31
0.0
  0
LINE
  8
0
 62
     0
 10
431.338
 20
142.372
 30
0.0
 11
431.49
 21
142.329
 31
0.0
  0
LINE
  8
0
 62
     0
 10
431.49
 20
142.329
 30
0.0
 11
431.638
 21
142.274
 31
0.0
  0
LINE
  8
0
 62
     0
 10
431.638
 20
142.274
 30
0.0
 11
431.779
 21
142.209
 31
0.0
  0
LINE
  8
0
 62
     0
 10
431.779
 20
142.209
 30
0.0
 11
431.916
 21
142.132
 31
0.0
  0
LINE
  8
0
 62
     0
 10
431.916
 20
142.132
 30
0.0
 11
432.047
 21
142.045
 31
0.0
  0
LINE
  8
0
 62
     0
 10
432.047
 20
142.045
 30
0.0
 11
432.17
 21
141.948
 31
0.0
  0
LINE
  8
0
 62
     0
 10
432.17
 20
141.948
 30
0.0
 11
432.287
 21
141.841
 31
0.0
  0
LINE
  8
0
 62
     0
 10
432.287
 20
141.841
 30
0.0
 11
432.393
 21
141.726
 31
0.0
  0
LINE
  8
0
 62
     0
 10
432.393
 20
141.726
 30
0.0
 11
432.488
 21
141.603
 31
0.0
  0
LINE
  8
0
 62
     0
 10
432.488
 20
141.603
 30
0.0
 11
432.576
 21
141.472
 31
0.0
  0
LINE
  8
0
 62
     0
 10
432.576
 20
141.472
 30
0.0
 11
432.654
 21
141.334
 31
0.0
  0
LINE
  8
0
 62
     0
 10
432.654
 20
141.334
 30
0.0
 11
432.721
 21
141.192
 31
0.0
  0
LINE
  8
0
 62
     0
 10
432.721
 20
141.192
 30
0.0
 11
432.774
 21
141.046
 31
0.0
  0
LINE
  8
0
 62
     0
 10
432.774
 20
141.046
 30
0.0
 11
432.816
 21
140.893
 31
0.0
  0
LINE
  8
0
 62
     0
 10
432.816
 20
140.893
 30
0.0
 11
432.844
 21
140.74
 31
0.0
  0
LINE
  8
0
 62
     0
 10
432.844
 20
140.74
 30
0.0
 11
432.865
 21
140.583
 31
0.0
  0
LINE
  8
0
 62
     0
 10
432.865
 20
140.583
 30
0.0
 11
432.872
 21
140.426
 31
0.0
  0
LINE
  8
0
 62
     0
 10
432.872
 20
140.426
 30
0.0
 11
432.872
 21
2.16352
 31
0.0
  0
LINE
  8
0
 62
     0
 10
432.872
 20
2.16352
 30
0.0
 11
432.865
 21
2.00642
 31
0.0
  0
LINE
  8
0
 62
     0
 10
432.865
 20
2.00642
 30
0.0
 11
432.844
 21
1.8507
 31
0.0
  0
LINE
  8
0
 62
     0
 10
432.844
 20
1.8507
 30
0.0
 11
432.816
 21
1.69636
 31
0.0
  0
LINE
  8
0
 62
     0
 10
432.816
 20
1.69636
 30
0.0
 11
432.774
 21
1.54616
 31
0.0
  0
LINE
  8
0
 62
     0
 10
432.774
 20
1.54616
 30
0.0
 11
432.721
 21
1.39871
 31
0.0
  0
LINE
  8
0
 62
     0
 10
432.721
 20
1.39871
 30
0.0
 11
432.654
 21
1.25539
 31
0.0
  0
LINE
  8
0
 62
     0
 10
432.654
 20
1.25539
 30
0.0
 11
432.576
 21
1.11897
 31
0.0
  0
LINE
  8
0
 62
     0
 10
432.576
 20
1.11897
 30
0.0
 11
432.488
 21
0.988053
 31
0.0
  0
LINE
  8
0
 62
     0
 10
432.488
 20
0.988053
 30
0.0
 11
432.393
 21
0.86541
 31
0.0
  0
LINE
  8
0
 62
     0
 10
432.393
 20
0.86541
 30
0.0
 11
432.287
 21
0.749653
 31
0.0
  0
LINE
  8
0
 62
     0
 10
432.287
 20
0.749653
 30
0.0
 11
432.17
 21
0.642165
 31
0.0
  0
LINE
  8
0
 62
     0
 10
432.17
 20
0.642165
 30
0.0
 11
432.047
 21
0.545705
 31
0.0
  0
LINE
  8
0
 62
     0
 10
432.047
 20
0.545705
 30
0.0
 11
431.916
 21
0.458886
 31
0.0
  0
LINE
  8
0
 62
     0
 10
431.916
 20
0.458886
 30
0.0
 11
431.779
 21
0.381716
 31
0.0
  0
LINE
  8
0
 62
     0
 10
431.779
 20
0.381716
 30
0.0
 11
431.638
 21
0.315571
 31
0.0
  0
LINE
  8
0
 62
     0
 10
431.638
 20
0.315571
 30
0.0
 11
431.49
 21
0.261827
 31
0.0
  0
LINE
  8
0
 62
     0
 10
431.49
 20
0.261827
 30
0.0
 11
431.338
 21
0.219108
 31
0.0
  0
LINE
  8
0
 62
     0
 10
431.338
 20
0.219108
 30
0.0
 11
431.183
 21
0.188791
 31
0.0
  0
LINE
  8
0
 62
     0
 10
431.183
 20
0.188791
 30
0.0
 11
431.027
 21
0.169499
 31
0.0
  0
LINE
  8
0
 62
     0
 10
431.027
 20
0.169499
 30
0.0
 11
430.872
 21
0.163987
 31
0.0
  0
LINE
  8
0
 62
     0
 10
430.872
 20
0.163987
 30
0.0
 11
2.096
 21
0.163987
 31
0.0
  0
LINE
  8
0
 62
     0
 10
2.096
 20
0.163987
 30
0.0
 11
1.9389
 21
0.169499
 31
0.0
  0
LINE
  8
0
 62
     0
 10
1.9389
 20
0.169499
 30
0.0
 11
1.7818
 21
0.188791
 31
0.0
  0
LINE
  8
0
 62
     0
 10
1.7818
 20
0.188791
 30
0.0
 11
1.62884
 21
0.219108
 31
0.0
  0
LINE
  8
0
 62
     0
 10
1.62884
 20
0.219108
 30
0.0
 11
1.47588
 21
0.261827
 31
0.0
  0
LINE
  8
0
 62
     0
 10
1.47588
 20
0.261827
 30
0.0
 11
1.32981
 21
0.315571
 31
0.0
  0
LINE
  8
0
 62
     0
 10
1.32981
 20
0.315571
 30
0.0
 11
1.18787
 21
0.381716
 31
0.0
  0
LINE
  8
0
 62
     0
 10
1.18787
 20
0.381716
 30
0.0
 11
1.05006
 21
0.458886
 31
0.0
  0
LINE
  8
0
 62
     0
 10
1.05006
 20
0.458886
 30
0.0
 11
0.919152
 21
0.545705
 31
0.0
  0
LINE
  8
0
 62
     0
 10
0.919152
 20
0.545705
 30
0.0
 11
0.796505
 21
0.642165
 31
0.0
  0
LINE
  8
0
 62
     0
 10
0.796505
 20
0.642165
 30
0.0
 11
0.680752
 21
0.749653
 31
0.0
  0
LINE
  8
0
 62
     0
 10
0.680752
 20
0.749653
 30
0.0
 11
0.574643
 21
0.86541
 31
0.0
  0
LINE
  8
0
 62
     0
 10
0.574643
 20
0.86541
 30
0.0
 11
0.4768
 21
0.988053
 31
0.0
  0
LINE
  8
0
 62
     0
 10
0.4768
 20
0.988053
 30
0.0
 11
0.389985
 21
1.11897
 31
0.0
  0
LINE
  8
0
 62
     0
 10
0.389985
 20
1.11897
 30
0.0
 11
0.312815
 21
1.25539
 31
0.0
  0
LINE
  8
0
 62
     0
 10
0.312815
 20
1.25539
 30
0.0
 11
0.248047
 21
1.39871
 31
0.0
  0
LINE
  8
0
 62
     0
 10
0.248047
 20
1.39871
 30
0.0
 11
0.192925
 21
1.54616
 31
0.0
  0
LINE
  8
0
 62
     0
 10
0.192925
 20
1.54616
 30
0.0
 11
0.150206
 21
1.69636
 31
0.0
  0
LINE
  8
0
 62
     0
 10
0.150206
 20
1.69636
 30
0.0
 11
0.119889
 21
1.8507
 31
0.0
  0
LINE
  8
0
 62
     0
 10
0.119889
 20
1.8507
 30
0.0
 11
0.101975
 21
2.00642
 31
0.0
  0
LINE
  8
0
 62
     0
 10
0.101975
 20
2.00642
 30
0.0
 11
0.0950846
 21
2.16352
 31
0.0
  0
LINE
  8
0
 62
     0
 10
0.0950846
 20
2.16352
 30
0.0
 11
0.0950846
 21
140.426
 31
0.0
  0
LINE
  8
0
 62
     0
 10
0.0950846
 20
140.426
 30
0.0
 11
0.101975
 21
140.583
 31
0.0
  0
LINE
  8
0
 62
     0
 10
0.101975
 20
140.583
 30
0.0
 11
0.119889
 21
140.74
 31
0.0
  0
LINE
  8
0
 62
     0
 10
0.119889
 20
140.74
 30
0.0
 11
0.150206
 21
140.893
 31
0.0
  0
LINE
  8
0
 62
     0
 10
0.150206
 20
140.893
 30
0.0
 11
0.192925
 21
141.046
 31
0.0
  0
LINE
  8
0
 62
     0
 10
0.192925
 20
141.046
 30
0.0
 11
0.248047
 21
141.192
 31
0.0
  0
LINE
  8
0
 62
     0
 10
0.248047
 20
141.192
 30
0.0
 11
0.312815
 21
141.334
 31
0.0
  0
LINE
  8
0
 62
     0
 10
0.312815
 20
141.334
 30
0.0
 11
0.389985
 21
141.472
 31
0.0
  0
LINE
  8
0
 62
     0
 10
0.389985
 20
141.472
 30
0.0
 11
0.4768
 21
141.603
 31
0.0
  0
LINE
  8
0
 62
     0
 10
0.4768
 20
141.603
 30
0.0
 11
0.574643
 21
141.726
 31
0.0
  0
LINE
  8
0
 62
     0
 10
0.574643
 20
141.726
 30
0.0
 11
0.680752
 21
141.841
 31
0.0
  0
LINE
  8
0
 62
     0
 10
0.680752
 20
141.841
 30
0.0
 11
0.796505
 21
141.948
 31
0.0
  0
LINE
  8
0
 62
     0
 10
0.796505
 20
141.948
 30
0.0
 11
0.919152
 21
142.045
 31
0.0
  0
LINE
  8
0
 62
     0
 10
0.919152
 20
142.045
 30
0.0
 11
1.05006
 21
142.132
 31
0.0
  0
LINE
  8
0
 62
     0
 10
1.05006
 20
142.132
 30
0.0
 11
1.18787
 21
142.209
 31
0.0
  0
LINE
  8
0
 62
     0
 10
1.18787
 20
142.209
 30
0.0
 11
1.32981
 21
142.274
 31
0.0
  0
LINE
  8
0
 62
     0
 10
1.32981
 20
142.274
 30
0.0
 11
1.47588
 21
142.329
 31
0.0
  0
LINE
  8
0
 62
     0
 10
1.47588
 20
142.329
 30
0.0
 11
1.62884
 21
142.372
 31
0.0
  0
LINE
  8
0
 62
     0
 10
1.62884
 20
142.372
 30
0.0
 11
1.7818
 21
142.402
 31
0.0
  0
LINE
  8
0
 62
     0
 10
1.7818
 20
142.402
 30
0.0
 11
1.9389
 21
142.42
 31
0.0
  0
LINE
  8
0
 62
     0
 10
1.9389
 20
142.42
 30
0.0
 11
2.096
 21
142.427
 31
0.0
  0
LINE
  8
0
 62
     0
 10
2.096
 20
142.427
 30
0.0
 11
211.558
 21
142.427
 31
0.0
  0
ENDSEC
  0
EOF
