<?xml version="1.0"?>
<!-- Generated by SVGo -->
<svg width="443.390mm" height="133.827mm"
     viewBox="0.000 0.000 443.390 133.827"
     xmlns="http://www.w3.org/2000/svg" 
     xmlns:xlink="http://www.w3.org/1999/xlink">
<polygon points="435.389,5.001 435.624,5.010 435.858,5.037 436.089,5.083 436.316,5.147 436.537,5.229 436.751,5.327 436.956,5.443 437.152,5.573 437.337,5.719 437.510,5.879 437.670,6.052 437.816,6.237 437.947,6.433 438.062,6.639 438.161,6.852 438.242,7.073 438.306,7.300 438.352,7.531 438.380,7.765 438.389,8.001 438.389,125.827 438.380,126.062 438.352,126.296 438.306,126.527 438.242,126.754 438.161,126.975 438.062,127.188 437.947,127.394 437.816,127.590 437.670,127.775 437.510,127.948 437.337,128.108 437.152,128.253 436.956,128.384 436.751,128.500 436.537,128.598 436.316,128.680 436.089,128.744 435.858,128.789 435.624,128.817 435.389,128.827 8.001,128.827 7.765,128.817 7.531,128.789 7.300,128.744 7.073,128.680 6.852,128.598 6.639,128.500 6.433,128.384 6.237,128.253 6.052,128.108 5.879,127.948 5.719,127.775 5.573,127.590 5.443,127.394 5.327,127.188 5.229,126.975 5.147,126.754 5.083,126.527 5.037,126.296 5.010,126.062 5.000,125.826 5.001,8.001 5.010,7.765 5.037,7.531 5.083,7.300 5.147,7.073 5.229,6.852 5.327,6.639 5.443,6.433 5.573,6.237 5.719,6.052 5.879,5.879 6.052,5.719 6.237,5.573 6.433,5.443 6.639,5.327 6.852,5.229 7.073,5.147 7.300,5.083 7.531,5.037 7.765,5.010 8.001,5.000" style="fill:none;stroke-width:0.050000mm;stroke:black"/>
<polygon points="152.782,112.301 152.782,113.301 151.982,113.301 151.982,116.401 152.782,116.401 152.782,117.001 113.157,117.001 113.157,113.771 106.407,113.771 106.407,117.001 105.582,117.001 105.582,119.801 106.407,119.801 106.407,126.071 108.132,126.071 108.132,127.271 111.432,127.271 111.432,126.071 113.157,126.071 113.157,121.601 152.782,121.601 152.782,122.201 151.982,122.201 151.982,125.301 152.782,125.301 152.782,126.301 166.782,126.301 166.782,125.301 167.582,125.301 167.582,122.201 166.782,122.201 166.782,121.601 206.407,121.601 206.407,126.071 208.132,126.071 208.132,127.271 211.432,127.271 211.432,126.071 213.157,126.071 213.157,119.801 213.982,119.801 213.982,117.001 213.157,117.001 213.157,113.771 206.407,113.771 206.407,117.001 166.782,117.001 166.782,116.401 167.582,116.401 167.582,113.301 166.782,113.301 166.782,112.301" style="fill:none;stroke-width:0.050000mm;stroke:black"/>
<polygon points="374.238,112.301 374.238,113.301 373.438,113.301 373.438,116.401 374.238,116.401 374.238,117.001 372.713,117.001 372.713,113.771 365.963,113.771 365.963,117.001 365.138,117.001 365.138,119.801 365.963,119.801 365.963,126.071 367.688,126.071 367.688,127.271 370.988,127.271 370.988,126.071 372.713,126.071 372.713,121.601 374.238,121.601 374.238,122.201 373.438,122.201 373.438,125.301 374.238,125.301 374.238,126.301 388.238,126.301 388.238,125.301 389.038,125.301 389.038,122.201 388.238,122.201 388.238,121.601 389.763,121.601 389.763,126.071 391.488,126.071 391.488,127.271 394.788,127.271 394.788,126.071 396.513,126.071 396.513,119.801 397.338,119.801 397.338,117.001 396.513,117.001 396.513,113.771 389.763,113.771 389.763,117.001 388.238,117.001 388.238,116.401 389.038,116.401 389.038,113.301 388.238,113.301 388.238,112.301" style="fill:none;stroke-width:0.050000mm;stroke:black"/>
<polygon points="9.907,112.301 9.907,113.301 9.107,113.301 9.107,116.401 9.907,116.401 9.907,122.201 9.107,122.201 9.107,125.301 9.907,125.301 9.907,126.301 23.907,126.301 23.907,125.301 24.707,125.301 24.707,122.201 23.907,122.201 23.907,116.401 24.707,116.401 24.707,113.301 23.907,113.301 23.907,112.301" style="fill:none;stroke-width:0.050000mm;stroke:black"/>
<polygon points="33.719,112.301 33.719,113.301 32.919,113.301 32.919,116.401 33.719,116.401 33.719,122.201 32.919,122.201 32.919,125.301 33.719,125.301 33.719,126.301 47.719,126.301 47.719,125.301 48.519,125.301 48.519,122.201 47.719,122.201 47.719,116.401 48.519,116.401 48.519,113.301 47.719,113.301 47.719,112.301" style="fill:none;stroke-width:0.050000mm;stroke:black"/>
<polygon points="57.532,112.301 57.532,113.301 56.732,113.301 56.732,116.401 57.532,116.401 57.532,122.201 56.732,122.201 56.732,125.301 57.532,125.301 57.532,126.301 71.532,126.301 71.532,125.301 72.332,125.301 72.332,122.201 71.532,122.201 71.532,116.401 72.332,116.401 72.332,113.301 71.532,113.301 71.532,112.301" style="fill:none;stroke-width:0.050000mm;stroke:black"/>
<polygon points="81.344,112.301 81.344,113.301 80.544,113.301 80.544,116.401 81.344,116.401 81.344,122.201 80.544,122.201 80.544,125.301 81.344,125.301 81.344,126.301 95.344,126.301 95.344,125.301 96.144,125.301 96.144,122.201 95.344,122.201 95.344,116.401 96.144,116.401 96.144,113.301 95.344,113.301 95.344,112.301" style="fill:none;stroke-width:0.050000mm;stroke:black"/>
<polygon points="224.219,112.301 224.219,113.301 223.419,113.301 223.419,116.401 224.219,116.401 224.219,122.201 223.419,122.201 223.419,125.301 224.219,125.301 224.219,126.301 238.219,126.301 238.219,125.301 239.019,125.301 239.019,122.201 238.219,122.201 238.219,116.401 239.019,116.401 239.019,113.301 238.219,113.301 238.219,112.301" style="fill:none;stroke-width:0.050000mm;stroke:black"/>
<polygon points="248.032,112.301 248.032,113.301 247.232,113.301 247.232,116.401 248.032,116.401 248.032,122.201 247.232,122.201 247.232,125.301 248.032,125.301 248.032,126.301 262.032,126.301 262.032,125.301 262.832,125.301 262.832,122.201 262.032,122.201 262.032,116.401 262.832,116.401 262.832,113.301 262.032,113.301 262.032,112.301" style="fill:none;stroke-width:0.050000mm;stroke:black"/>
<polygon points="271.844,112.301 271.844,113.301 271.044,113.301 271.044,116.401 271.844,116.401 271.844,122.201 271.044,122.201 271.044,125.301 271.844,125.301 271.844,126.301 285.844,126.301 285.844,125.301 286.644,125.301 286.644,122.201 285.844,122.201 285.844,116.401 286.644,116.401 286.644,113.301 285.844,113.301 285.844,112.301" style="fill:none;stroke-width:0.050000mm;stroke:black"/>
<polygon points="298.038,112.301 298.038,113.301 297.238,113.301 297.238,116.401 298.038,116.401 298.038,122.201 297.238,122.201 297.238,125.301 298.038,125.301 298.038,126.301 312.038,126.301 312.038,125.301 312.838,125.301 312.838,122.201 312.038,122.201 312.038,116.401 312.838,116.401 312.838,113.301 312.038,113.301 312.038,112.301" style="fill:none;stroke-width:0.050000mm;stroke:black"/>
<polygon points="317.088,112.301 317.088,113.301 316.288,113.301 316.288,116.401 317.088,116.401 317.088,122.201 316.288,122.201 316.288,125.301 317.088,125.301 317.088,126.301 331.088,126.301 331.088,125.301 331.888,125.301 331.888,122.201 331.088,122.201 331.088,116.401 331.888,116.401 331.888,113.301 331.088,113.301 331.088,112.301" style="fill:none;stroke-width:0.050000mm;stroke:black"/>
<polygon points="336.138,112.301 336.138,113.301 335.338,113.301 335.338,116.401 336.138,116.401 336.138,122.201 335.338,122.201 335.338,125.301 336.138,125.301 336.138,126.301 350.138,126.301 350.138,125.301 350.938,125.301 350.938,122.201 350.138,122.201 350.138,116.401 350.938,116.401 350.938,113.301 350.138,113.301 350.138,112.301" style="fill:none;stroke-width:0.050000mm;stroke:black"/>
<polygon points="402.813,112.301 402.813,113.301 402.013,113.301 402.013,116.401 402.813,116.401 402.813,122.201 402.013,122.201 402.013,125.301 402.813,125.301 402.813,126.301 416.813,126.301 416.813,125.301 417.613,125.301 417.613,122.201 416.813,122.201 416.813,116.401 417.613,116.401 417.613,113.301 416.813,113.301 416.813,112.301" style="fill:none;stroke-width:0.050000mm;stroke:black"/>
<polygon points="428.363,93.676 428.363,94.501 422.093,94.501 422.093,96.226 420.893,96.226 420.893,99.526 422.093,99.526 422.093,101.251 426.563,101.251 426.563,102.776 425.963,102.776 425.963,101.976 422.863,101.976 422.863,102.776 421.863,102.776 421.863,116.776 422.863,116.776 422.863,117.576 425.963,117.576 425.963,116.776 426.563,116.776 426.563,118.301 422.093,118.301 422.093,120.026 420.893,120.026 420.893,123.326 422.093,123.326 422.093,125.051 428.363,125.051 428.363,125.876 431.163,125.876 431.163,125.051 434.393,125.051 434.393,118.301 431.163,118.301 431.163,116.776 431.763,116.776 431.763,117.576 434.863,117.576 434.863,116.776 435.863,116.776 435.863,102.776 434.863,102.776 434.863,101.976 431.763,101.976 431.763,102.776 431.163,102.776 431.163,101.251 434.393,101.251 434.393,94.501 431.163,94.501 431.163,93.676" style="fill:none;stroke-width:0.050000mm;stroke:black"/>
<polygon points="19.432,93.251 19.432,94.251 18.632,94.251 18.632,97.351 19.432,97.351 19.432,97.951 17.907,97.951 17.907,94.721 11.157,94.721 11.157,97.951 10.332,97.951 10.332,100.751 11.157,100.751 11.157,107.021 12.882,107.021 12.882,108.221 16.182,108.221 16.182,107.021 17.907,107.021 17.907,102.551 19.432,102.551 19.432,103.151 18.632,103.151 18.632,106.251 19.432,106.251 19.432,107.251 33.432,107.251 33.432,106.251 34.232,106.251 34.232,103.151 33.432,103.151 33.432,102.551 34.957,102.551 34.957,107.021 36.682,107.021 36.682,108.221 39.982,108.221 39.982,107.021 41.707,107.021 41.707,100.751 42.532,100.751 42.532,97.951 41.707,97.951 41.707,94.721 34.957,94.721 34.957,97.951 33.432,97.951 33.432,97.351 34.232,97.351 34.232,94.251 33.432,94.251 33.432,93.251" style="fill:none;stroke-width:0.050000mm;stroke:black"/>
<polygon points="257.556,93.251 257.556,94.251 256.756,94.251 256.756,97.351 257.556,97.351 257.556,97.951 256.032,97.951 256.032,94.721 249.282,94.721 249.282,97.951 248.457,97.951 248.457,100.751 249.282,100.751 249.282,107.021 251.007,107.021 251.007,108.221 254.307,108.221 254.307,107.021 256.032,107.021 256.032,102.551 257.556,102.551 257.556,103.151 256.756,103.151 256.756,106.251 257.556,106.251 257.556,107.251 271.557,107.251 271.557,106.251 272.357,106.251 272.357,103.151 271.557,103.151 271.557,102.551 273.082,102.551 273.082,107.021 274.807,107.021 274.807,108.221 278.107,108.221 278.107,107.021 279.832,107.021 279.832,100.751 280.657,100.751 280.657,97.951 279.832,97.951 279.832,94.721 273.082,94.721 273.082,97.951 271.557,97.951 271.557,97.351 272.357,97.351 272.357,94.251 271.557,94.251 271.557,93.251" style="fill:none;stroke-width:0.050000mm;stroke:black"/>
<polygon points="50.388,93.251 50.388,94.251 49.588,94.251 49.588,97.351 50.388,97.351 50.388,103.151 49.588,103.151 49.588,106.251 50.388,106.251 50.388,107.251 64.388,107.251 64.388,106.251 65.188,106.251 65.188,103.151 64.388,103.151 64.388,97.351 65.188,97.351 65.188,94.251 64.388,94.251 64.388,93.251" style="fill:none;stroke-width:0.050000mm;stroke:black"/>
<polygon points="69.438,93.251 69.438,94.251 68.638,94.251 68.638,97.351 69.438,97.351 69.438,103.151 68.638,103.151 68.638,106.251 69.438,106.251 69.438,107.251 83.438,107.251 83.438,106.251 84.238,106.251 84.238,103.151 83.438,103.151 83.438,97.351 84.238,97.351 84.238,94.251 83.438,94.251 83.438,93.251" style="fill:none;stroke-width:0.050000mm;stroke:black"/>
<polygon points="88.488,93.251 88.488,94.251 87.688,94.251 87.688,97.351 88.488,97.351 88.488,103.151 87.688,103.151 87.688,106.251 88.488,106.251 88.488,107.251 102.488,107.251 102.488,106.251 103.288,106.251 103.288,103.151 102.488,103.151 102.488,97.351 103.288,97.351 103.288,94.251 102.488,94.251 102.488,93.251" style="fill:none;stroke-width:0.050000mm;stroke:black"/>
<polygon points="107.538,93.251 107.538,94.251 106.738,94.251 106.738,97.351 107.538,97.351 107.538,103.151 106.738,103.151 106.738,106.251 107.538,106.251 107.538,107.251 121.538,107.251 121.538,106.251 122.338,106.251 122.338,103.151 121.538,103.151 121.538,97.351 122.338,97.351 122.338,94.251 121.538,94.251 121.538,93.251" style="fill:none;stroke-width:0.050000mm;stroke:black"/>
<polygon points="126.588,93.251 126.588,94.251 125.788,94.251 125.788,97.351 126.588,97.351 126.588,103.151 125.788,103.151 125.788,106.251 126.588,106.251 126.588,107.251 140.588,107.251 140.588,106.251 141.388,106.251 141.388,103.151 140.588,103.151 140.588,97.351 141.388,97.351 141.388,94.251 140.588,94.251 140.588,93.251" style="fill:none;stroke-width:0.050000mm;stroke:black"/>
<polygon points="145.638,93.251 145.638,94.251 144.838,94.251 144.838,97.351 145.638,97.351 145.638,103.151 144.838,103.151 144.838,106.251 145.638,106.251 145.638,107.251 159.638,107.251 159.638,106.251 160.438,106.251 160.438,103.151 159.638,103.151 159.638,97.351 160.438,97.351 160.438,94.251 159.638,94.251 159.638,93.251" style="fill:none;stroke-width:0.050000mm;stroke:black"/>
<polygon points="164.688,93.251 164.688,94.251 163.888,94.251 163.888,97.351 164.688,97.351 164.688,103.151 163.888,103.151 163.888,106.251 164.688,106.251 164.688,107.251 178.688,107.251 178.688,106.251 179.488,106.251 179.488,103.151 178.688,103.151 178.688,97.351 179.488,97.351 179.488,94.251 178.688,94.251 178.688,93.251" style="fill:none;stroke-width:0.050000mm;stroke:black"/>
<polygon points="183.738,93.251 183.738,94.251 182.938,94.251 182.938,97.351 183.738,97.351 183.738,103.151 182.938,103.151 182.938,106.251 183.738,106.251 183.738,107.251 197.738,107.251 197.738,106.251 198.538,106.251 198.538,103.151 197.738,103.151 197.738,97.351 198.538,97.351 198.538,94.251 197.738,94.251 197.738,93.251" style="fill:none;stroke-width:0.050000mm;stroke:black"/>
<polygon points="202.788,93.251 202.788,94.251 201.988,94.251 201.988,97.351 202.788,97.351 202.788,103.151 201.988,103.151 201.988,106.251 202.788,106.251 202.788,107.251 216.788,107.251 216.788,106.251 217.588,106.251 217.588,103.151 216.788,103.151 216.788,97.351 217.588,97.351 217.588,94.251 216.788,94.251 216.788,93.251" style="fill:none;stroke-width:0.050000mm;stroke:black"/>
<polygon points="221.838,93.251 221.838,94.251 221.038,94.251 221.038,97.351 221.838,97.351 221.838,103.151 221.038,103.151 221.038,106.251 221.838,106.251 221.838,107.251 235.838,107.251 235.838,106.251 236.638,106.251 236.638,103.151 235.838,103.151 235.838,97.351 236.638,97.351 236.638,94.251 235.838,94.251 235.838,93.251" style="fill:none;stroke-width:0.050000mm;stroke:black"/>
<polygon points="317.088,93.251 317.088,94.251 316.288,94.251 316.288,97.351 317.088,97.351 317.088,103.151 316.288,103.151 316.288,106.251 317.088,106.251 317.088,107.251 331.088,107.251 331.088,106.251 331.888,106.251 331.888,103.151 331.088,103.151 331.088,97.351 331.888,97.351 331.888,94.251 331.088,94.251 331.088,93.251" style="fill:none;stroke-width:0.050000mm;stroke:black"/>
<polygon points="364.713,93.251 364.713,94.251 363.913,94.251 363.913,97.351 364.713,97.351 364.713,103.151 363.913,103.151 363.913,106.251 364.713,106.251 364.713,107.251 378.713,107.251 378.713,106.251 379.513,106.251 379.513,103.151 378.713,103.151 378.713,97.351 379.513,97.351 379.513,94.251 378.713,94.251 378.713,93.251" style="fill:none;stroke-width:0.050000mm;stroke:black"/>
<polygon points="383.763,93.251 383.763,94.251 382.963,94.251 382.963,97.351 383.763,97.351 383.763,103.151 382.963,103.151 382.963,106.251 383.763,106.251 383.763,107.251 397.763,107.251 397.763,106.251 398.563,106.251 398.563,103.151 397.763,103.151 397.763,97.351 398.563,97.351 398.563,94.251 397.763,94.251 397.763,93.251" style="fill:none;stroke-width:0.050000mm;stroke:black"/>
<polygon points="402.813,93.251 402.813,94.251 402.013,94.251 402.013,97.351 402.813,97.351 402.813,103.151 402.013,103.151 402.013,106.251 402.813,106.251 402.813,107.251 416.813,107.251 416.813,106.251 417.613,106.251 417.613,103.151 416.813,103.151 416.813,97.351 417.613,97.351 417.613,94.251 416.813,94.251 416.813,93.251" style="fill:none;stroke-width:0.050000mm;stroke:black"/>
<polygon points="262.319,74.201 262.319,75.201 261.518,75.201 261.518,78.301 262.319,78.301 262.319,78.901 260.794,78.901 260.794,75.671 254.044,75.671 254.044,78.901 253.219,78.901 253.219,81.701 254.044,81.701 254.044,87.971 255.769,87.971 255.769,89.171 259.068,89.171 259.068,87.971 260.794,87.971 260.794,83.501 262.319,83.501 262.319,84.101 261.518,84.101 261.518,87.201 262.319,87.201 262.319,88.201 276.319,88.201 276.319,87.201 277.119,87.201 277.119,84.101 276.319,84.101 276.319,83.501 277.844,83.501 277.844,87.971 279.569,87.971 279.569,89.171 282.869,89.171 282.869,87.971 284.594,87.971 284.594,81.701 285.419,81.701 285.419,78.901 284.594,78.901 284.594,75.671 277.844,75.671 277.844,78.901 276.319,78.901 276.319,78.301 277.119,78.301 277.119,75.201 276.319,75.201 276.319,74.201" style="fill:none;stroke-width:0.050000mm;stroke:black"/>
<polygon points="14.669,74.201 14.669,75.201 13.869,75.201 13.869,78.301 14.669,78.301 14.669,84.101 13.869,84.101 13.869,87.201 14.669,87.201 14.669,88.201 28.669,88.201 28.669,87.201 29.469,87.201 29.469,84.101 28.669,84.101 28.669,78.301 29.469,78.301 29.469,75.201 28.669,75.201 28.669,74.201" style="fill:none;stroke-width:0.050000mm;stroke:black"/>
<polygon points="40.863,74.201 40.863,75.201 40.063,75.201 40.063,78.301 40.863,78.301 40.863,84.101 40.063,84.101 40.063,87.201 40.863,87.201 40.863,88.201 54.863,88.201 54.863,87.201 55.663,87.201 55.663,84.101 54.863,84.101 54.863,78.301 55.663,78.301 55.663,75.201 54.863,75.201 54.863,74.201" style="fill:none;stroke-width:0.050000mm;stroke:black"/>
<polygon points="59.913,74.201 59.913,75.201 59.113,75.201 59.113,78.301 59.913,78.301 59.913,84.101 59.113,84.101 59.113,87.201 59.913,87.201 59.913,88.201 73.913,88.201 73.913,87.201 74.713,87.201 74.713,84.101 73.913,84.101 73.913,78.301 74.713,78.301 74.713,75.201 73.913,75.201 73.913,74.201" style="fill:none;stroke-width:0.050000mm;stroke:black"/>
<polygon points="78.963,74.201 78.963,75.201 78.163,75.201 78.163,78.301 78.963,78.301 78.963,84.101 78.163,84.101 78.163,87.201 78.963,87.201 78.963,88.201 92.963,88.201 92.963,87.201 93.763,87.201 93.763,84.101 92.963,84.101 92.963,78.301 93.763,78.301 93.763,75.201 92.963,75.201 92.963,74.201" style="fill:none;stroke-width:0.050000mm;stroke:black"/>
<polygon points="98.013,74.201 98.013,75.201 97.213,75.201 97.213,78.301 98.013,78.301 98.013,84.101 97.213,84.101 97.213,87.201 98.013,87.201 98.013,88.201 112.013,88.201 112.013,87.201 112.813,87.201 112.813,84.101 112.013,84.101 112.013,78.301 112.813,78.301 112.813,75.201 112.013,75.201 112.013,74.201" style="fill:none;stroke-width:0.050000mm;stroke:black"/>
<polygon points="117.063,74.201 117.063,75.201 116.263,75.201 116.263,78.301 117.063,78.301 117.063,84.101 116.263,84.101 116.263,87.201 117.063,87.201 117.063,88.201 131.063,88.201 131.063,87.201 131.863,87.201 131.863,84.101 131.063,84.101 131.063,78.301 131.863,78.301 131.863,75.201 131.063,75.201 131.063,74.201" style="fill:none;stroke-width:0.050000mm;stroke:black"/>
<polygon points="136.113,74.201 136.113,75.201 135.313,75.201 135.313,78.301 136.113,78.301 136.113,84.101 135.313,84.101 135.313,87.201 136.113,87.201 136.113,88.201 150.113,88.201 150.113,87.201 150.913,87.201 150.913,84.101 150.113,84.101 150.113,78.301 150.913,78.301 150.913,75.201 150.113,75.201 150.113,74.201" style="fill:none;stroke-width:0.050000mm;stroke:black"/>
<polygon points="155.163,74.201 155.163,75.201 154.363,75.201 154.363,78.301 155.163,78.301 155.163,84.101 154.363,84.101 154.363,87.201 155.163,87.201 155.163,88.201 169.163,88.201 169.163,87.201 169.963,87.201 169.963,84.101 169.163,84.101 169.163,78.301 169.963,78.301 169.963,75.201 169.163,75.201 169.163,74.201" style="fill:none;stroke-width:0.050000mm;stroke:black"/>
<polygon points="174.213,74.201 174.213,75.201 173.413,75.201 173.413,78.301 174.213,78.301 174.213,84.101 173.413,84.101 173.413,87.201 174.213,87.201 174.213,88.201 188.213,88.201 188.213,87.201 189.013,87.201 189.013,84.101 188.213,84.101 188.213,78.301 189.013,78.301 189.013,75.201 188.213,75.201 188.213,74.201" style="fill:none;stroke-width:0.050000mm;stroke:black"/>
<polygon points="193.263,74.201 193.263,75.201 192.463,75.201 192.463,78.301 193.263,78.301 193.263,84.101 192.463,84.101 192.463,87.201 193.263,87.201 193.263,88.201 207.263,88.201 207.263,87.201 208.063,87.201 208.063,84.101 207.263,84.101 207.263,78.301 208.063,78.301 208.063,75.201 207.263,75.201 207.263,74.201" style="fill:none;stroke-width:0.050000mm;stroke:black"/>
<polygon points="212.313,74.201 212.313,75.201 211.513,75.201 211.513,78.301 212.313,78.301 212.313,84.101 211.513,84.101 211.513,87.201 212.313,87.201 212.313,88.201 226.313,88.201 226.313,87.201 227.113,87.201 227.113,84.101 226.313,84.101 226.313,78.301 227.113,78.301 227.113,75.201 226.313,75.201 226.313,74.201" style="fill:none;stroke-width:0.050000mm;stroke:black"/>
<polygon points="231.363,74.201 231.363,75.201 230.563,75.201 230.563,78.301 231.363,78.301 231.363,84.101 230.563,84.101 230.563,87.201 231.363,87.201 231.363,88.201 245.363,88.201 245.363,87.201 246.163,87.201 246.163,84.101 245.363,84.101 245.363,78.301 246.163,78.301 246.163,75.201 245.363,75.201 245.363,74.201" style="fill:none;stroke-width:0.050000mm;stroke:black"/>
<polygon points="340.901,74.201 340.901,75.201 340.101,75.201 340.101,78.301 340.901,78.301 340.901,84.101 340.101,84.101 340.101,87.201 340.901,87.201 340.901,88.201 354.901,88.201 354.901,87.201 355.701,87.201 355.701,84.101 354.901,84.101 354.901,78.301 355.701,78.301 355.701,75.201 354.901,75.201 354.901,74.201" style="fill:none;stroke-width:0.050000mm;stroke:black"/>
<polygon points="364.713,74.201 364.713,75.201 363.913,75.201 363.913,78.301 364.713,78.301 364.713,84.101 363.913,84.101 363.913,87.201 364.713,87.201 364.713,88.201 378.713,88.201 378.713,87.201 379.513,87.201 379.513,84.101 378.713,84.101 378.713,78.301 379.513,78.301 379.513,75.201 378.713,75.201 378.713,74.201" style="fill:none;stroke-width:0.050000mm;stroke:black"/>
<polygon points="383.763,74.201 383.763,75.201 382.963,75.201 382.963,78.301 383.763,78.301 383.763,84.101 382.963,84.101 382.963,87.201 383.763,87.201 383.763,88.201 397.763,88.201 397.763,87.201 398.563,87.201 398.563,84.101 397.763,84.101 397.763,78.301 398.563,78.301 398.563,75.201 397.763,75.201 397.763,74.201" style="fill:none;stroke-width:0.050000mm;stroke:black"/>
<polygon points="402.813,74.201 402.813,75.201 402.013,75.201 402.013,78.301 402.813,78.301 402.813,84.101 402.013,84.101 402.013,87.201 402.813,87.201 402.813,88.201 416.813,88.201 416.813,87.201 417.613,87.201 417.613,84.101 416.813,84.101 416.813,78.301 417.613,78.301 417.613,75.201 416.813,75.201 416.813,74.201" style="fill:none;stroke-width:0.050000mm;stroke:black"/>
<polygon points="428.363,55.576 428.363,56.401 422.093,56.401 422.093,58.126 420.893,58.126 420.893,61.426 422.093,61.426 422.093,63.151 426.563,63.151 426.563,64.676 425.963,64.676 425.963,63.876 422.863,63.876 422.863,64.676 421.863,64.676 421.863,78.676 422.863,78.676 422.863,79.476 425.963,79.476 425.963,78.676 426.563,78.676 426.563,80.201 422.093,80.201 422.093,81.926 420.893,81.926 420.893,85.226 422.093,85.226 422.093,86.951 428.363,86.951 428.363,87.776 431.163,87.776 431.163,86.951 434.393,86.951 434.393,80.201 431.163,80.201 431.163,78.676 431.763,78.676 431.763,79.476 434.863,79.476 434.863,78.676 435.863,78.676 435.863,64.676 434.863,64.676 434.863,63.876 431.763,63.876 431.763,64.676 431.163,64.676 431.163,63.151 434.393,63.151 434.393,56.401 431.163,56.401 431.163,55.576" style="fill:none;stroke-width:0.050000mm;stroke:black"/>
<polygon points="12.288,55.151 12.288,56.151 11.488,56.151 11.488,59.251 12.288,59.251 12.288,65.051 11.488,65.051 11.488,68.151 12.288,68.151 12.288,69.151 26.288,69.151 26.288,68.151 27.088,68.151 27.088,65.051 26.288,65.051 26.288,59.251 27.088,59.251 27.088,56.151 26.288,56.151 26.288,55.151" style="fill:none;stroke-width:0.050000mm;stroke:black"/>
<polygon points="36.101,55.151 36.101,56.151 35.301,56.151 35.301,59.251 36.101,59.251 36.101,65.051 35.301,65.051 35.301,68.151 36.101,68.151 36.101,69.151 50.101,69.151 50.101,68.151 50.901,68.151 50.901,65.051 50.101,65.051 50.101,59.251 50.901,59.251 50.901,56.151 50.101,56.151 50.101,55.151" style="fill:none;stroke-width:0.050000mm;stroke:black"/>
<polygon points="55.151,55.151 55.151,56.151 54.351,56.151 54.351,59.251 55.151,59.251 55.151,65.051 54.351,65.051 54.351,68.151 55.151,68.151 55.151,69.151 69.151,69.151 69.151,68.151 69.951,68.151 69.951,65.051 69.151,65.051 69.151,59.251 69.951,59.251 69.951,56.151 69.151,56.151 69.151,55.151" style="fill:none;stroke-width:0.050000mm;stroke:black"/>
<polygon points="74.201,55.151 74.201,56.151 73.401,56.151 73.401,59.251 74.201,59.251 74.201,65.051 73.401,65.051 73.401,68.151 74.201,68.151 74.201,69.151 88.201,69.151 88.201,68.151 89.001,68.151 89.001,65.051 88.201,65.051 88.201,59.251 89.001,59.251 89.001,56.151 88.201,56.151 88.201,55.151" style="fill:none;stroke-width:0.050000mm;stroke:black"/>
<polygon points="93.251,55.151 93.251,56.151 92.451,56.151 92.451,59.251 93.251,59.251 93.251,65.051 92.451,65.051 92.451,68.151 93.251,68.151 93.251,69.151 107.251,69.151 107.251,68.151 108.051,68.151 108.051,65.051 107.251,65.051 107.251,59.251 108.051,59.251 108.051,56.151 107.251,56.151 107.251,55.151" style="fill:none;stroke-width:0.050000mm;stroke:black"/>
<polygon points="112.301,55.151 112.301,56.151 111.501,56.151 111.501,59.251 112.301,59.251 112.301,65.051 111.501,65.051 111.501,68.151 112.301,68.151 112.301,69.151 126.301,69.151 126.301,68.151 127.101,68.151 127.101,65.051 126.301,65.051 126.301,59.251 127.101,59.251 127.101,56.151 126.301,56.151 126.301,55.151" style="fill:none;stroke-width:0.050000mm;stroke:black"/>
<polygon points="131.351,55.151 131.351,56.151 130.550,56.151 130.550,59.251 131.351,59.251 131.351,65.051 130.550,65.051 130.550,68.151 131.351,68.151 131.351,69.151 145.351,69.151 145.351,68.151 146.151,68.151 146.151,65.051 145.351,65.051 145.351,59.251 146.151,59.251 146.151,56.151 145.351,56.151 145.351,55.151" style="fill:none;stroke-width:0.050000mm;stroke:black"/>
<polygon points="150.401,55.151 150.401,56.151 149.601,56.151 149.601,59.251 150.401,59.251 150.401,65.051 149.601,65.051 149.601,68.151 150.401,68.151 150.401,69.151 164.401,69.151 164.401,68.151 165.201,68.151 165.201,65.051 164.401,65.051 164.401,59.251 165.201,59.251 165.201,56.151 164.401,56.151 164.401,55.151" style="fill:none;stroke-width:0.050000mm;stroke:black"/>
<polygon points="169.451,55.151 169.451,56.151 168.651,56.151 168.651,59.251 169.451,59.251 169.451,65.051 168.651,65.051 168.651,68.151 169.451,68.151 169.451,69.151 183.451,69.151 183.451,68.151 184.251,68.151 184.251,65.051 183.451,65.051 183.451,59.251 184.251,59.251 184.251,56.151 183.451,56.151 183.451,55.151" style="fill:none;stroke-width:0.050000mm;stroke:black"/>
<polygon points="188.501,55.151 188.501,56.151 187.701,56.151 187.701,59.251 188.501,59.251 188.501,65.051 187.701,65.051 187.701,68.151 188.501,68.151 188.501,69.151 202.501,69.151 202.501,68.151 203.301,68.151 203.301,65.051 202.501,65.051 202.501,59.251 203.301,59.251 203.301,56.151 202.501,56.151 202.501,55.151" style="fill:none;stroke-width:0.050000mm;stroke:black"/>
<polygon points="207.551,55.151 207.551,56.151 206.751,56.151 206.751,59.251 207.551,59.251 207.551,65.051 206.751,65.051 206.751,68.151 207.551,68.151 207.551,69.151 221.551,69.151 221.551,68.151 222.351,68.151 222.351,65.051 221.551,65.051 221.551,59.251 222.351,59.251 222.351,56.151 221.551,56.151 221.551,55.151" style="fill:none;stroke-width:0.050000mm;stroke:black"/>
<polygon points="226.601,55.151 226.601,56.151 225.801,56.151 225.801,59.251 226.601,59.251 226.601,65.051 225.801,65.051 225.801,68.151 226.601,68.151 226.601,69.151 240.601,69.151 240.601,68.151 241.401,68.151 241.401,65.051 240.601,65.051 240.601,59.251 241.401,59.251 241.401,56.151 240.601,56.151 240.601,55.151" style="fill:none;stroke-width:0.050000mm;stroke:black"/>
<polygon points="245.651,55.151 245.651,56.151 244.851,56.151 244.851,59.251 245.651,59.251 245.651,65.051 244.851,65.051 244.851,68.151 245.651,68.151 245.651,69.151 259.650,69.151 259.650,68.151 260.451,68.151 260.451,65.051 259.650,65.051 259.650,59.251 260.451,59.251 260.451,56.151 259.650,56.151 259.650,55.151" style="fill:none;stroke-width:0.050000mm;stroke:black"/>
<polygon points="269.463,55.151 269.463,56.151 268.663,56.151 268.663,59.251 269.463,59.251 269.463,65.051 268.663,65.051 268.663,68.151 269.463,68.151 269.463,69.151 283.463,69.151 283.463,68.151 284.263,68.151 284.263,65.051 283.463,65.051 283.463,59.251 284.263,59.251 284.263,56.151 283.463,56.151 283.463,55.151" style="fill:none;stroke-width:0.050000mm;stroke:black"/>
<polygon points="340.901,55.151 340.901,56.151 340.101,56.151 340.101,59.251 340.901,59.251 340.901,65.051 340.101,65.051 340.101,68.151 340.901,68.151 340.901,69.151 354.901,69.151 354.901,68.151 355.701,68.151 355.701,65.051 354.901,65.051 354.901,59.251 355.701,59.251 355.701,56.151 354.901,56.151 354.901,55.151" style="fill:none;stroke-width:0.050000mm;stroke:black"/>
<polygon points="364.713,55.151 364.713,56.151 363.913,56.151 363.913,59.251 364.713,59.251 364.713,65.051 363.913,65.051 363.913,68.151 364.713,68.151 364.713,69.151 378.713,69.151 378.713,68.151 379.513,68.151 379.513,65.051 378.713,65.051 378.713,59.251 379.513,59.251 379.513,56.151 378.713,56.151 378.713,55.151" style="fill:none;stroke-width:0.050000mm;stroke:black"/>
<polygon points="383.763,55.151 383.763,56.151 382.963,56.151 382.963,59.251 383.763,59.251 383.763,65.051 382.963,65.051 382.963,68.151 383.763,68.151 383.763,69.151 397.763,69.151 397.763,68.151 398.563,68.151 398.563,65.051 397.763,65.051 397.763,59.251 398.563,59.251 398.563,56.151 397.763,56.151 397.763,55.151" style="fill:none;stroke-width:0.050000mm;stroke:black"/>
<polygon points="402.813,55.151 402.813,56.151 402.013,56.151 402.013,59.251 402.813,59.251 402.813,65.051 402.013,65.051 402.013,68.151 402.813,68.151 402.813,69.151 416.813,69.151 416.813,68.151 417.613,68.151 417.613,65.051 416.813,65.051 416.813,59.251 417.613,59.251 417.613,56.151 416.813,56.151 416.813,55.151" style="fill:none;stroke-width:0.050000mm;stroke:black"/>
<polygon points="264.701,36.101 264.701,37.101 263.901,37.101 263.901,40.201 264.701,40.201 264.701,40.801 263.176,40.801 263.176,37.571 256.426,37.571 256.426,40.801 255.601,40.801 255.601,43.601 256.426,43.601 256.426,49.871 258.150,49.871 258.150,51.071 261.451,51.071 261.451,49.871 263.176,49.871 263.176,45.401 264.701,45.401 264.701,46.001 263.901,46.001 263.901,49.101 264.701,49.101 264.701,50.101 278.701,50.101 278.701,49.101 279.501,49.101 279.501,46.001 278.701,46.001 278.701,45.401 280.226,45.401 280.226,49.871 281.951,49.871 281.951,51.071 285.251,51.071 285.251,49.871 286.976,49.871 286.976,43.601 287.801,43.601 287.801,40.801 286.976,40.801 286.976,37.571 280.226,37.571 280.226,40.801 278.701,40.801 278.701,40.201 279.501,40.201 279.501,37.101 278.701,37.101 278.701,36.101" style="fill:none;stroke-width:0.050000mm;stroke:black"/>
<polygon points="7.526,36.101 7.526,37.101 6.726,37.101 6.726,40.201 7.526,40.201 7.526,46.001 6.726,46.001 6.726,49.101 7.526,49.101 7.526,50.101 21.526,50.101 21.526,49.101 22.326,49.101 22.326,46.001 21.526,46.001 21.526,40.201 22.326,40.201 22.326,37.101 21.526,37.101 21.526,36.101" style="fill:none;stroke-width:0.050000mm;stroke:black"/>
<polygon points="26.576,36.101 26.576,37.101 25.776,37.101 25.776,40.201 26.576,40.201 26.576,46.001 25.776,46.001 25.776,49.101 26.576,49.101 26.576,50.101 40.576,50.101 40.576,49.101 41.376,49.101 41.376,46.001 40.576,46.001 40.576,40.201 41.376,40.201 41.376,37.101 40.576,37.101 40.576,36.101" style="fill:none;stroke-width:0.050000mm;stroke:black"/>
<polygon points="45.626,36.101 45.626,37.101 44.826,37.101 44.826,40.201 45.626,40.201 45.626,46.001 44.826,46.001 44.826,49.101 45.626,49.101 45.626,50.101 59.626,50.101 59.626,49.101 60.426,49.101 60.426,46.001 59.626,46.001 59.626,40.201 60.426,40.201 60.426,37.101 59.626,37.101 59.626,36.101" style="fill:none;stroke-width:0.050000mm;stroke:black"/>
<polygon points="64.676,36.101 64.676,37.101 63.876,37.101 63.876,40.201 64.676,40.201 64.676,46.001 63.876,46.001 63.876,49.101 64.676,49.101 64.676,50.101 78.676,50.101 78.676,49.101 79.476,49.101 79.476,46.001 78.676,46.001 78.676,40.201 79.476,40.201 79.476,37.101 78.676,37.101 78.676,36.101" style="fill:none;stroke-width:0.050000mm;stroke:black"/>
<polygon points="83.726,36.101 83.726,37.101 82.926,37.101 82.926,40.201 83.726,40.201 83.726,46.001 82.926,46.001 82.926,49.101 83.726,49.101 83.726,50.101 97.726,50.101 97.726,49.101 98.525,49.101 98.525,46.001 97.726,46.001 97.726,40.201 98.525,40.201 98.525,37.101 97.726,37.101 97.726,36.101" style="fill:none;stroke-width:0.050000mm;stroke:black"/>
<polygon points="102.775,36.101 102.775,37.101 101.976,37.101 101.976,40.201 102.775,40.201 102.775,46.001 101.976,46.001 101.976,49.101 102.775,49.101 102.775,50.101 116.775,50.101 116.775,49.101 117.575,49.101 117.575,46.001 116.775,46.001 116.775,40.201 117.575,40.201 117.575,37.101 116.775,37.101 116.775,36.101" style="fill:none;stroke-width:0.050000mm;stroke:black"/>
<polygon points="121.825,36.101 121.825,37.101 121.025,37.101 121.025,40.201 121.825,40.201 121.825,46.001 121.025,46.001 121.025,49.101 121.825,49.101 121.825,50.101 135.826,50.101 135.826,49.101 136.626,49.101 136.626,46.001 135.826,46.001 135.826,40.201 136.626,40.201 136.626,37.101 135.826,37.101 135.826,36.101" style="fill:none;stroke-width:0.050000mm;stroke:black"/>
<polygon points="140.876,36.101 140.876,37.101 140.076,37.101 140.076,40.201 140.876,40.201 140.876,46.001 140.076,46.001 140.076,49.101 140.876,49.101 140.876,50.101 154.876,50.101 154.876,49.101 155.676,49.101 155.676,46.001 154.876,46.001 154.876,40.201 155.676,40.201 155.676,37.101 154.876,37.101 154.876,36.101" style="fill:none;stroke-width:0.050000mm;stroke:black"/>
<polygon points="159.926,36.101 159.926,37.101 159.126,37.101 159.126,40.201 159.926,40.201 159.926,46.001 159.126,46.001 159.126,49.101 159.926,49.101 159.926,50.101 173.926,50.101 173.926,49.101 174.726,49.101 174.726,46.001 173.926,46.001 173.926,40.201 174.726,40.201 174.726,37.101 173.926,37.101 173.926,36.101" style="fill:none;stroke-width:0.050000mm;stroke:black"/>
<polygon points="178.976,36.101 178.976,37.101 178.176,37.101 178.176,40.201 178.976,40.201 178.976,46.001 178.176,46.001 178.176,49.101 178.976,49.101 178.976,50.101 192.976,50.101 192.976,49.101 193.776,49.101 193.776,46.001 192.976,46.001 192.976,40.201 193.776,40.201 193.776,37.101 192.976,37.101 192.976,36.101" style="fill:none;stroke-width:0.050000mm;stroke:black"/>
<polygon points="198.026,36.101 198.026,37.101 197.226,37.101 197.226,40.201 198.026,40.201 198.026,46.001 197.226,46.001 197.226,49.101 198.026,49.101 198.026,50.101 212.026,50.101 212.026,49.101 212.826,49.101 212.826,46.001 212.026,46.001 212.026,40.201 212.826,40.201 212.826,37.101 212.026,37.101 212.026,36.101" style="fill:none;stroke-width:0.050000mm;stroke:black"/>
<polygon points="217.076,36.101 217.076,37.101 216.276,37.101 216.276,40.201 217.076,40.201 217.076,46.001 216.276,46.001 216.276,49.101 217.076,49.101 217.076,50.101 231.076,50.101 231.076,49.101 231.876,49.101 231.876,46.001 231.076,46.001 231.076,40.201 231.876,40.201 231.876,37.101 231.076,37.101 231.076,36.101" style="fill:none;stroke-width:0.050000mm;stroke:black"/>
<polygon points="236.126,36.101 236.126,37.101 235.326,37.101 235.326,40.201 236.126,40.201 236.126,46.001 235.326,46.001 235.326,49.101 236.126,49.101 236.126,50.101 250.126,50.101 250.126,49.101 250.926,49.101 250.926,46.001 250.126,46.001 250.126,40.201 250.926,40.201 250.926,37.101 250.126,37.101 250.126,36.101" style="fill:none;stroke-width:0.050000mm;stroke:black"/>
<polygon points="298.038,36.101 298.038,37.101 297.238,37.101 297.238,40.201 298.038,40.201 298.038,46.001 297.238,46.001 297.238,49.101 298.038,49.101 298.038,50.101 312.038,50.101 312.038,49.101 312.838,49.101 312.838,46.001 312.038,46.001 312.038,40.201 312.838,40.201 312.838,37.101 312.038,37.101 312.038,36.101" style="fill:none;stroke-width:0.050000mm;stroke:black"/>
<polygon points="317.088,36.101 317.088,37.101 316.288,37.101 316.288,40.201 317.088,40.201 317.088,46.001 316.288,46.001 316.288,49.101 317.088,49.101 317.088,50.101 331.088,50.101 331.088,49.101 331.888,49.101 331.888,46.001 331.088,46.001 331.088,40.201 331.888,40.201 331.888,37.101 331.088,37.101 331.088,36.101" style="fill:none;stroke-width:0.050000mm;stroke:black"/>
<polygon points="364.713,36.101 364.713,37.101 363.913,37.101 363.913,40.201 364.713,40.201 364.713,46.001 363.913,46.001 363.913,49.101 364.713,49.101 364.713,50.101 378.713,50.101 378.713,49.101 379.513,49.101 379.513,46.001 378.713,46.001 378.713,40.201 379.513,40.201 379.513,37.101 378.713,37.101 378.713,36.101" style="fill:none;stroke-width:0.050000mm;stroke:black"/>
<polygon points="383.763,36.101 383.763,37.101 382.963,37.101 382.963,40.201 383.763,40.201 383.763,46.001 382.963,46.001 382.963,49.101 383.763,49.101 383.763,50.101 397.763,50.101 397.763,49.101 398.563,49.101 398.563,46.001 397.763,46.001 397.763,40.201 398.563,40.201 398.563,37.101 397.763,37.101 397.763,36.101" style="fill:none;stroke-width:0.050000mm;stroke:black"/>
<polygon points="402.813,36.101 402.813,37.101 402.013,37.101 402.013,40.201 402.813,40.201 402.813,46.001 402.013,46.001 402.013,49.101 402.813,49.101 402.813,50.101 416.813,50.101 416.813,49.101 417.613,49.101 417.613,46.001 416.813,46.001 416.813,40.201 417.613,40.201 417.613,37.101 416.813,37.101 416.813,36.101" style="fill:none;stroke-width:0.050000mm;stroke:black"/>
<polygon points="421.863,36.101 421.863,37.101 421.063,37.101 421.063,40.201 421.863,40.201 421.863,46.001 421.063,46.001 421.063,49.101 421.863,49.101 421.863,50.101 435.863,50.101 435.863,49.101 436.663,49.101 436.663,46.001 435.863,46.001 435.863,40.201 436.663,40.201 436.663,37.101 435.863,37.101 435.863,36.101" style="fill:none;stroke-width:0.050000mm;stroke:black"/>
<polygon points="7.526,7.526 7.526,8.526 6.726,8.526 6.726,11.626 7.526,11.626 7.526,17.426 6.726,17.426 6.726,20.526 7.526,20.526 7.526,21.526 21.526,21.526 21.526,20.526 22.326,20.526 22.326,17.426 21.526,17.426 21.526,11.626 22.326,11.626 22.326,8.526 21.526,8.526 21.526,7.526" style="fill:none;stroke-width:0.050000mm;stroke:black"/>
<polygon points="45.626,7.526 45.626,8.526 44.826,8.526 44.826,11.626 45.626,11.626 45.626,17.426 44.826,17.426 44.826,20.526 45.626,20.526 45.626,21.526 59.626,21.526 59.626,20.526 60.426,20.526 60.426,17.426 59.626,17.426 59.626,11.626 60.426,11.626 60.426,8.526 59.626,8.526 59.626,7.526" style="fill:none;stroke-width:0.050000mm;stroke:black"/>
<polygon points="64.676,7.526 64.676,8.526 63.876,8.526 63.876,11.626 64.676,11.626 64.676,17.426 63.876,17.426 63.876,20.526 64.676,20.526 64.676,21.526 78.676,21.526 78.676,20.526 79.476,20.526 79.476,17.426 78.676,17.426 78.676,11.626 79.476,11.626 79.476,8.526 78.676,8.526 78.676,7.526" style="fill:none;stroke-width:0.050000mm;stroke:black"/>
<polygon points="83.726,7.526 83.726,8.526 82.926,8.526 82.926,11.626 83.726,11.626 83.726,17.426 82.926,17.426 82.926,20.526 83.726,20.526 83.726,21.526 97.726,21.526 97.726,20.526 98.525,20.526 98.525,17.426 97.726,17.426 97.726,11.626 98.525,11.626 98.525,8.526 97.726,8.526 97.726,7.526" style="fill:none;stroke-width:0.050000mm;stroke:black"/>
<polygon points="102.775,7.526 102.775,8.526 101.976,8.526 101.976,11.626 102.775,11.626 102.775,17.426 101.976,17.426 101.976,20.526 102.775,20.526 102.775,21.526 116.775,21.526 116.775,20.526 117.575,20.526 117.575,17.426 116.775,17.426 116.775,11.626 117.575,11.626 117.575,8.526 116.775,8.526 116.775,7.526" style="fill:none;stroke-width:0.050000mm;stroke:black"/>
<polygon points="131.351,7.526 131.351,8.526 130.550,8.526 130.550,11.626 131.351,11.626 131.351,17.426 130.550,17.426 130.550,20.526 131.351,20.526 131.351,21.526 145.351,21.526 145.351,20.526 146.151,20.526 146.151,17.426 145.351,17.426 145.351,11.626 146.151,11.626 146.151,8.526 145.351,8.526 145.351,7.526" style="fill:none;stroke-width:0.050000mm;stroke:black"/>
<polygon points="150.401,7.526 150.401,8.526 149.601,8.526 149.601,11.626 150.401,11.626 150.401,17.426 149.601,17.426 149.601,20.526 150.401,20.526 150.401,21.526 164.401,21.526 164.401,20.526 165.201,20.526 165.201,17.426 164.401,17.426 164.401,11.626 165.201,11.626 165.201,8.526 164.401,8.526 164.401,7.526" style="fill:none;stroke-width:0.050000mm;stroke:black"/>
<polygon points="169.451,7.526 169.451,8.526 168.651,8.526 168.651,11.626 169.451,11.626 169.451,17.426 168.651,17.426 168.651,20.526 169.451,20.526 169.451,21.526 183.451,21.526 183.451,20.526 184.251,20.526 184.251,17.426 183.451,17.426 183.451,11.626 184.251,11.626 184.251,8.526 183.451,8.526 183.451,7.526" style="fill:none;stroke-width:0.050000mm;stroke:black"/>
<polygon points="188.501,7.526 188.501,8.526 187.701,8.526 187.701,11.626 188.501,11.626 188.501,17.426 187.701,17.426 187.701,20.526 188.501,20.526 188.501,21.526 202.501,21.526 202.501,20.526 203.301,20.526 203.301,17.426 202.501,17.426 202.501,11.626 203.301,11.626 203.301,8.526 202.501,8.526 202.501,7.526" style="fill:none;stroke-width:0.050000mm;stroke:black"/>
<polygon points="217.076,7.526 217.076,8.526 216.276,8.526 216.276,11.626 217.076,11.626 217.076,17.426 216.276,17.426 216.276,20.526 217.076,20.526 217.076,21.526 231.076,21.526 231.076,20.526 231.876,20.526 231.876,17.426 231.076,17.426 231.076,11.626 231.876,11.626 231.876,8.526 231.076,8.526 231.076,7.526" style="fill:none;stroke-width:0.050000mm;stroke:black"/>
<polygon points="236.126,7.526 236.126,8.526 235.326,8.526 235.326,11.626 236.126,11.626 236.126,17.426 235.326,17.426 235.326,20.526 236.126,20.526 236.126,21.526 250.126,21.526 250.126,20.526 250.926,20.526 250.926,17.426 250.126,17.426 250.126,11.626 250.926,11.626 250.926,8.526 250.126,8.526 250.126,7.526" style="fill:none;stroke-width:0.050000mm;stroke:black"/>
<polygon points="255.176,7.526 255.176,8.526 254.376,8.526 254.376,11.626 255.176,11.626 255.176,17.426 254.376,17.426 254.376,20.526 255.176,20.526 255.176,21.526 269.176,21.526 269.176,20.526 269.976,20.526 269.976,17.426 269.176,17.426 269.176,11.626 269.976,11.626 269.976,8.526 269.176,8.526 269.176,7.526" style="fill:none;stroke-width:0.050000mm;stroke:black"/>
<polygon points="274.226,7.526 274.226,8.526 273.426,8.526 273.426,11.626 274.226,11.626 274.226,17.426 273.426,17.426 273.426,20.526 274.226,20.526 274.226,21.526 288.226,21.526 288.226,20.526 289.026,20.526 289.026,17.426 288.226,17.426 288.226,11.626 289.026,11.626 289.026,8.526 288.226,8.526 288.226,7.526" style="fill:none;stroke-width:0.050000mm;stroke:black"/>
<polygon points="298.038,7.526 298.038,8.526 297.238,8.526 297.238,11.626 298.038,11.626 298.038,17.426 297.238,17.426 297.238,20.526 298.038,20.526 298.038,21.526 312.038,21.526 312.038,20.526 312.838,20.526 312.838,17.426 312.038,17.426 312.038,11.626 312.838,11.626 312.838,8.526 312.038,8.526 312.038,7.526" style="fill:none;stroke-width:0.050000mm;stroke:black"/>
<polygon points="317.088,7.526 317.088,8.526 316.288,8.526 316.288,11.626 317.088,11.626 317.088,17.426 316.288,17.426 316.288,20.526 317.088,20.526 317.088,21.526 331.088,21.526 331.088,20.526 331.888,20.526 331.888,17.426 331.088,17.426 331.088,11.626 331.888,11.626 331.888,8.526 331.088,8.526 331.088,7.526" style="fill:none;stroke-width:0.050000mm;stroke:black"/>
<polygon points="336.138,7.526 336.138,8.526 335.338,8.526 335.338,11.626 336.138,11.626 336.138,17.426 335.338,17.426 335.338,20.526 336.138,20.526 336.138,21.526 350.138,21.526 350.138,20.526 350.938,20.526 350.938,17.426 350.138,17.426 350.138,11.626 350.938,11.626 350.938,8.526 350.138,8.526 350.138,7.526" style="fill:none;stroke-width:0.050000mm;stroke:black"/>
</svg>
