<?xml version="1.0"?>
<!-- Generated by SVGo -->
<svg width="442.777mm" height="152.264mm"
     viewBox="0.000 0.000 442.777 152.264"
     xmlns="http://www.w3.org/2000/svg" 
     xmlns:xlink="http://www.w3.org/1999/xlink">
<polygon points="435.777,5.001 435.933,5.007 436.089,5.025 436.243,5.056 436.395,5.098 436.542,5.153 436.684,5.218 436.821,5.295 436.952,5.382 437.075,5.480 437.191,5.586 437.297,5.702 437.395,5.825 437.482,5.956 437.559,6.093 437.624,6.235 437.679,6.382 437.721,6.534 437.752,6.688 437.770,6.844 437.777,7.001 437.777,145.264 437.770,145.421 437.752,145.577 437.721,145.731 437.679,145.882 437.624,146.029 437.559,146.172 437.482,146.309 437.395,146.440 437.297,146.563 437.191,146.678 437.075,146.785 436.952,146.882 436.821,146.969 436.684,147.046 436.542,147.112 436.395,147.166 436.243,147.209 436.089,147.239 435.933,147.258 435.777,147.264 7.001,147.264 6.844,147.258 6.688,147.239 6.534,147.209 6.382,147.166 6.235,147.112 6.093,147.046 5.956,146.969 5.825,146.882 5.702,146.785 5.586,146.678 5.480,146.563 5.382,146.440 5.295,146.309 5.218,146.172 5.153,146.029 5.098,145.882 5.056,145.731 5.025,145.577 5.007,145.421 5.000,145.264 5.001,7.001 5.007,6.844 5.025,6.688 5.056,6.534 5.098,6.382 5.153,6.235 5.218,6.093 5.295,5.956 5.382,5.825 5.480,5.702 5.586,5.586 5.702,5.480 5.825,5.382 5.956,5.295 6.093,5.218 6.235,5.153 6.382,5.098 6.534,5.056 6.688,5.025 6.844,5.007 7.001,5.000" style="fill:none;stroke-width:0.050000mm;stroke:black"/>
<polygon points="154.932,128.738 154.932,129.738 154.132,129.738 154.132,132.688 154.932,132.688 154.932,133.438 115.157,133.438 115.157,130.208 108.557,130.208 108.557,133.438 107.732,133.438 107.732,136.088 108.557,136.088 108.557,142.358 110.282,142.358 110.282,143.558 113.432,143.558 113.432,142.358 115.157,142.358 115.157,137.888 154.932,137.888 154.932,138.638 154.132,138.638 154.132,141.588 154.932,141.588 154.932,142.588 168.782,142.588 168.782,141.588 169.582,141.588 169.582,138.638 168.782,138.638 168.782,137.888 208.557,137.888 208.557,142.358 210.282,142.358 210.282,143.558 213.432,143.558 213.432,142.358 215.157,142.358 215.157,136.088 215.982,136.088 215.982,133.438 215.157,133.438 215.157,130.208 208.557,130.208 208.557,133.438 168.782,133.438 168.782,132.688 169.582,132.688 169.582,129.738 168.782,129.738 168.782,128.738" style="fill:none;stroke-width:0.050000mm;stroke:black"/>
<polygon points="371.626,128.738 371.626,129.738 370.826,129.738 370.826,132.688 371.626,132.688 371.626,133.438 369.951,133.438 369.951,130.208 363.351,130.208 363.351,133.438 362.526,133.438 362.526,136.088 363.351,136.088 363.351,142.358 365.076,142.358 365.076,143.558 368.226,143.558 368.226,142.358 369.951,142.358 369.951,137.888 371.626,137.888 371.626,138.638 370.826,138.638 370.826,141.588 371.626,141.588 371.626,142.588 385.476,142.588 385.476,141.588 386.276,141.588 386.276,138.638 385.476,138.638 385.476,137.888 387.151,137.888 387.151,142.358 388.876,142.358 388.876,143.558 392.026,143.558 392.026,142.358 393.751,142.358 393.751,136.088 394.576,136.088 394.576,133.438 393.751,133.438 393.751,130.208 387.151,130.208 387.151,133.438 385.476,133.438 385.476,132.688 386.276,132.688 386.276,129.738 385.476,129.738 385.476,128.738" style="fill:none;stroke-width:0.050000mm;stroke:black"/>
<polygon points="12.057,128.738 12.057,129.738 11.257,129.738 11.257,132.688 12.057,132.688 12.057,138.638 11.257,138.638 11.257,141.588 12.057,141.588 12.057,142.588 25.907,142.588 25.907,141.588 26.707,141.588 26.707,138.638 25.907,138.638 25.907,132.688 26.707,132.688 26.707,129.738 25.907,129.738 25.907,128.738" style="fill:none;stroke-width:0.050000mm;stroke:black"/>
<polygon points="35.869,128.738 35.869,129.738 35.069,129.738 35.069,132.688 35.869,132.688 35.869,138.638 35.069,138.638 35.069,141.588 35.869,141.588 35.869,142.588 49.719,142.588 49.719,141.588 50.519,141.588 50.519,138.638 49.719,138.638 49.719,132.688 50.519,132.688 50.519,129.738 49.719,129.738 49.719,128.738" style="fill:none;stroke-width:0.050000mm;stroke:black"/>
<polygon points="59.682,128.738 59.682,129.738 58.882,129.738 58.882,132.688 59.682,132.688 59.682,138.638 58.882,138.638 58.882,141.588 59.682,141.588 59.682,142.588 73.532,142.588 73.532,141.588 74.332,141.588 74.332,138.638 73.532,138.638 73.532,132.688 74.332,132.688 74.332,129.738 73.532,129.738 73.532,128.738" style="fill:none;stroke-width:0.050000mm;stroke:black"/>
<polygon points="83.494,128.738 83.494,129.738 82.694,129.738 82.694,132.688 83.494,132.688 83.494,138.638 82.694,138.638 82.694,141.588 83.494,141.588 83.494,142.588 97.344,142.588 97.344,141.588 98.144,141.588 98.144,138.638 97.344,138.638 97.344,132.688 98.144,132.688 98.144,129.738 97.344,129.738 97.344,128.738" style="fill:none;stroke-width:0.050000mm;stroke:black"/>
<polygon points="226.369,128.738 226.369,129.738 225.569,129.738 225.569,132.688 226.369,132.688 226.369,138.638 225.569,138.638 225.569,141.588 226.369,141.588 226.369,142.588 240.219,142.588 240.219,141.588 241.019,141.588 241.019,138.638 240.219,138.638 240.219,132.688 241.019,132.688 241.019,129.738 240.219,129.738 240.219,128.738" style="fill:none;stroke-width:0.050000mm;stroke:black"/>
<polygon points="250.182,128.738 250.182,129.738 249.382,129.738 249.382,132.688 250.182,132.688 250.182,138.638 249.382,138.638 249.382,141.588 250.182,141.588 250.182,142.588 264.032,142.588 264.032,141.588 264.832,141.588 264.832,138.638 264.032,138.638 264.032,132.688 264.832,132.688 264.832,129.738 264.032,129.738 264.032,128.738" style="fill:none;stroke-width:0.050000mm;stroke:black"/>
<polygon points="273.994,128.738 273.994,129.738 273.194,129.738 273.194,132.688 273.994,132.688 273.994,138.638 273.194,138.638 273.194,141.588 273.994,141.588 273.994,142.588 287.844,142.588 287.844,141.588 288.644,141.588 288.644,138.638 287.844,138.638 287.844,132.688 288.644,132.688 288.644,129.738 287.844,129.738 287.844,128.738" style="fill:none;stroke-width:0.050000mm;stroke:black"/>
<polygon points="300.188,128.738 300.188,129.738 299.388,129.738 299.388,132.688 300.188,132.688 300.188,138.638 299.388,138.638 299.388,141.588 300.188,141.588 300.188,142.588 314.038,142.588 314.038,141.588 314.838,141.588 314.838,138.638 314.038,138.638 314.038,132.688 314.838,132.688 314.838,129.738 314.038,129.738 314.038,128.738" style="fill:none;stroke-width:0.050000mm;stroke:black"/>
<polygon points="319.238,128.738 319.238,129.738 318.438,129.738 318.438,132.688 319.238,132.688 319.238,138.638 318.438,138.638 318.438,141.588 319.238,141.588 319.238,142.588 333.088,142.588 333.088,141.588 333.888,141.588 333.888,138.638 333.088,138.638 333.088,132.688 333.888,132.688 333.888,129.738 333.088,129.738 333.088,128.738" style="fill:none;stroke-width:0.050000mm;stroke:black"/>
<polygon points="338.288,128.738 338.288,129.738 337.488,129.738 337.488,132.688 338.288,132.688 338.288,138.638 337.488,138.638 337.488,141.588 338.288,141.588 338.288,142.588 352.138,142.588 352.138,141.588 352.938,141.588 352.938,138.638 352.138,138.638 352.138,132.688 352.938,132.688 352.938,129.738 352.138,129.738 352.138,128.738" style="fill:none;stroke-width:0.050000mm;stroke:black"/>
<polygon points="400.201,128.738 400.201,129.738 399.401,129.738 399.401,132.688 400.201,132.688 400.201,138.638 399.401,138.638 399.401,141.588 400.201,141.588 400.201,142.588 414.051,142.588 414.051,141.588 414.851,141.588 414.851,138.638 414.051,138.638 414.051,132.688 414.851,132.688 414.851,129.738 414.051,129.738 414.051,128.738" style="fill:none;stroke-width:0.050000mm;stroke:black"/>
<polygon points="425.751,110.113 425.751,110.938 419.481,110.938 419.481,112.663 418.281,112.663 418.281,115.813 419.481,115.813 419.481,117.538 423.951,117.538 423.951,119.213 423.201,119.213 423.201,118.413 420.251,118.413 420.251,119.213 419.251,119.213 419.251,133.063 420.251,133.063 420.251,133.863 423.201,133.863 423.201,133.063 423.951,133.063 423.951,134.738 419.481,134.738 419.481,136.463 418.281,136.463 418.281,139.613 419.481,139.613 419.481,141.338 425.751,141.338 425.751,142.163 428.401,142.163 428.401,141.338 431.631,141.338 431.631,134.738 428.401,134.738 428.401,133.063 429.151,133.063 429.151,133.863 432.101,133.863 432.101,133.063 433.101,133.063 433.101,119.213 432.101,119.213 432.101,118.413 429.151,118.413 429.151,119.213 428.401,119.213 428.401,117.538 431.631,117.538 431.631,110.938 428.401,110.938 428.401,110.113" style="fill:none;stroke-width:0.050000mm;stroke:black"/>
<polygon points="21.582,109.688 21.582,110.688 20.782,110.688 20.782,113.638 21.582,113.638 21.582,114.388 19.907,114.388 19.907,111.158 13.307,111.158 13.307,114.388 12.482,114.388 12.482,117.038 13.307,117.038 13.307,123.308 15.032,123.308 15.032,124.508 18.182,124.508 18.182,123.308 19.907,123.308 19.907,118.838 21.582,118.838 21.582,119.588 20.782,119.588 20.782,122.538 21.582,122.538 21.582,123.538 35.432,123.538 35.432,122.538 36.232,122.538 36.232,119.588 35.432,119.588 35.432,118.838 37.107,118.838 37.107,123.308 38.832,123.308 38.832,124.508 41.982,124.508 41.982,123.308 43.707,123.308 43.707,117.038 44.532,117.038 44.532,114.388 43.707,114.388 43.707,111.158 37.107,111.158 37.107,114.388 35.432,114.388 35.432,113.638 36.232,113.638 36.232,110.688 35.432,110.688 35.432,109.688" style="fill:none;stroke-width:0.050000mm;stroke:black"/>
<polygon points="259.707,109.688 259.707,110.688 258.907,110.688 258.907,113.638 259.707,113.638 259.707,114.388 258.032,114.388 258.032,111.158 251.432,111.158 251.432,114.388 250.607,114.388 250.607,117.038 251.432,117.038 251.432,123.308 253.157,123.308 253.157,124.508 256.306,124.508 256.306,123.308 258.032,123.308 258.032,118.838 259.707,118.838 259.707,119.588 258.907,119.588 258.907,122.538 259.707,122.538 259.707,123.538 273.557,123.538 273.557,122.538 274.357,122.538 274.357,119.588 273.557,119.588 273.557,118.838 275.232,118.838 275.232,123.308 276.957,123.308 276.957,124.508 280.107,124.508 280.107,123.308 281.832,123.308 281.832,117.038 282.657,117.038 282.657,114.388 281.832,114.388 281.832,111.158 275.232,111.158 275.232,114.388 273.557,114.388 273.557,113.638 274.357,113.638 274.357,110.688 273.557,110.688 273.557,109.688" style="fill:none;stroke-width:0.050000mm;stroke:black"/>
<polygon points="52.538,109.688 52.538,110.688 51.738,110.688 51.738,113.638 52.538,113.638 52.538,119.588 51.738,119.588 51.738,122.538 52.538,122.538 52.538,123.538 66.388,123.538 66.388,122.538 67.188,122.538 67.188,119.588 66.388,119.588 66.388,113.638 67.188,113.638 67.188,110.688 66.388,110.688 66.388,109.688" style="fill:none;stroke-width:0.050000mm;stroke:black"/>
<polygon points="71.588,109.688 71.588,110.688 70.788,110.688 70.788,113.638 71.588,113.638 71.588,119.588 70.788,119.588 70.788,122.538 71.588,122.538 71.588,123.538 85.438,123.538 85.438,122.538 86.238,122.538 86.238,119.588 85.438,119.588 85.438,113.638 86.238,113.638 86.238,110.688 85.438,110.688 85.438,109.688" style="fill:none;stroke-width:0.050000mm;stroke:black"/>
<polygon points="90.638,109.688 90.638,110.688 89.838,110.688 89.838,113.638 90.638,113.638 90.638,119.588 89.838,119.588 89.838,122.538 90.638,122.538 90.638,123.538 104.488,123.538 104.488,122.538 105.288,122.538 105.288,119.588 104.488,119.588 104.488,113.638 105.288,113.638 105.288,110.688 104.488,110.688 104.488,109.688" style="fill:none;stroke-width:0.050000mm;stroke:black"/>
<polygon points="109.688,109.688 109.688,110.688 108.888,110.688 108.888,113.638 109.688,113.638 109.688,119.588 108.888,119.588 108.888,122.538 109.688,122.538 109.688,123.538 123.538,123.538 123.538,122.538 124.338,122.538 124.338,119.588 123.538,119.588 123.538,113.638 124.338,113.638 124.338,110.688 123.538,110.688 123.538,109.688" style="fill:none;stroke-width:0.050000mm;stroke:black"/>
<polygon points="128.738,109.688 128.738,110.688 127.938,110.688 127.938,113.638 128.738,113.638 128.738,119.588 127.938,119.588 127.938,122.538 128.738,122.538 128.738,123.538 142.588,123.538 142.588,122.538 143.388,122.538 143.388,119.588 142.588,119.588 142.588,113.638 143.388,113.638 143.388,110.688 142.588,110.688 142.588,109.688" style="fill:none;stroke-width:0.050000mm;stroke:black"/>
<polygon points="147.788,109.688 147.788,110.688 146.988,110.688 146.988,113.638 147.788,113.638 147.788,119.588 146.988,119.588 146.988,122.538 147.788,122.538 147.788,123.538 161.638,123.538 161.638,122.538 162.438,122.538 162.438,119.588 161.638,119.588 161.638,113.638 162.438,113.638 162.438,110.688 161.638,110.688 161.638,109.688" style="fill:none;stroke-width:0.050000mm;stroke:black"/>
<polygon points="166.838,109.688 166.838,110.688 166.038,110.688 166.038,113.638 166.838,113.638 166.838,119.588 166.038,119.588 166.038,122.538 166.838,122.538 166.838,123.538 180.688,123.538 180.688,122.538 181.488,122.538 181.488,119.588 180.688,119.588 180.688,113.638 181.488,113.638 181.488,110.688 180.688,110.688 180.688,109.688" style="fill:none;stroke-width:0.050000mm;stroke:black"/>
<polygon points="185.888,109.688 185.888,110.688 185.088,110.688 185.088,113.638 185.888,113.638 185.888,119.588 185.088,119.588 185.088,122.538 185.888,122.538 185.888,123.538 199.738,123.538 199.738,122.538 200.538,122.538 200.538,119.588 199.738,119.588 199.738,113.638 200.538,113.638 200.538,110.688 199.738,110.688 199.738,109.688" style="fill:none;stroke-width:0.050000mm;stroke:black"/>
<polygon points="204.938,109.688 204.938,110.688 204.138,110.688 204.138,113.638 204.938,113.638 204.938,119.588 204.138,119.588 204.138,122.538 204.938,122.538 204.938,123.538 218.788,123.538 218.788,122.538 219.588,122.538 219.588,119.588 218.788,119.588 218.788,113.638 219.588,113.638 219.588,110.688 218.788,110.688 218.788,109.688" style="fill:none;stroke-width:0.050000mm;stroke:black"/>
<polygon points="223.988,109.688 223.988,110.688 223.188,110.688 223.188,113.638 223.988,113.638 223.988,119.588 223.188,119.588 223.188,122.538 223.988,122.538 223.988,123.538 237.838,123.538 237.838,122.538 238.638,122.538 238.638,119.588 237.838,119.588 237.838,113.638 238.638,113.638 238.638,110.688 237.838,110.688 237.838,109.688" style="fill:none;stroke-width:0.050000mm;stroke:black"/>
<polygon points="319.238,109.688 319.238,110.688 318.438,110.688 318.438,113.638 319.238,113.638 319.238,119.588 318.438,119.588 318.438,122.538 319.238,122.538 319.238,123.538 333.088,123.538 333.088,122.538 333.888,122.538 333.888,119.588 333.088,119.588 333.088,113.638 333.888,113.638 333.888,110.688 333.088,110.688 333.088,109.688" style="fill:none;stroke-width:0.050000mm;stroke:black"/>
<polygon points="362.101,109.688 362.101,110.688 361.301,110.688 361.301,113.638 362.101,113.638 362.101,119.588 361.301,119.588 361.301,122.538 362.101,122.538 362.101,123.538 375.951,123.538 375.951,122.538 376.751,122.538 376.751,119.588 375.951,119.588 375.951,113.638 376.751,113.638 376.751,110.688 375.951,110.688 375.951,109.688" style="fill:none;stroke-width:0.050000mm;stroke:black"/>
<polygon points="381.151,109.688 381.151,110.688 380.351,110.688 380.351,113.638 381.151,113.638 381.151,119.588 380.351,119.588 380.351,122.538 381.151,122.538 381.151,123.538 395.001,123.538 395.001,122.538 395.801,122.538 395.801,119.588 395.001,119.588 395.001,113.638 395.801,113.638 395.801,110.688 395.001,110.688 395.001,109.688" style="fill:none;stroke-width:0.050000mm;stroke:black"/>
<polygon points="400.201,109.688 400.201,110.688 399.401,110.688 399.401,113.638 400.201,113.638 400.201,119.588 399.401,119.588 399.401,122.538 400.201,122.538 400.201,123.538 414.051,123.538 414.051,122.538 414.851,122.538 414.851,119.588 414.051,119.588 414.051,113.638 414.851,113.638 414.851,110.688 414.051,110.688 414.051,109.688" style="fill:none;stroke-width:0.050000mm;stroke:black"/>
<polygon points="264.469,90.638 264.469,91.638 263.669,91.638 263.669,94.588 264.469,94.588 264.469,95.338 262.794,95.338 262.794,92.108 256.193,92.108 256.193,95.338 255.369,95.338 255.369,97.988 256.193,97.988 256.193,104.258 257.919,104.258 257.919,105.458 261.068,105.458 261.068,104.258 262.794,104.258 262.794,99.788 264.469,99.788 264.469,100.538 263.669,100.538 263.669,103.488 264.469,103.488 264.469,104.488 278.319,104.488 278.319,103.488 279.119,103.488 279.119,100.538 278.319,100.538 278.319,99.788 279.994,99.788 279.994,104.258 281.719,104.258 281.719,105.458 284.869,105.458 284.869,104.258 286.594,104.258 286.594,97.988 287.419,97.988 287.419,95.338 286.594,95.338 286.594,92.108 279.994,92.108 279.994,95.338 278.319,95.338 278.319,94.588 279.119,94.588 279.119,91.638 278.319,91.638 278.319,90.638" style="fill:none;stroke-width:0.050000mm;stroke:black"/>
<polygon points="16.819,90.638 16.819,91.638 16.019,91.638 16.019,94.588 16.819,94.588 16.819,100.538 16.019,100.538 16.019,103.488 16.819,103.488 16.819,104.488 30.669,104.488 30.669,103.488 31.469,103.488 31.469,100.538 30.669,100.538 30.669,94.588 31.469,94.588 31.469,91.638 30.669,91.638 30.669,90.638" style="fill:none;stroke-width:0.050000mm;stroke:black"/>
<polygon points="43.013,90.638 43.013,91.638 42.213,91.638 42.213,94.588 43.013,94.588 43.013,100.538 42.213,100.538 42.213,103.488 43.013,103.488 43.013,104.488 56.863,104.488 56.863,103.488 57.663,103.488 57.663,100.538 56.863,100.538 56.863,94.588 57.663,94.588 57.663,91.638 56.863,91.638 56.863,90.638" style="fill:none;stroke-width:0.050000mm;stroke:black"/>
<polygon points="62.063,90.638 62.063,91.638 61.263,91.638 61.263,94.588 62.063,94.588 62.063,100.538 61.263,100.538 61.263,103.488 62.063,103.488 62.063,104.488 75.913,104.488 75.913,103.488 76.713,103.488 76.713,100.538 75.913,100.538 75.913,94.588 76.713,94.588 76.713,91.638 75.913,91.638 75.913,90.638" style="fill:none;stroke-width:0.050000mm;stroke:black"/>
<polygon points="81.113,90.638 81.113,91.638 80.313,91.638 80.313,94.588 81.113,94.588 81.113,100.538 80.313,100.538 80.313,103.488 81.113,103.488 81.113,104.488 94.963,104.488 94.963,103.488 95.763,103.488 95.763,100.538 94.963,100.538 94.963,94.588 95.763,94.588 95.763,91.638 94.963,91.638 94.963,90.638" style="fill:none;stroke-width:0.050000mm;stroke:black"/>
<polygon points="100.163,90.638 100.163,91.638 99.363,91.638 99.363,94.588 100.163,94.588 100.163,100.538 99.363,100.538 99.363,103.488 100.163,103.488 100.163,104.488 114.013,104.488 114.013,103.488 114.813,103.488 114.813,100.538 114.013,100.538 114.013,94.588 114.813,94.588 114.813,91.638 114.013,91.638 114.013,90.638" style="fill:none;stroke-width:0.050000mm;stroke:black"/>
<polygon points="119.213,90.638 119.213,91.638 118.413,91.638 118.413,94.588 119.213,94.588 119.213,100.538 118.413,100.538 118.413,103.488 119.213,103.488 119.213,104.488 133.063,104.488 133.063,103.488 133.863,103.488 133.863,100.538 133.063,100.538 133.063,94.588 133.863,94.588 133.863,91.638 133.063,91.638 133.063,90.638" style="fill:none;stroke-width:0.050000mm;stroke:black"/>
<polygon points="138.263,90.638 138.263,91.638 137.463,91.638 137.463,94.588 138.263,94.588 138.263,100.538 137.463,100.538 137.463,103.488 138.263,103.488 138.263,104.488 152.113,104.488 152.113,103.488 152.913,103.488 152.913,100.538 152.113,100.538 152.113,94.588 152.913,94.588 152.913,91.638 152.113,91.638 152.113,90.638" style="fill:none;stroke-width:0.050000mm;stroke:black"/>
<polygon points="157.313,90.638 157.313,91.638 156.513,91.638 156.513,94.588 157.313,94.588 157.313,100.538 156.513,100.538 156.513,103.488 157.313,103.488 157.313,104.488 171.163,104.488 171.163,103.488 171.963,103.488 171.963,100.538 171.163,100.538 171.163,94.588 171.963,94.588 171.963,91.638 171.163,91.638 171.163,90.638" style="fill:none;stroke-width:0.050000mm;stroke:black"/>
<polygon points="176.363,90.638 176.363,91.638 175.563,91.638 175.563,94.588 176.363,94.588 176.363,100.538 175.563,100.538 175.563,103.488 176.363,103.488 176.363,104.488 190.213,104.488 190.213,103.488 191.013,103.488 191.013,100.538 190.213,100.538 190.213,94.588 191.013,94.588 191.013,91.638 190.213,91.638 190.213,90.638" style="fill:none;stroke-width:0.050000mm;stroke:black"/>
<polygon points="195.413,90.638 195.413,91.638 194.613,91.638 194.613,94.588 195.413,94.588 195.413,100.538 194.613,100.538 194.613,103.488 195.413,103.488 195.413,104.488 209.263,104.488 209.263,103.488 210.063,103.488 210.063,100.538 209.263,100.538 209.263,94.588 210.063,94.588 210.063,91.638 209.263,91.638 209.263,90.638" style="fill:none;stroke-width:0.050000mm;stroke:black"/>
<polygon points="214.463,90.638 214.463,91.638 213.663,91.638 213.663,94.588 214.463,94.588 214.463,100.538 213.663,100.538 213.663,103.488 214.463,103.488 214.463,104.488 228.313,104.488 228.313,103.488 229.113,103.488 229.113,100.538 228.313,100.538 228.313,94.588 229.113,94.588 229.113,91.638 228.313,91.638 228.313,90.638" style="fill:none;stroke-width:0.050000mm;stroke:black"/>
<polygon points="233.513,90.638 233.513,91.638 232.713,91.638 232.713,94.588 233.513,94.588 233.513,100.538 232.713,100.538 232.713,103.488 233.513,103.488 233.513,104.488 247.363,104.488 247.363,103.488 248.163,103.488 248.163,100.538 247.363,100.538 247.363,94.588 248.163,94.588 248.163,91.638 247.363,91.638 247.363,90.638" style="fill:none;stroke-width:0.050000mm;stroke:black"/>
<polygon points="362.101,90.638 362.101,91.638 361.301,91.638 361.301,94.588 362.101,94.588 362.101,100.538 361.301,100.538 361.301,103.488 362.101,103.488 362.101,104.488 375.951,104.488 375.951,103.488 376.751,103.488 376.751,100.538 375.951,100.538 375.951,94.588 376.751,94.588 376.751,91.638 375.951,91.638 375.951,90.638" style="fill:none;stroke-width:0.050000mm;stroke:black"/>
<polygon points="381.151,90.638 381.151,91.638 380.351,91.638 380.351,94.588 381.151,94.588 381.151,100.538 380.351,100.538 380.351,103.488 381.151,103.488 381.151,104.488 395.001,104.488 395.001,103.488 395.801,103.488 395.801,100.538 395.001,100.538 395.001,94.588 395.801,94.588 395.801,91.638 395.001,91.638 395.001,90.638" style="fill:none;stroke-width:0.050000mm;stroke:black"/>
<polygon points="400.201,90.638 400.201,91.638 399.401,91.638 399.401,94.588 400.201,94.588 400.201,100.538 399.401,100.538 399.401,103.488 400.201,103.488 400.201,104.488 414.051,104.488 414.051,103.488 414.851,103.488 414.851,100.538 414.051,100.538 414.051,94.588 414.851,94.588 414.851,91.638 414.051,91.638 414.051,90.638" style="fill:none;stroke-width:0.050000mm;stroke:black"/>
<polygon points="425.751,72.013 425.751,72.838 419.481,72.838 419.481,74.563 418.281,74.563 418.281,77.713 419.481,77.713 419.481,79.438 423.951,79.438 423.951,81.113 423.201,81.113 423.201,80.313 420.251,80.313 420.251,81.113 419.251,81.113 419.251,94.963 420.251,94.963 420.251,95.763 423.201,95.763 423.201,94.963 423.951,94.963 423.951,96.638 419.481,96.638 419.481,98.363 418.281,98.363 418.281,101.513 419.481,101.513 419.481,103.238 425.751,103.238 425.751,104.063 428.401,104.063 428.401,103.238 431.631,103.238 431.631,96.638 428.401,96.638 428.401,94.963 429.151,94.963 429.151,95.763 432.101,95.763 432.101,94.963 433.101,94.963 433.101,81.113 432.101,81.113 432.101,80.313 429.151,80.313 429.151,81.113 428.401,81.113 428.401,79.438 431.631,79.438 431.631,72.838 428.401,72.838 428.401,72.013" style="fill:none;stroke-width:0.050000mm;stroke:black"/>
<polygon points="14.438,71.588 14.438,72.588 13.638,72.588 13.638,75.538 14.438,75.538 14.438,81.488 13.638,81.488 13.638,84.438 14.438,84.438 14.438,85.438 28.288,85.438 28.288,84.438 29.088,84.438 29.088,81.488 28.288,81.488 28.288,75.538 29.088,75.538 29.088,72.588 28.288,72.588 28.288,71.588" style="fill:none;stroke-width:0.050000mm;stroke:black"/>
<polygon points="38.251,71.588 38.251,72.588 37.450,72.588 37.450,75.538 38.251,75.538 38.251,81.488 37.450,81.488 37.450,84.438 38.251,84.438 38.251,85.438 52.100,85.438 52.100,84.438 52.901,84.438 52.901,81.488 52.100,81.488 52.100,75.538 52.901,75.538 52.901,72.588 52.100,72.588 52.100,71.588" style="fill:none;stroke-width:0.050000mm;stroke:black"/>
<polygon points="57.301,71.588 57.301,72.588 56.500,72.588 56.500,75.538 57.301,75.538 57.301,81.488 56.500,81.488 56.500,84.438 57.301,84.438 57.301,85.438 71.150,85.438 71.150,84.438 71.950,84.438 71.950,81.488 71.150,81.488 71.150,75.538 71.950,75.538 71.950,72.588 71.150,72.588 71.150,71.588" style="fill:none;stroke-width:0.050000mm;stroke:black"/>
<polygon points="76.351,71.588 76.351,72.588 75.551,72.588 75.551,75.538 76.351,75.538 76.351,81.488 75.551,81.488 75.551,84.438 76.351,84.438 76.351,85.438 90.200,85.438 90.200,84.438 91.000,84.438 91.000,81.488 90.200,81.488 90.200,75.538 91.000,75.538 91.000,72.588 90.200,72.588 90.200,71.588" style="fill:none;stroke-width:0.050000mm;stroke:black"/>
<polygon points="95.400,71.588 95.400,72.588 94.601,72.588 94.601,75.538 95.400,75.538 95.400,81.488 94.601,81.488 94.601,84.438 95.400,84.438 95.400,85.438 109.250,85.438 109.250,84.438 110.050,84.438 110.050,81.488 109.250,81.488 109.250,75.538 110.050,75.538 110.050,72.588 109.250,72.588 109.250,71.588" style="fill:none;stroke-width:0.050000mm;stroke:black"/>
<polygon points="114.450,71.588 114.450,72.588 113.650,72.588 113.650,75.538 114.450,75.538 114.450,81.488 113.650,81.488 113.650,84.438 114.450,84.438 114.450,85.438 128.300,85.438 128.300,84.438 129.101,84.438 129.101,81.488 128.300,81.488 128.300,75.538 129.101,75.538 129.101,72.588 128.300,72.588 128.300,71.588" style="fill:none;stroke-width:0.050000mm;stroke:black"/>
<polygon points="133.500,71.588 133.500,72.588 132.701,72.588 132.701,75.538 133.500,75.538 133.500,81.488 132.701,81.488 132.701,84.438 133.500,84.438 133.500,85.438 147.351,85.438 147.351,84.438 148.150,84.438 148.150,81.488 147.351,81.488 147.351,75.538 148.150,75.538 148.150,72.588 147.351,72.588 147.351,71.588" style="fill:none;stroke-width:0.050000mm;stroke:black"/>
<polygon points="152.550,71.588 152.550,72.588 151.751,72.588 151.751,75.538 152.550,75.538 152.550,81.488 151.751,81.488 151.751,84.438 152.550,84.438 152.550,85.438 166.401,85.438 166.401,84.438 167.201,84.438 167.201,81.488 166.401,81.488 166.401,75.538 167.201,75.538 167.201,72.588 166.401,72.588 166.401,71.588" style="fill:none;stroke-width:0.050000mm;stroke:black"/>
<polygon points="171.601,71.588 171.601,72.588 170.801,72.588 170.801,75.538 171.601,75.538 171.601,81.488 170.801,81.488 170.801,84.438 171.601,84.438 171.601,85.438 185.451,85.438 185.451,84.438 186.251,84.438 186.251,81.488 185.451,81.488 185.451,75.538 186.251,75.538 186.251,72.588 185.451,72.588 185.451,71.588" style="fill:none;stroke-width:0.050000mm;stroke:black"/>
<polygon points="190.651,71.588 190.651,72.588 189.851,72.588 189.851,75.538 190.651,75.538 190.651,81.488 189.851,81.488 189.851,84.438 190.651,84.438 190.651,85.438 204.501,85.438 204.501,84.438 205.301,84.438 205.301,81.488 204.501,81.488 204.501,75.538 205.301,75.538 205.301,72.588 204.501,72.588 204.501,71.588" style="fill:none;stroke-width:0.050000mm;stroke:black"/>
<polygon points="209.701,71.588 209.701,72.588 208.901,72.588 208.901,75.538 209.701,75.538 209.701,81.488 208.901,81.488 208.901,84.438 209.701,84.438 209.701,85.438 223.551,85.438 223.551,84.438 224.351,84.438 224.351,81.488 223.551,81.488 223.551,75.538 224.351,75.538 224.351,72.588 223.551,72.588 223.551,71.588" style="fill:none;stroke-width:0.050000mm;stroke:black"/>
<polygon points="228.751,71.588 228.751,72.588 227.951,72.588 227.951,75.538 228.751,75.538 228.751,81.488 227.951,81.488 227.951,84.438 228.751,84.438 228.751,85.438 242.601,85.438 242.601,84.438 243.401,84.438 243.401,81.488 242.601,81.488 242.601,75.538 243.401,75.538 243.401,72.588 242.601,72.588 242.601,71.588" style="fill:none;stroke-width:0.050000mm;stroke:black"/>
<polygon points="247.801,71.588 247.801,72.588 247.001,72.588 247.001,75.538 247.801,75.538 247.801,81.488 247.001,81.488 247.001,84.438 247.801,84.438 247.801,85.438 261.650,85.438 261.650,84.438 262.451,84.438 262.451,81.488 261.650,81.488 261.650,75.538 262.451,75.538 262.451,72.588 261.650,72.588 261.650,71.588" style="fill:none;stroke-width:0.050000mm;stroke:black"/>
<polygon points="271.613,71.588 271.613,72.588 270.813,72.588 270.813,75.538 271.613,75.538 271.613,81.488 270.813,81.488 270.813,84.438 271.613,84.438 271.613,85.438 285.463,85.438 285.463,84.438 286.263,84.438 286.263,81.488 285.463,81.488 285.463,75.538 286.263,75.538 286.263,72.588 285.463,72.588 285.463,71.588" style="fill:none;stroke-width:0.050000mm;stroke:black"/>
<polygon points="362.101,71.588 362.101,72.588 361.301,72.588 361.301,75.538 362.101,75.538 362.101,81.488 361.301,81.488 361.301,84.438 362.101,84.438 362.101,85.438 375.951,85.438 375.951,84.438 376.751,84.438 376.751,81.488 375.951,81.488 375.951,75.538 376.751,75.538 376.751,72.588 375.951,72.588 375.951,71.588" style="fill:none;stroke-width:0.050000mm;stroke:black"/>
<polygon points="381.151,71.588 381.151,72.588 380.351,72.588 380.351,75.538 381.151,75.538 381.151,81.488 380.351,81.488 380.351,84.438 381.151,84.438 381.151,85.438 395.001,85.438 395.001,84.438 395.801,84.438 395.801,81.488 395.001,81.488 395.001,75.538 395.801,75.538 395.801,72.588 395.001,72.588 395.001,71.588" style="fill:none;stroke-width:0.050000mm;stroke:black"/>
<polygon points="400.201,71.588 400.201,72.588 399.401,72.588 399.401,75.538 400.201,75.538 400.201,81.488 399.401,81.488 399.401,84.438 400.201,84.438 400.201,85.438 414.051,85.438 414.051,84.438 414.851,84.438 414.851,81.488 414.051,81.488 414.051,75.538 414.851,75.538 414.851,72.588 414.051,72.588 414.051,71.588" style="fill:none;stroke-width:0.050000mm;stroke:black"/>
<polygon points="266.851,52.538 266.851,53.538 266.051,53.538 266.051,56.488 266.851,56.488 266.851,57.238 265.176,57.238 265.176,54.008 258.576,54.008 258.576,57.238 257.751,57.238 257.751,59.888 258.576,59.888 258.576,66.158 260.301,66.158 260.301,67.358 263.451,67.358 263.451,66.158 265.176,66.158 265.176,61.688 266.851,61.688 266.851,62.438 266.051,62.438 266.051,65.388 266.851,65.388 266.851,66.388 280.701,66.388 280.701,65.388 281.501,65.388 281.501,62.438 280.701,62.438 280.701,61.688 282.376,61.688 282.376,66.158 284.101,66.158 284.101,67.358 287.251,67.358 287.251,66.158 288.976,66.158 288.976,59.888 289.801,59.888 289.801,57.238 288.976,57.238 288.976,54.008 282.376,54.008 282.376,57.238 280.701,57.238 280.701,56.488 281.501,56.488 281.501,53.538 280.701,53.538 280.701,52.538" style="fill:none;stroke-width:0.050000mm;stroke:black"/>
<polygon points="9.676,52.538 9.676,53.538 8.876,53.538 8.876,56.488 9.676,56.488 9.676,62.438 8.876,62.438 8.876,65.388 9.676,65.388 9.676,66.388 23.526,66.388 23.526,65.388 24.326,65.388 24.326,62.438 23.526,62.438 23.526,56.488 24.326,56.488 24.326,53.538 23.526,53.538 23.526,52.538" style="fill:none;stroke-width:0.050000mm;stroke:black"/>
<polygon points="28.726,52.538 28.726,53.538 27.926,53.538 27.926,56.488 28.726,56.488 28.726,62.438 27.926,62.438 27.926,65.388 28.726,65.388 28.726,66.388 42.576,66.388 42.576,65.388 43.376,65.388 43.376,62.438 42.576,62.438 42.576,56.488 43.376,56.488 43.376,53.538 42.576,53.538 42.576,52.538" style="fill:none;stroke-width:0.050000mm;stroke:black"/>
<polygon points="47.776,52.538 47.776,53.538 46.976,53.538 46.976,56.488 47.776,56.488 47.776,62.438 46.976,62.438 46.976,65.388 47.776,65.388 47.776,66.388 61.626,66.388 61.626,65.388 62.426,65.388 62.426,62.438 61.626,62.438 61.626,56.488 62.426,56.488 62.426,53.538 61.626,53.538 61.626,52.538" style="fill:none;stroke-width:0.050000mm;stroke:black"/>
<polygon points="66.826,52.538 66.826,53.538 66.026,53.538 66.026,56.488 66.826,56.488 66.826,62.438 66.026,62.438 66.026,65.388 66.826,65.388 66.826,66.388 80.676,66.388 80.676,65.388 81.476,65.388 81.476,62.438 80.676,62.438 80.676,56.488 81.476,56.488 81.476,53.538 80.676,53.538 80.676,52.538" style="fill:none;stroke-width:0.050000mm;stroke:black"/>
<polygon points="85.876,52.538 85.876,53.538 85.076,53.538 85.076,56.488 85.876,56.488 85.876,62.438 85.076,62.438 85.076,65.388 85.876,65.388 85.876,66.388 99.726,66.388 99.726,65.388 100.525,65.388 100.525,62.438 99.726,62.438 99.726,56.488 100.525,56.488 100.525,53.538 99.726,53.538 99.726,52.538" style="fill:none;stroke-width:0.050000mm;stroke:black"/>
<polygon points="104.926,52.538 104.926,53.538 104.126,53.538 104.126,56.488 104.926,56.488 104.926,62.438 104.126,62.438 104.126,65.388 104.926,65.388 104.926,66.388 118.775,66.388 118.775,65.388 119.575,65.388 119.575,62.438 118.775,62.438 118.775,56.488 119.575,56.488 119.575,53.538 118.775,53.538 118.775,52.538" style="fill:none;stroke-width:0.050000mm;stroke:black"/>
<polygon points="123.976,52.538 123.976,53.538 123.176,53.538 123.176,56.488 123.976,56.488 123.976,62.438 123.176,62.438 123.176,65.388 123.976,65.388 123.976,66.388 137.826,66.388 137.826,65.388 138.626,65.388 138.626,62.438 137.826,62.438 137.826,56.488 138.626,56.488 138.626,53.538 137.826,53.538 137.826,52.538" style="fill:none;stroke-width:0.050000mm;stroke:black"/>
<polygon points="143.026,52.538 143.026,53.538 142.226,53.538 142.226,56.488 143.026,56.488 143.026,62.438 142.226,62.438 142.226,65.388 143.026,65.388 143.026,66.388 156.876,66.388 156.876,65.388 157.676,65.388 157.676,62.438 156.876,62.438 156.876,56.488 157.676,56.488 157.676,53.538 156.876,53.538 156.876,52.538" style="fill:none;stroke-width:0.050000mm;stroke:black"/>
<polygon points="162.076,52.538 162.076,53.538 161.276,53.538 161.276,56.488 162.076,56.488 162.076,62.438 161.276,62.438 161.276,65.388 162.076,65.388 162.076,66.388 175.926,66.388 175.926,65.388 176.726,65.388 176.726,62.438 175.926,62.438 175.926,56.488 176.726,56.488 176.726,53.538 175.926,53.538 175.926,52.538" style="fill:none;stroke-width:0.050000mm;stroke:black"/>
<polygon points="181.126,52.538 181.126,53.538 180.326,53.538 180.326,56.488 181.126,56.488 181.126,62.438 180.326,62.438 180.326,65.388 181.126,65.388 181.126,66.388 194.976,66.388 194.976,65.388 195.776,65.388 195.776,62.438 194.976,62.438 194.976,56.488 195.776,56.488 195.776,53.538 194.976,53.538 194.976,52.538" style="fill:none;stroke-width:0.050000mm;stroke:black"/>
<polygon points="200.176,52.538 200.176,53.538 199.376,53.538 199.376,56.488 200.176,56.488 200.176,62.438 199.376,62.438 199.376,65.388 200.176,65.388 200.176,66.388 214.026,66.388 214.026,65.388 214.826,65.388 214.826,62.438 214.026,62.438 214.026,56.488 214.826,56.488 214.826,53.538 214.026,53.538 214.026,52.538" style="fill:none;stroke-width:0.050000mm;stroke:black"/>
<polygon points="219.226,52.538 219.226,53.538 218.426,53.538 218.426,56.488 219.226,56.488 219.226,62.438 218.426,62.438 218.426,65.388 219.226,65.388 219.226,66.388 233.076,66.388 233.076,65.388 233.876,65.388 233.876,62.438 233.076,62.438 233.076,56.488 233.876,56.488 233.876,53.538 233.076,53.538 233.076,52.538" style="fill:none;stroke-width:0.050000mm;stroke:black"/>
<polygon points="238.276,52.538 238.276,53.538 237.476,53.538 237.476,56.488 238.276,56.488 238.276,62.438 237.476,62.438 237.476,65.388 238.276,65.388 238.276,66.388 252.126,66.388 252.126,65.388 252.926,65.388 252.926,62.438 252.126,62.438 252.126,56.488 252.926,56.488 252.926,53.538 252.126,53.538 252.126,52.538" style="fill:none;stroke-width:0.050000mm;stroke:black"/>
<polygon points="300.188,52.538 300.188,53.538 299.388,53.538 299.388,56.488 300.188,56.488 300.188,62.438 299.388,62.438 299.388,65.388 300.188,65.388 300.188,66.388 314.038,66.388 314.038,65.388 314.838,65.388 314.838,62.438 314.038,62.438 314.038,56.488 314.838,56.488 314.838,53.538 314.038,53.538 314.038,52.538" style="fill:none;stroke-width:0.050000mm;stroke:black"/>
<polygon points="319.238,52.538 319.238,53.538 318.438,53.538 318.438,56.488 319.238,56.488 319.238,62.438 318.438,62.438 318.438,65.388 319.238,65.388 319.238,66.388 333.088,66.388 333.088,65.388 333.888,65.388 333.888,62.438 333.088,62.438 333.088,56.488 333.888,56.488 333.888,53.538 333.088,53.538 333.088,52.538" style="fill:none;stroke-width:0.050000mm;stroke:black"/>
<polygon points="338.288,52.538 338.288,53.538 337.488,53.538 337.488,56.488 338.288,56.488 338.288,62.438 337.488,62.438 337.488,65.388 338.288,65.388 338.288,66.388 352.138,66.388 352.138,65.388 352.938,65.388 352.938,62.438 352.138,62.438 352.138,56.488 352.938,56.488 352.938,53.538 352.138,53.538 352.138,52.538" style="fill:none;stroke-width:0.050000mm;stroke:black"/>
<polygon points="362.101,52.538 362.101,53.538 361.301,53.538 361.301,56.488 362.101,56.488 362.101,62.438 361.301,62.438 361.301,65.388 362.101,65.388 362.101,66.388 375.951,66.388 375.951,65.388 376.751,65.388 376.751,62.438 375.951,62.438 375.951,56.488 376.751,56.488 376.751,53.538 375.951,53.538 375.951,52.538" style="fill:none;stroke-width:0.050000mm;stroke:black"/>
<polygon points="381.151,52.538 381.151,53.538 380.351,53.538 380.351,56.488 381.151,56.488 381.151,62.438 380.351,62.438 380.351,65.388 381.151,65.388 381.151,66.388 395.001,66.388 395.001,65.388 395.801,65.388 395.801,62.438 395.001,62.438 395.001,56.488 395.801,56.488 395.801,53.538 395.001,53.538 395.001,52.538" style="fill:none;stroke-width:0.050000mm;stroke:black"/>
<polygon points="400.201,52.538 400.201,53.538 399.401,53.538 399.401,56.488 400.201,56.488 400.201,62.438 399.401,62.438 399.401,65.388 400.201,65.388 400.201,66.388 414.051,66.388 414.051,65.388 414.851,65.388 414.851,62.438 414.051,62.438 414.051,56.488 414.851,56.488 414.851,53.538 414.051,53.538 414.051,52.538" style="fill:none;stroke-width:0.050000mm;stroke:black"/>
<polygon points="419.251,52.538 419.251,53.538 418.451,53.538 418.451,56.488 419.251,56.488 419.251,62.438 418.451,62.438 418.451,65.388 419.251,65.388 419.251,66.388 433.101,66.388 433.101,65.388 433.901,65.388 433.901,62.438 433.101,62.438 433.101,56.488 433.901,56.488 433.901,53.538 433.101,53.538 433.101,52.538" style="fill:none;stroke-width:0.050000mm;stroke:black"/>
<polygon points="9.676,33.488 9.676,34.488 8.876,34.488 8.876,37.438 9.676,37.438 9.676,43.388 8.876,43.388 8.876,46.338 9.676,46.338 9.676,47.338 23.526,47.338 23.526,46.338 24.326,46.338 24.326,43.388 23.526,43.388 23.526,37.438 24.326,37.438 24.326,34.488 23.526,34.488 23.526,33.488" style="fill:none;stroke-width:0.050000mm;stroke:black"/>
<polygon points="228.751,33.488 228.751,34.488 227.951,34.488 227.951,37.438 228.751,37.438 228.751,43.388 227.951,43.388 227.951,46.338 228.751,46.338 228.751,47.338 242.601,47.338 242.601,46.338 243.401,46.338 243.401,43.388 242.601,43.388 242.601,37.438 243.401,37.438 243.401,34.488 242.601,34.488 242.601,33.488" style="fill:none;stroke-width:0.050000mm;stroke:black"/>
<polygon points="247.801,33.488 247.801,34.488 247.001,34.488 247.001,37.438 247.801,37.438 247.801,43.388 247.001,43.388 247.001,46.338 247.801,46.338 247.801,47.338 261.650,47.338 261.650,46.338 262.451,46.338 262.451,43.388 261.650,43.388 261.650,37.438 262.451,37.438 262.451,34.488 261.650,34.488 261.650,33.488" style="fill:none;stroke-width:0.050000mm;stroke:black"/>
<polygon points="276.376,33.488 276.376,34.488 275.576,34.488 275.576,37.438 276.376,37.438 276.376,43.388 275.576,43.388 275.576,46.338 276.376,46.338 276.376,47.338 290.226,47.338 290.226,46.338 291.026,46.338 291.026,43.388 290.226,43.388 290.226,37.438 291.026,37.438 291.026,34.488 290.226,34.488 290.226,33.488" style="fill:none;stroke-width:0.050000mm;stroke:black"/>
<polygon points="400.201,33.488 400.201,34.488 399.401,34.488 399.401,37.438 400.201,37.438 400.201,43.388 399.401,43.388 399.401,46.338 400.201,46.338 400.201,47.338 414.051,47.338 414.051,46.338 414.851,46.338 414.851,43.388 414.051,43.388 414.051,37.438 414.851,37.438 414.851,34.488 414.051,34.488 414.051,33.488" style="fill:none;stroke-width:0.050000mm;stroke:black"/>
<polygon points="419.251,33.488 419.251,34.488 418.451,34.488 418.451,37.438 419.251,37.438 419.251,43.388 418.451,43.388 418.451,46.338 419.251,46.338 419.251,47.338 433.101,47.338 433.101,46.338 433.901,46.338 433.901,43.388 433.101,43.388 433.101,37.438 433.901,37.438 433.901,34.488 433.101,34.488 433.101,33.488" style="fill:none;stroke-width:0.050000mm;stroke:black"/>
<polygon points="9.676,9.676 9.676,10.676 8.876,10.676 8.876,13.626 9.676,13.626 9.676,19.576 8.876,19.576 8.876,22.526 9.676,22.526 9.676,23.526 23.526,23.526 23.526,22.526 24.326,22.526 24.326,19.576 23.526,19.576 23.526,13.626 24.326,13.626 24.326,10.676 23.526,10.676 23.526,9.676" style="fill:none;stroke-width:0.050000mm;stroke:black"/>
<polygon points="47.776,9.676 47.776,10.676 46.976,10.676 46.976,13.626 47.776,13.626 47.776,19.576 46.976,19.576 46.976,22.526 47.776,22.526 47.776,23.526 61.626,23.526 61.626,22.526 62.426,22.526 62.426,19.576 61.626,19.576 61.626,13.626 62.426,13.626 62.426,10.676 61.626,10.676 61.626,9.676" style="fill:none;stroke-width:0.050000mm;stroke:black"/>
<polygon points="66.826,9.676 66.826,10.676 66.026,10.676 66.026,13.626 66.826,13.626 66.826,19.576 66.026,19.576 66.026,22.526 66.826,22.526 66.826,23.526 80.676,23.526 80.676,22.526 81.476,22.526 81.476,19.576 80.676,19.576 80.676,13.626 81.476,13.626 81.476,10.676 80.676,10.676 80.676,9.676" style="fill:none;stroke-width:0.050000mm;stroke:black"/>
<polygon points="85.876,9.676 85.876,10.676 85.076,10.676 85.076,13.626 85.876,13.626 85.876,19.576 85.076,19.576 85.076,22.526 85.876,22.526 85.876,23.526 99.726,23.526 99.726,22.526 100.525,22.526 100.525,19.576 99.726,19.576 99.726,13.626 100.525,13.626 100.525,10.676 99.726,10.676 99.726,9.676" style="fill:none;stroke-width:0.050000mm;stroke:black"/>
<polygon points="104.926,9.676 104.926,10.676 104.126,10.676 104.126,13.626 104.926,13.626 104.926,19.576 104.126,19.576 104.126,22.526 104.926,22.526 104.926,23.526 118.775,23.526 118.775,22.526 119.575,22.526 119.575,19.576 118.775,19.576 118.775,13.626 119.575,13.626 119.575,10.676 118.775,10.676 118.775,9.676" style="fill:none;stroke-width:0.050000mm;stroke:black"/>
<polygon points="133.501,9.676 133.501,10.676 132.701,10.676 132.701,13.626 133.501,13.626 133.501,19.576 132.701,19.576 132.701,22.526 133.501,22.526 133.501,23.526 147.351,23.526 147.351,22.526 148.151,22.526 148.151,19.576 147.351,19.576 147.351,13.626 148.151,13.626 148.151,10.676 147.351,10.676 147.351,9.676" style="fill:none;stroke-width:0.050000mm;stroke:black"/>
<polygon points="152.551,9.676 152.551,10.676 151.751,10.676 151.751,13.626 152.551,13.626 152.551,19.576 151.751,19.576 151.751,22.526 152.551,22.526 152.551,23.526 166.401,23.526 166.401,22.526 167.201,22.526 167.201,19.576 166.401,19.576 166.401,13.626 167.201,13.626 167.201,10.676 166.401,10.676 166.401,9.676" style="fill:none;stroke-width:0.050000mm;stroke:black"/>
<polygon points="171.601,9.676 171.601,10.676 170.801,10.676 170.801,13.626 171.601,13.626 171.601,19.576 170.801,19.576 170.801,22.526 171.601,22.526 171.601,23.526 185.451,23.526 185.451,22.526 186.251,22.526 186.251,19.576 185.451,19.576 185.451,13.626 186.251,13.626 186.251,10.676 185.451,10.676 185.451,9.676" style="fill:none;stroke-width:0.050000mm;stroke:black"/>
<polygon points="190.651,9.676 190.651,10.676 189.851,10.676 189.851,13.626 190.651,13.626 190.651,19.576 189.851,19.576 189.851,22.526 190.651,22.526 190.651,23.526 204.501,23.526 204.501,22.526 205.301,22.526 205.301,19.576 204.501,19.576 204.501,13.626 205.301,13.626 205.301,10.676 204.501,10.676 204.501,9.676" style="fill:none;stroke-width:0.050000mm;stroke:black"/>
<polygon points="219.226,9.676 219.226,10.676 218.426,10.676 218.426,13.626 219.226,13.626 219.226,19.576 218.426,19.576 218.426,22.526 219.226,22.526 219.226,23.526 233.076,23.526 233.076,22.526 233.876,22.526 233.876,19.576 233.076,19.576 233.076,13.626 233.876,13.626 233.876,10.676 233.076,10.676 233.076,9.676" style="fill:none;stroke-width:0.050000mm;stroke:black"/>
<polygon points="238.276,9.676 238.276,10.676 237.476,10.676 237.476,13.626 238.276,13.626 238.276,19.576 237.476,19.576 237.476,22.526 238.276,22.526 238.276,23.526 252.126,23.526 252.126,22.526 252.926,22.526 252.926,19.576 252.126,19.576 252.126,13.626 252.926,13.626 252.926,10.676 252.126,10.676 252.126,9.676" style="fill:none;stroke-width:0.050000mm;stroke:black"/>
<polygon points="257.326,9.676 257.326,10.676 256.525,10.676 256.525,13.626 257.326,13.626 257.326,19.576 256.525,19.576 256.525,22.526 257.326,22.526 257.326,23.526 271.176,23.526 271.176,22.526 271.976,22.526 271.976,19.576 271.176,19.576 271.176,13.626 271.976,13.626 271.976,10.676 271.176,10.676 271.176,9.676" style="fill:none;stroke-width:0.050000mm;stroke:black"/>
<polygon points="276.376,9.676 276.376,10.676 275.576,10.676 275.576,13.626 276.376,13.626 276.376,19.576 275.576,19.576 275.576,22.526 276.376,22.526 276.376,23.526 290.226,23.526 290.226,22.526 291.026,22.526 291.026,19.576 290.226,19.576 290.226,13.626 291.026,13.626 291.026,10.676 290.226,10.676 290.226,9.676" style="fill:none;stroke-width:0.050000mm;stroke:black"/>
</svg>
