<?xml version="1.0"?>
<!-- Generated by SVGo -->
<svg width="438.627mm" height="148.115mm"
     viewBox="0.000 0.000 438.627 148.115"
     xmlns="http://www.w3.org/2000/svg" 
     xmlns:xlink="http://www.w3.org/1999/xlink">
<polygon points="433.627,143.114 5.001,143.114 5.001,5.001 433.627,5.001" style="fill:none;stroke-width:0.050000mm;stroke:black"/>
<polygon points="128.968,126.588 128.968,127.588 128.169,127.588 128.169,130.688 128.968,130.688 128.968,131.288 89.344,131.288 89.344,128.057 87.619,128.057 87.619,127.138 84.319,127.138 84.319,128.057 82.594,128.057 82.594,131.288 81.769,131.288 81.769,134.088 82.594,134.088 82.594,140.358 84.319,140.358 84.319,141.338 87.619,141.338 87.619,140.358 89.344,140.358 89.344,135.888 128.968,135.888 128.968,136.488 128.169,136.488 128.169,139.588 128.968,139.588 128.968,140.588 142.969,140.588 142.969,139.588 143.769,139.588 143.769,136.488 142.969,136.488 142.969,135.888 182.594,135.888 182.594,140.358 184.319,140.358 184.319,141.338 187.619,141.338 187.619,140.358 189.344,140.358 189.344,134.088 190.169,134.088 190.169,131.288 189.344,131.288 189.344,128.057 187.619,128.057 187.619,127.138 184.319,127.138 184.319,128.057 182.594,128.057 182.594,131.288 142.969,131.288 142.969,130.688 143.769,130.688 143.769,127.588 142.969,127.588 142.969,126.588" style="fill:none;stroke-width:0.050000mm;stroke:black"/>
<polygon points="369.476,126.588 369.476,127.588 368.676,127.588 368.676,130.688 369.476,130.688 369.476,131.288 367.951,131.288 367.951,128.057 366.226,128.057 366.226,127.138 362.926,127.138 362.926,128.057 361.201,128.057 361.201,131.288 360.376,131.288 360.376,134.088 361.201,134.088 361.201,140.358 362.926,140.358 362.926,141.338 366.226,141.338 366.226,140.358 367.951,140.358 367.951,135.888 369.476,135.888 369.476,136.488 368.676,136.488 368.676,139.588 369.476,139.588 369.476,140.588 383.476,140.588 383.476,139.588 384.276,139.588 384.276,136.488 383.476,136.488 383.476,135.888 385.001,135.888 385.001,140.358 386.726,140.358 386.726,141.338 390.026,141.338 390.026,140.358 391.751,140.358 391.751,134.088 392.576,134.088 392.576,131.288 391.751,131.288 391.751,128.057 390.026,128.057 390.026,127.138 386.726,127.138 386.726,128.057 385.001,128.057 385.001,131.288 383.476,131.288 383.476,130.688 384.276,130.688 384.276,127.588 383.476,127.588 383.476,126.588" style="fill:none;stroke-width:0.050000mm;stroke:black"/>
<polygon points="9.907,126.588 9.907,127.588 9.107,127.588 9.107,130.688 9.907,130.688 9.907,136.488 9.107,136.488 9.107,139.588 9.907,139.588 9.907,140.588 23.907,140.588 23.907,139.588 24.707,139.588 24.707,136.488 23.907,136.488 23.907,130.688 24.707,130.688 24.707,127.588 23.907,127.588 23.907,126.588" style="fill:none;stroke-width:0.050000mm;stroke:black"/>
<polygon points="33.719,126.588 33.719,127.588 32.919,127.588 32.919,130.688 33.719,130.688 33.719,136.488 32.919,136.488 32.919,139.588 33.719,139.588 33.719,140.588 47.719,140.588 47.719,139.588 48.519,139.588 48.519,136.488 47.719,136.488 47.719,130.688 48.519,130.688 48.519,127.588 47.719,127.588 47.719,126.588" style="fill:none;stroke-width:0.050000mm;stroke:black"/>
<polygon points="57.532,126.588 57.532,127.588 56.732,127.588 56.732,130.688 57.532,130.688 57.532,136.488 56.732,136.488 56.732,139.588 57.532,139.588 57.532,140.588 71.532,140.588 71.532,139.588 72.332,139.588 72.332,136.488 71.532,136.488 71.532,130.688 72.332,130.688 72.332,127.588 71.532,127.588 71.532,126.588" style="fill:none;stroke-width:0.050000mm;stroke:black"/>
<polygon points="200.407,126.588 200.407,127.588 199.607,127.588 199.607,130.688 200.407,130.688 200.407,136.488 199.607,136.488 199.607,139.588 200.407,139.588 200.407,140.588 214.407,140.588 214.407,139.588 215.207,139.588 215.207,136.488 214.407,136.488 214.407,130.688 215.207,130.688 215.207,127.588 214.407,127.588 214.407,126.588" style="fill:none;stroke-width:0.050000mm;stroke:black"/>
<polygon points="224.219,126.588 224.219,127.588 223.419,127.588 223.419,130.688 224.219,130.688 224.219,136.488 223.419,136.488 223.419,139.588 224.219,139.588 224.219,140.588 238.219,140.588 238.219,139.588 239.019,139.588 239.019,136.488 238.219,136.488 238.219,130.688 239.019,130.688 239.019,127.588 238.219,127.588 238.219,126.588" style="fill:none;stroke-width:0.050000mm;stroke:black"/>
<polygon points="248.032,126.588 248.032,127.588 247.232,127.588 247.232,130.688 248.032,130.688 248.032,136.488 247.232,136.488 247.232,139.588 248.032,139.588 248.032,140.588 262.032,140.588 262.032,139.588 262.832,139.588 262.832,136.488 262.032,136.488 262.032,130.688 262.832,130.688 262.832,127.588 262.032,127.588 262.032,126.588" style="fill:none;stroke-width:0.050000mm;stroke:black"/>
<polygon points="271.844,126.588 271.844,127.588 271.044,127.588 271.044,130.688 271.844,130.688 271.844,136.488 271.044,136.488 271.044,139.588 271.844,139.588 271.844,140.588 285.844,140.588 285.844,139.588 286.644,139.588 286.644,136.488 285.844,136.488 285.844,130.688 286.644,130.688 286.644,127.588 285.844,127.588 285.844,126.588" style="fill:none;stroke-width:0.050000mm;stroke:black"/>
<polygon points="298.038,126.588 298.038,127.588 297.238,127.588 297.238,130.688 298.038,130.688 298.038,136.488 297.238,136.488 297.238,139.588 298.038,139.588 298.038,140.588 312.038,140.588 312.038,139.588 312.838,139.588 312.838,136.488 312.038,136.488 312.038,130.688 312.838,130.688 312.838,127.588 312.038,127.588 312.038,126.588" style="fill:none;stroke-width:0.050000mm;stroke:black"/>
<polygon points="317.088,126.588 317.088,127.588 316.288,127.588 316.288,130.688 317.088,130.688 317.088,136.488 316.288,136.488 316.288,139.588 317.088,139.588 317.088,140.588 331.088,140.588 331.088,139.588 331.888,139.588 331.888,136.488 331.088,136.488 331.088,130.688 331.888,130.688 331.888,127.588 331.088,127.588 331.088,126.588" style="fill:none;stroke-width:0.050000mm;stroke:black"/>
<polygon points="336.138,126.588 336.138,127.588 335.338,127.588 335.338,130.688 336.138,130.688 336.138,136.488 335.338,136.488 335.338,139.588 336.138,139.588 336.138,140.588 350.138,140.588 350.138,139.588 350.938,139.588 350.938,136.488 350.138,136.488 350.138,130.688 350.938,130.688 350.938,127.588 350.138,127.588 350.138,126.588" style="fill:none;stroke-width:0.050000mm;stroke:black"/>
<polygon points="398.051,126.588 398.051,127.588 397.251,127.588 397.251,130.688 398.051,130.688 398.051,136.488 397.251,136.488 397.251,139.588 398.051,139.588 398.051,140.588 412.051,140.588 412.051,139.588 412.851,139.588 412.851,136.488 412.051,136.488 412.051,130.688 412.851,130.688 412.851,127.588 412.051,127.588 412.051,126.588" style="fill:none;stroke-width:0.050000mm;stroke:black"/>
<polygon points="423.601,107.963 423.601,108.788 417.331,108.788 417.331,110.513 416.351,110.513 416.351,113.813 417.331,113.813 417.331,115.538 421.801,115.538 421.801,117.063 421.201,117.063 421.201,116.263 418.101,116.263 418.101,117.063 417.101,117.063 417.101,131.063 418.101,131.063 418.101,131.863 421.201,131.863 421.201,131.063 421.801,131.063 421.801,132.588 417.331,132.588 417.331,134.313 416.351,134.313 416.351,137.613 417.331,137.613 417.331,139.338 423.601,139.338 423.601,140.163 426.401,140.163 426.401,139.338 429.631,139.338 429.631,137.613 430.551,137.613 430.551,134.313 429.631,134.313 429.631,132.588 426.401,132.588 426.401,131.063 427.001,131.063 427.001,131.863 430.101,131.863 430.101,131.063 431.101,131.063 431.101,117.063 430.101,117.063 430.101,116.263 427.001,116.263 427.001,117.063 426.401,117.063 426.401,115.538 429.631,115.538 429.631,113.813 430.551,113.813 430.551,110.513 429.631,110.513 429.631,108.788 426.401,108.788 426.401,107.963" style="fill:none;stroke-width:0.050000mm;stroke:black"/>
<polygon points="19.432,107.538 19.432,108.538 18.632,108.538 18.632,111.638 19.432,111.638 19.432,112.238 17.907,112.238 17.907,109.008 16.182,109.008 16.182,108.088 12.882,108.088 12.882,109.008 11.157,109.008 11.157,112.238 10.332,112.238 10.332,115.038 11.157,115.038 11.157,121.308 12.882,121.308 12.882,122.288 16.182,122.288 16.182,121.308 17.907,121.308 17.907,116.838 19.432,116.838 19.432,117.438 18.632,117.438 18.632,120.538 19.432,120.538 19.432,121.538 33.432,121.538 33.432,120.538 34.232,120.538 34.232,117.438 33.432,117.438 33.432,116.838 34.957,116.838 34.957,121.308 36.682,121.308 36.682,122.288 39.982,122.288 39.982,121.308 41.707,121.308 41.707,115.038 42.532,115.038 42.532,112.238 41.707,112.238 41.707,109.008 39.982,109.008 39.982,108.088 36.682,108.088 36.682,109.008 34.957,109.008 34.957,112.238 33.432,112.238 33.432,111.638 34.232,111.638 34.232,108.538 33.432,108.538 33.432,107.538" style="fill:none;stroke-width:0.050000mm;stroke:black"/>
<polygon points="257.556,107.538 257.556,108.538 256.756,108.538 256.756,111.638 257.556,111.638 257.556,112.238 256.032,112.238 256.032,109.008 254.307,109.008 254.307,108.088 251.007,108.088 251.007,109.008 249.282,109.008 249.282,112.238 248.457,112.238 248.457,115.038 249.282,115.038 249.282,121.308 251.007,121.308 251.007,122.288 254.307,122.288 254.307,121.308 256.032,121.308 256.032,116.838 257.556,116.838 257.556,117.438 256.756,117.438 256.756,120.538 257.556,120.538 257.556,121.538 271.557,121.538 271.557,120.538 272.357,120.538 272.357,117.438 271.557,117.438 271.557,116.838 273.082,116.838 273.082,121.308 274.807,121.308 274.807,122.288 278.107,122.288 278.107,121.308 279.832,121.308 279.832,115.038 280.657,115.038 280.657,112.238 279.832,112.238 279.832,109.008 278.107,109.008 278.107,108.088 274.807,108.088 274.807,109.008 273.082,109.008 273.082,112.238 271.557,112.238 271.557,111.638 272.357,111.638 272.357,108.538 271.557,108.538 271.557,107.538" style="fill:none;stroke-width:0.050000mm;stroke:black"/>
<polygon points="50.388,107.538 50.388,108.538 49.588,108.538 49.588,111.638 50.388,111.638 50.388,117.438 49.588,117.438 49.588,120.538 50.388,120.538 50.388,121.538 64.388,121.538 64.388,120.538 65.188,120.538 65.188,117.438 64.388,117.438 64.388,111.638 65.188,111.638 65.188,108.538 64.388,108.538 64.388,107.538" style="fill:none;stroke-width:0.050000mm;stroke:black"/>
<polygon points="69.438,107.538 69.438,108.538 68.638,108.538 68.638,111.638 69.438,111.638 69.438,117.438 68.638,117.438 68.638,120.538 69.438,120.538 69.438,121.538 83.438,121.538 83.438,120.538 84.238,120.538 84.238,117.438 83.438,117.438 83.438,111.638 84.238,111.638 84.238,108.538 83.438,108.538 83.438,107.538" style="fill:none;stroke-width:0.050000mm;stroke:black"/>
<polygon points="88.488,107.538 88.488,108.538 87.688,108.538 87.688,111.638 88.488,111.638 88.488,117.438 87.688,117.438 87.688,120.538 88.488,120.538 88.488,121.538 102.488,121.538 102.488,120.538 103.288,120.538 103.288,117.438 102.488,117.438 102.488,111.638 103.288,111.638 103.288,108.538 102.488,108.538 102.488,107.538" style="fill:none;stroke-width:0.050000mm;stroke:black"/>
<polygon points="107.538,107.538 107.538,108.538 106.738,108.538 106.738,111.638 107.538,111.638 107.538,117.438 106.738,117.438 106.738,120.538 107.538,120.538 107.538,121.538 121.538,121.538 121.538,120.538 122.338,120.538 122.338,117.438 121.538,117.438 121.538,111.638 122.338,111.638 122.338,108.538 121.538,108.538 121.538,107.538" style="fill:none;stroke-width:0.050000mm;stroke:black"/>
<polygon points="126.588,107.538 126.588,108.538 125.788,108.538 125.788,111.638 126.588,111.638 126.588,117.438 125.788,117.438 125.788,120.538 126.588,120.538 126.588,121.538 140.588,121.538 140.588,120.538 141.388,120.538 141.388,117.438 140.588,117.438 140.588,111.638 141.388,111.638 141.388,108.538 140.588,108.538 140.588,107.538" style="fill:none;stroke-width:0.050000mm;stroke:black"/>
<polygon points="145.638,107.538 145.638,108.538 144.838,108.538 144.838,111.638 145.638,111.638 145.638,117.438 144.838,117.438 144.838,120.538 145.638,120.538 145.638,121.538 159.638,121.538 159.638,120.538 160.438,120.538 160.438,117.438 159.638,117.438 159.638,111.638 160.438,111.638 160.438,108.538 159.638,108.538 159.638,107.538" style="fill:none;stroke-width:0.050000mm;stroke:black"/>
<polygon points="164.688,107.538 164.688,108.538 163.888,108.538 163.888,111.638 164.688,111.638 164.688,117.438 163.888,117.438 163.888,120.538 164.688,120.538 164.688,121.538 178.688,121.538 178.688,120.538 179.488,120.538 179.488,117.438 178.688,117.438 178.688,111.638 179.488,111.638 179.488,108.538 178.688,108.538 178.688,107.538" style="fill:none;stroke-width:0.050000mm;stroke:black"/>
<polygon points="183.738,107.538 183.738,108.538 182.938,108.538 182.938,111.638 183.738,111.638 183.738,117.438 182.938,117.438 182.938,120.538 183.738,120.538 183.738,121.538 197.738,121.538 197.738,120.538 198.538,120.538 198.538,117.438 197.738,117.438 197.738,111.638 198.538,111.638 198.538,108.538 197.738,108.538 197.738,107.538" style="fill:none;stroke-width:0.050000mm;stroke:black"/>
<polygon points="202.788,107.538 202.788,108.538 201.988,108.538 201.988,111.638 202.788,111.638 202.788,117.438 201.988,117.438 201.988,120.538 202.788,120.538 202.788,121.538 216.788,121.538 216.788,120.538 217.588,120.538 217.588,117.438 216.788,117.438 216.788,111.638 217.588,111.638 217.588,108.538 216.788,108.538 216.788,107.538" style="fill:none;stroke-width:0.050000mm;stroke:black"/>
<polygon points="221.838,107.538 221.838,108.538 221.038,108.538 221.038,111.638 221.838,111.638 221.838,117.438 221.038,117.438 221.038,120.538 221.838,120.538 221.838,121.538 235.838,121.538 235.838,120.538 236.638,120.538 236.638,117.438 235.838,117.438 235.838,111.638 236.638,111.638 236.638,108.538 235.838,108.538 235.838,107.538" style="fill:none;stroke-width:0.050000mm;stroke:black"/>
<polygon points="317.088,107.538 317.088,108.538 316.288,108.538 316.288,111.638 317.088,111.638 317.088,117.438 316.288,117.438 316.288,120.538 317.088,120.538 317.088,121.538 331.088,121.538 331.088,120.538 331.888,120.538 331.888,117.438 331.088,117.438 331.088,111.638 331.888,111.638 331.888,108.538 331.088,108.538 331.088,107.538" style="fill:none;stroke-width:0.050000mm;stroke:black"/>
<polygon points="359.951,107.538 359.951,108.538 359.151,108.538 359.151,111.638 359.951,111.638 359.951,117.438 359.151,117.438 359.151,120.538 359.951,120.538 359.951,121.538 373.951,121.538 373.951,120.538 374.751,120.538 374.751,117.438 373.951,117.438 373.951,111.638 374.751,111.638 374.751,108.538 373.951,108.538 373.951,107.538" style="fill:none;stroke-width:0.050000mm;stroke:black"/>
<polygon points="379.001,107.538 379.001,108.538 378.201,108.538 378.201,111.638 379.001,111.638 379.001,117.438 378.201,117.438 378.201,120.538 379.001,120.538 379.001,121.538 393.001,121.538 393.001,120.538 393.801,120.538 393.801,117.438 393.001,117.438 393.001,111.638 393.801,111.638 393.801,108.538 393.001,108.538 393.001,107.538" style="fill:none;stroke-width:0.050000mm;stroke:black"/>
<polygon points="398.051,107.538 398.051,108.538 397.251,108.538 397.251,111.638 398.051,111.638 398.051,117.438 397.251,117.438 397.251,120.538 398.051,120.538 398.051,121.538 412.051,121.538 412.051,120.538 412.851,120.538 412.851,117.438 412.051,117.438 412.051,111.638 412.851,111.638 412.851,108.538 412.051,108.538 412.051,107.538" style="fill:none;stroke-width:0.050000mm;stroke:black"/>
<polygon points="262.319,88.488 262.319,89.488 261.518,89.488 261.518,92.588 262.319,92.588 262.319,93.188 260.794,93.188 260.794,89.958 259.068,89.958 259.068,89.038 255.769,89.038 255.769,89.958 254.044,89.958 254.044,93.188 253.219,93.188 253.219,95.988 254.044,95.988 254.044,102.258 255.769,102.258 255.769,103.238 259.068,103.238 259.068,102.258 260.794,102.258 260.794,97.788 262.319,97.788 262.319,98.388 261.518,98.388 261.518,101.488 262.319,101.488 262.319,102.488 276.319,102.488 276.319,101.488 277.119,101.488 277.119,98.388 276.319,98.388 276.319,97.788 277.844,97.788 277.844,102.258 279.569,102.258 279.569,103.238 282.869,103.238 282.869,102.258 284.594,102.258 284.594,95.988 285.419,95.988 285.419,93.188 284.594,93.188 284.594,89.958 282.869,89.958 282.869,89.038 279.569,89.038 279.569,89.958 277.844,89.958 277.844,93.188 276.319,93.188 276.319,92.588 277.119,92.588 277.119,89.488 276.319,89.488 276.319,88.488" style="fill:none;stroke-width:0.050000mm;stroke:black"/>
<polygon points="14.669,88.488 14.669,89.488 13.869,89.488 13.869,92.588 14.669,92.588 14.669,98.388 13.869,98.388 13.869,101.488 14.669,101.488 14.669,102.488 28.669,102.488 28.669,101.488 29.469,101.488 29.469,98.388 28.669,98.388 28.669,92.588 29.469,92.588 29.469,89.488 28.669,89.488 28.669,88.488" style="fill:none;stroke-width:0.050000mm;stroke:black"/>
<polygon points="40.863,88.488 40.863,89.488 40.063,89.488 40.063,92.588 40.863,92.588 40.863,98.388 40.063,98.388 40.063,101.488 40.863,101.488 40.863,102.488 54.863,102.488 54.863,101.488 55.663,101.488 55.663,98.388 54.863,98.388 54.863,92.588 55.663,92.588 55.663,89.488 54.863,89.488 54.863,88.488" style="fill:none;stroke-width:0.050000mm;stroke:black"/>
<polygon points="59.913,88.488 59.913,89.488 59.113,89.488 59.113,92.588 59.913,92.588 59.913,98.388 59.113,98.388 59.113,101.488 59.913,101.488 59.913,102.488 73.913,102.488 73.913,101.488 74.713,101.488 74.713,98.388 73.913,98.388 73.913,92.588 74.713,92.588 74.713,89.488 73.913,89.488 73.913,88.488" style="fill:none;stroke-width:0.050000mm;stroke:black"/>
<polygon points="78.963,88.488 78.963,89.488 78.163,89.488 78.163,92.588 78.963,92.588 78.963,98.388 78.163,98.388 78.163,101.488 78.963,101.488 78.963,102.488 92.963,102.488 92.963,101.488 93.763,101.488 93.763,98.388 92.963,98.388 92.963,92.588 93.763,92.588 93.763,89.488 92.963,89.488 92.963,88.488" style="fill:none;stroke-width:0.050000mm;stroke:black"/>
<polygon points="98.013,88.488 98.013,89.488 97.213,89.488 97.213,92.588 98.013,92.588 98.013,98.388 97.213,98.388 97.213,101.488 98.013,101.488 98.013,102.488 112.013,102.488 112.013,101.488 112.813,101.488 112.813,98.388 112.013,98.388 112.013,92.588 112.813,92.588 112.813,89.488 112.013,89.488 112.013,88.488" style="fill:none;stroke-width:0.050000mm;stroke:black"/>
<polygon points="117.063,88.488 117.063,89.488 116.263,89.488 116.263,92.588 117.063,92.588 117.063,98.388 116.263,98.388 116.263,101.488 117.063,101.488 117.063,102.488 131.063,102.488 131.063,101.488 131.863,101.488 131.863,98.388 131.063,98.388 131.063,92.588 131.863,92.588 131.863,89.488 131.063,89.488 131.063,88.488" style="fill:none;stroke-width:0.050000mm;stroke:black"/>
<polygon points="136.113,88.488 136.113,89.488 135.313,89.488 135.313,92.588 136.113,92.588 136.113,98.388 135.313,98.388 135.313,101.488 136.113,101.488 136.113,102.488 150.113,102.488 150.113,101.488 150.913,101.488 150.913,98.388 150.113,98.388 150.113,92.588 150.913,92.588 150.913,89.488 150.113,89.488 150.113,88.488" style="fill:none;stroke-width:0.050000mm;stroke:black"/>
<polygon points="155.163,88.488 155.163,89.488 154.363,89.488 154.363,92.588 155.163,92.588 155.163,98.388 154.363,98.388 154.363,101.488 155.163,101.488 155.163,102.488 169.163,102.488 169.163,101.488 169.963,101.488 169.963,98.388 169.163,98.388 169.163,92.588 169.963,92.588 169.963,89.488 169.163,89.488 169.163,88.488" style="fill:none;stroke-width:0.050000mm;stroke:black"/>
<polygon points="174.213,88.488 174.213,89.488 173.413,89.488 173.413,92.588 174.213,92.588 174.213,98.388 173.413,98.388 173.413,101.488 174.213,101.488 174.213,102.488 188.213,102.488 188.213,101.488 189.013,101.488 189.013,98.388 188.213,98.388 188.213,92.588 189.013,92.588 189.013,89.488 188.213,89.488 188.213,88.488" style="fill:none;stroke-width:0.050000mm;stroke:black"/>
<polygon points="193.263,88.488 193.263,89.488 192.463,89.488 192.463,92.588 193.263,92.588 193.263,98.388 192.463,98.388 192.463,101.488 193.263,101.488 193.263,102.488 207.263,102.488 207.263,101.488 208.063,101.488 208.063,98.388 207.263,98.388 207.263,92.588 208.063,92.588 208.063,89.488 207.263,89.488 207.263,88.488" style="fill:none;stroke-width:0.050000mm;stroke:black"/>
<polygon points="212.313,88.488 212.313,89.488 211.513,89.488 211.513,92.588 212.313,92.588 212.313,98.388 211.513,98.388 211.513,101.488 212.313,101.488 212.313,102.488 226.313,102.488 226.313,101.488 227.113,101.488 227.113,98.388 226.313,98.388 226.313,92.588 227.113,92.588 227.113,89.488 226.313,89.488 226.313,88.488" style="fill:none;stroke-width:0.050000mm;stroke:black"/>
<polygon points="231.363,88.488 231.363,89.488 230.563,89.488 230.563,92.588 231.363,92.588 231.363,98.388 230.563,98.388 230.563,101.488 231.363,101.488 231.363,102.488 245.363,102.488 245.363,101.488 246.163,101.488 246.163,98.388 245.363,98.388 245.363,92.588 246.163,92.588 246.163,89.488 245.363,89.488 245.363,88.488" style="fill:none;stroke-width:0.050000mm;stroke:black"/>
<polygon points="359.951,88.488 359.951,89.488 359.151,89.488 359.151,92.588 359.951,92.588 359.951,98.388 359.151,98.388 359.151,101.488 359.951,101.488 359.951,102.488 373.951,102.488 373.951,101.488 374.751,101.488 374.751,98.388 373.951,98.388 373.951,92.588 374.751,92.588 374.751,89.488 373.951,89.488 373.951,88.488" style="fill:none;stroke-width:0.050000mm;stroke:black"/>
<polygon points="379.001,88.488 379.001,89.488 378.201,89.488 378.201,92.588 379.001,92.588 379.001,98.388 378.201,98.388 378.201,101.488 379.001,101.488 379.001,102.488 393.001,102.488 393.001,101.488 393.801,101.488 393.801,98.388 393.001,98.388 393.001,92.588 393.801,92.588 393.801,89.488 393.001,89.488 393.001,88.488" style="fill:none;stroke-width:0.050000mm;stroke:black"/>
<polygon points="398.051,88.488 398.051,89.488 397.251,89.488 397.251,92.588 398.051,92.588 398.051,98.388 397.251,98.388 397.251,101.488 398.051,101.488 398.051,102.488 412.051,102.488 412.051,101.488 412.851,101.488 412.851,98.388 412.051,98.388 412.051,92.588 412.851,92.588 412.851,89.488 412.051,89.488 412.051,88.488" style="fill:none;stroke-width:0.050000mm;stroke:black"/>
<polygon points="423.601,69.863 423.601,70.688 417.331,70.688 417.331,72.413 416.351,72.413 416.351,75.713 417.331,75.713 417.331,77.438 421.801,77.438 421.801,78.963 421.201,78.963 421.201,78.163 418.101,78.163 418.101,78.963 417.101,78.963 417.101,92.963 418.101,92.963 418.101,93.763 421.201,93.763 421.201,92.963 421.801,92.963 421.801,94.488 417.331,94.488 417.331,96.213 416.351,96.213 416.351,99.513 417.331,99.513 417.331,101.238 423.601,101.238 423.601,102.063 426.401,102.063 426.401,101.238 429.631,101.238 429.631,99.513 430.551,99.513 430.551,96.213 429.631,96.213 429.631,94.488 426.401,94.488 426.401,92.963 427.001,92.963 427.001,93.763 430.101,93.763 430.101,92.963 431.101,92.963 431.101,78.963 430.101,78.963 430.101,78.163 427.001,78.163 427.001,78.963 426.401,78.963 426.401,77.438 429.631,77.438 429.631,75.713 430.551,75.713 430.551,72.413 429.631,72.413 429.631,70.688 426.401,70.688 426.401,69.863" style="fill:none;stroke-width:0.050000mm;stroke:black"/>
<polygon points="12.288,69.438 12.288,70.438 11.488,70.438 11.488,73.538 12.288,73.538 12.288,79.338 11.488,79.338 11.488,82.438 12.288,82.438 12.288,83.438 26.288,83.438 26.288,82.438 27.088,82.438 27.088,79.338 26.288,79.338 26.288,73.538 27.088,73.538 27.088,70.438 26.288,70.438 26.288,69.438" style="fill:none;stroke-width:0.050000mm;stroke:black"/>
<polygon points="36.101,69.438 36.101,70.438 35.301,70.438 35.301,73.538 36.101,73.538 36.101,79.338 35.301,79.338 35.301,82.438 36.101,82.438 36.101,83.438 50.101,83.438 50.101,82.438 50.901,82.438 50.901,79.338 50.101,79.338 50.101,73.538 50.901,73.538 50.901,70.438 50.101,70.438 50.101,69.438" style="fill:none;stroke-width:0.050000mm;stroke:black"/>
<polygon points="55.151,69.438 55.151,70.438 54.351,70.438 54.351,73.538 55.151,73.538 55.151,79.338 54.351,79.338 54.351,82.438 55.151,82.438 55.151,83.438 69.151,83.438 69.151,82.438 69.951,82.438 69.951,79.338 69.151,79.338 69.151,73.538 69.951,73.538 69.951,70.438 69.151,70.438 69.151,69.438" style="fill:none;stroke-width:0.050000mm;stroke:black"/>
<polygon points="74.201,69.438 74.201,70.438 73.401,70.438 73.401,73.538 74.201,73.538 74.201,79.338 73.401,79.338 73.401,82.438 74.201,82.438 74.201,83.438 88.201,83.438 88.201,82.438 89.001,82.438 89.001,79.338 88.201,79.338 88.201,73.538 89.001,73.538 89.001,70.438 88.201,70.438 88.201,69.438" style="fill:none;stroke-width:0.050000mm;stroke:black"/>
<polygon points="93.251,69.438 93.251,70.438 92.451,70.438 92.451,73.538 93.251,73.538 93.251,79.338 92.451,79.338 92.451,82.438 93.251,82.438 93.251,83.438 107.251,83.438 107.251,82.438 108.051,82.438 108.051,79.338 107.251,79.338 107.251,73.538 108.051,73.538 108.051,70.438 107.251,70.438 107.251,69.438" style="fill:none;stroke-width:0.050000mm;stroke:black"/>
<polygon points="112.301,69.438 112.301,70.438 111.501,70.438 111.501,73.538 112.301,73.538 112.301,79.338 111.501,79.338 111.501,82.438 112.301,82.438 112.301,83.438 126.301,83.438 126.301,82.438 127.101,82.438 127.101,79.338 126.301,79.338 126.301,73.538 127.101,73.538 127.101,70.438 126.301,70.438 126.301,69.438" style="fill:none;stroke-width:0.050000mm;stroke:black"/>
<polygon points="131.351,69.438 131.351,70.438 130.550,70.438 130.550,73.538 131.351,73.538 131.351,79.338 130.550,79.338 130.550,82.438 131.351,82.438 131.351,83.438 145.351,83.438 145.351,82.438 146.151,82.438 146.151,79.338 145.351,79.338 145.351,73.538 146.151,73.538 146.151,70.438 145.351,70.438 145.351,69.438" style="fill:none;stroke-width:0.050000mm;stroke:black"/>
<polygon points="150.401,69.438 150.401,70.438 149.601,70.438 149.601,73.538 150.401,73.538 150.401,79.338 149.601,79.338 149.601,82.438 150.401,82.438 150.401,83.438 164.401,83.438 164.401,82.438 165.201,82.438 165.201,79.338 164.401,79.338 164.401,73.538 165.201,73.538 165.201,70.438 164.401,70.438 164.401,69.438" style="fill:none;stroke-width:0.050000mm;stroke:black"/>
<polygon points="169.451,69.438 169.451,70.438 168.651,70.438 168.651,73.538 169.451,73.538 169.451,79.338 168.651,79.338 168.651,82.438 169.451,82.438 169.451,83.438 183.451,83.438 183.451,82.438 184.251,82.438 184.251,79.338 183.451,79.338 183.451,73.538 184.251,73.538 184.251,70.438 183.451,70.438 183.451,69.438" style="fill:none;stroke-width:0.050000mm;stroke:black"/>
<polygon points="188.501,69.438 188.501,70.438 187.701,70.438 187.701,73.538 188.501,73.538 188.501,79.338 187.701,79.338 187.701,82.438 188.501,82.438 188.501,83.438 202.501,83.438 202.501,82.438 203.301,82.438 203.301,79.338 202.501,79.338 202.501,73.538 203.301,73.538 203.301,70.438 202.501,70.438 202.501,69.438" style="fill:none;stroke-width:0.050000mm;stroke:black"/>
<polygon points="207.551,69.438 207.551,70.438 206.751,70.438 206.751,73.538 207.551,73.538 207.551,79.338 206.751,79.338 206.751,82.438 207.551,82.438 207.551,83.438 221.551,83.438 221.551,82.438 222.351,82.438 222.351,79.338 221.551,79.338 221.551,73.538 222.351,73.538 222.351,70.438 221.551,70.438 221.551,69.438" style="fill:none;stroke-width:0.050000mm;stroke:black"/>
<polygon points="226.601,69.438 226.601,70.438 225.801,70.438 225.801,73.538 226.601,73.538 226.601,79.338 225.801,79.338 225.801,82.438 226.601,82.438 226.601,83.438 240.601,83.438 240.601,82.438 241.401,82.438 241.401,79.338 240.601,79.338 240.601,73.538 241.401,73.538 241.401,70.438 240.601,70.438 240.601,69.438" style="fill:none;stroke-width:0.050000mm;stroke:black"/>
<polygon points="245.651,69.438 245.651,70.438 244.851,70.438 244.851,73.538 245.651,73.538 245.651,79.338 244.851,79.338 244.851,82.438 245.651,82.438 245.651,83.438 259.650,83.438 259.650,82.438 260.451,82.438 260.451,79.338 259.650,79.338 259.650,73.538 260.451,73.538 260.451,70.438 259.650,70.438 259.650,69.438" style="fill:none;stroke-width:0.050000mm;stroke:black"/>
<polygon points="269.463,69.438 269.463,70.438 268.663,70.438 268.663,73.538 269.463,73.538 269.463,79.338 268.663,79.338 268.663,82.438 269.463,82.438 269.463,83.438 283.463,83.438 283.463,82.438 284.263,82.438 284.263,79.338 283.463,79.338 283.463,73.538 284.263,73.538 284.263,70.438 283.463,70.438 283.463,69.438" style="fill:none;stroke-width:0.050000mm;stroke:black"/>
<polygon points="359.951,69.438 359.951,70.438 359.151,70.438 359.151,73.538 359.951,73.538 359.951,79.338 359.151,79.338 359.151,82.438 359.951,82.438 359.951,83.438 373.951,83.438 373.951,82.438 374.751,82.438 374.751,79.338 373.951,79.338 373.951,73.538 374.751,73.538 374.751,70.438 373.951,70.438 373.951,69.438" style="fill:none;stroke-width:0.050000mm;stroke:black"/>
<polygon points="379.001,69.438 379.001,70.438 378.201,70.438 378.201,73.538 379.001,73.538 379.001,79.338 378.201,79.338 378.201,82.438 379.001,82.438 379.001,83.438 393.001,83.438 393.001,82.438 393.801,82.438 393.801,79.338 393.001,79.338 393.001,73.538 393.801,73.538 393.801,70.438 393.001,70.438 393.001,69.438" style="fill:none;stroke-width:0.050000mm;stroke:black"/>
<polygon points="398.051,69.438 398.051,70.438 397.251,70.438 397.251,73.538 398.051,73.538 398.051,79.338 397.251,79.338 397.251,82.438 398.051,82.438 398.051,83.438 412.051,83.438 412.051,82.438 412.851,82.438 412.851,79.338 412.051,79.338 412.051,73.538 412.851,73.538 412.851,70.438 412.051,70.438 412.051,69.438" style="fill:none;stroke-width:0.050000mm;stroke:black"/>
<polygon points="264.701,50.388 264.701,51.388 263.901,51.388 263.901,54.488 264.701,54.488 264.701,55.088 263.176,55.088 263.176,51.858 261.451,51.858 261.451,50.938 258.150,50.938 258.150,51.858 256.426,51.858 256.426,55.088 255.601,55.088 255.601,57.888 256.426,57.888 256.426,64.158 258.150,64.158 258.150,65.138 261.451,65.138 261.451,64.158 263.176,64.158 263.176,59.688 264.701,59.688 264.701,60.288 263.901,60.288 263.901,63.388 264.701,63.388 264.701,64.388 278.701,64.388 278.701,63.388 279.501,63.388 279.501,60.288 278.701,60.288 278.701,59.688 280.226,59.688 280.226,64.158 281.951,64.158 281.951,65.138 285.251,65.138 285.251,64.158 286.976,64.158 286.976,57.888 287.801,57.888 287.801,55.088 286.976,55.088 286.976,51.858 285.251,51.858 285.251,50.938 281.951,50.938 281.951,51.858 280.226,51.858 280.226,55.088 278.701,55.088 278.701,54.488 279.501,54.488 279.501,51.388 278.701,51.388 278.701,50.388" style="fill:none;stroke-width:0.050000mm;stroke:black"/>
<polygon points="7.526,50.388 7.526,51.388 6.726,51.388 6.726,54.488 7.526,54.488 7.526,60.288 6.726,60.288 6.726,63.388 7.526,63.388 7.526,64.388 21.526,64.388 21.526,63.388 22.326,63.388 22.326,60.288 21.526,60.288 21.526,54.488 22.326,54.488 22.326,51.388 21.526,51.388 21.526,50.388" style="fill:none;stroke-width:0.050000mm;stroke:black"/>
<polygon points="26.576,50.388 26.576,51.388 25.776,51.388 25.776,54.488 26.576,54.488 26.576,60.288 25.776,60.288 25.776,63.388 26.576,63.388 26.576,64.388 40.576,64.388 40.576,63.388 41.376,63.388 41.376,60.288 40.576,60.288 40.576,54.488 41.376,54.488 41.376,51.388 40.576,51.388 40.576,50.388" style="fill:none;stroke-width:0.050000mm;stroke:black"/>
<polygon points="45.626,50.388 45.626,51.388 44.826,51.388 44.826,54.488 45.626,54.488 45.626,60.288 44.826,60.288 44.826,63.388 45.626,63.388 45.626,64.388 59.626,64.388 59.626,63.388 60.426,63.388 60.426,60.288 59.626,60.288 59.626,54.488 60.426,54.488 60.426,51.388 59.626,51.388 59.626,50.388" style="fill:none;stroke-width:0.050000mm;stroke:black"/>
<polygon points="64.676,50.388 64.676,51.388 63.876,51.388 63.876,54.488 64.676,54.488 64.676,60.288 63.876,60.288 63.876,63.388 64.676,63.388 64.676,64.388 78.676,64.388 78.676,63.388 79.476,63.388 79.476,60.288 78.676,60.288 78.676,54.488 79.476,54.488 79.476,51.388 78.676,51.388 78.676,50.388" style="fill:none;stroke-width:0.050000mm;stroke:black"/>
<polygon points="83.726,50.388 83.726,51.388 82.926,51.388 82.926,54.488 83.726,54.488 83.726,60.288 82.926,60.288 82.926,63.388 83.726,63.388 83.726,64.388 97.726,64.388 97.726,63.388 98.525,63.388 98.525,60.288 97.726,60.288 97.726,54.488 98.525,54.488 98.525,51.388 97.726,51.388 97.726,50.388" style="fill:none;stroke-width:0.050000mm;stroke:black"/>
<polygon points="102.775,50.388 102.775,51.388 101.976,51.388 101.976,54.488 102.775,54.488 102.775,60.288 101.976,60.288 101.976,63.388 102.775,63.388 102.775,64.388 116.775,64.388 116.775,63.388 117.575,63.388 117.575,60.288 116.775,60.288 116.775,54.488 117.575,54.488 117.575,51.388 116.775,51.388 116.775,50.388" style="fill:none;stroke-width:0.050000mm;stroke:black"/>
<polygon points="121.825,50.388 121.825,51.388 121.025,51.388 121.025,54.488 121.825,54.488 121.825,60.288 121.025,60.288 121.025,63.388 121.825,63.388 121.825,64.388 135.826,64.388 135.826,63.388 136.626,63.388 136.626,60.288 135.826,60.288 135.826,54.488 136.626,54.488 136.626,51.388 135.826,51.388 135.826,50.388" style="fill:none;stroke-width:0.050000mm;stroke:black"/>
<polygon points="140.876,50.388 140.876,51.388 140.076,51.388 140.076,54.488 140.876,54.488 140.876,60.288 140.076,60.288 140.076,63.388 140.876,63.388 140.876,64.388 154.876,64.388 154.876,63.388 155.676,63.388 155.676,60.288 154.876,60.288 154.876,54.488 155.676,54.488 155.676,51.388 154.876,51.388 154.876,50.388" style="fill:none;stroke-width:0.050000mm;stroke:black"/>
<polygon points="159.926,50.388 159.926,51.388 159.126,51.388 159.126,54.488 159.926,54.488 159.926,60.288 159.126,60.288 159.126,63.388 159.926,63.388 159.926,64.388 173.926,64.388 173.926,63.388 174.726,63.388 174.726,60.288 173.926,60.288 173.926,54.488 174.726,54.488 174.726,51.388 173.926,51.388 173.926,50.388" style="fill:none;stroke-width:0.050000mm;stroke:black"/>
<polygon points="178.976,50.388 178.976,51.388 178.176,51.388 178.176,54.488 178.976,54.488 178.976,60.288 178.176,60.288 178.176,63.388 178.976,63.388 178.976,64.388 192.976,64.388 192.976,63.388 193.776,63.388 193.776,60.288 192.976,60.288 192.976,54.488 193.776,54.488 193.776,51.388 192.976,51.388 192.976,50.388" style="fill:none;stroke-width:0.050000mm;stroke:black"/>
<polygon points="198.026,50.388 198.026,51.388 197.226,51.388 197.226,54.488 198.026,54.488 198.026,60.288 197.226,60.288 197.226,63.388 198.026,63.388 198.026,64.388 212.026,64.388 212.026,63.388 212.826,63.388 212.826,60.288 212.026,60.288 212.026,54.488 212.826,54.488 212.826,51.388 212.026,51.388 212.026,50.388" style="fill:none;stroke-width:0.050000mm;stroke:black"/>
<polygon points="217.076,50.388 217.076,51.388 216.276,51.388 216.276,54.488 217.076,54.488 217.076,60.288 216.276,60.288 216.276,63.388 217.076,63.388 217.076,64.388 231.076,64.388 231.076,63.388 231.876,63.388 231.876,60.288 231.076,60.288 231.076,54.488 231.876,54.488 231.876,51.388 231.076,51.388 231.076,50.388" style="fill:none;stroke-width:0.050000mm;stroke:black"/>
<polygon points="236.126,50.388 236.126,51.388 235.326,51.388 235.326,54.488 236.126,54.488 236.126,60.288 235.326,60.288 235.326,63.388 236.126,63.388 236.126,64.388 250.126,64.388 250.126,63.388 250.926,63.388 250.926,60.288 250.126,60.288 250.126,54.488 250.926,54.488 250.926,51.388 250.126,51.388 250.126,50.388" style="fill:none;stroke-width:0.050000mm;stroke:black"/>
<polygon points="298.038,50.388 298.038,51.388 297.238,51.388 297.238,54.488 298.038,54.488 298.038,60.288 297.238,60.288 297.238,63.388 298.038,63.388 298.038,64.388 312.038,64.388 312.038,63.388 312.838,63.388 312.838,60.288 312.038,60.288 312.038,54.488 312.838,54.488 312.838,51.388 312.038,51.388 312.038,50.388" style="fill:none;stroke-width:0.050000mm;stroke:black"/>
<polygon points="317.088,50.388 317.088,51.388 316.288,51.388 316.288,54.488 317.088,54.488 317.088,60.288 316.288,60.288 316.288,63.388 317.088,63.388 317.088,64.388 331.088,64.388 331.088,63.388 331.888,63.388 331.888,60.288 331.088,60.288 331.088,54.488 331.888,54.488 331.888,51.388 331.088,51.388 331.088,50.388" style="fill:none;stroke-width:0.050000mm;stroke:black"/>
<polygon points="336.138,50.388 336.138,51.388 335.338,51.388 335.338,54.488 336.138,54.488 336.138,60.288 335.338,60.288 335.338,63.388 336.138,63.388 336.138,64.388 350.138,64.388 350.138,63.388 350.938,63.388 350.938,60.288 350.138,60.288 350.138,54.488 350.938,54.488 350.938,51.388 350.138,51.388 350.138,50.388" style="fill:none;stroke-width:0.050000mm;stroke:black"/>
<polygon points="359.951,50.388 359.951,51.388 359.151,51.388 359.151,54.488 359.951,54.488 359.951,60.288 359.151,60.288 359.151,63.388 359.951,63.388 359.951,64.388 373.951,64.388 373.951,63.388 374.751,63.388 374.751,60.288 373.951,60.288 373.951,54.488 374.751,54.488 374.751,51.388 373.951,51.388 373.951,50.388" style="fill:none;stroke-width:0.050000mm;stroke:black"/>
<polygon points="379.001,50.388 379.001,51.388 378.201,51.388 378.201,54.488 379.001,54.488 379.001,60.288 378.201,60.288 378.201,63.388 379.001,63.388 379.001,64.388 393.001,64.388 393.001,63.388 393.801,63.388 393.801,60.288 393.001,60.288 393.001,54.488 393.801,54.488 393.801,51.388 393.001,51.388 393.001,50.388" style="fill:none;stroke-width:0.050000mm;stroke:black"/>
<polygon points="398.051,50.388 398.051,51.388 397.251,51.388 397.251,54.488 398.051,54.488 398.051,60.288 397.251,60.288 397.251,63.388 398.051,63.388 398.051,64.388 412.051,64.388 412.051,63.388 412.851,63.388 412.851,60.288 412.051,60.288 412.051,54.488 412.851,54.488 412.851,51.388 412.051,51.388 412.051,50.388" style="fill:none;stroke-width:0.050000mm;stroke:black"/>
<polygon points="417.101,50.388 417.101,51.388 416.301,51.388 416.301,54.488 417.101,54.488 417.101,60.288 416.301,60.288 416.301,63.388 417.101,63.388 417.101,64.388 431.101,64.388 431.101,63.388 431.901,63.388 431.901,60.288 431.101,60.288 431.101,54.488 431.901,54.488 431.901,51.388 431.101,51.388 431.101,50.388" style="fill:none;stroke-width:0.050000mm;stroke:black"/>
<polygon points="7.526,31.338 7.526,32.338 6.726,32.338 6.726,35.438 7.526,35.438 7.526,41.238 6.726,41.238 6.726,44.338 7.526,44.338 7.526,45.338 21.526,45.338 21.526,44.338 22.326,44.338 22.326,41.238 21.526,41.238 21.526,35.438 22.326,35.438 22.326,32.338 21.526,32.338 21.526,31.338" style="fill:none;stroke-width:0.050000mm;stroke:black"/>
<polygon points="226.601,31.338 226.601,32.338 225.801,32.338 225.801,35.438 226.601,35.438 226.601,41.238 225.801,41.238 225.801,44.338 226.601,44.338 226.601,45.338 240.601,45.338 240.601,44.338 241.401,44.338 241.401,41.238 240.601,41.238 240.601,35.438 241.401,35.438 241.401,32.338 240.601,32.338 240.601,31.338" style="fill:none;stroke-width:0.050000mm;stroke:black"/>
<polygon points="245.651,31.338 245.651,32.338 244.851,32.338 244.851,35.438 245.651,35.438 245.651,41.238 244.851,41.238 244.851,44.338 245.651,44.338 245.651,45.338 259.650,45.338 259.650,44.338 260.451,44.338 260.451,41.238 259.650,41.238 259.650,35.438 260.451,35.438 260.451,32.338 259.650,32.338 259.650,31.338" style="fill:none;stroke-width:0.050000mm;stroke:black"/>
<polygon points="274.226,31.338 274.226,32.338 273.426,32.338 273.426,35.438 274.226,35.438 274.226,41.238 273.426,41.238 273.426,44.338 274.226,44.338 274.226,45.338 288.226,45.338 288.226,44.338 289.026,44.338 289.026,41.238 288.226,41.238 288.226,35.438 289.026,35.438 289.026,32.338 288.226,32.338 288.226,31.338" style="fill:none;stroke-width:0.050000mm;stroke:black"/>
<polygon points="398.051,31.338 398.051,32.338 397.251,32.338 397.251,35.438 398.051,35.438 398.051,41.238 397.251,41.238 397.251,44.338 398.051,44.338 398.051,45.338 412.051,45.338 412.051,44.338 412.851,44.338 412.851,41.238 412.051,41.238 412.051,35.438 412.851,35.438 412.851,32.338 412.051,32.338 412.051,31.338" style="fill:none;stroke-width:0.050000mm;stroke:black"/>
<polygon points="417.101,31.338 417.101,32.338 416.301,32.338 416.301,35.438 417.101,35.438 417.101,41.238 416.301,41.238 416.301,44.338 417.101,44.338 417.101,45.338 431.101,45.338 431.101,44.338 431.901,44.338 431.901,41.238 431.101,41.238 431.101,35.438 431.901,35.438 431.901,32.338 431.101,32.338 431.101,31.338" style="fill:none;stroke-width:0.050000mm;stroke:black"/>
<polygon points="7.526,7.526 7.526,8.526 6.726,8.526 6.726,11.626 7.526,11.626 7.526,17.426 6.726,17.426 6.726,20.526 7.526,20.526 7.526,21.526 21.526,21.526 21.526,20.526 22.326,20.526 22.326,17.426 21.526,17.426 21.526,11.626 22.326,11.626 22.326,8.526 21.526,8.526 21.526,7.526" style="fill:none;stroke-width:0.050000mm;stroke:black"/>
<polygon points="45.626,7.526 45.626,8.526 44.826,8.526 44.826,11.626 45.626,11.626 45.626,17.426 44.826,17.426 44.826,20.526 45.626,20.526 45.626,21.526 59.626,21.526 59.626,20.526 60.426,20.526 60.426,17.426 59.626,17.426 59.626,11.626 60.426,11.626 60.426,8.526 59.626,8.526 59.626,7.526" style="fill:none;stroke-width:0.050000mm;stroke:black"/>
<polygon points="64.676,7.526 64.676,8.526 63.876,8.526 63.876,11.626 64.676,11.626 64.676,17.426 63.876,17.426 63.876,20.526 64.676,20.526 64.676,21.526 78.676,21.526 78.676,20.526 79.476,20.526 79.476,17.426 78.676,17.426 78.676,11.626 79.476,11.626 79.476,8.526 78.676,8.526 78.676,7.526" style="fill:none;stroke-width:0.050000mm;stroke:black"/>
<polygon points="83.726,7.526 83.726,8.526 82.926,8.526 82.926,11.626 83.726,11.626 83.726,17.426 82.926,17.426 82.926,20.526 83.726,20.526 83.726,21.526 97.726,21.526 97.726,20.526 98.525,20.526 98.525,17.426 97.726,17.426 97.726,11.626 98.525,11.626 98.525,8.526 97.726,8.526 97.726,7.526" style="fill:none;stroke-width:0.050000mm;stroke:black"/>
<polygon points="102.775,7.526 102.775,8.526 101.976,8.526 101.976,11.626 102.775,11.626 102.775,17.426 101.976,17.426 101.976,20.526 102.775,20.526 102.775,21.526 116.775,21.526 116.775,20.526 117.575,20.526 117.575,17.426 116.775,17.426 116.775,11.626 117.575,11.626 117.575,8.526 116.775,8.526 116.775,7.526" style="fill:none;stroke-width:0.050000mm;stroke:black"/>
<polygon points="131.351,7.526 131.351,8.526 130.550,8.526 130.550,11.626 131.351,11.626 131.351,17.426 130.550,17.426 130.550,20.526 131.351,20.526 131.351,21.526 145.351,21.526 145.351,20.526 146.151,20.526 146.151,17.426 145.351,17.426 145.351,11.626 146.151,11.626 146.151,8.526 145.351,8.526 145.351,7.526" style="fill:none;stroke-width:0.050000mm;stroke:black"/>
<polygon points="150.401,7.526 150.401,8.526 149.601,8.526 149.601,11.626 150.401,11.626 150.401,17.426 149.601,17.426 149.601,20.526 150.401,20.526 150.401,21.526 164.401,21.526 164.401,20.526 165.201,20.526 165.201,17.426 164.401,17.426 164.401,11.626 165.201,11.626 165.201,8.526 164.401,8.526 164.401,7.526" style="fill:none;stroke-width:0.050000mm;stroke:black"/>
<polygon points="169.451,7.526 169.451,8.526 168.651,8.526 168.651,11.626 169.451,11.626 169.451,17.426 168.651,17.426 168.651,20.526 169.451,20.526 169.451,21.526 183.451,21.526 183.451,20.526 184.251,20.526 184.251,17.426 183.451,17.426 183.451,11.626 184.251,11.626 184.251,8.526 183.451,8.526 183.451,7.526" style="fill:none;stroke-width:0.050000mm;stroke:black"/>
<polygon points="188.501,7.526 188.501,8.526 187.701,8.526 187.701,11.626 188.501,11.626 188.501,17.426 187.701,17.426 187.701,20.526 188.501,20.526 188.501,21.526 202.501,21.526 202.501,20.526 203.301,20.526 203.301,17.426 202.501,17.426 202.501,11.626 203.301,11.626 203.301,8.526 202.501,8.526 202.501,7.526" style="fill:none;stroke-width:0.050000mm;stroke:black"/>
<polygon points="217.076,7.526 217.076,8.526 216.276,8.526 216.276,11.626 217.076,11.626 217.076,17.426 216.276,17.426 216.276,20.526 217.076,20.526 217.076,21.526 231.076,21.526 231.076,20.526 231.876,20.526 231.876,17.426 231.076,17.426 231.076,11.626 231.876,11.626 231.876,8.526 231.076,8.526 231.076,7.526" style="fill:none;stroke-width:0.050000mm;stroke:black"/>
<polygon points="236.126,7.526 236.126,8.526 235.326,8.526 235.326,11.626 236.126,11.626 236.126,17.426 235.326,17.426 235.326,20.526 236.126,20.526 236.126,21.526 250.126,21.526 250.126,20.526 250.926,20.526 250.926,17.426 250.126,17.426 250.126,11.626 250.926,11.626 250.926,8.526 250.126,8.526 250.126,7.526" style="fill:none;stroke-width:0.050000mm;stroke:black"/>
<polygon points="255.176,7.526 255.176,8.526 254.376,8.526 254.376,11.626 255.176,11.626 255.176,17.426 254.376,17.426 254.376,20.526 255.176,20.526 255.176,21.526 269.176,21.526 269.176,20.526 269.976,20.526 269.976,17.426 269.176,17.426 269.176,11.626 269.976,11.626 269.976,8.526 269.176,8.526 269.176,7.526" style="fill:none;stroke-width:0.050000mm;stroke:black"/>
<polygon points="274.226,7.526 274.226,8.526 273.426,8.526 273.426,11.626 274.226,11.626 274.226,17.426 273.426,17.426 273.426,20.526 274.226,20.526 274.226,21.526 288.226,21.526 288.226,20.526 289.026,20.526 289.026,17.426 288.226,17.426 288.226,11.626 289.026,11.626 289.026,8.526 288.226,8.526 288.226,7.526" style="fill:none;stroke-width:0.050000mm;stroke:black"/>
</svg>
