<?xml version="1.0"?>
<!-- Generated by SVGo -->
<svg width="442.627mm" height="152.114mm"
     viewBox="0.000 0.000 442.627 152.114"
     xmlns="http://www.w3.org/2000/svg" 
     xmlns:xlink="http://www.w3.org/1999/xlink">
<polygon points="435.627,5.001 435.783,5.007 435.939,5.025 436.093,5.056 436.245,5.098 436.392,5.153 436.534,5.218 436.671,5.295 436.802,5.382 436.925,5.480 437.041,5.586 437.147,5.702 437.245,5.825 437.332,5.956 437.409,6.093 437.474,6.235 437.529,6.382 437.571,6.534 437.602,6.688 437.620,6.844 437.627,7.001 437.627,145.114 437.620,145.271 437.602,145.427 437.571,145.581 437.529,145.732 437.474,145.879 437.409,146.022 437.332,146.159 437.245,146.290 437.147,146.413 437.041,146.528 436.925,146.635 436.802,146.732 436.671,146.819 436.534,146.896 436.392,146.962 436.245,147.016 436.093,147.059 435.939,147.089 435.783,147.108 435.627,147.114 7.001,147.114 6.844,147.108 6.688,147.089 6.534,147.059 6.382,147.016 6.235,146.962 6.093,146.896 5.956,146.819 5.825,146.732 5.702,146.635 5.586,146.528 5.480,146.413 5.382,146.290 5.295,146.159 5.218,146.022 5.153,145.879 5.098,145.732 5.056,145.581 5.025,145.427 5.007,145.271 5.000,145.114 5.001,7.001 5.007,6.844 5.025,6.688 5.056,6.534 5.098,6.382 5.153,6.235 5.218,6.093 5.295,5.956 5.382,5.825 5.480,5.702 5.586,5.586 5.702,5.480 5.825,5.382 5.956,5.295 6.093,5.218 6.235,5.153 6.382,5.098 6.534,5.056 6.688,5.025 6.844,5.007 7.001,5.000" style="fill:none;stroke-width:0.050000mm;stroke:black"/>
<polygon points="154.782,128.587 154.782,129.587 153.982,129.587 153.982,132.688 154.782,132.688 154.782,133.288 115.157,133.288 115.157,130.057 108.407,130.057 108.407,133.288 107.582,133.288 107.582,136.088 108.407,136.088 108.407,142.358 110.132,142.358 110.132,143.558 113.432,143.558 113.432,142.358 115.157,142.358 115.157,137.888 154.782,137.888 154.782,138.488 153.982,138.488 153.982,141.588 154.782,141.588 154.782,142.588 168.782,142.588 168.782,141.588 169.582,141.588 169.582,138.488 168.782,138.488 168.782,137.888 208.407,137.888 208.407,142.358 210.132,142.358 210.132,143.558 213.432,143.558 213.432,142.358 215.157,142.358 215.157,136.088 215.982,136.088 215.982,133.288 215.157,133.288 215.157,130.057 208.407,130.057 208.407,133.288 168.782,133.288 168.782,132.688 169.582,132.688 169.582,129.587 168.782,129.587 168.782,128.587" style="fill:none;stroke-width:0.050000mm;stroke:black"/>
<polygon points="371.476,128.587 371.476,129.587 370.676,129.587 370.676,132.688 371.476,132.688 371.476,133.288 369.951,133.288 369.951,130.057 363.201,130.057 363.201,133.288 362.376,133.288 362.376,136.088 363.201,136.088 363.201,142.358 364.926,142.358 364.926,143.558 368.226,143.558 368.226,142.358 369.951,142.358 369.951,137.888 371.476,137.888 371.476,138.488 370.676,138.488 370.676,141.588 371.476,141.588 371.476,142.588 385.476,142.588 385.476,141.588 386.276,141.588 386.276,138.488 385.476,138.488 385.476,137.888 387.001,137.888 387.001,142.358 388.726,142.358 388.726,143.558 392.026,143.558 392.026,142.358 393.751,142.358 393.751,136.088 394.576,136.088 394.576,133.288 393.751,133.288 393.751,130.057 387.001,130.057 387.001,133.288 385.476,133.288 385.476,132.688 386.276,132.688 386.276,129.587 385.476,129.587 385.476,128.587" style="fill:none;stroke-width:0.050000mm;stroke:black"/>
<polygon points="11.907,128.587 11.907,129.587 11.107,129.587 11.107,132.688 11.907,132.688 11.907,138.488 11.107,138.488 11.107,141.588 11.907,141.588 11.907,142.588 25.907,142.588 25.907,141.588 26.707,141.588 26.707,138.488 25.907,138.488 25.907,132.688 26.707,132.688 26.707,129.587 25.907,129.587 25.907,128.587" style="fill:none;stroke-width:0.050000mm;stroke:black"/>
<polygon points="35.719,128.587 35.719,129.587 34.919,129.587 34.919,132.688 35.719,132.688 35.719,138.488 34.919,138.488 34.919,141.588 35.719,141.588 35.719,142.588 49.719,142.588 49.719,141.588 50.519,141.588 50.519,138.488 49.719,138.488 49.719,132.688 50.519,132.688 50.519,129.587 49.719,129.587 49.719,128.587" style="fill:none;stroke-width:0.050000mm;stroke:black"/>
<polygon points="59.532,128.587 59.532,129.587 58.732,129.587 58.732,132.688 59.532,132.688 59.532,138.488 58.732,138.488 58.732,141.588 59.532,141.588 59.532,142.588 73.532,142.588 73.532,141.588 74.332,141.588 74.332,138.488 73.532,138.488 73.532,132.688 74.332,132.688 74.332,129.587 73.532,129.587 73.532,128.587" style="fill:none;stroke-width:0.050000mm;stroke:black"/>
<polygon points="83.344,128.587 83.344,129.587 82.544,129.587 82.544,132.688 83.344,132.688 83.344,138.488 82.544,138.488 82.544,141.588 83.344,141.588 83.344,142.588 97.344,142.588 97.344,141.588 98.144,141.588 98.144,138.488 97.344,138.488 97.344,132.688 98.144,132.688 98.144,129.587 97.344,129.587 97.344,128.587" style="fill:none;stroke-width:0.050000mm;stroke:black"/>
<polygon points="226.219,128.587 226.219,129.587 225.419,129.587 225.419,132.688 226.219,132.688 226.219,138.488 225.419,138.488 225.419,141.588 226.219,141.588 226.219,142.588 240.219,142.588 240.219,141.588 241.019,141.588 241.019,138.488 240.219,138.488 240.219,132.688 241.019,132.688 241.019,129.587 240.219,129.587 240.219,128.587" style="fill:none;stroke-width:0.050000mm;stroke:black"/>
<polygon points="250.032,128.587 250.032,129.587 249.232,129.587 249.232,132.688 250.032,132.688 250.032,138.488 249.232,138.488 249.232,141.588 250.032,141.588 250.032,142.588 264.032,142.588 264.032,141.588 264.832,141.588 264.832,138.488 264.032,138.488 264.032,132.688 264.832,132.688 264.832,129.587 264.032,129.587 264.032,128.587" style="fill:none;stroke-width:0.050000mm;stroke:black"/>
<polygon points="273.844,128.587 273.844,129.587 273.044,129.587 273.044,132.688 273.844,132.688 273.844,138.488 273.044,138.488 273.044,141.588 273.844,141.588 273.844,142.588 287.844,142.588 287.844,141.588 288.644,141.588 288.644,138.488 287.844,138.488 287.844,132.688 288.644,132.688 288.644,129.587 287.844,129.587 287.844,128.587" style="fill:none;stroke-width:0.050000mm;stroke:black"/>
<polygon points="300.038,128.587 300.038,129.587 299.238,129.587 299.238,132.688 300.038,132.688 300.038,138.488 299.238,138.488 299.238,141.588 300.038,141.588 300.038,142.588 314.038,142.588 314.038,141.588 314.838,141.588 314.838,138.488 314.038,138.488 314.038,132.688 314.838,132.688 314.838,129.587 314.038,129.587 314.038,128.587" style="fill:none;stroke-width:0.050000mm;stroke:black"/>
<polygon points="319.088,128.587 319.088,129.587 318.288,129.587 318.288,132.688 319.088,132.688 319.088,138.488 318.288,138.488 318.288,141.588 319.088,141.588 319.088,142.588 333.088,142.588 333.088,141.588 333.888,141.588 333.888,138.488 333.088,138.488 333.088,132.688 333.888,132.688 333.888,129.587 333.088,129.587 333.088,128.587" style="fill:none;stroke-width:0.050000mm;stroke:black"/>
<polygon points="338.138,128.587 338.138,129.587 337.338,129.587 337.338,132.688 338.138,132.688 338.138,138.488 337.338,138.488 337.338,141.588 338.138,141.588 338.138,142.588 352.138,142.588 352.138,141.588 352.938,141.588 352.938,138.488 352.138,138.488 352.138,132.688 352.938,132.688 352.938,129.587 352.138,129.587 352.138,128.587" style="fill:none;stroke-width:0.050000mm;stroke:black"/>
<polygon points="400.051,128.587 400.051,129.587 399.251,129.587 399.251,132.688 400.051,132.688 400.051,138.488 399.251,138.488 399.251,141.588 400.051,141.588 400.051,142.588 414.051,142.588 414.051,141.588 414.851,141.588 414.851,138.488 414.051,138.488 414.051,132.688 414.851,132.688 414.851,129.587 414.051,129.587 414.051,128.587" style="fill:none;stroke-width:0.050000mm;stroke:black"/>
<polygon points="425.601,109.963 425.601,110.788 419.331,110.788 419.331,112.513 418.131,112.513 418.131,115.813 419.331,115.813 419.331,117.538 423.801,117.538 423.801,119.063 423.201,119.063 423.201,118.263 420.101,118.263 420.101,119.063 419.101,119.063 419.101,133.063 420.101,133.063 420.101,133.863 423.201,133.863 423.201,133.063 423.801,133.063 423.801,134.588 419.331,134.588 419.331,136.313 418.131,136.313 418.131,139.613 419.331,139.613 419.331,141.338 425.601,141.338 425.601,142.163 428.401,142.163 428.401,141.338 431.631,141.338 431.631,134.588 428.401,134.588 428.401,133.063 429.001,133.063 429.001,133.863 432.101,133.863 432.101,133.063 433.101,133.063 433.101,119.063 432.101,119.063 432.101,118.263 429.001,118.263 429.001,119.063 428.401,119.063 428.401,117.538 431.631,117.538 431.631,110.788 428.401,110.788 428.401,109.963" style="fill:none;stroke-width:0.050000mm;stroke:black"/>
<polygon points="21.432,109.538 21.432,110.538 20.632,110.538 20.632,113.638 21.432,113.638 21.432,114.238 19.907,114.238 19.907,111.008 13.157,111.008 13.157,114.238 12.332,114.238 12.332,117.038 13.157,117.038 13.157,123.308 14.882,123.308 14.882,124.508 18.182,124.508 18.182,123.308 19.907,123.308 19.907,118.838 21.432,118.838 21.432,119.438 20.632,119.438 20.632,122.538 21.432,122.538 21.432,123.538 35.432,123.538 35.432,122.538 36.232,122.538 36.232,119.438 35.432,119.438 35.432,118.838 36.957,118.838 36.957,123.308 38.682,123.308 38.682,124.508 41.982,124.508 41.982,123.308 43.707,123.308 43.707,117.038 44.532,117.038 44.532,114.238 43.707,114.238 43.707,111.008 36.957,111.008 36.957,114.238 35.432,114.238 35.432,113.638 36.232,113.638 36.232,110.538 35.432,110.538 35.432,109.538" style="fill:none;stroke-width:0.050000mm;stroke:black"/>
<polygon points="259.556,109.538 259.556,110.538 258.756,110.538 258.756,113.638 259.556,113.638 259.556,114.238 258.032,114.238 258.032,111.008 251.282,111.008 251.282,114.238 250.457,114.238 250.457,117.038 251.282,117.038 251.282,123.308 253.007,123.308 253.007,124.508 256.306,124.508 256.306,123.308 258.032,123.308 258.032,118.838 259.556,118.838 259.556,119.438 258.756,119.438 258.756,122.538 259.556,122.538 259.556,123.538 273.557,123.538 273.557,122.538 274.357,122.538 274.357,119.438 273.557,119.438 273.557,118.838 275.082,118.838 275.082,123.308 276.807,123.308 276.807,124.508 280.107,124.508 280.107,123.308 281.832,123.308 281.832,117.038 282.657,117.038 282.657,114.238 281.832,114.238 281.832,111.008 275.082,111.008 275.082,114.238 273.557,114.238 273.557,113.638 274.357,113.638 274.357,110.538 273.557,110.538 273.557,109.538" style="fill:none;stroke-width:0.050000mm;stroke:black"/>
<polygon points="52.388,109.538 52.388,110.538 51.588,110.538 51.588,113.638 52.388,113.638 52.388,119.438 51.588,119.438 51.588,122.538 52.388,122.538 52.388,123.538 66.388,123.538 66.388,122.538 67.188,122.538 67.188,119.438 66.388,119.438 66.388,113.638 67.188,113.638 67.188,110.538 66.388,110.538 66.388,109.538" style="fill:none;stroke-width:0.050000mm;stroke:black"/>
<polygon points="71.438,109.538 71.438,110.538 70.638,110.538 70.638,113.638 71.438,113.638 71.438,119.438 70.638,119.438 70.638,122.538 71.438,122.538 71.438,123.538 85.438,123.538 85.438,122.538 86.238,122.538 86.238,119.438 85.438,119.438 85.438,113.638 86.238,113.638 86.238,110.538 85.438,110.538 85.438,109.538" style="fill:none;stroke-width:0.050000mm;stroke:black"/>
<polygon points="90.488,109.538 90.488,110.538 89.688,110.538 89.688,113.638 90.488,113.638 90.488,119.438 89.688,119.438 89.688,122.538 90.488,122.538 90.488,123.538 104.488,123.538 104.488,122.538 105.288,122.538 105.288,119.438 104.488,119.438 104.488,113.638 105.288,113.638 105.288,110.538 104.488,110.538 104.488,109.538" style="fill:none;stroke-width:0.050000mm;stroke:black"/>
<polygon points="109.538,109.538 109.538,110.538 108.738,110.538 108.738,113.638 109.538,113.638 109.538,119.438 108.738,119.438 108.738,122.538 109.538,122.538 109.538,123.538 123.538,123.538 123.538,122.538 124.338,122.538 124.338,119.438 123.538,119.438 123.538,113.638 124.338,113.638 124.338,110.538 123.538,110.538 123.538,109.538" style="fill:none;stroke-width:0.050000mm;stroke:black"/>
<polygon points="128.587,109.538 128.587,110.538 127.788,110.538 127.788,113.638 128.587,113.638 128.587,119.438 127.788,119.438 127.788,122.538 128.587,122.538 128.587,123.538 142.588,123.538 142.588,122.538 143.388,122.538 143.388,119.438 142.588,119.438 142.588,113.638 143.388,113.638 143.388,110.538 142.588,110.538 142.588,109.538" style="fill:none;stroke-width:0.050000mm;stroke:black"/>
<polygon points="147.638,109.538 147.638,110.538 146.838,110.538 146.838,113.638 147.638,113.638 147.638,119.438 146.838,119.438 146.838,122.538 147.638,122.538 147.638,123.538 161.638,123.538 161.638,122.538 162.438,122.538 162.438,119.438 161.638,119.438 161.638,113.638 162.438,113.638 162.438,110.538 161.638,110.538 161.638,109.538" style="fill:none;stroke-width:0.050000mm;stroke:black"/>
<polygon points="166.688,109.538 166.688,110.538 165.888,110.538 165.888,113.638 166.688,113.638 166.688,119.438 165.888,119.438 165.888,122.538 166.688,122.538 166.688,123.538 180.688,123.538 180.688,122.538 181.488,122.538 181.488,119.438 180.688,119.438 180.688,113.638 181.488,113.638 181.488,110.538 180.688,110.538 180.688,109.538" style="fill:none;stroke-width:0.050000mm;stroke:black"/>
<polygon points="185.738,109.538 185.738,110.538 184.938,110.538 184.938,113.638 185.738,113.638 185.738,119.438 184.938,119.438 184.938,122.538 185.738,122.538 185.738,123.538 199.738,123.538 199.738,122.538 200.538,122.538 200.538,119.438 199.738,119.438 199.738,113.638 200.538,113.638 200.538,110.538 199.738,110.538 199.738,109.538" style="fill:none;stroke-width:0.050000mm;stroke:black"/>
<polygon points="204.788,109.538 204.788,110.538 203.988,110.538 203.988,113.638 204.788,113.638 204.788,119.438 203.988,119.438 203.988,122.538 204.788,122.538 204.788,123.538 218.788,123.538 218.788,122.538 219.588,122.538 219.588,119.438 218.788,119.438 218.788,113.638 219.588,113.638 219.588,110.538 218.788,110.538 218.788,109.538" style="fill:none;stroke-width:0.050000mm;stroke:black"/>
<polygon points="223.838,109.538 223.838,110.538 223.038,110.538 223.038,113.638 223.838,113.638 223.838,119.438 223.038,119.438 223.038,122.538 223.838,122.538 223.838,123.538 237.838,123.538 237.838,122.538 238.638,122.538 238.638,119.438 237.838,119.438 237.838,113.638 238.638,113.638 238.638,110.538 237.838,110.538 237.838,109.538" style="fill:none;stroke-width:0.050000mm;stroke:black"/>
<polygon points="319.088,109.538 319.088,110.538 318.288,110.538 318.288,113.638 319.088,113.638 319.088,119.438 318.288,119.438 318.288,122.538 319.088,122.538 319.088,123.538 333.088,123.538 333.088,122.538 333.888,122.538 333.888,119.438 333.088,119.438 333.088,113.638 333.888,113.638 333.888,110.538 333.088,110.538 333.088,109.538" style="fill:none;stroke-width:0.050000mm;stroke:black"/>
<polygon points="361.951,109.538 361.951,110.538 361.151,110.538 361.151,113.638 361.951,113.638 361.951,119.438 361.151,119.438 361.151,122.538 361.951,122.538 361.951,123.538 375.951,123.538 375.951,122.538 376.751,122.538 376.751,119.438 375.951,119.438 375.951,113.638 376.751,113.638 376.751,110.538 375.951,110.538 375.951,109.538" style="fill:none;stroke-width:0.050000mm;stroke:black"/>
<polygon points="381.001,109.538 381.001,110.538 380.201,110.538 380.201,113.638 381.001,113.638 381.001,119.438 380.201,119.438 380.201,122.538 381.001,122.538 381.001,123.538 395.001,123.538 395.001,122.538 395.801,122.538 395.801,119.438 395.001,119.438 395.001,113.638 395.801,113.638 395.801,110.538 395.001,110.538 395.001,109.538" style="fill:none;stroke-width:0.050000mm;stroke:black"/>
<polygon points="400.051,109.538 400.051,110.538 399.251,110.538 399.251,113.638 400.051,113.638 400.051,119.438 399.251,119.438 399.251,122.538 400.051,122.538 400.051,123.538 414.051,123.538 414.051,122.538 414.851,122.538 414.851,119.438 414.051,119.438 414.051,113.638 414.851,113.638 414.851,110.538 414.051,110.538 414.051,109.538" style="fill:none;stroke-width:0.050000mm;stroke:black"/>
<polygon points="264.319,90.488 264.319,91.488 263.519,91.488 263.519,94.588 264.319,94.588 264.319,95.188 262.794,95.188 262.794,91.958 256.044,91.958 256.044,95.188 255.219,95.188 255.219,97.988 256.044,97.988 256.044,104.258 257.768,104.258 257.768,105.458 261.068,105.458 261.068,104.258 262.794,104.258 262.794,99.788 264.319,99.788 264.319,100.388 263.519,100.388 263.519,103.488 264.319,103.488 264.319,104.488 278.319,104.488 278.319,103.488 279.119,103.488 279.119,100.388 278.319,100.388 278.319,99.788 279.844,99.788 279.844,104.258 281.569,104.258 281.569,105.458 284.869,105.458 284.869,104.258 286.594,104.258 286.594,97.988 287.419,97.988 287.419,95.188 286.594,95.188 286.594,91.958 279.844,91.958 279.844,95.188 278.319,95.188 278.319,94.588 279.119,94.588 279.119,91.488 278.319,91.488 278.319,90.488" style="fill:none;stroke-width:0.050000mm;stroke:black"/>
<polygon points="16.669,90.488 16.669,91.488 15.869,91.488 15.869,94.588 16.669,94.588 16.669,100.388 15.869,100.388 15.869,103.488 16.669,103.488 16.669,104.488 30.669,104.488 30.669,103.488 31.469,103.488 31.469,100.388 30.669,100.388 30.669,94.588 31.469,94.588 31.469,91.488 30.669,91.488 30.669,90.488" style="fill:none;stroke-width:0.050000mm;stroke:black"/>
<polygon points="42.863,90.488 42.863,91.488 42.063,91.488 42.063,94.588 42.863,94.588 42.863,100.388 42.063,100.388 42.063,103.488 42.863,103.488 42.863,104.488 56.863,104.488 56.863,103.488 57.663,103.488 57.663,100.388 56.863,100.388 56.863,94.588 57.663,94.588 57.663,91.488 56.863,91.488 56.863,90.488" style="fill:none;stroke-width:0.050000mm;stroke:black"/>
<polygon points="61.913,90.488 61.913,91.488 61.113,91.488 61.113,94.588 61.913,94.588 61.913,100.388 61.113,100.388 61.113,103.488 61.913,103.488 61.913,104.488 75.913,104.488 75.913,103.488 76.713,103.488 76.713,100.388 75.913,100.388 75.913,94.588 76.713,94.588 76.713,91.488 75.913,91.488 75.913,90.488" style="fill:none;stroke-width:0.050000mm;stroke:black"/>
<polygon points="80.963,90.488 80.963,91.488 80.163,91.488 80.163,94.588 80.963,94.588 80.963,100.388 80.163,100.388 80.163,103.488 80.963,103.488 80.963,104.488 94.963,104.488 94.963,103.488 95.763,103.488 95.763,100.388 94.963,100.388 94.963,94.588 95.763,94.588 95.763,91.488 94.963,91.488 94.963,90.488" style="fill:none;stroke-width:0.050000mm;stroke:black"/>
<polygon points="100.013,90.488 100.013,91.488 99.213,91.488 99.213,94.588 100.013,94.588 100.013,100.388 99.213,100.388 99.213,103.488 100.013,103.488 100.013,104.488 114.013,104.488 114.013,103.488 114.813,103.488 114.813,100.388 114.013,100.388 114.013,94.588 114.813,94.588 114.813,91.488 114.013,91.488 114.013,90.488" style="fill:none;stroke-width:0.050000mm;stroke:black"/>
<polygon points="119.063,90.488 119.063,91.488 118.263,91.488 118.263,94.588 119.063,94.588 119.063,100.388 118.263,100.388 118.263,103.488 119.063,103.488 119.063,104.488 133.063,104.488 133.063,103.488 133.863,103.488 133.863,100.388 133.063,100.388 133.063,94.588 133.863,94.588 133.863,91.488 133.063,91.488 133.063,90.488" style="fill:none;stroke-width:0.050000mm;stroke:black"/>
<polygon points="138.113,90.488 138.113,91.488 137.313,91.488 137.313,94.588 138.113,94.588 138.113,100.388 137.313,100.388 137.313,103.488 138.113,103.488 138.113,104.488 152.113,104.488 152.113,103.488 152.913,103.488 152.913,100.388 152.113,100.388 152.113,94.588 152.913,94.588 152.913,91.488 152.113,91.488 152.113,90.488" style="fill:none;stroke-width:0.050000mm;stroke:black"/>
<polygon points="157.163,90.488 157.163,91.488 156.363,91.488 156.363,94.588 157.163,94.588 157.163,100.388 156.363,100.388 156.363,103.488 157.163,103.488 157.163,104.488 171.163,104.488 171.163,103.488 171.963,103.488 171.963,100.388 171.163,100.388 171.163,94.588 171.963,94.588 171.963,91.488 171.163,91.488 171.163,90.488" style="fill:none;stroke-width:0.050000mm;stroke:black"/>
<polygon points="176.213,90.488 176.213,91.488 175.413,91.488 175.413,94.588 176.213,94.588 176.213,100.388 175.413,100.388 175.413,103.488 176.213,103.488 176.213,104.488 190.213,104.488 190.213,103.488 191.013,103.488 191.013,100.388 190.213,100.388 190.213,94.588 191.013,94.588 191.013,91.488 190.213,91.488 190.213,90.488" style="fill:none;stroke-width:0.050000mm;stroke:black"/>
<polygon points="195.263,90.488 195.263,91.488 194.463,91.488 194.463,94.588 195.263,94.588 195.263,100.388 194.463,100.388 194.463,103.488 195.263,103.488 195.263,104.488 209.263,104.488 209.263,103.488 210.063,103.488 210.063,100.388 209.263,100.388 209.263,94.588 210.063,94.588 210.063,91.488 209.263,91.488 209.263,90.488" style="fill:none;stroke-width:0.050000mm;stroke:black"/>
<polygon points="214.313,90.488 214.313,91.488 213.513,91.488 213.513,94.588 214.313,94.588 214.313,100.388 213.513,100.388 213.513,103.488 214.313,103.488 214.313,104.488 228.313,104.488 228.313,103.488 229.113,103.488 229.113,100.388 228.313,100.388 228.313,94.588 229.113,94.588 229.113,91.488 228.313,91.488 228.313,90.488" style="fill:none;stroke-width:0.050000mm;stroke:black"/>
<polygon points="233.363,90.488 233.363,91.488 232.563,91.488 232.563,94.588 233.363,94.588 233.363,100.388 232.563,100.388 232.563,103.488 233.363,103.488 233.363,104.488 247.363,104.488 247.363,103.488 248.163,103.488 248.163,100.388 247.363,100.388 247.363,94.588 248.163,94.588 248.163,91.488 247.363,91.488 247.363,90.488" style="fill:none;stroke-width:0.050000mm;stroke:black"/>
<polygon points="361.951,90.488 361.951,91.488 361.151,91.488 361.151,94.588 361.951,94.588 361.951,100.388 361.151,100.388 361.151,103.488 361.951,103.488 361.951,104.488 375.951,104.488 375.951,103.488 376.751,103.488 376.751,100.388 375.951,100.388 375.951,94.588 376.751,94.588 376.751,91.488 375.951,91.488 375.951,90.488" style="fill:none;stroke-width:0.050000mm;stroke:black"/>
<polygon points="381.001,90.488 381.001,91.488 380.201,91.488 380.201,94.588 381.001,94.588 381.001,100.388 380.201,100.388 380.201,103.488 381.001,103.488 381.001,104.488 395.001,104.488 395.001,103.488 395.801,103.488 395.801,100.388 395.001,100.388 395.001,94.588 395.801,94.588 395.801,91.488 395.001,91.488 395.001,90.488" style="fill:none;stroke-width:0.050000mm;stroke:black"/>
<polygon points="400.051,90.488 400.051,91.488 399.251,91.488 399.251,94.588 400.051,94.588 400.051,100.388 399.251,100.388 399.251,103.488 400.051,103.488 400.051,104.488 414.051,104.488 414.051,103.488 414.851,103.488 414.851,100.388 414.051,100.388 414.051,94.588 414.851,94.588 414.851,91.488 414.051,91.488 414.051,90.488" style="fill:none;stroke-width:0.050000mm;stroke:black"/>
<polygon points="425.601,71.863 425.601,72.688 419.331,72.688 419.331,74.413 418.131,74.413 418.131,77.713 419.331,77.713 419.331,79.438 423.801,79.438 423.801,80.963 423.201,80.963 423.201,80.163 420.101,80.163 420.101,80.963 419.101,80.963 419.101,94.963 420.101,94.963 420.101,95.763 423.201,95.763 423.201,94.963 423.801,94.963 423.801,96.488 419.331,96.488 419.331,98.213 418.131,98.213 418.131,101.513 419.331,101.513 419.331,103.238 425.601,103.238 425.601,104.063 428.401,104.063 428.401,103.238 431.631,103.238 431.631,96.488 428.401,96.488 428.401,94.963 429.001,94.963 429.001,95.763 432.101,95.763 432.101,94.963 433.101,94.963 433.101,80.963 432.101,80.963 432.101,80.163 429.001,80.163 429.001,80.963 428.401,80.963 428.401,79.438 431.631,79.438 431.631,72.688 428.401,72.688 428.401,71.863" style="fill:none;stroke-width:0.050000mm;stroke:black"/>
<polygon points="14.288,71.438 14.288,72.438 13.488,72.438 13.488,75.538 14.288,75.538 14.288,81.338 13.488,81.338 13.488,84.438 14.288,84.438 14.288,85.438 28.288,85.438 28.288,84.438 29.088,84.438 29.088,81.338 28.288,81.338 28.288,75.538 29.088,75.538 29.088,72.438 28.288,72.438 28.288,71.438" style="fill:none;stroke-width:0.050000mm;stroke:black"/>
<polygon points="38.101,71.438 38.101,72.438 37.301,72.438 37.301,75.538 38.101,75.538 38.101,81.338 37.301,81.338 37.301,84.438 38.101,84.438 38.101,85.438 52.101,85.438 52.101,84.438 52.901,84.438 52.901,81.338 52.101,81.338 52.101,75.538 52.901,75.538 52.901,72.438 52.101,72.438 52.101,71.438" style="fill:none;stroke-width:0.050000mm;stroke:black"/>
<polygon points="57.151,71.438 57.151,72.438 56.351,72.438 56.351,75.538 57.151,75.538 57.151,81.338 56.351,81.338 56.351,84.438 57.151,84.438 57.151,85.438 71.151,85.438 71.151,84.438 71.951,84.438 71.951,81.338 71.151,81.338 71.151,75.538 71.951,75.538 71.951,72.438 71.151,72.438 71.151,71.438" style="fill:none;stroke-width:0.050000mm;stroke:black"/>
<polygon points="76.201,71.438 76.201,72.438 75.401,72.438 75.401,75.538 76.201,75.538 76.201,81.338 75.401,81.338 75.401,84.438 76.201,84.438 76.201,85.438 90.201,85.438 90.201,84.438 91.001,84.438 91.001,81.338 90.201,81.338 90.201,75.538 91.001,75.538 91.001,72.438 90.201,72.438 90.201,71.438" style="fill:none;stroke-width:0.050000mm;stroke:black"/>
<polygon points="95.251,71.438 95.251,72.438 94.451,72.438 94.451,75.538 95.251,75.538 95.251,81.338 94.451,81.338 94.451,84.438 95.251,84.438 95.251,85.438 109.251,85.438 109.251,84.438 110.051,84.438 110.051,81.338 109.251,81.338 109.251,75.538 110.051,75.538 110.051,72.438 109.251,72.438 109.251,71.438" style="fill:none;stroke-width:0.050000mm;stroke:black"/>
<polygon points="114.301,71.438 114.301,72.438 113.501,72.438 113.501,75.538 114.301,75.538 114.301,81.338 113.501,81.338 113.501,84.438 114.301,84.438 114.301,85.438 128.301,85.438 128.301,84.438 129.101,84.438 129.101,81.338 128.301,81.338 128.301,75.538 129.101,75.538 129.101,72.438 128.301,72.438 128.301,71.438" style="fill:none;stroke-width:0.050000mm;stroke:black"/>
<polygon points="133.351,71.438 133.351,72.438 132.550,72.438 132.550,75.538 133.351,75.538 133.351,81.338 132.550,81.338 132.550,84.438 133.351,84.438 133.351,85.438 147.351,85.438 147.351,84.438 148.151,84.438 148.151,81.338 147.351,81.338 147.351,75.538 148.151,75.538 148.151,72.438 147.351,72.438 147.351,71.438" style="fill:none;stroke-width:0.050000mm;stroke:black"/>
<polygon points="152.401,71.438 152.401,72.438 151.601,72.438 151.601,75.538 152.401,75.538 152.401,81.338 151.601,81.338 151.601,84.438 152.401,84.438 152.401,85.438 166.401,85.438 166.401,84.438 167.201,84.438 167.201,81.338 166.401,81.338 166.401,75.538 167.201,75.538 167.201,72.438 166.401,72.438 166.401,71.438" style="fill:none;stroke-width:0.050000mm;stroke:black"/>
<polygon points="171.451,71.438 171.451,72.438 170.651,72.438 170.651,75.538 171.451,75.538 171.451,81.338 170.651,81.338 170.651,84.438 171.451,84.438 171.451,85.438 185.451,85.438 185.451,84.438 186.251,84.438 186.251,81.338 185.451,81.338 185.451,75.538 186.251,75.538 186.251,72.438 185.451,72.438 185.451,71.438" style="fill:none;stroke-width:0.050000mm;stroke:black"/>
<polygon points="190.501,71.438 190.501,72.438 189.701,72.438 189.701,75.538 190.501,75.538 190.501,81.338 189.701,81.338 189.701,84.438 190.501,84.438 190.501,85.438 204.501,85.438 204.501,84.438 205.301,84.438 205.301,81.338 204.501,81.338 204.501,75.538 205.301,75.538 205.301,72.438 204.501,72.438 204.501,71.438" style="fill:none;stroke-width:0.050000mm;stroke:black"/>
<polygon points="209.551,71.438 209.551,72.438 208.751,72.438 208.751,75.538 209.551,75.538 209.551,81.338 208.751,81.338 208.751,84.438 209.551,84.438 209.551,85.438 223.551,85.438 223.551,84.438 224.351,84.438 224.351,81.338 223.551,81.338 223.551,75.538 224.351,75.538 224.351,72.438 223.551,72.438 223.551,71.438" style="fill:none;stroke-width:0.050000mm;stroke:black"/>
<polygon points="228.601,71.438 228.601,72.438 227.801,72.438 227.801,75.538 228.601,75.538 228.601,81.338 227.801,81.338 227.801,84.438 228.601,84.438 228.601,85.438 242.601,85.438 242.601,84.438 243.401,84.438 243.401,81.338 242.601,81.338 242.601,75.538 243.401,75.538 243.401,72.438 242.601,72.438 242.601,71.438" style="fill:none;stroke-width:0.050000mm;stroke:black"/>
<polygon points="247.651,71.438 247.651,72.438 246.851,72.438 246.851,75.538 247.651,75.538 247.651,81.338 246.851,81.338 246.851,84.438 247.651,84.438 247.651,85.438 261.650,85.438 261.650,84.438 262.451,84.438 262.451,81.338 261.650,81.338 261.650,75.538 262.451,75.538 262.451,72.438 261.650,72.438 261.650,71.438" style="fill:none;stroke-width:0.050000mm;stroke:black"/>
<polygon points="271.463,71.438 271.463,72.438 270.663,72.438 270.663,75.538 271.463,75.538 271.463,81.338 270.663,81.338 270.663,84.438 271.463,84.438 271.463,85.438 285.463,85.438 285.463,84.438 286.263,84.438 286.263,81.338 285.463,81.338 285.463,75.538 286.263,75.538 286.263,72.438 285.463,72.438 285.463,71.438" style="fill:none;stroke-width:0.050000mm;stroke:black"/>
<polygon points="361.951,71.438 361.951,72.438 361.151,72.438 361.151,75.538 361.951,75.538 361.951,81.338 361.151,81.338 361.151,84.438 361.951,84.438 361.951,85.438 375.951,85.438 375.951,84.438 376.751,84.438 376.751,81.338 375.951,81.338 375.951,75.538 376.751,75.538 376.751,72.438 375.951,72.438 375.951,71.438" style="fill:none;stroke-width:0.050000mm;stroke:black"/>
<polygon points="381.001,71.438 381.001,72.438 380.201,72.438 380.201,75.538 381.001,75.538 381.001,81.338 380.201,81.338 380.201,84.438 381.001,84.438 381.001,85.438 395.001,85.438 395.001,84.438 395.801,84.438 395.801,81.338 395.001,81.338 395.001,75.538 395.801,75.538 395.801,72.438 395.001,72.438 395.001,71.438" style="fill:none;stroke-width:0.050000mm;stroke:black"/>
<polygon points="400.051,71.438 400.051,72.438 399.251,72.438 399.251,75.538 400.051,75.538 400.051,81.338 399.251,81.338 399.251,84.438 400.051,84.438 400.051,85.438 414.051,85.438 414.051,84.438 414.851,84.438 414.851,81.338 414.051,81.338 414.051,75.538 414.851,75.538 414.851,72.438 414.051,72.438 414.051,71.438" style="fill:none;stroke-width:0.050000mm;stroke:black"/>
<polygon points="266.701,52.388 266.701,53.388 265.901,53.388 265.901,56.488 266.701,56.488 266.701,57.088 265.176,57.088 265.176,53.858 258.426,53.858 258.426,57.088 257.601,57.088 257.601,59.888 258.426,59.888 258.426,66.158 260.150,66.158 260.150,67.358 263.451,67.358 263.451,66.158 265.176,66.158 265.176,61.688 266.701,61.688 266.701,62.288 265.901,62.288 265.901,65.388 266.701,65.388 266.701,66.388 280.701,66.388 280.701,65.388 281.501,65.388 281.501,62.288 280.701,62.288 280.701,61.688 282.226,61.688 282.226,66.158 283.951,66.158 283.951,67.358 287.251,67.358 287.251,66.158 288.976,66.158 288.976,59.888 289.801,59.888 289.801,57.088 288.976,57.088 288.976,53.858 282.226,53.858 282.226,57.088 280.701,57.088 280.701,56.488 281.501,56.488 281.501,53.388 280.701,53.388 280.701,52.388" style="fill:none;stroke-width:0.050000mm;stroke:black"/>
<polygon points="9.525,52.388 9.525,53.388 8.725,53.388 8.725,56.488 9.525,56.488 9.525,62.288 8.725,62.288 8.725,65.388 9.525,65.388 9.525,66.388 23.526,66.388 23.526,65.388 24.326,65.388 24.326,62.288 23.526,62.288 23.526,56.488 24.326,56.488 24.326,53.388 23.526,53.388 23.526,52.388" style="fill:none;stroke-width:0.050000mm;stroke:black"/>
<polygon points="28.576,52.388 28.576,53.388 27.776,53.388 27.776,56.488 28.576,56.488 28.576,62.288 27.776,62.288 27.776,65.388 28.576,65.388 28.576,66.388 42.576,66.388 42.576,65.388 43.376,65.388 43.376,62.288 42.576,62.288 42.576,56.488 43.376,56.488 43.376,53.388 42.576,53.388 42.576,52.388" style="fill:none;stroke-width:0.050000mm;stroke:black"/>
<polygon points="47.626,52.388 47.626,53.388 46.826,53.388 46.826,56.488 47.626,56.488 47.626,62.288 46.826,62.288 46.826,65.388 47.626,65.388 47.626,66.388 61.626,66.388 61.626,65.388 62.426,65.388 62.426,62.288 61.626,62.288 61.626,56.488 62.426,56.488 62.426,53.388 61.626,53.388 61.626,52.388" style="fill:none;stroke-width:0.050000mm;stroke:black"/>
<polygon points="66.676,52.388 66.676,53.388 65.876,53.388 65.876,56.488 66.676,56.488 66.676,62.288 65.876,62.288 65.876,65.388 66.676,65.388 66.676,66.388 80.676,66.388 80.676,65.388 81.476,65.388 81.476,62.288 80.676,62.288 80.676,56.488 81.476,56.488 81.476,53.388 80.676,53.388 80.676,52.388" style="fill:none;stroke-width:0.050000mm;stroke:black"/>
<polygon points="85.726,52.388 85.726,53.388 84.926,53.388 84.926,56.488 85.726,56.488 85.726,62.288 84.926,62.288 84.926,65.388 85.726,65.388 85.726,66.388 99.726,66.388 99.726,65.388 100.525,65.388 100.525,62.288 99.726,62.288 99.726,56.488 100.525,56.488 100.525,53.388 99.726,53.388 99.726,52.388" style="fill:none;stroke-width:0.050000mm;stroke:black"/>
<polygon points="104.775,52.388 104.775,53.388 103.976,53.388 103.976,56.488 104.775,56.488 104.775,62.288 103.976,62.288 103.976,65.388 104.775,65.388 104.775,66.388 118.775,66.388 118.775,65.388 119.575,65.388 119.575,62.288 118.775,62.288 118.775,56.488 119.575,56.488 119.575,53.388 118.775,53.388 118.775,52.388" style="fill:none;stroke-width:0.050000mm;stroke:black"/>
<polygon points="123.825,52.388 123.825,53.388 123.025,53.388 123.025,56.488 123.825,56.488 123.825,62.288 123.025,62.288 123.025,65.388 123.825,65.388 123.825,66.388 137.826,66.388 137.826,65.388 138.626,65.388 138.626,62.288 137.826,62.288 137.826,56.488 138.626,56.488 138.626,53.388 137.826,53.388 137.826,52.388" style="fill:none;stroke-width:0.050000mm;stroke:black"/>
<polygon points="142.876,52.388 142.876,53.388 142.076,53.388 142.076,56.488 142.876,56.488 142.876,62.288 142.076,62.288 142.076,65.388 142.876,65.388 142.876,66.388 156.876,66.388 156.876,65.388 157.676,65.388 157.676,62.288 156.876,62.288 156.876,56.488 157.676,56.488 157.676,53.388 156.876,53.388 156.876,52.388" style="fill:none;stroke-width:0.050000mm;stroke:black"/>
<polygon points="161.926,52.388 161.926,53.388 161.126,53.388 161.126,56.488 161.926,56.488 161.926,62.288 161.126,62.288 161.126,65.388 161.926,65.388 161.926,66.388 175.926,66.388 175.926,65.388 176.726,65.388 176.726,62.288 175.926,62.288 175.926,56.488 176.726,56.488 176.726,53.388 175.926,53.388 175.926,52.388" style="fill:none;stroke-width:0.050000mm;stroke:black"/>
<polygon points="180.976,52.388 180.976,53.388 180.176,53.388 180.176,56.488 180.976,56.488 180.976,62.288 180.176,62.288 180.176,65.388 180.976,65.388 180.976,66.388 194.976,66.388 194.976,65.388 195.776,65.388 195.776,62.288 194.976,62.288 194.976,56.488 195.776,56.488 195.776,53.388 194.976,53.388 194.976,52.388" style="fill:none;stroke-width:0.050000mm;stroke:black"/>
<polygon points="200.026,52.388 200.026,53.388 199.226,53.388 199.226,56.488 200.026,56.488 200.026,62.288 199.226,62.288 199.226,65.388 200.026,65.388 200.026,66.388 214.026,66.388 214.026,65.388 214.826,65.388 214.826,62.288 214.026,62.288 214.026,56.488 214.826,56.488 214.826,53.388 214.026,53.388 214.026,52.388" style="fill:none;stroke-width:0.050000mm;stroke:black"/>
<polygon points="219.076,52.388 219.076,53.388 218.276,53.388 218.276,56.488 219.076,56.488 219.076,62.288 218.276,62.288 218.276,65.388 219.076,65.388 219.076,66.388 233.076,66.388 233.076,65.388 233.876,65.388 233.876,62.288 233.076,62.288 233.076,56.488 233.876,56.488 233.876,53.388 233.076,53.388 233.076,52.388" style="fill:none;stroke-width:0.050000mm;stroke:black"/>
<polygon points="238.126,52.388 238.126,53.388 237.326,53.388 237.326,56.488 238.126,56.488 238.126,62.288 237.326,62.288 237.326,65.388 238.126,65.388 238.126,66.388 252.126,66.388 252.126,65.388 252.926,65.388 252.926,62.288 252.126,62.288 252.126,56.488 252.926,56.488 252.926,53.388 252.126,53.388 252.126,52.388" style="fill:none;stroke-width:0.050000mm;stroke:black"/>
<polygon points="300.038,52.388 300.038,53.388 299.238,53.388 299.238,56.488 300.038,56.488 300.038,62.288 299.238,62.288 299.238,65.388 300.038,65.388 300.038,66.388 314.038,66.388 314.038,65.388 314.838,65.388 314.838,62.288 314.038,62.288 314.038,56.488 314.838,56.488 314.838,53.388 314.038,53.388 314.038,52.388" style="fill:none;stroke-width:0.050000mm;stroke:black"/>
<polygon points="319.088,52.388 319.088,53.388 318.288,53.388 318.288,56.488 319.088,56.488 319.088,62.288 318.288,62.288 318.288,65.388 319.088,65.388 319.088,66.388 333.088,66.388 333.088,65.388 333.888,65.388 333.888,62.288 333.088,62.288 333.088,56.488 333.888,56.488 333.888,53.388 333.088,53.388 333.088,52.388" style="fill:none;stroke-width:0.050000mm;stroke:black"/>
<polygon points="338.138,52.388 338.138,53.388 337.338,53.388 337.338,56.488 338.138,56.488 338.138,62.288 337.338,62.288 337.338,65.388 338.138,65.388 338.138,66.388 352.138,66.388 352.138,65.388 352.938,65.388 352.938,62.288 352.138,62.288 352.138,56.488 352.938,56.488 352.938,53.388 352.138,53.388 352.138,52.388" style="fill:none;stroke-width:0.050000mm;stroke:black"/>
<polygon points="361.951,52.388 361.951,53.388 361.151,53.388 361.151,56.488 361.951,56.488 361.951,62.288 361.151,62.288 361.151,65.388 361.951,65.388 361.951,66.388 375.951,66.388 375.951,65.388 376.751,65.388 376.751,62.288 375.951,62.288 375.951,56.488 376.751,56.488 376.751,53.388 375.951,53.388 375.951,52.388" style="fill:none;stroke-width:0.050000mm;stroke:black"/>
<polygon points="381.001,52.388 381.001,53.388 380.201,53.388 380.201,56.488 381.001,56.488 381.001,62.288 380.201,62.288 380.201,65.388 381.001,65.388 381.001,66.388 395.001,66.388 395.001,65.388 395.801,65.388 395.801,62.288 395.001,62.288 395.001,56.488 395.801,56.488 395.801,53.388 395.001,53.388 395.001,52.388" style="fill:none;stroke-width:0.050000mm;stroke:black"/>
<polygon points="400.051,52.388 400.051,53.388 399.251,53.388 399.251,56.488 400.051,56.488 400.051,62.288 399.251,62.288 399.251,65.388 400.051,65.388 400.051,66.388 414.051,66.388 414.051,65.388 414.851,65.388 414.851,62.288 414.051,62.288 414.051,56.488 414.851,56.488 414.851,53.388 414.051,53.388 414.051,52.388" style="fill:none;stroke-width:0.050000mm;stroke:black"/>
<polygon points="419.101,52.388 419.101,53.388 418.301,53.388 418.301,56.488 419.101,56.488 419.101,62.288 418.301,62.288 418.301,65.388 419.101,65.388 419.101,66.388 433.101,66.388 433.101,65.388 433.901,65.388 433.901,62.288 433.101,62.288 433.101,56.488 433.901,56.488 433.901,53.388 433.101,53.388 433.101,52.388" style="fill:none;stroke-width:0.050000mm;stroke:black"/>
<polygon points="9.525,33.338 9.525,34.338 8.725,34.338 8.725,37.438 9.525,37.438 9.525,43.238 8.725,43.238 8.725,46.338 9.525,46.338 9.525,47.338 23.526,47.338 23.526,46.338 24.326,46.338 24.326,43.238 23.526,43.238 23.526,37.438 24.326,37.438 24.326,34.338 23.526,34.338 23.526,33.338" style="fill:none;stroke-width:0.050000mm;stroke:black"/>
<polygon points="228.601,33.338 228.601,34.338 227.801,34.338 227.801,37.438 228.601,37.438 228.601,43.238 227.801,43.238 227.801,46.338 228.601,46.338 228.601,47.338 242.601,47.338 242.601,46.338 243.401,46.338 243.401,43.238 242.601,43.238 242.601,37.438 243.401,37.438 243.401,34.338 242.601,34.338 242.601,33.338" style="fill:none;stroke-width:0.050000mm;stroke:black"/>
<polygon points="247.651,33.338 247.651,34.338 246.851,34.338 246.851,37.438 247.651,37.438 247.651,43.238 246.851,43.238 246.851,46.338 247.651,46.338 247.651,47.338 261.650,47.338 261.650,46.338 262.451,46.338 262.451,43.238 261.650,43.238 261.650,37.438 262.451,37.438 262.451,34.338 261.650,34.338 261.650,33.338" style="fill:none;stroke-width:0.050000mm;stroke:black"/>
<polygon points="276.226,33.338 276.226,34.338 275.426,34.338 275.426,37.438 276.226,37.438 276.226,43.238 275.426,43.238 275.426,46.338 276.226,46.338 276.226,47.338 290.226,47.338 290.226,46.338 291.026,46.338 291.026,43.238 290.226,43.238 290.226,37.438 291.026,37.438 291.026,34.338 290.226,34.338 290.226,33.338" style="fill:none;stroke-width:0.050000mm;stroke:black"/>
<polygon points="400.051,33.338 400.051,34.338 399.251,34.338 399.251,37.438 400.051,37.438 400.051,43.238 399.251,43.238 399.251,46.338 400.051,46.338 400.051,47.338 414.051,47.338 414.051,46.338 414.851,46.338 414.851,43.238 414.051,43.238 414.051,37.438 414.851,37.438 414.851,34.338 414.051,34.338 414.051,33.338" style="fill:none;stroke-width:0.050000mm;stroke:black"/>
<polygon points="419.101,33.338 419.101,34.338 418.301,34.338 418.301,37.438 419.101,37.438 419.101,43.238 418.301,43.238 418.301,46.338 419.101,46.338 419.101,47.338 433.101,47.338 433.101,46.338 433.901,46.338 433.901,43.238 433.101,43.238 433.101,37.438 433.901,37.438 433.901,34.338 433.101,34.338 433.101,33.338" style="fill:none;stroke-width:0.050000mm;stroke:black"/>
<polygon points="9.525,9.525 9.525,10.525 8.725,10.525 8.725,13.625 9.525,13.625 9.525,19.425 8.725,19.425 8.725,22.526 9.525,22.526 9.525,23.526 23.526,23.526 23.526,22.526 24.326,22.526 24.326,19.425 23.526,19.425 23.526,13.625 24.326,13.625 24.326,10.525 23.526,10.525 23.526,9.525" style="fill:none;stroke-width:0.050000mm;stroke:black"/>
<polygon points="47.626,9.525 47.626,10.525 46.826,10.525 46.826,13.625 47.626,13.625 47.626,19.425 46.826,19.425 46.826,22.526 47.626,22.526 47.626,23.526 61.626,23.526 61.626,22.526 62.426,22.526 62.426,19.425 61.626,19.425 61.626,13.625 62.426,13.625 62.426,10.525 61.626,10.525 61.626,9.525" style="fill:none;stroke-width:0.050000mm;stroke:black"/>
<polygon points="66.676,9.525 66.676,10.525 65.876,10.525 65.876,13.625 66.676,13.625 66.676,19.425 65.876,19.425 65.876,22.526 66.676,22.526 66.676,23.526 80.676,23.526 80.676,22.526 81.476,22.526 81.476,19.425 80.676,19.425 80.676,13.625 81.476,13.625 81.476,10.525 80.676,10.525 80.676,9.525" style="fill:none;stroke-width:0.050000mm;stroke:black"/>
<polygon points="85.726,9.525 85.726,10.525 84.926,10.525 84.926,13.625 85.726,13.625 85.726,19.425 84.926,19.425 84.926,22.526 85.726,22.526 85.726,23.526 99.726,23.526 99.726,22.526 100.525,22.526 100.525,19.425 99.726,19.425 99.726,13.625 100.525,13.625 100.525,10.525 99.726,10.525 99.726,9.525" style="fill:none;stroke-width:0.050000mm;stroke:black"/>
<polygon points="104.775,9.525 104.775,10.525 103.976,10.525 103.976,13.625 104.775,13.625 104.775,19.425 103.976,19.425 103.976,22.526 104.775,22.526 104.775,23.526 118.775,23.526 118.775,22.526 119.575,22.526 119.575,19.425 118.775,19.425 118.775,13.625 119.575,13.625 119.575,10.525 118.775,10.525 118.775,9.525" style="fill:none;stroke-width:0.050000mm;stroke:black"/>
<polygon points="133.351,9.525 133.351,10.525 132.550,10.525 132.550,13.625 133.351,13.625 133.351,19.425 132.550,19.425 132.550,22.526 133.351,22.526 133.351,23.526 147.351,23.526 147.351,22.526 148.151,22.526 148.151,19.425 147.351,19.425 147.351,13.625 148.151,13.625 148.151,10.525 147.351,10.525 147.351,9.525" style="fill:none;stroke-width:0.050000mm;stroke:black"/>
<polygon points="152.401,9.525 152.401,10.525 151.601,10.525 151.601,13.625 152.401,13.625 152.401,19.425 151.601,19.425 151.601,22.526 152.401,22.526 152.401,23.526 166.401,23.526 166.401,22.526 167.201,22.526 167.201,19.425 166.401,19.425 166.401,13.625 167.201,13.625 167.201,10.525 166.401,10.525 166.401,9.525" style="fill:none;stroke-width:0.050000mm;stroke:black"/>
<polygon points="171.451,9.525 171.451,10.525 170.651,10.525 170.651,13.625 171.451,13.625 171.451,19.425 170.651,19.425 170.651,22.526 171.451,22.526 171.451,23.526 185.451,23.526 185.451,22.526 186.251,22.526 186.251,19.425 185.451,19.425 185.451,13.625 186.251,13.625 186.251,10.525 185.451,10.525 185.451,9.525" style="fill:none;stroke-width:0.050000mm;stroke:black"/>
<polygon points="190.501,9.525 190.501,10.525 189.701,10.525 189.701,13.625 190.501,13.625 190.501,19.425 189.701,19.425 189.701,22.526 190.501,22.526 190.501,23.526 204.501,23.526 204.501,22.526 205.301,22.526 205.301,19.425 204.501,19.425 204.501,13.625 205.301,13.625 205.301,10.525 204.501,10.525 204.501,9.525" style="fill:none;stroke-width:0.050000mm;stroke:black"/>
<polygon points="219.076,9.525 219.076,10.525 218.276,10.525 218.276,13.625 219.076,13.625 219.076,19.425 218.276,19.425 218.276,22.526 219.076,22.526 219.076,23.526 233.076,23.526 233.076,22.526 233.876,22.526 233.876,19.425 233.076,19.425 233.076,13.625 233.876,13.625 233.876,10.525 233.076,10.525 233.076,9.525" style="fill:none;stroke-width:0.050000mm;stroke:black"/>
<polygon points="238.126,9.525 238.126,10.525 237.326,10.525 237.326,13.625 238.126,13.625 238.126,19.425 237.326,19.425 237.326,22.526 238.126,22.526 238.126,23.526 252.126,23.526 252.126,22.526 252.926,22.526 252.926,19.425 252.126,19.425 252.126,13.625 252.926,13.625 252.926,10.525 252.126,10.525 252.126,9.525" style="fill:none;stroke-width:0.050000mm;stroke:black"/>
<polygon points="257.176,9.525 257.176,10.525 256.376,10.525 256.376,13.625 257.176,13.625 257.176,19.425 256.376,19.425 256.376,22.526 257.176,22.526 257.176,23.526 271.176,23.526 271.176,22.526 271.976,22.526 271.976,19.425 271.176,19.425 271.176,13.625 271.976,13.625 271.976,10.525 271.176,10.525 271.176,9.525" style="fill:none;stroke-width:0.050000mm;stroke:black"/>
<polygon points="276.226,9.525 276.226,10.525 275.426,10.525 275.426,13.625 276.226,13.625 276.226,19.425 275.426,19.425 275.426,22.526 276.226,22.526 276.226,23.526 290.226,23.526 290.226,22.526 291.026,22.526 291.026,19.425 290.226,19.425 290.226,13.625 291.026,13.625 291.026,10.525 290.226,10.525 290.226,9.525" style="fill:none;stroke-width:0.050000mm;stroke:black"/>
</svg>
