<?xml version="1.0"?>
<!-- Generated by SVGo -->
<svg width="442.777mm" height="152.264mm"
     viewBox="0.000 0.000 442.777 152.264"
     xmlns="http://www.w3.org/2000/svg" 
     xmlns:xlink="http://www.w3.org/1999/xlink">
<polygon points="435.777,5.001 435.933,5.007 436.089,5.025 436.243,5.056 436.395,5.098 436.542,5.153 436.684,5.218 436.821,5.295 436.952,5.382 437.075,5.480 437.191,5.586 437.297,5.702 437.395,5.825 437.482,5.956 437.559,6.093 437.624,6.235 437.679,6.382 437.721,6.534 437.752,6.688 437.770,6.844 437.777,7.001 437.777,145.264 437.770,145.421 437.752,145.577 437.721,145.731 437.679,145.882 437.624,146.029 437.559,146.172 437.482,146.309 437.395,146.440 437.297,146.563 437.191,146.678 437.075,146.785 436.952,146.882 436.821,146.969 436.684,147.046 436.542,147.112 436.395,147.166 436.243,147.209 436.089,147.239 435.933,147.258 435.777,147.264 7.001,147.264 6.844,147.258 6.688,147.239 6.534,147.209 6.382,147.166 6.235,147.112 6.093,147.046 5.956,146.969 5.825,146.882 5.702,146.785 5.586,146.678 5.480,146.563 5.382,146.440 5.295,146.309 5.218,146.172 5.153,146.029 5.098,145.882 5.056,145.731 5.025,145.577 5.007,145.421 5.000,145.264 5.001,7.001 5.007,6.844 5.025,6.688 5.056,6.534 5.098,6.382 5.153,6.235 5.218,6.093 5.295,5.956 5.382,5.825 5.480,5.702 5.586,5.586 5.702,5.480 5.825,5.382 5.956,5.295 6.093,5.218 6.235,5.153 6.382,5.098 6.534,5.056 6.688,5.025 6.844,5.007 7.001,5.000" style="fill:none;stroke-width:0.050000mm;stroke:black"/>
<polygon points="7.075,30.887 7.075,88.037 7.074,88.037 7.074,126.139 7.075,126.139 7.075,145.189 292.826,145.189 292.826,126.139 292.827,126.139 292.827,30.887 273.775,30.887 273.775,49.937 264.252,49.937 264.252,30.887 226.150,30.887 226.150,49.937 26.127,49.937 26.127,30.887" style="fill:none;stroke-width:0.050000mm;stroke:black"/>
<polygon points="316.637,107.087 316.637,126.137 297.587,126.137 297.587,145.189 354.739,145.189 354.739,126.137 335.689,126.137 335.689,107.087" style="fill:none;stroke-width:0.050000mm;stroke:black"/>
<polygon points="397.600,30.887 397.600,49.937 359.500,49.937 359.500,145.189 435.702,145.189 435.702,30.887" style="fill:none;stroke-width:0.050000mm;stroke:black"/>
<polygon points="297.587,49.937 297.587,68.989 354.739,68.989 354.739,49.937" style="fill:none;stroke-width:0.050000mm;stroke:black"/>
<polygon points="7.075,7.075 7.075,26.127 26.127,26.127 26.127,7.075" style="fill:none;stroke-width:0.050000mm;stroke:black"/>
<polygon points="45.175,7.075 45.175,26.127 121.376,26.127 121.376,7.075" style="fill:none;stroke-width:0.050000mm;stroke:black"/>
<polygon points="130.900,7.075 130.900,26.127 207.102,26.127 207.102,7.075" style="fill:none;stroke-width:0.050000mm;stroke:black"/>
<polygon points="216.625,7.075 216.625,26.127 292.827,26.127 292.827,7.075" style="fill:none;stroke-width:0.050000mm;stroke:black"/>
</svg>
