%TF.GenerationSoftware,KiCad,Pcbnew,(6.0.5)*%
%TF.CreationDate,2022-06-16T16:21:38+10:00*%
%TF.ProjectId,test_microcontroller,74657374-5f6d-4696-9372-6f636f6e7472,rev?*%
%TF.SameCoordinates,Original*%
%TF.FileFunction,Paste,Top*%
%TF.FilePolarity,Positive*%
%FSLAX46Y46*%
G04 Gerber Fmt 4.6, Leading zero omitted, Abs format (unit mm)*
G04 Created by KiCad (PCBNEW (6.0.5)) date 2022-06-16 16:21:38*
%MOMM*%
%LPD*%
G01*
G04 APERTURE LIST*
%ADD10R,1.450000X0.600000*%
%ADD11R,1.450000X0.300000*%
%ADD12R,1.500000X0.550000*%
%ADD13R,0.550000X1.500000*%
G04 APERTURE END LIST*
D10*
%TO.C,J1*%
X37045000Y-23750000D03*
X37045000Y-24550000D03*
D11*
X37045000Y-25750000D03*
X37045000Y-26750000D03*
X37045000Y-27250000D03*
X37045000Y-28250000D03*
D10*
X37045000Y-29450000D03*
X37045000Y-30250000D03*
X37045000Y-30250000D03*
X37045000Y-29450000D03*
D11*
X37045000Y-28750000D03*
X37045000Y-27750000D03*
X37045000Y-26250000D03*
X37045000Y-25250000D03*
D10*
X37045000Y-24550000D03*
X37045000Y-23750000D03*
%TD*%
D12*
%TO.C,U1*%
X61300000Y-41000000D03*
X61300000Y-41800000D03*
X61300000Y-42600000D03*
X61300000Y-43400000D03*
X61300000Y-44200000D03*
X61300000Y-45000000D03*
X61300000Y-45800000D03*
X61300000Y-46600000D03*
X61300000Y-47400000D03*
X61300000Y-48200000D03*
X61300000Y-49000000D03*
D13*
X63000000Y-50700000D03*
X63800000Y-50700000D03*
X64600000Y-50700000D03*
X65400000Y-50700000D03*
X66200000Y-50700000D03*
X67000000Y-50700000D03*
X67800000Y-50700000D03*
X68600000Y-50700000D03*
X69400000Y-50700000D03*
X70200000Y-50700000D03*
X71000000Y-50700000D03*
D12*
X72700000Y-49000000D03*
X72700000Y-48200000D03*
X72700000Y-47400000D03*
X72700000Y-46600000D03*
X72700000Y-45800000D03*
X72700000Y-45000000D03*
X72700000Y-44200000D03*
X72700000Y-43400000D03*
X72700000Y-42600000D03*
X72700000Y-41800000D03*
X72700000Y-41000000D03*
D13*
X71000000Y-39300000D03*
X70200000Y-39300000D03*
X69400000Y-39300000D03*
X68600000Y-39300000D03*
X67800000Y-39300000D03*
X67000000Y-39300000D03*
X66200000Y-39300000D03*
X65400000Y-39300000D03*
X64600000Y-39300000D03*
X63800000Y-39300000D03*
X63000000Y-39300000D03*
%TD*%
M02*
