%TF.GenerationSoftware,KiCad,Pcbnew,(6.0.5)*%
%TF.CreationDate,2022-06-21T12:49:05+10:00*%
%TF.ProjectId,test_microcontroller,74657374-5f6d-4696-9372-6f636f6e7472,rev?*%
%TF.SameCoordinates,Original*%
%TF.FileFunction,Paste,Top*%
%TF.FilePolarity,Positive*%
%FSLAX46Y46*%
G04 Gerber Fmt 4.6, Leading zero omitted, Abs format (unit mm)*
G04 Created by KiCad (PCBNEW (6.0.5)) date 2022-06-21 12:49:05*
%MOMM*%
%LPD*%
G01*
G04 APERTURE LIST*
%TA.AperFunction,Profile*%
%ADD10C,0.100000*%
%TD*%
%ADD11R,1.450000X0.600000*%
%ADD12R,1.450000X0.300000*%
%ADD13R,1.500000X0.550000*%
%ADD14R,0.550000X1.500000*%
G04 APERTURE END LIST*
D10*
X89000000Y-20000000D02*
X29000000Y-20000000D01*
X89000000Y-120000000D02*
X89000000Y-20000000D01*
X29000000Y-20000000D02*
X29000000Y-120000000D01*
X29000000Y-120000000D02*
X89000000Y-120000000D01*
D11*
%TO.C,J1*%
X37045000Y-24419520D03*
X37045000Y-25219520D03*
D12*
X37045000Y-26419520D03*
X37045000Y-27419520D03*
X37045000Y-27919520D03*
X37045000Y-28919520D03*
D11*
X37045000Y-30119520D03*
X37045000Y-30919520D03*
X37045000Y-30919520D03*
X37045000Y-30119520D03*
D12*
X37045000Y-29419520D03*
X37045000Y-28419520D03*
X37045000Y-26919520D03*
X37045000Y-25919520D03*
D11*
X37045000Y-25219520D03*
X37045000Y-24419520D03*
%TD*%
D13*
%TO.C,U1*%
X61300000Y-41000000D03*
X61300000Y-41800000D03*
X61300000Y-42600000D03*
X61300000Y-43400000D03*
X61300000Y-44200000D03*
X61300000Y-45000000D03*
X61300000Y-45800000D03*
X61300000Y-46600000D03*
X61300000Y-47400000D03*
X61300000Y-48200000D03*
X61300000Y-49000000D03*
D14*
X63000000Y-50700000D03*
X63800000Y-50700000D03*
X64600000Y-50700000D03*
X65400000Y-50700000D03*
X66200000Y-50700000D03*
X67000000Y-50700000D03*
X67800000Y-50700000D03*
X68600000Y-50700000D03*
X69400000Y-50700000D03*
X70200000Y-50700000D03*
X71000000Y-50700000D03*
D13*
X72700000Y-49000000D03*
X72700000Y-48200000D03*
X72700000Y-47400000D03*
X72700000Y-46600000D03*
X72700000Y-45800000D03*
X72700000Y-45000000D03*
X72700000Y-44200000D03*
X72700000Y-43400000D03*
X72700000Y-42600000D03*
X72700000Y-41800000D03*
X72700000Y-41000000D03*
D14*
X71000000Y-39300000D03*
X70200000Y-39300000D03*
X69400000Y-39300000D03*
X68600000Y-39300000D03*
X67800000Y-39300000D03*
X67000000Y-39300000D03*
X66200000Y-39300000D03*
X65400000Y-39300000D03*
X64600000Y-39300000D03*
X63800000Y-39300000D03*
X63000000Y-39300000D03*
%TD*%
M02*
