%TF.GenerationSoftware,KiCad,Pcbnew,(6.0.5)*%
%TF.CreationDate,2022-06-21T12:49:05+10:00*%
%TF.ProjectId,test_microcontroller,74657374-5f6d-4696-9372-6f636f6e7472,rev?*%
%TF.SameCoordinates,Original*%
%TF.FileFunction,Soldermask,Top*%
%TF.FilePolarity,Negative*%
%FSLAX46Y46*%
G04 Gerber Fmt 4.6, Leading zero omitted, Abs format (unit mm)*
G04 Created by KiCad (PCBNEW (6.0.5)) date 2022-06-21 12:49:05*
%MOMM*%
%LPD*%
G01*
G04 APERTURE LIST*
G04 Aperture macros list*
%AMRotRect*
0 Rectangle, with rotation*
0 The origin of the aperture is its center*
0 $1 length*
0 $2 width*
0 $3 Rotation angle, in degrees counterclockwise*
0 Add horizontal line*
21,1,$1,$2,0,0,$3*%
G04 Aperture macros list end*
%TA.AperFunction,Profile*%
%ADD10C,0.100000*%
%TD*%
%ADD11R,1.600000X1.600000*%
%ADD12O,1.600000X1.600000*%
%ADD13C,1.600000*%
%ADD14R,1.800000X1.800000*%
%ADD15C,1.800000*%
%ADD16C,1.400000*%
%ADD17O,1.400000X1.400000*%
%ADD18C,2.000000*%
%ADD19C,0.650000*%
%ADD20R,1.450000X0.600000*%
%ADD21R,1.450000X0.300000*%
%ADD22O,2.100000X1.000000*%
%ADD23O,1.600000X1.000000*%
%ADD24C,1.500000*%
%ADD25R,1.200000X1.200000*%
%ADD26C,1.200000*%
%ADD27R,1.350000X1.350000*%
%ADD28O,1.350000X1.350000*%
%ADD29R,1.500000X0.550000*%
%ADD30R,0.550000X1.500000*%
%ADD31RotRect,1.200000X1.200000X140.000000*%
G04 APERTURE END LIST*
D10*
X89000000Y-20000000D02*
X29000000Y-20000000D01*
X89000000Y-120000000D02*
X89000000Y-20000000D01*
X29000000Y-20000000D02*
X29000000Y-120000000D01*
X29000000Y-120000000D02*
X89000000Y-120000000D01*
D11*
%TO.C,D6*%
X53000000Y-111810000D03*
D12*
X53000000Y-104190000D03*
%TD*%
D11*
%TO.C,D1*%
X38140000Y-89490000D03*
D12*
X38140000Y-81870000D03*
%TD*%
D13*
%TO.C,C6*%
X73500000Y-62000000D03*
X71000000Y-62000000D03*
%TD*%
%TO.C,C2*%
X72000000Y-35000000D03*
X69500000Y-35000000D03*
%TD*%
D14*
%TO.C,D_CAPS1*%
X50000000Y-73000000D03*
D15*
X47460000Y-73000000D03*
%TD*%
D11*
%TO.C,D9*%
X68620000Y-112350000D03*
D12*
X68620000Y-104730000D03*
%TD*%
D16*
%TO.C,R7*%
X74460000Y-37000000D03*
D17*
X79540000Y-37000000D03*
%TD*%
D18*
%TO.C,SW_CAPS1*%
X73750000Y-104750000D03*
X73750000Y-111250000D03*
X78250000Y-104750000D03*
X78250000Y-111250000D03*
%TD*%
D16*
%TO.C,R6*%
X41460000Y-29669520D03*
D17*
X46540000Y-29669520D03*
%TD*%
D11*
%TO.C,D8*%
X69000000Y-100810000D03*
D12*
X69000000Y-93190000D03*
%TD*%
D19*
%TO.C,J1*%
X35600000Y-24779520D03*
X35600000Y-30559520D03*
D20*
X37045000Y-24419520D03*
X37045000Y-25219520D03*
D21*
X37045000Y-26419520D03*
X37045000Y-27419520D03*
X37045000Y-27919520D03*
X37045000Y-28919520D03*
D20*
X37045000Y-30119520D03*
X37045000Y-30919520D03*
X37045000Y-30919520D03*
X37045000Y-30119520D03*
D21*
X37045000Y-29419520D03*
X37045000Y-28419520D03*
X37045000Y-26919520D03*
X37045000Y-25919520D03*
D20*
X37045000Y-25219520D03*
X37045000Y-24419520D03*
D22*
X36130000Y-23349520D03*
D23*
X31950000Y-23349520D03*
X31950000Y-31989520D03*
D22*
X36130000Y-31989520D03*
%TD*%
D13*
%TO.C,C4*%
X59000000Y-40000000D03*
X59000000Y-37500000D03*
%TD*%
D11*
%TO.C,D3*%
X38000000Y-111810000D03*
D12*
X38000000Y-104190000D03*
%TD*%
D24*
%TO.C,Y1*%
X64550000Y-58000000D03*
X69430000Y-58000000D03*
%TD*%
D25*
%TO.C,C5*%
X77000000Y-50000000D03*
D26*
X77000000Y-51500000D03*
%TD*%
D18*
%TO.C,SW6*%
X58750000Y-93750000D03*
X58750000Y-100250000D03*
X63250000Y-100250000D03*
X63250000Y-93750000D03*
%TD*%
D16*
%TO.C,R_CAPS1*%
X38000000Y-73000000D03*
D17*
X43080000Y-73000000D03*
%TD*%
D18*
%TO.C,SW4*%
X43750000Y-111250000D03*
X43750000Y-104750000D03*
X48250000Y-111250000D03*
X48250000Y-104750000D03*
%TD*%
D11*
%TO.C,D7*%
X69000000Y-88810000D03*
D12*
X69000000Y-81190000D03*
%TD*%
D13*
%TO.C,C1*%
X62000000Y-35000000D03*
X64500000Y-35000000D03*
%TD*%
D18*
%TO.C,SW7*%
X58750000Y-111250000D03*
X58750000Y-104750000D03*
X63250000Y-104750000D03*
X63250000Y-111250000D03*
%TD*%
%TO.C,SW2*%
X43750000Y-81750000D03*
X43750000Y-88250000D03*
X48250000Y-81750000D03*
X48250000Y-88250000D03*
%TD*%
D16*
%TO.C,R5*%
X41460000Y-27669520D03*
D17*
X46540000Y-27669520D03*
%TD*%
D27*
%TO.C,ICSP_Programmer1*%
X47000000Y-47000000D03*
D28*
X45000000Y-47000000D03*
X47000000Y-45000000D03*
X45000000Y-45000000D03*
X47000000Y-43000000D03*
X45000000Y-43000000D03*
%TD*%
D13*
%TO.C,C3*%
X59000000Y-54000000D03*
X59000000Y-56500000D03*
%TD*%
D11*
%TO.C,D4*%
X53000000Y-89810000D03*
D12*
X53000000Y-82190000D03*
%TD*%
D16*
%TO.C,R4*%
X41460000Y-31669520D03*
D17*
X46540000Y-31669520D03*
%TD*%
D18*
%TO.C,SW5*%
X58750000Y-88250000D03*
X58750000Y-81750000D03*
X63250000Y-81750000D03*
X63250000Y-88250000D03*
%TD*%
D29*
%TO.C,U1*%
X61300000Y-41000000D03*
X61300000Y-41800000D03*
X61300000Y-42600000D03*
X61300000Y-43400000D03*
X61300000Y-44200000D03*
X61300000Y-45000000D03*
X61300000Y-45800000D03*
X61300000Y-46600000D03*
X61300000Y-47400000D03*
X61300000Y-48200000D03*
X61300000Y-49000000D03*
D30*
X63000000Y-50700000D03*
X63800000Y-50700000D03*
X64600000Y-50700000D03*
X65400000Y-50700000D03*
X66200000Y-50700000D03*
X67000000Y-50700000D03*
X67800000Y-50700000D03*
X68600000Y-50700000D03*
X69400000Y-50700000D03*
X70200000Y-50700000D03*
X71000000Y-50700000D03*
D29*
X72700000Y-49000000D03*
X72700000Y-48200000D03*
X72700000Y-47400000D03*
X72700000Y-46600000D03*
X72700000Y-45800000D03*
X72700000Y-45000000D03*
X72700000Y-44200000D03*
X72700000Y-43400000D03*
X72700000Y-42600000D03*
X72700000Y-41800000D03*
X72700000Y-41000000D03*
D30*
X71000000Y-39300000D03*
X70200000Y-39300000D03*
X69400000Y-39300000D03*
X68600000Y-39300000D03*
X67800000Y-39300000D03*
X67000000Y-39300000D03*
X66200000Y-39300000D03*
X65400000Y-39300000D03*
X64600000Y-39300000D03*
X63800000Y-39300000D03*
X63000000Y-39300000D03*
%TD*%
D16*
%TO.C,R3*%
X41460000Y-25669520D03*
D17*
X46540000Y-25669520D03*
%TD*%
D11*
%TO.C,D5*%
X53380000Y-100698872D03*
D12*
X53380000Y-93078872D03*
%TD*%
D16*
%TO.C,R2*%
X41460000Y-23669520D03*
D17*
X46540000Y-23669520D03*
%TD*%
D18*
%TO.C,SW8*%
X73750000Y-81750000D03*
X73750000Y-88250000D03*
X78250000Y-81750000D03*
X78250000Y-88250000D03*
%TD*%
%TO.C,SW3*%
X43750000Y-93638872D03*
X43750000Y-100138872D03*
X48250000Y-100138872D03*
X48250000Y-93638872D03*
%TD*%
D13*
%TO.C,C7*%
X59500000Y-62000000D03*
X62000000Y-62000000D03*
%TD*%
D18*
%TO.C,SW9*%
X73750000Y-100250000D03*
X73750000Y-93750000D03*
X78250000Y-93750000D03*
X78250000Y-100250000D03*
%TD*%
D31*
%TO.C,C8*%
X56000000Y-44000000D03*
D26*
X54850933Y-43035819D03*
%TD*%
D11*
%TO.C,D2*%
X38000000Y-100810000D03*
D12*
X38000000Y-93190000D03*
%TD*%
D18*
%TO.C,SW1*%
X40750000Y-47000000D03*
X40750000Y-53500000D03*
X36250000Y-47000000D03*
X36250000Y-53500000D03*
%TD*%
D16*
%TO.C,R1*%
X41460000Y-59000000D03*
D17*
X46540000Y-59000000D03*
%TD*%
M02*
