%TF.GenerationSoftware,KiCad,Pcbnew,(6.0.5)*%
%TF.CreationDate,2022-06-16T16:21:38+10:00*%
%TF.ProjectId,test_microcontroller,74657374-5f6d-4696-9372-6f636f6e7472,rev?*%
%TF.SameCoordinates,Original*%
%TF.FileFunction,Soldermask,Top*%
%TF.FilePolarity,Negative*%
%FSLAX46Y46*%
G04 Gerber Fmt 4.6, Leading zero omitted, Abs format (unit mm)*
G04 Created by KiCad (PCBNEW (6.0.5)) date 2022-06-16 16:21:38*
%MOMM*%
%LPD*%
G01*
G04 APERTURE LIST*
%ADD10R,1.600000X1.600000*%
%ADD11O,1.600000X1.600000*%
%ADD12C,1.600000*%
%ADD13R,1.800000X1.800000*%
%ADD14C,1.800000*%
%ADD15C,1.400000*%
%ADD16O,1.400000X1.400000*%
%ADD17C,2.000000*%
%ADD18C,0.650000*%
%ADD19R,1.450000X0.600000*%
%ADD20R,1.450000X0.300000*%
%ADD21O,2.100000X1.000000*%
%ADD22O,1.600000X1.000000*%
%ADD23C,1.500000*%
%ADD24R,1.200000X1.200000*%
%ADD25C,1.200000*%
%ADD26R,1.350000X1.350000*%
%ADD27O,1.350000X1.350000*%
%ADD28R,1.500000X0.550000*%
%ADD29R,0.550000X1.500000*%
G04 APERTURE END LIST*
D10*
%TO.C,D6*%
X53000000Y-115810000D03*
D11*
X53000000Y-108190000D03*
%TD*%
D10*
%TO.C,D1*%
X38140000Y-93490000D03*
D11*
X38140000Y-85870000D03*
%TD*%
D12*
%TO.C,C6*%
X73500000Y-62000000D03*
X71000000Y-62000000D03*
%TD*%
%TO.C,C2*%
X72000000Y-35000000D03*
X69500000Y-35000000D03*
%TD*%
D13*
%TO.C,D_CAPS1*%
X50000000Y-77000000D03*
D14*
X47460000Y-77000000D03*
%TD*%
D10*
%TO.C,D9*%
X68620000Y-116350000D03*
D11*
X68620000Y-108730000D03*
%TD*%
D15*
%TO.C,R7*%
X74460000Y-37000000D03*
D16*
X79540000Y-37000000D03*
%TD*%
D17*
%TO.C,SW_CAPS1*%
X73750000Y-108750000D03*
X73750000Y-115250000D03*
X78250000Y-108750000D03*
X78250000Y-115250000D03*
%TD*%
D15*
%TO.C,R6*%
X41460000Y-29000000D03*
D16*
X46540000Y-29000000D03*
%TD*%
D10*
%TO.C,D8*%
X69000000Y-104810000D03*
D11*
X69000000Y-97190000D03*
%TD*%
D18*
%TO.C,J1*%
X35600000Y-24110000D03*
X35600000Y-29890000D03*
D19*
X37045000Y-23750000D03*
X37045000Y-24550000D03*
D20*
X37045000Y-25750000D03*
X37045000Y-26750000D03*
X37045000Y-27250000D03*
X37045000Y-28250000D03*
D19*
X37045000Y-29450000D03*
X37045000Y-30250000D03*
X37045000Y-30250000D03*
X37045000Y-29450000D03*
D20*
X37045000Y-28750000D03*
X37045000Y-27750000D03*
X37045000Y-26250000D03*
X37045000Y-25250000D03*
D19*
X37045000Y-24550000D03*
X37045000Y-23750000D03*
D21*
X36130000Y-22680000D03*
D22*
X31950000Y-22680000D03*
X31950000Y-31320000D03*
D21*
X36130000Y-31320000D03*
%TD*%
D12*
%TO.C,C4*%
X58000000Y-40000000D03*
X58000000Y-37500000D03*
%TD*%
D10*
%TO.C,D3*%
X38000000Y-115810000D03*
D11*
X38000000Y-108190000D03*
%TD*%
D23*
%TO.C,Y1*%
X64550000Y-58000000D03*
X69430000Y-58000000D03*
%TD*%
D24*
%TO.C,C5*%
X77000000Y-50000000D03*
D25*
X77000000Y-51500000D03*
%TD*%
D17*
%TO.C,SW6*%
X58750000Y-97750000D03*
X58750000Y-104250000D03*
X63250000Y-104250000D03*
X63250000Y-97750000D03*
%TD*%
D15*
%TO.C,R_CAPS1*%
X38000000Y-77000000D03*
D16*
X43080000Y-77000000D03*
%TD*%
D17*
%TO.C,SW4*%
X43750000Y-115250000D03*
X43750000Y-108750000D03*
X48250000Y-115250000D03*
X48250000Y-108750000D03*
%TD*%
D10*
%TO.C,D7*%
X69000000Y-92810000D03*
D11*
X69000000Y-85190000D03*
%TD*%
D12*
%TO.C,C1*%
X62000000Y-35000000D03*
X64500000Y-35000000D03*
%TD*%
D17*
%TO.C,SW7*%
X58750000Y-115250000D03*
X58750000Y-108750000D03*
X63250000Y-108750000D03*
X63250000Y-115250000D03*
%TD*%
%TO.C,SW2*%
X43750000Y-85750000D03*
X43750000Y-92250000D03*
X48250000Y-85750000D03*
X48250000Y-92250000D03*
%TD*%
D15*
%TO.C,R5*%
X41460000Y-27000000D03*
D16*
X46540000Y-27000000D03*
%TD*%
D26*
%TO.C,ICSP_Programmer1*%
X47000000Y-47000000D03*
D27*
X45000000Y-47000000D03*
X47000000Y-45000000D03*
X45000000Y-45000000D03*
X47000000Y-43000000D03*
X45000000Y-43000000D03*
%TD*%
D12*
%TO.C,C3*%
X59000000Y-54000000D03*
X59000000Y-56500000D03*
%TD*%
D10*
%TO.C,D4*%
X53000000Y-93810000D03*
D11*
X53000000Y-86190000D03*
%TD*%
D15*
%TO.C,R4*%
X41460000Y-31000000D03*
D16*
X46540000Y-31000000D03*
%TD*%
D17*
%TO.C,SW5*%
X58750000Y-92250000D03*
X58750000Y-85750000D03*
X63250000Y-85750000D03*
X63250000Y-92250000D03*
%TD*%
D28*
%TO.C,U1*%
X61300000Y-41000000D03*
X61300000Y-41800000D03*
X61300000Y-42600000D03*
X61300000Y-43400000D03*
X61300000Y-44200000D03*
X61300000Y-45000000D03*
X61300000Y-45800000D03*
X61300000Y-46600000D03*
X61300000Y-47400000D03*
X61300000Y-48200000D03*
X61300000Y-49000000D03*
D29*
X63000000Y-50700000D03*
X63800000Y-50700000D03*
X64600000Y-50700000D03*
X65400000Y-50700000D03*
X66200000Y-50700000D03*
X67000000Y-50700000D03*
X67800000Y-50700000D03*
X68600000Y-50700000D03*
X69400000Y-50700000D03*
X70200000Y-50700000D03*
X71000000Y-50700000D03*
D28*
X72700000Y-49000000D03*
X72700000Y-48200000D03*
X72700000Y-47400000D03*
X72700000Y-46600000D03*
X72700000Y-45800000D03*
X72700000Y-45000000D03*
X72700000Y-44200000D03*
X72700000Y-43400000D03*
X72700000Y-42600000D03*
X72700000Y-41800000D03*
X72700000Y-41000000D03*
D29*
X71000000Y-39300000D03*
X70200000Y-39300000D03*
X69400000Y-39300000D03*
X68600000Y-39300000D03*
X67800000Y-39300000D03*
X67000000Y-39300000D03*
X66200000Y-39300000D03*
X65400000Y-39300000D03*
X64600000Y-39300000D03*
X63800000Y-39300000D03*
X63000000Y-39300000D03*
%TD*%
D15*
%TO.C,R3*%
X41460000Y-25000000D03*
D16*
X46540000Y-25000000D03*
%TD*%
D10*
%TO.C,D5*%
X53380000Y-104698872D03*
D11*
X53380000Y-97078872D03*
%TD*%
D15*
%TO.C,R2*%
X41460000Y-23000000D03*
D16*
X46540000Y-23000000D03*
%TD*%
D17*
%TO.C,SW8*%
X73750000Y-85750000D03*
X73750000Y-92250000D03*
X78250000Y-85750000D03*
X78250000Y-92250000D03*
%TD*%
%TO.C,SW3*%
X43750000Y-97638872D03*
X43750000Y-104138872D03*
X48250000Y-104138872D03*
X48250000Y-97638872D03*
%TD*%
D12*
%TO.C,C7*%
X59500000Y-62000000D03*
X62000000Y-62000000D03*
%TD*%
D17*
%TO.C,SW9*%
X73750000Y-104250000D03*
X73750000Y-97750000D03*
X78250000Y-97750000D03*
X78250000Y-104250000D03*
%TD*%
D24*
%TO.C,C8*%
X56000000Y-44000000D03*
D25*
X54500000Y-44000000D03*
%TD*%
D10*
%TO.C,D2*%
X38000000Y-104810000D03*
D11*
X38000000Y-97190000D03*
%TD*%
D17*
%TO.C,SW1*%
X40750000Y-47000000D03*
X40750000Y-53500000D03*
X36250000Y-47000000D03*
X36250000Y-53500000D03*
%TD*%
D15*
%TO.C,R1*%
X41460000Y-59000000D03*
D16*
X46540000Y-59000000D03*
%TD*%
M02*
