M48
; DRILL file {KiCad (6.0.5)} date Tue Jun 21 12:49:07 2022
; FORMAT={-:-/ absolute / inch / decimal}
; #@! TF.CreationDate,2022-06-21T12:49:07+10:00
; #@! TF.GenerationSoftware,Kicad,Pcbnew,(6.0.5)
; #@! TF.FileFunction,MixedPlating,1,2
FMAT,2
INCH
; #@! TA.AperFunction,Plated,PTH,ComponentDrill
T1C0.0236
; #@! TA.AperFunction,Plated,PTH,ComponentDrill
T2C0.0276
; #@! TA.AperFunction,Plated,PTH,ComponentDrill
T3C0.0315
; #@! TA.AperFunction,Plated,PTH,ComponentDrill
T4C0.0354
; #@! TA.AperFunction,Plated,PTH,ComponentDrill
T5C0.0433
; #@! TA.AperFunction,NonPlated,NPTH,ComponentDrill
T6C0.0256
%
G90
G05
T1
X2.1595Y-1.6943
X2.2047Y-1.7323
X3.0315Y-1.9685
X3.0315Y-2.0276
T2
X1.4961Y-2.874
X1.6323Y-0.9319
X1.6323Y-1.0106
X1.6323Y-1.0894
X1.6323Y-1.1681
X1.6323Y-1.2468
X1.6323Y-2.3228
X1.6961Y-2.874
X1.8323Y-0.9319
X1.8323Y-1.0106
X1.8323Y-1.0894
X1.8323Y-1.1681
X1.8323Y-1.2468
X1.8323Y-2.3228
X2.9315Y-1.4567
X3.1315Y-1.4567
T3
X1.4961Y-3.6689
X1.4961Y-3.9689
X1.4961Y-4.102
X1.4961Y-4.402
X1.5016Y-3.2232
X1.5016Y-3.5232
X1.7717Y-1.6929
X1.7717Y-1.7717
X1.7717Y-1.8504
X1.8504Y-1.6929
X1.8504Y-1.7717
X1.8504Y-1.8504
X2.0866Y-3.2358
X2.0866Y-3.5358
X2.0866Y-4.102
X2.0866Y-4.402
X2.1016Y-3.6645
X2.1016Y-3.9645
X2.3228Y-1.4764
X2.3228Y-1.5748
X2.3228Y-2.126
X2.3228Y-2.2244
X2.3425Y-2.4409
X2.4409Y-1.378
X2.4409Y-2.4409
X2.5394Y-1.378
X2.5413Y-2.2835
X2.7016Y-4.1232
X2.7016Y-4.4232
X2.7165Y-3.1965
X2.7165Y-3.4965
X2.7165Y-3.6689
X2.7165Y-3.9689
X2.7335Y-2.2835
X2.7362Y-1.378
X2.7953Y-2.4409
X2.8346Y-1.378
X2.8937Y-2.4409
T4
X1.8685Y-2.874
X1.9685Y-2.874
T5
X1.4272Y-1.8504
X1.4272Y-2.1063
X1.6043Y-1.8504
X1.6043Y-2.1063
X1.7224Y-3.2185
X1.7224Y-3.4744
X1.7224Y-3.6866
X1.7224Y-3.9425
X1.7224Y-4.124
X1.7224Y-4.3799
X1.8996Y-3.2185
X1.8996Y-3.4744
X1.8996Y-3.6866
X1.8996Y-3.9425
X1.8996Y-4.124
X1.8996Y-4.3799
X2.313Y-3.2185
X2.313Y-3.4744
X2.313Y-3.6909
X2.313Y-3.9469
X2.313Y-4.124
X2.313Y-4.3799
X2.4902Y-3.2185
X2.4902Y-3.4744
X2.4902Y-3.6909
X2.4902Y-3.9469
X2.4902Y-4.124
X2.4902Y-4.3799
X2.9035Y-3.2185
X2.9035Y-3.4744
X2.9035Y-3.6909
X2.9035Y-3.9469
X2.9035Y-4.124
X2.9035Y-4.3799
X3.0807Y-3.2185
X3.0807Y-3.4744
X3.0807Y-3.6909
X3.0807Y-3.9469
X3.0807Y-4.124
X3.0807Y-4.3799
T6
X1.4016Y-0.9756
X1.4016Y-1.2031
T1
G00X1.2697Y-0.9193
M15
G01X1.2461Y-0.9193
M16
G05
G00X1.2697Y-1.2594
M15
G01X1.2461Y-1.2594
M16
G05
G00X1.4441Y-0.9193
M15
G01X1.4008Y-0.9193
M16
G05
G00X1.4441Y-1.2594
M15
G01X1.4008Y-1.2594
M16
G05
T0
M30
