M48
; DRILL file {KiCad (6.0.5)} date Thu Jun 16 16:21:30 2022
; FORMAT={-:-/ absolute / inch / decimal}
; #@! TF.CreationDate,2022-06-16T16:21:30+10:00
; #@! TF.GenerationSoftware,Kicad,Pcbnew,(6.0.5)
; #@! TF.FileFunction,MixedPlating,1,2
FMAT,2
INCH
; #@! TA.AperFunction,Plated,PTH,ComponentDrill
T1C0.0236
; #@! TA.AperFunction,Plated,PTH,ComponentDrill
T2C0.0276
; #@! TA.AperFunction,Plated,PTH,ComponentDrill
T3C0.0315
; #@! TA.AperFunction,Plated,PTH,ComponentDrill
T4C0.0354
; #@! TA.AperFunction,Plated,PTH,ComponentDrill
T5C0.0433
; #@! TA.AperFunction,NonPlated,NPTH,ComponentDrill
T6C0.0256
%
G90
G05
T1
X2.1457Y-1.7323
X2.2047Y-1.7323
X3.0315Y-1.9685
X3.0315Y-2.0276
T2
X1.4961Y-3.0315
X1.6323Y-0.9055
X1.6323Y-0.9843
X1.6323Y-1.063
X1.6323Y-1.1417
X1.6323Y-1.2205
X1.6323Y-2.3228
X1.6961Y-3.0315
X1.8323Y-0.9055
X1.8323Y-0.9843
X1.8323Y-1.063
X1.8323Y-1.1417
X1.8323Y-1.2205
X1.8323Y-2.3228
X2.9315Y-1.4567
X3.1315Y-1.4567
T3
X1.4961Y-3.8264
X1.4961Y-4.1264
X1.4961Y-4.2594
X1.4961Y-4.5594
X1.5016Y-3.3807
X1.5016Y-3.6807
X1.7717Y-1.6929
X1.7717Y-1.7717
X1.7717Y-1.8504
X1.8504Y-1.6929
X1.8504Y-1.7717
X1.8504Y-1.8504
X2.0866Y-3.3933
X2.0866Y-3.6933
X2.0866Y-4.2594
X2.0866Y-4.5594
X2.1016Y-3.822
X2.1016Y-4.122
X2.2835Y-1.4764
X2.2835Y-1.5748
X2.3228Y-2.126
X2.3228Y-2.2244
X2.3425Y-2.4409
X2.4409Y-1.378
X2.4409Y-2.4409
X2.5394Y-1.378
X2.5413Y-2.2835
X2.7016Y-4.2807
X2.7016Y-4.5807
X2.7165Y-3.3539
X2.7165Y-3.6539
X2.7165Y-3.8264
X2.7165Y-4.1264
X2.7335Y-2.2835
X2.7362Y-1.378
X2.7953Y-2.4409
X2.8346Y-1.378
X2.8937Y-2.4409
T4
X1.8685Y-3.0315
X1.9685Y-3.0315
T5
X1.4272Y-1.8504
X1.4272Y-2.1063
X1.6043Y-1.8504
X1.6043Y-2.1063
X1.7224Y-3.376
X1.7224Y-3.6319
X1.7224Y-3.8441
X1.7224Y-4.1
X1.7224Y-4.2815
X1.7224Y-4.5374
X1.8996Y-3.376
X1.8996Y-3.6319
X1.8996Y-3.8441
X1.8996Y-4.1
X1.8996Y-4.2815
X1.8996Y-4.5374
X2.313Y-3.376
X2.313Y-3.6319
X2.313Y-3.8484
X2.313Y-4.1043
X2.313Y-4.2815
X2.313Y-4.5374
X2.4902Y-3.376
X2.4902Y-3.6319
X2.4902Y-3.8484
X2.4902Y-4.1043
X2.4902Y-4.2815
X2.4902Y-4.5374
X2.9035Y-3.376
X2.9035Y-3.6319
X2.9035Y-3.8484
X2.9035Y-4.1043
X2.9035Y-4.2815
X2.9035Y-4.5374
X3.0807Y-3.376
X3.0807Y-3.6319
X3.0807Y-3.8484
X3.0807Y-4.1043
X3.0807Y-4.2815
X3.0807Y-4.5374
T6
X1.4016Y-0.9492
X1.4016Y-1.1768
T1
G00X1.2697Y-0.8929
M15
G01X1.2461Y-0.8929
M16
G05
G00X1.2697Y-1.2331
M15
G01X1.2461Y-1.2331
M16
G05
G00X1.4441Y-0.8929
M15
G01X1.4008Y-0.8929
M16
G05
G00X1.4441Y-1.2331
M15
G01X1.4008Y-1.2331
M16
G05
T0
M30
