%TF.GenerationSoftware,KiCad,Pcbnew,(6.0.5)*%
%TF.CreationDate,2022-06-16T16:21:38+10:00*%
%TF.ProjectId,test_microcontroller,74657374-5f6d-4696-9372-6f636f6e7472,rev?*%
%TF.SameCoordinates,Original*%
%TF.FileFunction,Legend,Top*%
%TF.FilePolarity,Positive*%
%FSLAX46Y46*%
G04 Gerber Fmt 4.6, Leading zero omitted, Abs format (unit mm)*
G04 Created by KiCad (PCBNEW (6.0.5)) date 2022-06-16 16:21:38*
%MOMM*%
%LPD*%
G01*
G04 APERTURE LIST*
%ADD10C,0.150000*%
%ADD11C,0.120000*%
G04 APERTURE END LIST*
D10*
%TO.C,D6*%
X51332380Y-112738095D02*
X50332380Y-112738095D01*
X50332380Y-112500000D01*
X50380000Y-112357142D01*
X50475238Y-112261904D01*
X50570476Y-112214285D01*
X50760952Y-112166666D01*
X50903809Y-112166666D01*
X51094285Y-112214285D01*
X51189523Y-112261904D01*
X51284761Y-112357142D01*
X51332380Y-112500000D01*
X51332380Y-112738095D01*
X50332380Y-111309523D02*
X50332380Y-111500000D01*
X50380000Y-111595238D01*
X50427619Y-111642857D01*
X50570476Y-111738095D01*
X50760952Y-111785714D01*
X51141904Y-111785714D01*
X51237142Y-111738095D01*
X51284761Y-111690476D01*
X51332380Y-111595238D01*
X51332380Y-111404761D01*
X51284761Y-111309523D01*
X51237142Y-111261904D01*
X51141904Y-111214285D01*
X50903809Y-111214285D01*
X50808571Y-111261904D01*
X50760952Y-111309523D01*
X50713333Y-111404761D01*
X50713333Y-111595238D01*
X50760952Y-111690476D01*
X50808571Y-111738095D01*
X50903809Y-111785714D01*
X51652380Y-118087468D02*
X50652380Y-118087468D01*
X51652380Y-117516040D02*
X51080952Y-117944611D01*
X50652380Y-117516040D02*
X51223809Y-118087468D01*
%TO.C,D1*%
X36472380Y-90418095D02*
X35472380Y-90418095D01*
X35472380Y-90180000D01*
X35520000Y-90037142D01*
X35615238Y-89941904D01*
X35710476Y-89894285D01*
X35900952Y-89846666D01*
X36043809Y-89846666D01*
X36234285Y-89894285D01*
X36329523Y-89941904D01*
X36424761Y-90037142D01*
X36472380Y-90180000D01*
X36472380Y-90418095D01*
X36472380Y-88894285D02*
X36472380Y-89465714D01*
X36472380Y-89180000D02*
X35472380Y-89180000D01*
X35615238Y-89275238D01*
X35710476Y-89370476D01*
X35758095Y-89465714D01*
X36792380Y-97783032D02*
X35792380Y-97783032D01*
X36792380Y-97211604D02*
X36220952Y-97640175D01*
X35792380Y-97211604D02*
X36363809Y-97783032D01*
%TO.C,C6*%
X72083333Y-64407142D02*
X72035714Y-64454761D01*
X71892857Y-64502380D01*
X71797619Y-64502380D01*
X71654761Y-64454761D01*
X71559523Y-64359523D01*
X71511904Y-64264285D01*
X71464285Y-64073809D01*
X71464285Y-63930952D01*
X71511904Y-63740476D01*
X71559523Y-63645238D01*
X71654761Y-63550000D01*
X71797619Y-63502380D01*
X71892857Y-63502380D01*
X72035714Y-63550000D01*
X72083333Y-63597619D01*
X72940476Y-63502380D02*
X72750000Y-63502380D01*
X72654761Y-63550000D01*
X72607142Y-63597619D01*
X72511904Y-63740476D01*
X72464285Y-63930952D01*
X72464285Y-64311904D01*
X72511904Y-64407142D01*
X72559523Y-64454761D01*
X72654761Y-64502380D01*
X72845238Y-64502380D01*
X72940476Y-64454761D01*
X72988095Y-64407142D01*
X73035714Y-64311904D01*
X73035714Y-64073809D01*
X72988095Y-63978571D01*
X72940476Y-63930952D01*
X72845238Y-63883333D01*
X72654761Y-63883333D01*
X72559523Y-63930952D01*
X72511904Y-63978571D01*
X72464285Y-64073809D01*
%TO.C,C2*%
X70583333Y-37407142D02*
X70535714Y-37454761D01*
X70392857Y-37502380D01*
X70297619Y-37502380D01*
X70154761Y-37454761D01*
X70059523Y-37359523D01*
X70011904Y-37264285D01*
X69964285Y-37073809D01*
X69964285Y-36930952D01*
X70011904Y-36740476D01*
X70059523Y-36645238D01*
X70154761Y-36550000D01*
X70297619Y-36502380D01*
X70392857Y-36502380D01*
X70535714Y-36550000D01*
X70583333Y-36597619D01*
X70964285Y-36597619D02*
X71011904Y-36550000D01*
X71107142Y-36502380D01*
X71345238Y-36502380D01*
X71440476Y-36550000D01*
X71488095Y-36597619D01*
X71535714Y-36692857D01*
X71535714Y-36788095D01*
X71488095Y-36930952D01*
X70916666Y-37502380D01*
X71535714Y-37502380D01*
%TO.C,D_CAPS1*%
X45706190Y-80412380D02*
X45706190Y-79412380D01*
X45944285Y-79412380D01*
X46087142Y-79460000D01*
X46182380Y-79555238D01*
X46230000Y-79650476D01*
X46277619Y-79840952D01*
X46277619Y-79983809D01*
X46230000Y-80174285D01*
X46182380Y-80269523D01*
X46087142Y-80364761D01*
X45944285Y-80412380D01*
X45706190Y-80412380D01*
X46468095Y-80507619D02*
X47230000Y-80507619D01*
X48039523Y-80317142D02*
X47991904Y-80364761D01*
X47849047Y-80412380D01*
X47753809Y-80412380D01*
X47610952Y-80364761D01*
X47515714Y-80269523D01*
X47468095Y-80174285D01*
X47420476Y-79983809D01*
X47420476Y-79840952D01*
X47468095Y-79650476D01*
X47515714Y-79555238D01*
X47610952Y-79460000D01*
X47753809Y-79412380D01*
X47849047Y-79412380D01*
X47991904Y-79460000D01*
X48039523Y-79507619D01*
X48420476Y-80126666D02*
X48896666Y-80126666D01*
X48325238Y-80412380D02*
X48658571Y-79412380D01*
X48991904Y-80412380D01*
X49325238Y-80412380D02*
X49325238Y-79412380D01*
X49706190Y-79412380D01*
X49801428Y-79460000D01*
X49849047Y-79507619D01*
X49896666Y-79602857D01*
X49896666Y-79745714D01*
X49849047Y-79840952D01*
X49801428Y-79888571D01*
X49706190Y-79936190D01*
X49325238Y-79936190D01*
X50277619Y-80364761D02*
X50420476Y-80412380D01*
X50658571Y-80412380D01*
X50753809Y-80364761D01*
X50801428Y-80317142D01*
X50849047Y-80221904D01*
X50849047Y-80126666D01*
X50801428Y-80031428D01*
X50753809Y-79983809D01*
X50658571Y-79936190D01*
X50468095Y-79888571D01*
X50372857Y-79840952D01*
X50325238Y-79793333D01*
X50277619Y-79698095D01*
X50277619Y-79602857D01*
X50325238Y-79507619D01*
X50372857Y-79460000D01*
X50468095Y-79412380D01*
X50706190Y-79412380D01*
X50849047Y-79460000D01*
X51801428Y-80412380D02*
X51230000Y-80412380D01*
X51515714Y-80412380D02*
X51515714Y-79412380D01*
X51420476Y-79555238D01*
X51325238Y-79650476D01*
X51230000Y-79698095D01*
%TO.C,D9*%
X66952380Y-113278095D02*
X65952380Y-113278095D01*
X65952380Y-113040000D01*
X66000000Y-112897142D01*
X66095238Y-112801904D01*
X66190476Y-112754285D01*
X66380952Y-112706666D01*
X66523809Y-112706666D01*
X66714285Y-112754285D01*
X66809523Y-112801904D01*
X66904761Y-112897142D01*
X66952380Y-113040000D01*
X66952380Y-113278095D01*
X66952380Y-112230476D02*
X66952380Y-112040000D01*
X66904761Y-111944761D01*
X66857142Y-111897142D01*
X66714285Y-111801904D01*
X66523809Y-111754285D01*
X66142857Y-111754285D01*
X66047619Y-111801904D01*
X66000000Y-111849523D01*
X65952380Y-111944761D01*
X65952380Y-112135238D01*
X66000000Y-112230476D01*
X66047619Y-112278095D01*
X66142857Y-112325714D01*
X66380952Y-112325714D01*
X66476190Y-112278095D01*
X66523809Y-112230476D01*
X66571428Y-112135238D01*
X66571428Y-111944761D01*
X66523809Y-111849523D01*
X66476190Y-111801904D01*
X66380952Y-111754285D01*
X67272380Y-116611904D02*
X66272380Y-116611904D01*
X67272380Y-116040476D02*
X66700952Y-116469047D01*
X66272380Y-116040476D02*
X66843809Y-116611904D01*
%TO.C,R7*%
X76833333Y-35532380D02*
X76500000Y-35056190D01*
X76261904Y-35532380D02*
X76261904Y-34532380D01*
X76642857Y-34532380D01*
X76738095Y-34580000D01*
X76785714Y-34627619D01*
X76833333Y-34722857D01*
X76833333Y-34865714D01*
X76785714Y-34960952D01*
X76738095Y-35008571D01*
X76642857Y-35056190D01*
X76261904Y-35056190D01*
X77166666Y-34532380D02*
X77833333Y-34532380D01*
X77404761Y-35532380D01*
%TO.C,SW_CAPS1*%
X72154761Y-115619047D02*
X72202380Y-115476190D01*
X72202380Y-115238095D01*
X72154761Y-115142857D01*
X72107142Y-115095238D01*
X72011904Y-115047619D01*
X71916666Y-115047619D01*
X71821428Y-115095238D01*
X71773809Y-115142857D01*
X71726190Y-115238095D01*
X71678571Y-115428571D01*
X71630952Y-115523809D01*
X71583333Y-115571428D01*
X71488095Y-115619047D01*
X71392857Y-115619047D01*
X71297619Y-115571428D01*
X71250000Y-115523809D01*
X71202380Y-115428571D01*
X71202380Y-115190476D01*
X71250000Y-115047619D01*
X71202380Y-114714285D02*
X72202380Y-114476190D01*
X71488095Y-114285714D01*
X72202380Y-114095238D01*
X71202380Y-113857142D01*
X72297619Y-113714285D02*
X72297619Y-112952380D01*
X72107142Y-112142857D02*
X72154761Y-112190476D01*
X72202380Y-112333333D01*
X72202380Y-112428571D01*
X72154761Y-112571428D01*
X72059523Y-112666666D01*
X71964285Y-112714285D01*
X71773809Y-112761904D01*
X71630952Y-112761904D01*
X71440476Y-112714285D01*
X71345238Y-112666666D01*
X71250000Y-112571428D01*
X71202380Y-112428571D01*
X71202380Y-112333333D01*
X71250000Y-112190476D01*
X71297619Y-112142857D01*
X71916666Y-111761904D02*
X71916666Y-111285714D01*
X72202380Y-111857142D02*
X71202380Y-111523809D01*
X72202380Y-111190476D01*
X72202380Y-110857142D02*
X71202380Y-110857142D01*
X71202380Y-110476190D01*
X71250000Y-110380952D01*
X71297619Y-110333333D01*
X71392857Y-110285714D01*
X71535714Y-110285714D01*
X71630952Y-110333333D01*
X71678571Y-110380952D01*
X71726190Y-110476190D01*
X71726190Y-110857142D01*
X72154761Y-109904761D02*
X72202380Y-109761904D01*
X72202380Y-109523809D01*
X72154761Y-109428571D01*
X72107142Y-109380952D01*
X72011904Y-109333333D01*
X71916666Y-109333333D01*
X71821428Y-109380952D01*
X71773809Y-109428571D01*
X71726190Y-109523809D01*
X71678571Y-109714285D01*
X71630952Y-109809523D01*
X71583333Y-109857142D01*
X71488095Y-109904761D01*
X71392857Y-109904761D01*
X71297619Y-109857142D01*
X71250000Y-109809523D01*
X71202380Y-109714285D01*
X71202380Y-109476190D01*
X71250000Y-109333333D01*
X72202380Y-108380952D02*
X72202380Y-108952380D01*
X72202380Y-108666666D02*
X71202380Y-108666666D01*
X71345238Y-108761904D01*
X71440476Y-108857142D01*
X71488095Y-108952380D01*
%TO.C,R6*%
X43833333Y-27532380D02*
X43500000Y-27056190D01*
X43261904Y-27532380D02*
X43261904Y-26532380D01*
X43642857Y-26532380D01*
X43738095Y-26580000D01*
X43785714Y-26627619D01*
X43833333Y-26722857D01*
X43833333Y-26865714D01*
X43785714Y-26960952D01*
X43738095Y-27008571D01*
X43642857Y-27056190D01*
X43261904Y-27056190D01*
X44690476Y-26532380D02*
X44500000Y-26532380D01*
X44404761Y-26580000D01*
X44357142Y-26627619D01*
X44261904Y-26770476D01*
X44214285Y-26960952D01*
X44214285Y-27341904D01*
X44261904Y-27437142D01*
X44309523Y-27484761D01*
X44404761Y-27532380D01*
X44595238Y-27532380D01*
X44690476Y-27484761D01*
X44738095Y-27437142D01*
X44785714Y-27341904D01*
X44785714Y-27103809D01*
X44738095Y-27008571D01*
X44690476Y-26960952D01*
X44595238Y-26913333D01*
X44404761Y-26913333D01*
X44309523Y-26960952D01*
X44261904Y-27008571D01*
X44214285Y-27103809D01*
%TO.C,D8*%
X67332380Y-101738095D02*
X66332380Y-101738095D01*
X66332380Y-101500000D01*
X66380000Y-101357142D01*
X66475238Y-101261904D01*
X66570476Y-101214285D01*
X66760952Y-101166666D01*
X66903809Y-101166666D01*
X67094285Y-101214285D01*
X67189523Y-101261904D01*
X67284761Y-101357142D01*
X67332380Y-101500000D01*
X67332380Y-101738095D01*
X66760952Y-100595238D02*
X66713333Y-100690476D01*
X66665714Y-100738095D01*
X66570476Y-100785714D01*
X66522857Y-100785714D01*
X66427619Y-100738095D01*
X66380000Y-100690476D01*
X66332380Y-100595238D01*
X66332380Y-100404761D01*
X66380000Y-100309523D01*
X66427619Y-100261904D01*
X66522857Y-100214285D01*
X66570476Y-100214285D01*
X66665714Y-100261904D01*
X66713333Y-100309523D01*
X66760952Y-100404761D01*
X66760952Y-100595238D01*
X66808571Y-100690476D01*
X66856190Y-100738095D01*
X66951428Y-100785714D01*
X67141904Y-100785714D01*
X67237142Y-100738095D01*
X67284761Y-100690476D01*
X67332380Y-100595238D01*
X67332380Y-100404761D01*
X67284761Y-100309523D01*
X67237142Y-100261904D01*
X67141904Y-100214285D01*
X66951428Y-100214285D01*
X66856190Y-100261904D01*
X66808571Y-100309523D01*
X66760952Y-100404761D01*
X67652380Y-105071904D02*
X66652380Y-105071904D01*
X67652380Y-104500476D02*
X67080952Y-104929047D01*
X66652380Y-104500476D02*
X67223809Y-105071904D01*
%TO.C,J1*%
X39097380Y-27333333D02*
X39811666Y-27333333D01*
X39954523Y-27380952D01*
X40049761Y-27476190D01*
X40097380Y-27619047D01*
X40097380Y-27714285D01*
X40097380Y-26333333D02*
X40097380Y-26904761D01*
X40097380Y-26619047D02*
X39097380Y-26619047D01*
X39240238Y-26714285D01*
X39335476Y-26809523D01*
X39383095Y-26904761D01*
%TO.C,C4*%
X56307142Y-38916666D02*
X56354761Y-38964285D01*
X56402380Y-39107142D01*
X56402380Y-39202380D01*
X56354761Y-39345238D01*
X56259523Y-39440476D01*
X56164285Y-39488095D01*
X55973809Y-39535714D01*
X55830952Y-39535714D01*
X55640476Y-39488095D01*
X55545238Y-39440476D01*
X55450000Y-39345238D01*
X55402380Y-39202380D01*
X55402380Y-39107142D01*
X55450000Y-38964285D01*
X55497619Y-38916666D01*
X55735714Y-38059523D02*
X56402380Y-38059523D01*
X55354761Y-38297619D02*
X56069047Y-38535714D01*
X56069047Y-37916666D01*
%TO.C,D3*%
X36332380Y-112738095D02*
X35332380Y-112738095D01*
X35332380Y-112500000D01*
X35380000Y-112357142D01*
X35475238Y-112261904D01*
X35570476Y-112214285D01*
X35760952Y-112166666D01*
X35903809Y-112166666D01*
X36094285Y-112214285D01*
X36189523Y-112261904D01*
X36284761Y-112357142D01*
X36332380Y-112500000D01*
X36332380Y-112738095D01*
X35332380Y-111833333D02*
X35332380Y-111214285D01*
X35713333Y-111547619D01*
X35713333Y-111404761D01*
X35760952Y-111309523D01*
X35808571Y-111261904D01*
X35903809Y-111214285D01*
X36141904Y-111214285D01*
X36237142Y-111261904D01*
X36284761Y-111309523D01*
X36332380Y-111404761D01*
X36332380Y-111690476D01*
X36284761Y-111785714D01*
X36237142Y-111833333D01*
X36652380Y-116071904D02*
X35652380Y-116071904D01*
X36652380Y-115500476D02*
X36080952Y-115929047D01*
X35652380Y-115500476D02*
X36223809Y-116071904D01*
%TO.C,Y1*%
X64523809Y-54451190D02*
X64523809Y-54927380D01*
X64190476Y-53927380D02*
X64523809Y-54451190D01*
X64857142Y-53927380D01*
X65714285Y-54927380D02*
X65142857Y-54927380D01*
X65428571Y-54927380D02*
X65428571Y-53927380D01*
X65333333Y-54070238D01*
X65238095Y-54165476D01*
X65142857Y-54213095D01*
%TO.C,C5*%
X80607142Y-50916666D02*
X80654761Y-50964285D01*
X80702380Y-51107142D01*
X80702380Y-51202380D01*
X80654761Y-51345238D01*
X80559523Y-51440476D01*
X80464285Y-51488095D01*
X80273809Y-51535714D01*
X80130952Y-51535714D01*
X79940476Y-51488095D01*
X79845238Y-51440476D01*
X79750000Y-51345238D01*
X79702380Y-51202380D01*
X79702380Y-51107142D01*
X79750000Y-50964285D01*
X79797619Y-50916666D01*
X79702380Y-50011904D02*
X79702380Y-50488095D01*
X80178571Y-50535714D01*
X80130952Y-50488095D01*
X80083333Y-50392857D01*
X80083333Y-50154761D01*
X80130952Y-50059523D01*
X80178571Y-50011904D01*
X80273809Y-49964285D01*
X80511904Y-49964285D01*
X80607142Y-50011904D01*
X80654761Y-50059523D01*
X80702380Y-50154761D01*
X80702380Y-50392857D01*
X80654761Y-50488095D01*
X80607142Y-50535714D01*
%TO.C,SW6*%
X57154761Y-102333333D02*
X57202380Y-102190476D01*
X57202380Y-101952380D01*
X57154761Y-101857142D01*
X57107142Y-101809523D01*
X57011904Y-101761904D01*
X56916666Y-101761904D01*
X56821428Y-101809523D01*
X56773809Y-101857142D01*
X56726190Y-101952380D01*
X56678571Y-102142857D01*
X56630952Y-102238095D01*
X56583333Y-102285714D01*
X56488095Y-102333333D01*
X56392857Y-102333333D01*
X56297619Y-102285714D01*
X56250000Y-102238095D01*
X56202380Y-102142857D01*
X56202380Y-101904761D01*
X56250000Y-101761904D01*
X56202380Y-101428571D02*
X57202380Y-101190476D01*
X56488095Y-101000000D01*
X57202380Y-100809523D01*
X56202380Y-100571428D01*
X56202380Y-99761904D02*
X56202380Y-99952380D01*
X56250000Y-100047619D01*
X56297619Y-100095238D01*
X56440476Y-100190476D01*
X56630952Y-100238095D01*
X57011904Y-100238095D01*
X57107142Y-100190476D01*
X57154761Y-100142857D01*
X57202380Y-100047619D01*
X57202380Y-99857142D01*
X57154761Y-99761904D01*
X57107142Y-99714285D01*
X57011904Y-99666666D01*
X56773809Y-99666666D01*
X56678571Y-99714285D01*
X56630952Y-99761904D01*
X56583333Y-99857142D01*
X56583333Y-100047619D01*
X56630952Y-100142857D01*
X56678571Y-100190476D01*
X56773809Y-100238095D01*
%TO.C,R_CAPS1*%
X38087619Y-75532380D02*
X37754285Y-75056190D01*
X37516190Y-75532380D02*
X37516190Y-74532380D01*
X37897142Y-74532380D01*
X37992380Y-74580000D01*
X38040000Y-74627619D01*
X38087619Y-74722857D01*
X38087619Y-74865714D01*
X38040000Y-74960952D01*
X37992380Y-75008571D01*
X37897142Y-75056190D01*
X37516190Y-75056190D01*
X38278095Y-75627619D02*
X39040000Y-75627619D01*
X39849523Y-75437142D02*
X39801904Y-75484761D01*
X39659047Y-75532380D01*
X39563809Y-75532380D01*
X39420952Y-75484761D01*
X39325714Y-75389523D01*
X39278095Y-75294285D01*
X39230476Y-75103809D01*
X39230476Y-74960952D01*
X39278095Y-74770476D01*
X39325714Y-74675238D01*
X39420952Y-74580000D01*
X39563809Y-74532380D01*
X39659047Y-74532380D01*
X39801904Y-74580000D01*
X39849523Y-74627619D01*
X40230476Y-75246666D02*
X40706666Y-75246666D01*
X40135238Y-75532380D02*
X40468571Y-74532380D01*
X40801904Y-75532380D01*
X41135238Y-75532380D02*
X41135238Y-74532380D01*
X41516190Y-74532380D01*
X41611428Y-74580000D01*
X41659047Y-74627619D01*
X41706666Y-74722857D01*
X41706666Y-74865714D01*
X41659047Y-74960952D01*
X41611428Y-75008571D01*
X41516190Y-75056190D01*
X41135238Y-75056190D01*
X42087619Y-75484761D02*
X42230476Y-75532380D01*
X42468571Y-75532380D01*
X42563809Y-75484761D01*
X42611428Y-75437142D01*
X42659047Y-75341904D01*
X42659047Y-75246666D01*
X42611428Y-75151428D01*
X42563809Y-75103809D01*
X42468571Y-75056190D01*
X42278095Y-75008571D01*
X42182857Y-74960952D01*
X42135238Y-74913333D01*
X42087619Y-74818095D01*
X42087619Y-74722857D01*
X42135238Y-74627619D01*
X42182857Y-74580000D01*
X42278095Y-74532380D01*
X42516190Y-74532380D01*
X42659047Y-74580000D01*
X43611428Y-75532380D02*
X43040000Y-75532380D01*
X43325714Y-75532380D02*
X43325714Y-74532380D01*
X43230476Y-74675238D01*
X43135238Y-74770476D01*
X43040000Y-74818095D01*
%TO.C,SW4*%
X42154761Y-113333333D02*
X42202380Y-113190476D01*
X42202380Y-112952380D01*
X42154761Y-112857142D01*
X42107142Y-112809523D01*
X42011904Y-112761904D01*
X41916666Y-112761904D01*
X41821428Y-112809523D01*
X41773809Y-112857142D01*
X41726190Y-112952380D01*
X41678571Y-113142857D01*
X41630952Y-113238095D01*
X41583333Y-113285714D01*
X41488095Y-113333333D01*
X41392857Y-113333333D01*
X41297619Y-113285714D01*
X41250000Y-113238095D01*
X41202380Y-113142857D01*
X41202380Y-112904761D01*
X41250000Y-112761904D01*
X41202380Y-112428571D02*
X42202380Y-112190476D01*
X41488095Y-112000000D01*
X42202380Y-111809523D01*
X41202380Y-111571428D01*
X41535714Y-110761904D02*
X42202380Y-110761904D01*
X41154761Y-111000000D02*
X41869047Y-111238095D01*
X41869047Y-110619047D01*
%TO.C,D7*%
X67332380Y-89738095D02*
X66332380Y-89738095D01*
X66332380Y-89500000D01*
X66380000Y-89357142D01*
X66475238Y-89261904D01*
X66570476Y-89214285D01*
X66760952Y-89166666D01*
X66903809Y-89166666D01*
X67094285Y-89214285D01*
X67189523Y-89261904D01*
X67284761Y-89357142D01*
X67332380Y-89500000D01*
X67332380Y-89738095D01*
X66332380Y-88833333D02*
X66332380Y-88166666D01*
X67332380Y-88595238D01*
X67652380Y-93071904D02*
X66652380Y-93071904D01*
X67652380Y-92500476D02*
X67080952Y-92929047D01*
X66652380Y-92500476D02*
X67223809Y-93071904D01*
%TO.C,C1*%
X63083333Y-33307142D02*
X63035714Y-33354761D01*
X62892857Y-33402380D01*
X62797619Y-33402380D01*
X62654761Y-33354761D01*
X62559523Y-33259523D01*
X62511904Y-33164285D01*
X62464285Y-32973809D01*
X62464285Y-32830952D01*
X62511904Y-32640476D01*
X62559523Y-32545238D01*
X62654761Y-32450000D01*
X62797619Y-32402380D01*
X62892857Y-32402380D01*
X63035714Y-32450000D01*
X63083333Y-32497619D01*
X64035714Y-33402380D02*
X63464285Y-33402380D01*
X63750000Y-33402380D02*
X63750000Y-32402380D01*
X63654761Y-32545238D01*
X63559523Y-32640476D01*
X63464285Y-32688095D01*
%TO.C,SW7*%
X57154761Y-113333333D02*
X57202380Y-113190476D01*
X57202380Y-112952380D01*
X57154761Y-112857142D01*
X57107142Y-112809523D01*
X57011904Y-112761904D01*
X56916666Y-112761904D01*
X56821428Y-112809523D01*
X56773809Y-112857142D01*
X56726190Y-112952380D01*
X56678571Y-113142857D01*
X56630952Y-113238095D01*
X56583333Y-113285714D01*
X56488095Y-113333333D01*
X56392857Y-113333333D01*
X56297619Y-113285714D01*
X56250000Y-113238095D01*
X56202380Y-113142857D01*
X56202380Y-112904761D01*
X56250000Y-112761904D01*
X56202380Y-112428571D02*
X57202380Y-112190476D01*
X56488095Y-112000000D01*
X57202380Y-111809523D01*
X56202380Y-111571428D01*
X56202380Y-111285714D02*
X56202380Y-110619047D01*
X57202380Y-111047619D01*
%TO.C,SW2*%
X42154761Y-90333333D02*
X42202380Y-90190476D01*
X42202380Y-89952380D01*
X42154761Y-89857142D01*
X42107142Y-89809523D01*
X42011904Y-89761904D01*
X41916666Y-89761904D01*
X41821428Y-89809523D01*
X41773809Y-89857142D01*
X41726190Y-89952380D01*
X41678571Y-90142857D01*
X41630952Y-90238095D01*
X41583333Y-90285714D01*
X41488095Y-90333333D01*
X41392857Y-90333333D01*
X41297619Y-90285714D01*
X41250000Y-90238095D01*
X41202380Y-90142857D01*
X41202380Y-89904761D01*
X41250000Y-89761904D01*
X41202380Y-89428571D02*
X42202380Y-89190476D01*
X41488095Y-89000000D01*
X42202380Y-88809523D01*
X41202380Y-88571428D01*
X41297619Y-88238095D02*
X41250000Y-88190476D01*
X41202380Y-88095238D01*
X41202380Y-87857142D01*
X41250000Y-87761904D01*
X41297619Y-87714285D01*
X41392857Y-87666666D01*
X41488095Y-87666666D01*
X41630952Y-87714285D01*
X42202380Y-88285714D01*
X42202380Y-87666666D01*
%TO.C,R5*%
X43833333Y-25532380D02*
X43500000Y-25056190D01*
X43261904Y-25532380D02*
X43261904Y-24532380D01*
X43642857Y-24532380D01*
X43738095Y-24580000D01*
X43785714Y-24627619D01*
X43833333Y-24722857D01*
X43833333Y-24865714D01*
X43785714Y-24960952D01*
X43738095Y-25008571D01*
X43642857Y-25056190D01*
X43261904Y-25056190D01*
X44738095Y-24532380D02*
X44261904Y-24532380D01*
X44214285Y-25008571D01*
X44261904Y-24960952D01*
X44357142Y-24913333D01*
X44595238Y-24913333D01*
X44690476Y-24960952D01*
X44738095Y-25008571D01*
X44785714Y-25103809D01*
X44785714Y-25341904D01*
X44738095Y-25437142D01*
X44690476Y-25484761D01*
X44595238Y-25532380D01*
X44357142Y-25532380D01*
X44261904Y-25484761D01*
X44214285Y-25437142D01*
%TO.C,ICSP_Programmer1*%
X46119047Y-50452380D02*
X46119047Y-49452380D01*
X47166666Y-50357142D02*
X47119047Y-50404761D01*
X46976190Y-50452380D01*
X46880952Y-50452380D01*
X46738095Y-50404761D01*
X46642857Y-50309523D01*
X46595238Y-50214285D01*
X46547619Y-50023809D01*
X46547619Y-49880952D01*
X46595238Y-49690476D01*
X46642857Y-49595238D01*
X46738095Y-49500000D01*
X46880952Y-49452380D01*
X46976190Y-49452380D01*
X47119047Y-49500000D01*
X47166666Y-49547619D01*
X47547619Y-50404761D02*
X47690476Y-50452380D01*
X47928571Y-50452380D01*
X48023809Y-50404761D01*
X48071428Y-50357142D01*
X48119047Y-50261904D01*
X48119047Y-50166666D01*
X48071428Y-50071428D01*
X48023809Y-50023809D01*
X47928571Y-49976190D01*
X47738095Y-49928571D01*
X47642857Y-49880952D01*
X47595238Y-49833333D01*
X47547619Y-49738095D01*
X47547619Y-49642857D01*
X47595238Y-49547619D01*
X47642857Y-49500000D01*
X47738095Y-49452380D01*
X47976190Y-49452380D01*
X48119047Y-49500000D01*
X48547619Y-50452380D02*
X48547619Y-49452380D01*
X48928571Y-49452380D01*
X49023809Y-49500000D01*
X49071428Y-49547619D01*
X49119047Y-49642857D01*
X49119047Y-49785714D01*
X49071428Y-49880952D01*
X49023809Y-49928571D01*
X48928571Y-49976190D01*
X48547619Y-49976190D01*
X49309523Y-50547619D02*
X50071428Y-50547619D01*
X50309523Y-50452380D02*
X50309523Y-49452380D01*
X50690476Y-49452380D01*
X50785714Y-49500000D01*
X50833333Y-49547619D01*
X50880952Y-49642857D01*
X50880952Y-49785714D01*
X50833333Y-49880952D01*
X50785714Y-49928571D01*
X50690476Y-49976190D01*
X50309523Y-49976190D01*
X51309523Y-50452380D02*
X51309523Y-49785714D01*
X51309523Y-49976190D02*
X51357142Y-49880952D01*
X51404761Y-49833333D01*
X51500000Y-49785714D01*
X51595238Y-49785714D01*
X52071428Y-50452380D02*
X51976190Y-50404761D01*
X51928571Y-50357142D01*
X51880952Y-50261904D01*
X51880952Y-49976190D01*
X51928571Y-49880952D01*
X51976190Y-49833333D01*
X52071428Y-49785714D01*
X52214285Y-49785714D01*
X52309523Y-49833333D01*
X52357142Y-49880952D01*
X52404761Y-49976190D01*
X52404761Y-50261904D01*
X52357142Y-50357142D01*
X52309523Y-50404761D01*
X52214285Y-50452380D01*
X52071428Y-50452380D01*
X53261904Y-49785714D02*
X53261904Y-50595238D01*
X53214285Y-50690476D01*
X53166666Y-50738095D01*
X53071428Y-50785714D01*
X52928571Y-50785714D01*
X52833333Y-50738095D01*
X53261904Y-50404761D02*
X53166666Y-50452380D01*
X52976190Y-50452380D01*
X52880952Y-50404761D01*
X52833333Y-50357142D01*
X52785714Y-50261904D01*
X52785714Y-49976190D01*
X52833333Y-49880952D01*
X52880952Y-49833333D01*
X52976190Y-49785714D01*
X53166666Y-49785714D01*
X53261904Y-49833333D01*
X53738095Y-50452380D02*
X53738095Y-49785714D01*
X53738095Y-49976190D02*
X53785714Y-49880952D01*
X53833333Y-49833333D01*
X53928571Y-49785714D01*
X54023809Y-49785714D01*
X54785714Y-50452380D02*
X54785714Y-49928571D01*
X54738095Y-49833333D01*
X54642857Y-49785714D01*
X54452380Y-49785714D01*
X54357142Y-49833333D01*
X54785714Y-50404761D02*
X54690476Y-50452380D01*
X54452380Y-50452380D01*
X54357142Y-50404761D01*
X54309523Y-50309523D01*
X54309523Y-50214285D01*
X54357142Y-50119047D01*
X54452380Y-50071428D01*
X54690476Y-50071428D01*
X54785714Y-50023809D01*
X55261904Y-50452380D02*
X55261904Y-49785714D01*
X55261904Y-49880952D02*
X55309523Y-49833333D01*
X55404761Y-49785714D01*
X55547619Y-49785714D01*
X55642857Y-49833333D01*
X55690476Y-49928571D01*
X55690476Y-50452380D01*
X55690476Y-49928571D02*
X55738095Y-49833333D01*
X55833333Y-49785714D01*
X55976190Y-49785714D01*
X56071428Y-49833333D01*
X56119047Y-49928571D01*
X56119047Y-50452380D01*
X56595238Y-50452380D02*
X56595238Y-49785714D01*
X56595238Y-49880952D02*
X56642857Y-49833333D01*
X56738095Y-49785714D01*
X56880952Y-49785714D01*
X56976190Y-49833333D01*
X57023809Y-49928571D01*
X57023809Y-50452380D01*
X57023809Y-49928571D02*
X57071428Y-49833333D01*
X57166666Y-49785714D01*
X57309523Y-49785714D01*
X57404761Y-49833333D01*
X57452380Y-49928571D01*
X57452380Y-50452380D01*
X58309523Y-50404761D02*
X58214285Y-50452380D01*
X58023809Y-50452380D01*
X57928571Y-50404761D01*
X57880952Y-50309523D01*
X57880952Y-49928571D01*
X57928571Y-49833333D01*
X58023809Y-49785714D01*
X58214285Y-49785714D01*
X58309523Y-49833333D01*
X58357142Y-49928571D01*
X58357142Y-50023809D01*
X57880952Y-50119047D01*
X58785714Y-50452380D02*
X58785714Y-49785714D01*
X58785714Y-49976190D02*
X58833333Y-49880952D01*
X58880952Y-49833333D01*
X58976190Y-49785714D01*
X59071428Y-49785714D01*
X59928571Y-50452380D02*
X59357142Y-50452380D01*
X59642857Y-50452380D02*
X59642857Y-49452380D01*
X59547619Y-49595238D01*
X59452380Y-49690476D01*
X59357142Y-49738095D01*
%TO.C,C3*%
X56833333Y-59357142D02*
X56785714Y-59404761D01*
X56642857Y-59452380D01*
X56547619Y-59452380D01*
X56404761Y-59404761D01*
X56309523Y-59309523D01*
X56261904Y-59214285D01*
X56214285Y-59023809D01*
X56214285Y-58880952D01*
X56261904Y-58690476D01*
X56309523Y-58595238D01*
X56404761Y-58500000D01*
X56547619Y-58452380D01*
X56642857Y-58452380D01*
X56785714Y-58500000D01*
X56833333Y-58547619D01*
X57166666Y-58452380D02*
X57785714Y-58452380D01*
X57452380Y-58833333D01*
X57595238Y-58833333D01*
X57690476Y-58880952D01*
X57738095Y-58928571D01*
X57785714Y-59023809D01*
X57785714Y-59261904D01*
X57738095Y-59357142D01*
X57690476Y-59404761D01*
X57595238Y-59452380D01*
X57309523Y-59452380D01*
X57214285Y-59404761D01*
X57166666Y-59357142D01*
%TO.C,D4*%
X51332380Y-90738095D02*
X50332380Y-90738095D01*
X50332380Y-90500000D01*
X50380000Y-90357142D01*
X50475238Y-90261904D01*
X50570476Y-90214285D01*
X50760952Y-90166666D01*
X50903809Y-90166666D01*
X51094285Y-90214285D01*
X51189523Y-90261904D01*
X51284761Y-90357142D01*
X51332380Y-90500000D01*
X51332380Y-90738095D01*
X50665714Y-89309523D02*
X51332380Y-89309523D01*
X50284761Y-89547619D02*
X50999047Y-89785714D01*
X50999047Y-89166666D01*
X51652380Y-96087468D02*
X50652380Y-96087468D01*
X51652380Y-95516040D02*
X51080952Y-95944611D01*
X50652380Y-95516040D02*
X51223809Y-96087468D01*
%TO.C,R4*%
X43833333Y-29532380D02*
X43500000Y-29056190D01*
X43261904Y-29532380D02*
X43261904Y-28532380D01*
X43642857Y-28532380D01*
X43738095Y-28580000D01*
X43785714Y-28627619D01*
X43833333Y-28722857D01*
X43833333Y-28865714D01*
X43785714Y-28960952D01*
X43738095Y-29008571D01*
X43642857Y-29056190D01*
X43261904Y-29056190D01*
X44690476Y-28865714D02*
X44690476Y-29532380D01*
X44452380Y-28484761D02*
X44214285Y-29199047D01*
X44833333Y-29199047D01*
%TO.C,SW5*%
X57154761Y-90333333D02*
X57202380Y-90190476D01*
X57202380Y-89952380D01*
X57154761Y-89857142D01*
X57107142Y-89809523D01*
X57011904Y-89761904D01*
X56916666Y-89761904D01*
X56821428Y-89809523D01*
X56773809Y-89857142D01*
X56726190Y-89952380D01*
X56678571Y-90142857D01*
X56630952Y-90238095D01*
X56583333Y-90285714D01*
X56488095Y-90333333D01*
X56392857Y-90333333D01*
X56297619Y-90285714D01*
X56250000Y-90238095D01*
X56202380Y-90142857D01*
X56202380Y-89904761D01*
X56250000Y-89761904D01*
X56202380Y-89428571D02*
X57202380Y-89190476D01*
X56488095Y-89000000D01*
X57202380Y-88809523D01*
X56202380Y-88571428D01*
X56202380Y-87714285D02*
X56202380Y-88190476D01*
X56678571Y-88238095D01*
X56630952Y-88190476D01*
X56583333Y-88095238D01*
X56583333Y-87857142D01*
X56630952Y-87761904D01*
X56678571Y-87714285D01*
X56773809Y-87666666D01*
X57011904Y-87666666D01*
X57107142Y-87714285D01*
X57154761Y-87761904D01*
X57202380Y-87857142D01*
X57202380Y-88095238D01*
X57154761Y-88190476D01*
X57107142Y-88238095D01*
%TO.C,U1*%
X66238095Y-37002380D02*
X66238095Y-37811904D01*
X66285714Y-37907142D01*
X66333333Y-37954761D01*
X66428571Y-38002380D01*
X66619047Y-38002380D01*
X66714285Y-37954761D01*
X66761904Y-37907142D01*
X66809523Y-37811904D01*
X66809523Y-37002380D01*
X67809523Y-38002380D02*
X67238095Y-38002380D01*
X67523809Y-38002380D02*
X67523809Y-37002380D01*
X67428571Y-37145238D01*
X67333333Y-37240476D01*
X67238095Y-37288095D01*
%TO.C,R3*%
X43833333Y-23532380D02*
X43500000Y-23056190D01*
X43261904Y-23532380D02*
X43261904Y-22532380D01*
X43642857Y-22532380D01*
X43738095Y-22580000D01*
X43785714Y-22627619D01*
X43833333Y-22722857D01*
X43833333Y-22865714D01*
X43785714Y-22960952D01*
X43738095Y-23008571D01*
X43642857Y-23056190D01*
X43261904Y-23056190D01*
X44166666Y-22532380D02*
X44785714Y-22532380D01*
X44452380Y-22913333D01*
X44595238Y-22913333D01*
X44690476Y-22960952D01*
X44738095Y-23008571D01*
X44785714Y-23103809D01*
X44785714Y-23341904D01*
X44738095Y-23437142D01*
X44690476Y-23484761D01*
X44595238Y-23532380D01*
X44309523Y-23532380D01*
X44214285Y-23484761D01*
X44166666Y-23437142D01*
%TO.C,D5*%
X51712380Y-101626967D02*
X50712380Y-101626967D01*
X50712380Y-101388872D01*
X50760000Y-101246014D01*
X50855238Y-101150776D01*
X50950476Y-101103157D01*
X51140952Y-101055538D01*
X51283809Y-101055538D01*
X51474285Y-101103157D01*
X51569523Y-101150776D01*
X51664761Y-101246014D01*
X51712380Y-101388872D01*
X51712380Y-101626967D01*
X50712380Y-100150776D02*
X50712380Y-100626967D01*
X51188571Y-100674586D01*
X51140952Y-100626967D01*
X51093333Y-100531729D01*
X51093333Y-100293633D01*
X51140952Y-100198395D01*
X51188571Y-100150776D01*
X51283809Y-100103157D01*
X51521904Y-100103157D01*
X51617142Y-100150776D01*
X51664761Y-100198395D01*
X51712380Y-100293633D01*
X51712380Y-100531729D01*
X51664761Y-100626967D01*
X51617142Y-100674586D01*
X52032380Y-106976340D02*
X51032380Y-106976340D01*
X52032380Y-106404912D02*
X51460952Y-106833483D01*
X51032380Y-106404912D02*
X51603809Y-106976340D01*
%TO.C,R2*%
X43833333Y-21532380D02*
X43500000Y-21056190D01*
X43261904Y-21532380D02*
X43261904Y-20532380D01*
X43642857Y-20532380D01*
X43738095Y-20580000D01*
X43785714Y-20627619D01*
X43833333Y-20722857D01*
X43833333Y-20865714D01*
X43785714Y-20960952D01*
X43738095Y-21008571D01*
X43642857Y-21056190D01*
X43261904Y-21056190D01*
X44214285Y-20627619D02*
X44261904Y-20580000D01*
X44357142Y-20532380D01*
X44595238Y-20532380D01*
X44690476Y-20580000D01*
X44738095Y-20627619D01*
X44785714Y-20722857D01*
X44785714Y-20818095D01*
X44738095Y-20960952D01*
X44166666Y-21532380D01*
X44785714Y-21532380D01*
%TO.C,SW8*%
X72154761Y-90333333D02*
X72202380Y-90190476D01*
X72202380Y-89952380D01*
X72154761Y-89857142D01*
X72107142Y-89809523D01*
X72011904Y-89761904D01*
X71916666Y-89761904D01*
X71821428Y-89809523D01*
X71773809Y-89857142D01*
X71726190Y-89952380D01*
X71678571Y-90142857D01*
X71630952Y-90238095D01*
X71583333Y-90285714D01*
X71488095Y-90333333D01*
X71392857Y-90333333D01*
X71297619Y-90285714D01*
X71250000Y-90238095D01*
X71202380Y-90142857D01*
X71202380Y-89904761D01*
X71250000Y-89761904D01*
X71202380Y-89428571D02*
X72202380Y-89190476D01*
X71488095Y-89000000D01*
X72202380Y-88809523D01*
X71202380Y-88571428D01*
X71630952Y-88047619D02*
X71583333Y-88142857D01*
X71535714Y-88190476D01*
X71440476Y-88238095D01*
X71392857Y-88238095D01*
X71297619Y-88190476D01*
X71250000Y-88142857D01*
X71202380Y-88047619D01*
X71202380Y-87857142D01*
X71250000Y-87761904D01*
X71297619Y-87714285D01*
X71392857Y-87666666D01*
X71440476Y-87666666D01*
X71535714Y-87714285D01*
X71583333Y-87761904D01*
X71630952Y-87857142D01*
X71630952Y-88047619D01*
X71678571Y-88142857D01*
X71726190Y-88190476D01*
X71821428Y-88238095D01*
X72011904Y-88238095D01*
X72107142Y-88190476D01*
X72154761Y-88142857D01*
X72202380Y-88047619D01*
X72202380Y-87857142D01*
X72154761Y-87761904D01*
X72107142Y-87714285D01*
X72011904Y-87666666D01*
X71821428Y-87666666D01*
X71726190Y-87714285D01*
X71678571Y-87761904D01*
X71630952Y-87857142D01*
%TO.C,SW3*%
X42154761Y-102222205D02*
X42202380Y-102079348D01*
X42202380Y-101841252D01*
X42154761Y-101746014D01*
X42107142Y-101698395D01*
X42011904Y-101650776D01*
X41916666Y-101650776D01*
X41821428Y-101698395D01*
X41773809Y-101746014D01*
X41726190Y-101841252D01*
X41678571Y-102031729D01*
X41630952Y-102126967D01*
X41583333Y-102174586D01*
X41488095Y-102222205D01*
X41392857Y-102222205D01*
X41297619Y-102174586D01*
X41250000Y-102126967D01*
X41202380Y-102031729D01*
X41202380Y-101793633D01*
X41250000Y-101650776D01*
X41202380Y-101317443D02*
X42202380Y-101079348D01*
X41488095Y-100888872D01*
X42202380Y-100698395D01*
X41202380Y-100460300D01*
X41202380Y-100174586D02*
X41202380Y-99555538D01*
X41583333Y-99888872D01*
X41583333Y-99746014D01*
X41630952Y-99650776D01*
X41678571Y-99603157D01*
X41773809Y-99555538D01*
X42011904Y-99555538D01*
X42107142Y-99603157D01*
X42154761Y-99650776D01*
X42202380Y-99746014D01*
X42202380Y-100031729D01*
X42154761Y-100126967D01*
X42107142Y-100174586D01*
%TO.C,C7*%
X56833333Y-62357142D02*
X56785714Y-62404761D01*
X56642857Y-62452380D01*
X56547619Y-62452380D01*
X56404761Y-62404761D01*
X56309523Y-62309523D01*
X56261904Y-62214285D01*
X56214285Y-62023809D01*
X56214285Y-61880952D01*
X56261904Y-61690476D01*
X56309523Y-61595238D01*
X56404761Y-61500000D01*
X56547619Y-61452380D01*
X56642857Y-61452380D01*
X56785714Y-61500000D01*
X56833333Y-61547619D01*
X57166666Y-61452380D02*
X57833333Y-61452380D01*
X57404761Y-62452380D01*
%TO.C,SW9*%
X72154761Y-102333333D02*
X72202380Y-102190476D01*
X72202380Y-101952380D01*
X72154761Y-101857142D01*
X72107142Y-101809523D01*
X72011904Y-101761904D01*
X71916666Y-101761904D01*
X71821428Y-101809523D01*
X71773809Y-101857142D01*
X71726190Y-101952380D01*
X71678571Y-102142857D01*
X71630952Y-102238095D01*
X71583333Y-102285714D01*
X71488095Y-102333333D01*
X71392857Y-102333333D01*
X71297619Y-102285714D01*
X71250000Y-102238095D01*
X71202380Y-102142857D01*
X71202380Y-101904761D01*
X71250000Y-101761904D01*
X71202380Y-101428571D02*
X72202380Y-101190476D01*
X71488095Y-101000000D01*
X72202380Y-100809523D01*
X71202380Y-100571428D01*
X72202380Y-100142857D02*
X72202380Y-99952380D01*
X72154761Y-99857142D01*
X72107142Y-99809523D01*
X71964285Y-99714285D01*
X71773809Y-99666666D01*
X71392857Y-99666666D01*
X71297619Y-99714285D01*
X71250000Y-99761904D01*
X71202380Y-99857142D01*
X71202380Y-100047619D01*
X71250000Y-100142857D01*
X71297619Y-100190476D01*
X71392857Y-100238095D01*
X71630952Y-100238095D01*
X71726190Y-100190476D01*
X71773809Y-100142857D01*
X71821428Y-100047619D01*
X71821428Y-99857142D01*
X71773809Y-99761904D01*
X71726190Y-99714285D01*
X71630952Y-99666666D01*
%TO.C,C8*%
X55083333Y-47607142D02*
X55035714Y-47654761D01*
X54892857Y-47702380D01*
X54797619Y-47702380D01*
X54654761Y-47654761D01*
X54559523Y-47559523D01*
X54511904Y-47464285D01*
X54464285Y-47273809D01*
X54464285Y-47130952D01*
X54511904Y-46940476D01*
X54559523Y-46845238D01*
X54654761Y-46750000D01*
X54797619Y-46702380D01*
X54892857Y-46702380D01*
X55035714Y-46750000D01*
X55083333Y-46797619D01*
X55654761Y-47130952D02*
X55559523Y-47083333D01*
X55511904Y-47035714D01*
X55464285Y-46940476D01*
X55464285Y-46892857D01*
X55511904Y-46797619D01*
X55559523Y-46750000D01*
X55654761Y-46702380D01*
X55845238Y-46702380D01*
X55940476Y-46750000D01*
X55988095Y-46797619D01*
X56035714Y-46892857D01*
X56035714Y-46940476D01*
X55988095Y-47035714D01*
X55940476Y-47083333D01*
X55845238Y-47130952D01*
X55654761Y-47130952D01*
X55559523Y-47178571D01*
X55511904Y-47226190D01*
X55464285Y-47321428D01*
X55464285Y-47511904D01*
X55511904Y-47607142D01*
X55559523Y-47654761D01*
X55654761Y-47702380D01*
X55845238Y-47702380D01*
X55940476Y-47654761D01*
X55988095Y-47607142D01*
X56035714Y-47511904D01*
X56035714Y-47321428D01*
X55988095Y-47226190D01*
X55940476Y-47178571D01*
X55845238Y-47130952D01*
%TO.C,D2*%
X36332380Y-101738095D02*
X35332380Y-101738095D01*
X35332380Y-101500000D01*
X35380000Y-101357142D01*
X35475238Y-101261904D01*
X35570476Y-101214285D01*
X35760952Y-101166666D01*
X35903809Y-101166666D01*
X36094285Y-101214285D01*
X36189523Y-101261904D01*
X36284761Y-101357142D01*
X36332380Y-101500000D01*
X36332380Y-101738095D01*
X35427619Y-100785714D02*
X35380000Y-100738095D01*
X35332380Y-100642857D01*
X35332380Y-100404761D01*
X35380000Y-100309523D01*
X35427619Y-100261904D01*
X35522857Y-100214285D01*
X35618095Y-100214285D01*
X35760952Y-100261904D01*
X36332380Y-100833333D01*
X36332380Y-100214285D01*
X36652380Y-105071904D02*
X35652380Y-105071904D01*
X36652380Y-104500476D02*
X36080952Y-104929047D01*
X35652380Y-104500476D02*
X36223809Y-105071904D01*
%TO.C,SW1*%
X43154761Y-51583333D02*
X43202380Y-51440476D01*
X43202380Y-51202380D01*
X43154761Y-51107142D01*
X43107142Y-51059523D01*
X43011904Y-51011904D01*
X42916666Y-51011904D01*
X42821428Y-51059523D01*
X42773809Y-51107142D01*
X42726190Y-51202380D01*
X42678571Y-51392857D01*
X42630952Y-51488095D01*
X42583333Y-51535714D01*
X42488095Y-51583333D01*
X42392857Y-51583333D01*
X42297619Y-51535714D01*
X42250000Y-51488095D01*
X42202380Y-51392857D01*
X42202380Y-51154761D01*
X42250000Y-51011904D01*
X42202380Y-50678571D02*
X43202380Y-50440476D01*
X42488095Y-50250000D01*
X43202380Y-50059523D01*
X42202380Y-49821428D01*
X43202380Y-48916666D02*
X43202380Y-49488095D01*
X43202380Y-49202380D02*
X42202380Y-49202380D01*
X42345238Y-49297619D01*
X42440476Y-49392857D01*
X42488095Y-49488095D01*
%TO.C,R1*%
X43833333Y-57532380D02*
X43500000Y-57056190D01*
X43261904Y-57532380D02*
X43261904Y-56532380D01*
X43642857Y-56532380D01*
X43738095Y-56580000D01*
X43785714Y-56627619D01*
X43833333Y-56722857D01*
X43833333Y-56865714D01*
X43785714Y-56960952D01*
X43738095Y-57008571D01*
X43642857Y-57056190D01*
X43261904Y-57056190D01*
X44785714Y-57532380D02*
X44214285Y-57532380D01*
X44500000Y-57532380D02*
X44500000Y-56532380D01*
X44404761Y-56675238D01*
X44309523Y-56770476D01*
X44214285Y-56818095D01*
D11*
%TO.C,D6*%
X53000000Y-109230000D02*
X53000000Y-109880000D01*
X51880000Y-113520000D02*
X54120000Y-113520000D01*
X51880000Y-114120000D02*
X54120000Y-114120000D01*
X54120000Y-109880000D02*
X51880000Y-109880000D01*
X51880000Y-113280000D02*
X54120000Y-113280000D01*
X54120000Y-114120000D02*
X54120000Y-109880000D01*
X51880000Y-113400000D02*
X54120000Y-113400000D01*
X51880000Y-109880000D02*
X51880000Y-114120000D01*
X53000000Y-114770000D02*
X53000000Y-114120000D01*
%TO.C,D1*%
X38140000Y-92450000D02*
X38140000Y-91800000D01*
X39260000Y-87560000D02*
X37020000Y-87560000D01*
X37020000Y-91080000D02*
X39260000Y-91080000D01*
X37020000Y-91800000D02*
X39260000Y-91800000D01*
X39260000Y-91800000D02*
X39260000Y-87560000D01*
X37020000Y-90960000D02*
X39260000Y-90960000D01*
X37020000Y-91200000D02*
X39260000Y-91200000D01*
X37020000Y-87560000D02*
X37020000Y-91800000D01*
X38140000Y-86910000D02*
X38140000Y-87560000D01*
%TO.C,C6*%
X72879000Y-62920000D02*
X71621000Y-62920000D01*
X72879000Y-61080000D02*
X71621000Y-61080000D01*
%TO.C,C2*%
X71379000Y-34080000D02*
X70121000Y-34080000D01*
X71379000Y-35920000D02*
X70121000Y-35920000D01*
%TO.C,D_CAPS1*%
X50290000Y-78236000D02*
X50290000Y-78080000D01*
X50290000Y-75920000D02*
X50290000Y-75764000D01*
X47688870Y-78079837D02*
G75*
G03*
X49770961Y-78080000I1041130J1079837D01*
G01*
X49770961Y-75920000D02*
G75*
G03*
X47688870Y-75920163I-1040961J-1080000D01*
G01*
X50290000Y-75764484D02*
G75*
G03*
X47057665Y-75921392I-1560000J-1235516D01*
G01*
X47057665Y-78078608D02*
G75*
G03*
X50290000Y-78235516I1672335J1078608D01*
G01*
%TO.C,D9*%
X67500000Y-114060000D02*
X69740000Y-114060000D01*
X67500000Y-113940000D02*
X69740000Y-113940000D01*
X68620000Y-115310000D02*
X68620000Y-114660000D01*
X67500000Y-113820000D02*
X69740000Y-113820000D01*
X69740000Y-110420000D02*
X67500000Y-110420000D01*
X67500000Y-114660000D02*
X69740000Y-114660000D01*
X68620000Y-109770000D02*
X68620000Y-110420000D01*
X69740000Y-114660000D02*
X69740000Y-110420000D01*
X67500000Y-110420000D02*
X67500000Y-114660000D01*
%TO.C,R7*%
X75080000Y-36080000D02*
X78920000Y-36080000D01*
X75080000Y-37920000D02*
X78920000Y-37920000D01*
%TO.C,SW_CAPS1*%
X72750000Y-109750000D02*
X72750000Y-114250000D01*
X75250000Y-115500000D02*
X76750000Y-115500000D01*
X76750000Y-108500000D02*
X75250000Y-108500000D01*
X79250000Y-114250000D02*
X79250000Y-109750000D01*
%TO.C,R6*%
X42080000Y-29920000D02*
X45920000Y-29920000D01*
X42080000Y-28080000D02*
X45920000Y-28080000D01*
%TO.C,D8*%
X69000000Y-98230000D02*
X69000000Y-98880000D01*
X67880000Y-102520000D02*
X70120000Y-102520000D01*
X69000000Y-103770000D02*
X69000000Y-103120000D01*
X70120000Y-98880000D02*
X67880000Y-98880000D01*
X67880000Y-102280000D02*
X70120000Y-102280000D01*
X67880000Y-102400000D02*
X70120000Y-102400000D01*
X70120000Y-103120000D02*
X70120000Y-98880000D01*
X67880000Y-98880000D02*
X67880000Y-103120000D01*
X67880000Y-103120000D02*
X70120000Y-103120000D01*
%TO.C,J1*%
X31000000Y-31700000D02*
X29100000Y-31700000D01*
X31000000Y-22300000D02*
X29100000Y-22300000D01*
X34900000Y-31700000D02*
X32900000Y-31700000D01*
X34900000Y-22300000D02*
X32900000Y-22300000D01*
X29100000Y-22300000D02*
X29100000Y-31700000D01*
%TO.C,C4*%
X57080000Y-39379000D02*
X57080000Y-38121000D01*
X58920000Y-39379000D02*
X58920000Y-38121000D01*
%TO.C,D3*%
X36880000Y-109880000D02*
X36880000Y-114120000D01*
X36880000Y-113280000D02*
X39120000Y-113280000D01*
X36880000Y-113520000D02*
X39120000Y-113520000D01*
X38000000Y-109230000D02*
X38000000Y-109880000D01*
X39120000Y-109880000D02*
X36880000Y-109880000D01*
X36880000Y-114120000D02*
X39120000Y-114120000D01*
X38000000Y-114770000D02*
X38000000Y-114120000D01*
X36880000Y-113400000D02*
X39120000Y-113400000D01*
X39120000Y-114120000D02*
X39120000Y-109880000D01*
%TO.C,Y1*%
X63790000Y-55475000D02*
X70190000Y-55475000D01*
X63790000Y-60525000D02*
X70190000Y-60525000D01*
X70190000Y-60525000D02*
G75*
G03*
X70190000Y-55475000I0J2525000D01*
G01*
X63790000Y-55475000D02*
G75*
G03*
X63790000Y-60525000I0J-2525000D01*
G01*
%TO.C,C5*%
X77370000Y-52831000D02*
X76630000Y-52831000D01*
X76160000Y-51390000D02*
X75018000Y-51390000D01*
X77768000Y-52711000D02*
X76232000Y-52711000D01*
X78954000Y-51471000D02*
X77840000Y-51471000D01*
X76160000Y-52311000D02*
X75604000Y-52311000D01*
X78830000Y-51751000D02*
X77840000Y-51751000D01*
X76160000Y-51350000D02*
X75006000Y-51350000D01*
X79034000Y-51190000D02*
X77840000Y-51190000D01*
X78708000Y-51951000D02*
X77840000Y-51951000D01*
X79074000Y-50910000D02*
X77840000Y-50910000D01*
X78994000Y-51350000D02*
X77840000Y-51350000D01*
X76160000Y-52231000D02*
X75522000Y-52231000D01*
X78516000Y-52191000D02*
X77840000Y-52191000D01*
X76160000Y-51551000D02*
X75076000Y-51551000D01*
X76160000Y-50790000D02*
X74920000Y-50790000D01*
X76160000Y-51270000D02*
X74984000Y-51270000D01*
X76160000Y-50870000D02*
X74923000Y-50870000D01*
X79050000Y-51110000D02*
X77840000Y-51110000D01*
X76160000Y-51951000D02*
X75292000Y-51951000D01*
X79067000Y-50990000D02*
X77840000Y-50990000D01*
X78478000Y-52231000D02*
X77840000Y-52231000D01*
X76160000Y-50990000D02*
X74933000Y-50990000D01*
X76160000Y-51230000D02*
X74975000Y-51230000D01*
X76160000Y-51150000D02*
X74958000Y-51150000D01*
X78195000Y-48480199D02*
X78195000Y-48880199D01*
X76160000Y-51911000D02*
X75265000Y-51911000D01*
X76160000Y-51991000D02*
X75320000Y-51991000D01*
X78760000Y-51871000D02*
X77840000Y-51871000D01*
X78982000Y-51390000D02*
X77840000Y-51390000D01*
X76160000Y-51631000D02*
X75111000Y-51631000D01*
X78680000Y-51991000D02*
X77840000Y-51991000D01*
X78396000Y-52311000D02*
X77840000Y-52311000D01*
X78968000Y-51430000D02*
X77840000Y-51430000D01*
X79016000Y-51270000D02*
X77840000Y-51270000D01*
X76160000Y-51030000D02*
X74938000Y-51030000D01*
X79077000Y-50870000D02*
X77840000Y-50870000D01*
X76160000Y-51511000D02*
X75060000Y-51511000D01*
X78870000Y-51671000D02*
X77840000Y-51671000D01*
X76160000Y-51711000D02*
X75149000Y-51711000D01*
X76160000Y-51671000D02*
X75130000Y-51671000D01*
X76160000Y-52071000D02*
X75381000Y-52071000D01*
X76160000Y-52031000D02*
X75350000Y-52031000D01*
X76160000Y-51190000D02*
X74966000Y-51190000D01*
X78304000Y-52391000D02*
X75696000Y-52391000D01*
X76160000Y-52191000D02*
X75484000Y-52191000D01*
X79056000Y-51070000D02*
X77840000Y-51070000D01*
X78907000Y-51591000D02*
X77840000Y-51591000D01*
X76160000Y-51751000D02*
X75170000Y-51751000D01*
X78142000Y-52511000D02*
X75858000Y-52511000D01*
X78254000Y-52431000D02*
X75746000Y-52431000D01*
X78924000Y-51551000D02*
X77840000Y-51551000D01*
X76160000Y-51110000D02*
X74950000Y-51110000D01*
X79071000Y-50950000D02*
X77840000Y-50950000D01*
X78940000Y-51511000D02*
X77840000Y-51511000D01*
X76160000Y-50830000D02*
X74921000Y-50830000D01*
X76160000Y-51591000D02*
X75093000Y-51591000D01*
X79042000Y-51150000D02*
X77840000Y-51150000D01*
X78851000Y-51711000D02*
X77840000Y-51711000D01*
X77537000Y-52791000D02*
X76463000Y-52791000D01*
X79080000Y-50790000D02*
X77840000Y-50790000D01*
X78438000Y-52271000D02*
X77840000Y-52271000D01*
X76160000Y-50910000D02*
X74926000Y-50910000D01*
X78735000Y-51911000D02*
X77840000Y-51911000D01*
X76160000Y-51871000D02*
X75240000Y-51871000D01*
X78587000Y-52111000D02*
X77840000Y-52111000D01*
X76160000Y-51791000D02*
X75192000Y-51791000D01*
X79080000Y-50750000D02*
X77840000Y-50750000D01*
X78200000Y-52471000D02*
X75800000Y-52471000D01*
X76160000Y-50950000D02*
X74929000Y-50950000D01*
X76160000Y-51070000D02*
X74944000Y-51070000D01*
X79005000Y-51310000D02*
X77840000Y-51310000D01*
X77940000Y-52631000D02*
X76060000Y-52631000D01*
X76160000Y-51430000D02*
X75032000Y-51430000D01*
X78785000Y-51831000D02*
X77840000Y-51831000D01*
X77664000Y-52751000D02*
X76336000Y-52751000D01*
X79062000Y-51030000D02*
X77840000Y-51030000D01*
X78395000Y-48680199D02*
X77995000Y-48680199D01*
X78889000Y-51631000D02*
X77840000Y-51631000D01*
X78808000Y-51791000D02*
X77840000Y-51791000D01*
X76160000Y-52111000D02*
X75413000Y-52111000D01*
X76160000Y-51471000D02*
X75046000Y-51471000D01*
X78013000Y-52591000D02*
X75987000Y-52591000D01*
X78619000Y-52071000D02*
X77840000Y-52071000D01*
X78650000Y-52031000D02*
X77840000Y-52031000D01*
X76160000Y-52151000D02*
X75448000Y-52151000D01*
X78080000Y-52551000D02*
X75920000Y-52551000D01*
X78351000Y-52351000D02*
X75649000Y-52351000D01*
X76160000Y-52271000D02*
X75562000Y-52271000D01*
X79079000Y-50830000D02*
X77840000Y-50830000D01*
X76160000Y-51831000D02*
X75215000Y-51831000D01*
X76160000Y-50750000D02*
X74920000Y-50750000D01*
X77859000Y-52671000D02*
X76141000Y-52671000D01*
X78552000Y-52151000D02*
X77840000Y-52151000D01*
X76160000Y-51310000D02*
X74995000Y-51310000D01*
X79025000Y-51230000D02*
X77840000Y-51230000D01*
X79120000Y-50750000D02*
G75*
G03*
X79120000Y-50750000I-2120000J0D01*
G01*
%TO.C,SW6*%
X57750000Y-98750000D02*
X57750000Y-103250000D01*
X64250000Y-103250000D02*
X64250000Y-98750000D01*
X61750000Y-97500000D02*
X60250000Y-97500000D01*
X60250000Y-104500000D02*
X61750000Y-104500000D01*
%TO.C,R_CAPS1*%
X38620000Y-77920000D02*
X42460000Y-77920000D01*
X38620000Y-76080000D02*
X42460000Y-76080000D01*
%TO.C,SW4*%
X42750000Y-109750000D02*
X42750000Y-114250000D01*
X46750000Y-108500000D02*
X45250000Y-108500000D01*
X45250000Y-115500000D02*
X46750000Y-115500000D01*
X49250000Y-114250000D02*
X49250000Y-109750000D01*
%TO.C,D7*%
X69000000Y-86230000D02*
X69000000Y-86880000D01*
X70120000Y-86880000D02*
X67880000Y-86880000D01*
X67880000Y-90280000D02*
X70120000Y-90280000D01*
X69000000Y-91770000D02*
X69000000Y-91120000D01*
X67880000Y-91120000D02*
X70120000Y-91120000D01*
X67880000Y-86880000D02*
X67880000Y-91120000D01*
X67880000Y-90400000D02*
X70120000Y-90400000D01*
X70120000Y-91120000D02*
X70120000Y-86880000D01*
X67880000Y-90520000D02*
X70120000Y-90520000D01*
%TO.C,C1*%
X62621000Y-35920000D02*
X63879000Y-35920000D01*
X62621000Y-34080000D02*
X63879000Y-34080000D01*
%TO.C,SW7*%
X64250000Y-114250000D02*
X64250000Y-109750000D01*
X60250000Y-115500000D02*
X61750000Y-115500000D01*
X57750000Y-109750000D02*
X57750000Y-114250000D01*
X61750000Y-108500000D02*
X60250000Y-108500000D01*
%TO.C,SW2*%
X42750000Y-86750000D02*
X42750000Y-91250000D01*
X45250000Y-92500000D02*
X46750000Y-92500000D01*
X49250000Y-91250000D02*
X49250000Y-86750000D01*
X46750000Y-85500000D02*
X45250000Y-85500000D01*
%TO.C,R5*%
X42080000Y-27920000D02*
X45920000Y-27920000D01*
X42080000Y-26080000D02*
X45920000Y-26080000D01*
%TO.C,ICSP_Programmer1*%
X48060000Y-47000000D02*
X48060000Y-48060000D01*
X48060000Y-48060000D02*
X47000000Y-48060000D01*
X48060000Y-46000000D02*
X48060000Y-41940000D01*
X46000000Y-48060000D02*
X43940000Y-48060000D01*
X46000000Y-46000000D02*
X46000000Y-48060000D01*
X48060000Y-46000000D02*
X46000000Y-46000000D01*
X43940000Y-48060000D02*
X43940000Y-41940000D01*
X48060000Y-41940000D02*
X43940000Y-41940000D01*
%TO.C,C3*%
X58080000Y-54621000D02*
X58080000Y-55879000D01*
X59920000Y-54621000D02*
X59920000Y-55879000D01*
%TO.C,D4*%
X51880000Y-87880000D02*
X51880000Y-92120000D01*
X53000000Y-92770000D02*
X53000000Y-92120000D01*
X53000000Y-87230000D02*
X53000000Y-87880000D01*
X54120000Y-87880000D02*
X51880000Y-87880000D01*
X51880000Y-91400000D02*
X54120000Y-91400000D01*
X51880000Y-91520000D02*
X54120000Y-91520000D01*
X51880000Y-92120000D02*
X54120000Y-92120000D01*
X54120000Y-92120000D02*
X54120000Y-87880000D01*
X51880000Y-91280000D02*
X54120000Y-91280000D01*
%TO.C,R4*%
X42080000Y-30080000D02*
X45920000Y-30080000D01*
X42080000Y-31920000D02*
X45920000Y-31920000D01*
%TO.C,SW5*%
X64250000Y-91250000D02*
X64250000Y-86750000D01*
X61750000Y-85500000D02*
X60250000Y-85500000D01*
X57750000Y-86750000D02*
X57750000Y-91250000D01*
X60250000Y-92500000D02*
X61750000Y-92500000D01*
D10*
%TO.C,U1*%
X61825000Y-50175000D02*
X62500000Y-50175000D01*
X72175000Y-39825000D02*
X72175000Y-40500000D01*
X72175000Y-50175000D02*
X71500000Y-50175000D01*
X72175000Y-50175000D02*
X72175000Y-49500000D01*
X72175000Y-39825000D02*
X71500000Y-39825000D01*
X61825000Y-39825000D02*
X61825000Y-40400000D01*
X61825000Y-50175000D02*
X61825000Y-49500000D01*
X61825000Y-39825000D02*
X62500000Y-39825000D01*
X61825000Y-40400000D02*
X60550000Y-40400000D01*
D11*
%TO.C,R3*%
X42080000Y-25920000D02*
X45920000Y-25920000D01*
X42080000Y-24080000D02*
X45920000Y-24080000D01*
%TO.C,D5*%
X52260000Y-98768872D02*
X52260000Y-103008872D01*
X52260000Y-102408872D02*
X54500000Y-102408872D01*
X52260000Y-103008872D02*
X54500000Y-103008872D01*
X53380000Y-98118872D02*
X53380000Y-98768872D01*
X52260000Y-102168872D02*
X54500000Y-102168872D01*
X52260000Y-102288872D02*
X54500000Y-102288872D01*
X54500000Y-103008872D02*
X54500000Y-98768872D01*
X54500000Y-98768872D02*
X52260000Y-98768872D01*
X53380000Y-103658872D02*
X53380000Y-103008872D01*
%TO.C,R2*%
X42080000Y-23920000D02*
X45920000Y-23920000D01*
X42080000Y-22080000D02*
X45920000Y-22080000D01*
%TO.C,SW8*%
X75250000Y-92500000D02*
X76750000Y-92500000D01*
X79250000Y-91250000D02*
X79250000Y-86750000D01*
X72750000Y-86750000D02*
X72750000Y-91250000D01*
X76750000Y-85500000D02*
X75250000Y-85500000D01*
%TO.C,SW3*%
X42750000Y-98638872D02*
X42750000Y-103138872D01*
X46750000Y-97388872D02*
X45250000Y-97388872D01*
X49250000Y-103138872D02*
X49250000Y-98638872D01*
X45250000Y-104388872D02*
X46750000Y-104388872D01*
%TO.C,C7*%
X60121000Y-61080000D02*
X61379000Y-61080000D01*
X60121000Y-62920000D02*
X61379000Y-62920000D01*
%TO.C,SW9*%
X76750000Y-97500000D02*
X75250000Y-97500000D01*
X72750000Y-98750000D02*
X72750000Y-103250000D01*
X79250000Y-103250000D02*
X79250000Y-98750000D01*
X75250000Y-104500000D02*
X76750000Y-104500000D01*
%TO.C,C8*%
X54449000Y-45924000D02*
X54449000Y-44840000D01*
X53889000Y-45587000D02*
X53889000Y-44840000D01*
X54850000Y-43160000D02*
X54850000Y-41958000D01*
X55010000Y-43160000D02*
X55010000Y-41933000D01*
X54129000Y-45760000D02*
X54129000Y-44840000D01*
X54570000Y-43160000D02*
X54570000Y-42032000D01*
X53969000Y-43160000D02*
X53969000Y-42350000D01*
X55170000Y-46079000D02*
X55170000Y-44840000D01*
X54089000Y-43160000D02*
X54089000Y-42265000D01*
X54049000Y-45708000D02*
X54049000Y-44840000D01*
X53409000Y-45013000D02*
X53409000Y-42987000D01*
X53809000Y-45516000D02*
X53809000Y-44840000D01*
X54369000Y-43160000D02*
X54369000Y-42111000D01*
X55210000Y-43160000D02*
X55210000Y-41920000D01*
X54570000Y-45968000D02*
X54570000Y-44840000D01*
X54289000Y-43160000D02*
X54289000Y-42149000D01*
X53889000Y-43160000D02*
X53889000Y-42413000D01*
X54009000Y-43160000D02*
X54009000Y-42320000D01*
X54930000Y-46056000D02*
X54930000Y-44840000D01*
X53329000Y-44859000D02*
X53329000Y-43141000D01*
X54329000Y-45870000D02*
X54329000Y-44840000D01*
X54930000Y-43160000D02*
X54930000Y-41944000D01*
X54730000Y-46016000D02*
X54730000Y-44840000D01*
X54329000Y-43160000D02*
X54329000Y-42130000D01*
X53569000Y-45254000D02*
X53569000Y-42746000D01*
X55210000Y-46080000D02*
X55210000Y-44840000D01*
X57319801Y-45395000D02*
X57319801Y-44995000D01*
X54409000Y-45907000D02*
X54409000Y-44840000D01*
X54249000Y-45830000D02*
X54249000Y-44840000D01*
X54650000Y-45994000D02*
X54650000Y-44840000D01*
X54049000Y-43160000D02*
X54049000Y-42292000D01*
X54850000Y-46042000D02*
X54850000Y-44840000D01*
X53529000Y-45200000D02*
X53529000Y-42800000D01*
X54890000Y-43160000D02*
X54890000Y-41950000D01*
X55090000Y-43160000D02*
X55090000Y-41926000D01*
X53609000Y-45304000D02*
X53609000Y-42696000D01*
X54209000Y-43160000D02*
X54209000Y-42192000D01*
X53289000Y-44768000D02*
X53289000Y-43232000D01*
X54690000Y-46005000D02*
X54690000Y-44840000D01*
X54489000Y-45940000D02*
X54489000Y-44840000D01*
X53489000Y-45142000D02*
X53489000Y-42858000D01*
X53689000Y-43160000D02*
X53689000Y-42604000D01*
X53769000Y-45478000D02*
X53769000Y-44840000D01*
X55250000Y-43160000D02*
X55250000Y-41920000D01*
X54529000Y-43160000D02*
X54529000Y-42046000D01*
X53849000Y-45552000D02*
X53849000Y-44840000D01*
X54249000Y-43160000D02*
X54249000Y-42170000D01*
X54810000Y-46034000D02*
X54810000Y-44840000D01*
X53929000Y-45619000D02*
X53929000Y-44840000D01*
X54409000Y-43160000D02*
X54409000Y-42093000D01*
X54730000Y-43160000D02*
X54730000Y-41984000D01*
X54129000Y-43160000D02*
X54129000Y-42240000D01*
X53769000Y-43160000D02*
X53769000Y-42522000D01*
X54089000Y-45735000D02*
X54089000Y-44840000D01*
X55170000Y-43160000D02*
X55170000Y-41921000D01*
X53169000Y-44370000D02*
X53169000Y-43630000D01*
X53209000Y-44537000D02*
X53209000Y-43463000D01*
X55090000Y-46074000D02*
X55090000Y-44840000D01*
X55250000Y-46080000D02*
X55250000Y-44840000D01*
X54810000Y-43160000D02*
X54810000Y-41966000D01*
X55050000Y-46071000D02*
X55050000Y-44840000D01*
X54970000Y-43160000D02*
X54970000Y-41938000D01*
X54169000Y-43160000D02*
X54169000Y-42215000D01*
X54610000Y-43160000D02*
X54610000Y-42018000D01*
X53729000Y-43160000D02*
X53729000Y-42562000D01*
X54489000Y-43160000D02*
X54489000Y-42060000D01*
X54770000Y-46025000D02*
X54770000Y-44840000D01*
X55130000Y-46077000D02*
X55130000Y-44840000D01*
X54690000Y-43160000D02*
X54690000Y-41995000D01*
X53849000Y-43160000D02*
X53849000Y-42448000D01*
X55010000Y-46067000D02*
X55010000Y-44840000D01*
X54970000Y-46062000D02*
X54970000Y-44840000D01*
X54369000Y-45889000D02*
X54369000Y-44840000D01*
X53929000Y-43160000D02*
X53929000Y-42381000D01*
X54009000Y-45680000D02*
X54009000Y-44840000D01*
X53649000Y-45351000D02*
X53649000Y-42649000D01*
X53369000Y-44940000D02*
X53369000Y-43060000D01*
X54209000Y-45808000D02*
X54209000Y-44840000D01*
X54610000Y-45982000D02*
X54610000Y-44840000D01*
X54289000Y-45851000D02*
X54289000Y-44840000D01*
X54449000Y-43160000D02*
X54449000Y-42076000D01*
X55130000Y-43160000D02*
X55130000Y-41923000D01*
X53809000Y-43160000D02*
X53809000Y-42484000D01*
X54529000Y-45954000D02*
X54529000Y-44840000D01*
X57519801Y-45195000D02*
X57119801Y-45195000D01*
X54890000Y-46050000D02*
X54890000Y-44840000D01*
X53249000Y-44664000D02*
X53249000Y-43336000D01*
X54650000Y-43160000D02*
X54650000Y-42006000D01*
X53449000Y-45080000D02*
X53449000Y-42920000D01*
X53729000Y-45438000D02*
X53729000Y-44840000D01*
X54169000Y-45785000D02*
X54169000Y-44840000D01*
X54770000Y-43160000D02*
X54770000Y-41975000D01*
X53969000Y-45650000D02*
X53969000Y-44840000D01*
X55050000Y-43160000D02*
X55050000Y-41929000D01*
X53689000Y-45396000D02*
X53689000Y-44840000D01*
X57370000Y-44000000D02*
G75*
G03*
X57370000Y-44000000I-2120000J0D01*
G01*
%TO.C,D2*%
X36880000Y-102520000D02*
X39120000Y-102520000D01*
X38000000Y-103770000D02*
X38000000Y-103120000D01*
X36880000Y-102280000D02*
X39120000Y-102280000D01*
X36880000Y-98880000D02*
X36880000Y-103120000D01*
X38000000Y-98230000D02*
X38000000Y-98880000D01*
X39120000Y-103120000D02*
X39120000Y-98880000D01*
X36880000Y-103120000D02*
X39120000Y-103120000D01*
X36880000Y-102400000D02*
X39120000Y-102400000D01*
X39120000Y-98880000D02*
X36880000Y-98880000D01*
%TO.C,SW1*%
X41750000Y-52500000D02*
X41750000Y-48000000D01*
X37750000Y-53750000D02*
X39250000Y-53750000D01*
X39250000Y-46750000D02*
X37750000Y-46750000D01*
X35250000Y-48000000D02*
X35250000Y-52500000D01*
%TO.C,R1*%
X42080000Y-59920000D02*
X45920000Y-59920000D01*
X42080000Y-58080000D02*
X45920000Y-58080000D01*
%TD*%
M02*
