M48
; DRILL file {KiCad (6.0.5)} date Sat Aug 13 18:20:01 2022
; FORMAT={-:-/ absolute / metric / decimal}
; #@! TF.CreationDate,2022-08-13T18:20:01+10:00
; #@! TF.GenerationSoftware,Kicad,Pcbnew,(6.0.5)
; #@! TF.FileFunction,Plated,1,2,PTH
FMAT,2
METRIC
; #@! TA.AperFunction,Plated,PTH,ViaDrill
T1C0.400
; #@! TA.AperFunction,Plated,PTH,ComponentDrill
T2C0.600
; #@! TA.AperFunction,Plated,PTH,ComponentDrill
T3C0.700
; #@! TA.AperFunction,Plated,PTH,ComponentDrill
T4C0.800
; #@! TA.AperFunction,Plated,PTH,ComponentDrill
T5C1.000
; #@! TA.AperFunction,Plated,PTH,ComponentDrill
T6C1.100
%
G90
G05
T1
X49.5Y-41.75
X53.0Y-40.5
X53.0Y-46.75
X53.25Y-88.5
X53.25Y-91.0
X53.25Y-103.5
X53.25Y-106.0
X54.0Y-41.2
X54.5Y-45.75
X54.75Y-47.25
X54.75Y-48.5
X55.75Y-49.75
X56.5Y-48.5
X56.5Y-50.5
X57.25Y-73.0
X57.25Y-76.25
X58.75Y-43.75
X62.0Y-42.5
X63.5Y-42.5
X65.0Y-42.5
X70.75Y-73.25
X70.75Y-76.25
X70.75Y-103.5
X70.75Y-106.0
X71.0Y-88.5
X71.0Y-91.0
X77.25Y-71.0
X77.75Y-41.2
X80.25Y-39.0
X80.75Y-71.25
X88.5Y-88.5
X88.5Y-90.75
X88.5Y-103.5
X88.5Y-106.0
T2
X55.5Y-37.75
X55.5Y-39.25
X70.0Y-27.96
X71.5Y-27.96
T3
X42.25Y-34.5
X47.33Y-34.5
X53.0Y-57.25
X53.0Y-62.33
X55.5Y-57.25
X55.5Y-62.33
X75.25Y-31.17
X75.25Y-36.25
X77.75Y-31.21
X77.75Y-36.29
X80.25Y-31.21
X80.25Y-36.29
X82.75Y-31.21
X82.75Y-36.29
X86.5Y-26.46
X91.58Y-26.46
T4
X37.5Y-41.5
X37.5Y-50.0
X40.0Y-41.5
X40.0Y-50.0
X43.5Y-74.69
X43.5Y-82.31
X43.5Y-89.69
X43.5Y-97.31
X43.5Y-104.94
X43.5Y-112.56
X53.0Y-26.5
X53.0Y-28.5
X55.0Y-26.5
X55.0Y-28.5
X57.0Y-26.5
X57.0Y-28.5
X61.0Y-74.69
X61.0Y-82.31
X61.0Y-89.69
X61.0Y-97.31
X61.0Y-104.94
X61.0Y-112.56
X67.25Y-44.0
X67.25Y-49.0
X71.667Y-44.0
X71.667Y-49.0
X76.083Y-44.0
X76.083Y-49.0
X78.5Y-74.69
X78.5Y-82.31
X78.5Y-89.69
X78.5Y-97.31
X78.5Y-104.94
X78.5Y-112.56
X80.5Y-44.0
X80.5Y-49.0
T5
X48.146Y-82.25
X48.146Y-97.375
X48.146Y-112.5
X53.149Y-82.25
X53.149Y-97.375
X53.149Y-112.5
X65.822Y-82.25
X65.822Y-97.375
X65.822Y-112.5
X70.826Y-82.25
X70.826Y-97.375
X70.826Y-112.5
X83.498Y-82.25
X83.498Y-97.375
X83.498Y-112.5
X88.502Y-82.25
X88.502Y-97.375
X88.502Y-112.5
T6
X40.25Y-25.0
X40.25Y-29.5
X46.75Y-25.0
X46.75Y-29.5
T2
X74.68Y-22.46G85X74.68Y-21.86
G05
X74.68Y-26.89G85X74.68Y-25.79
G05
X83.32Y-22.46G85X83.32Y-21.86
G05
X83.32Y-26.89G85X83.32Y-25.79
G05
T0
M30
