%FSLAX45Y45*%
G04 Gerber Fmt 4.5, Leading zero omitted, Abs format (unit mm)*
G04 Created by KiCad (PCBNEW (6.0.5)) date 2022-08-13 18:20:02*
%MOMM*%
%LPD*%
G01*
G04 APERTURE LIST*
%TA.AperFunction,Profile*%
%ADD10C,0.100000*%
%TD*%
%ADD11C,0.200000*%
%ADD12C,0.040000*%
%ADD13C,0.060000*%
%ADD14C,0.070000*%
%ADD15C,0.080000*%
%ADD16C,0.100000*%
%ADD17C,0.110000*%
G04 APERTURE END LIST*
D10*
X9525000Y-2000000D02*
X3525000Y-2000000D01*
X9525000Y-12000000D02*
X9525000Y-2000000D01*
X3525000Y-2000000D02*
X3525000Y-12000000D01*
X3525000Y-12000000D02*
X9525000Y-12000000D01*
D11*
D12*
X4930000Y-4155000D02*
X4970000Y-4195000D01*
X4970000Y-4155000D02*
X4930000Y-4195000D01*
X5280000Y-4030000D02*
X5320000Y-4070000D01*
X5320000Y-4030000D02*
X5280000Y-4070000D01*
X5280000Y-4655000D02*
X5320000Y-4695000D01*
X5320000Y-4655000D02*
X5280000Y-4695000D01*
X5305000Y-8830000D02*
X5345000Y-8870000D01*
X5345000Y-8830000D02*
X5305000Y-8870000D01*
X5305000Y-9080000D02*
X5345000Y-9120000D01*
X5345000Y-9080000D02*
X5305000Y-9120000D01*
X5305000Y-10330000D02*
X5345000Y-10370000D01*
X5345000Y-10330000D02*
X5305000Y-10370000D01*
X5305000Y-10580000D02*
X5345000Y-10620000D01*
X5345000Y-10580000D02*
X5305000Y-10620000D01*
X5380000Y-4099950D02*
X5420000Y-4139950D01*
X5420000Y-4099950D02*
X5380000Y-4139950D01*
X5430000Y-4555000D02*
X5470000Y-4595000D01*
X5470000Y-4555000D02*
X5430000Y-4595000D01*
X5455000Y-4705000D02*
X5495000Y-4745000D01*
X5495000Y-4705000D02*
X5455000Y-4745000D01*
X5455000Y-4830000D02*
X5495000Y-4870000D01*
X5495000Y-4830000D02*
X5455000Y-4870000D01*
X5555000Y-4955000D02*
X5595000Y-4995000D01*
X5595000Y-4955000D02*
X5555000Y-4995000D01*
X5630000Y-4830000D02*
X5670000Y-4870000D01*
X5670000Y-4830000D02*
X5630000Y-4870000D01*
X5630000Y-5030000D02*
X5670000Y-5070000D01*
X5670000Y-5030000D02*
X5630000Y-5070000D01*
X5705000Y-7280000D02*
X5745000Y-7320000D01*
X5745000Y-7280000D02*
X5705000Y-7320000D01*
X5705000Y-7605000D02*
X5745000Y-7645000D01*
X5745000Y-7605000D02*
X5705000Y-7645000D01*
X5855000Y-4355000D02*
X5895000Y-4395000D01*
X5895000Y-4355000D02*
X5855000Y-4395000D01*
X6180000Y-4230000D02*
X6220000Y-4270000D01*
X6220000Y-4230000D02*
X6180000Y-4270000D01*
X6330000Y-4230000D02*
X6370000Y-4270000D01*
X6370000Y-4230000D02*
X6330000Y-4270000D01*
X6480000Y-4230000D02*
X6520000Y-4270000D01*
X6520000Y-4230000D02*
X6480000Y-4270000D01*
X7055000Y-7305000D02*
X7095000Y-7345000D01*
X7095000Y-7305000D02*
X7055000Y-7345000D01*
X7055000Y-7605000D02*
X7095000Y-7645000D01*
X7095000Y-7605000D02*
X7055000Y-7645000D01*
X7055000Y-10330000D02*
X7095000Y-10370000D01*
X7095000Y-10330000D02*
X7055000Y-10370000D01*
X7055000Y-10580000D02*
X7095000Y-10620000D01*
X7095000Y-10580000D02*
X7055000Y-10620000D01*
X7080000Y-8830000D02*
X7120000Y-8870000D01*
X7120000Y-8830000D02*
X7080000Y-8870000D01*
X7080000Y-9080000D02*
X7120000Y-9120000D01*
X7120000Y-9080000D02*
X7080000Y-9120000D01*
X7705000Y-7080000D02*
X7745000Y-7120000D01*
X7745000Y-7080000D02*
X7705000Y-7120000D01*
X7755000Y-4099950D02*
X7795000Y-4139950D01*
X7795000Y-4099950D02*
X7755000Y-4139950D01*
X8005000Y-3880000D02*
X8045000Y-3920000D01*
X8045000Y-3880000D02*
X8005000Y-3920000D01*
X8055000Y-7105000D02*
X8095000Y-7145000D01*
X8095000Y-7105000D02*
X8055000Y-7145000D01*
X8830000Y-8830000D02*
X8870000Y-8870000D01*
X8870000Y-8830000D02*
X8830000Y-8870000D01*
X8830000Y-9055000D02*
X8870000Y-9095000D01*
X8870000Y-9055000D02*
X8830000Y-9095000D01*
X8830000Y-10330000D02*
X8870000Y-10370000D01*
X8870000Y-10330000D02*
X8830000Y-10370000D01*
X8830000Y-10580000D02*
X8870000Y-10620000D01*
X8870000Y-10580000D02*
X8830000Y-10620000D01*
D13*
X5580000Y-3775000D02*
G75*
G03*
X5580000Y-3775000I-30000J0D01*
G01*
X5580000Y-3925000D02*
G75*
G03*
X5580000Y-3925000I-30000J0D01*
G01*
X7030000Y-2796000D02*
G75*
G03*
X7030000Y-2796000I-30000J0D01*
G01*
X7180000Y-2796000D02*
G75*
G03*
X7180000Y-2796000I-30000J0D01*
G01*
X7498000Y-2216000D02*
G75*
G03*
X7498000Y-2216000I-30000J0D01*
G01*
D11*
X7488000Y-2246000D02*
X7488000Y-2186000D01*
X7448000Y-2246000D02*
X7448000Y-2186000D01*
X7488000Y-2186000D02*
G75*
G03*
X7448000Y-2186000I-20000J0D01*
G01*
X7448000Y-2246000D02*
G75*
G03*
X7488000Y-2246000I20000J0D01*
G01*
D13*
X7498000Y-2634000D02*
G75*
G03*
X7498000Y-2634000I-30000J0D01*
G01*
D11*
X7488000Y-2689000D02*
X7488000Y-2579000D01*
X7448000Y-2689000D02*
X7448000Y-2579000D01*
X7488000Y-2579000D02*
G75*
G03*
X7448000Y-2579000I-20000J0D01*
G01*
X7448000Y-2689000D02*
G75*
G03*
X7488000Y-2689000I20000J0D01*
G01*
D13*
X8362000Y-2216000D02*
G75*
G03*
X8362000Y-2216000I-30000J0D01*
G01*
D11*
X8352000Y-2246000D02*
X8352000Y-2186000D01*
X8312000Y-2246000D02*
X8312000Y-2186000D01*
X8352000Y-2186000D02*
G75*
G03*
X8312000Y-2186000I-20000J0D01*
G01*
X8312000Y-2246000D02*
G75*
G03*
X8352000Y-2246000I20000J0D01*
G01*
D13*
X8362000Y-2634000D02*
G75*
G03*
X8362000Y-2634000I-30000J0D01*
G01*
D11*
X8352000Y-2689000D02*
X8352000Y-2579000D01*
X8312000Y-2689000D02*
X8312000Y-2579000D01*
X8352000Y-2579000D02*
G75*
G03*
X8312000Y-2579000I-20000J0D01*
G01*
X8312000Y-2689000D02*
G75*
G03*
X8352000Y-2689000I20000J0D01*
G01*
D14*
X4225000Y-3415000D02*
X4225000Y-3485000D01*
X4190000Y-3450000D02*
X4260000Y-3450000D01*
X4733000Y-3415000D02*
X4733000Y-3485000D01*
X4698000Y-3450000D02*
X4768000Y-3450000D01*
X5300000Y-5690000D02*
X5300000Y-5760000D01*
X5265000Y-5725000D02*
X5335000Y-5725000D01*
X5300000Y-6198000D02*
X5300000Y-6268000D01*
X5265000Y-6233000D02*
X5335000Y-6233000D01*
X5550000Y-5690000D02*
X5550000Y-5760000D01*
X5515000Y-5725000D02*
X5585000Y-5725000D01*
X5550000Y-6198000D02*
X5550000Y-6268000D01*
X5515000Y-6233000D02*
X5585000Y-6233000D01*
X7525000Y-3082000D02*
X7525000Y-3152000D01*
X7490000Y-3117000D02*
X7560000Y-3117000D01*
X7525000Y-3590000D02*
X7525000Y-3660000D01*
X7490000Y-3625000D02*
X7560000Y-3625000D01*
X7775000Y-3086000D02*
X7775000Y-3156000D01*
X7740000Y-3121000D02*
X7810000Y-3121000D01*
X7775000Y-3594000D02*
X7775000Y-3664000D01*
X7740000Y-3629000D02*
X7810000Y-3629000D01*
X8025000Y-3086000D02*
X8025000Y-3156000D01*
X7990000Y-3121000D02*
X8060000Y-3121000D01*
X8025000Y-3594000D02*
X8025000Y-3664000D01*
X7990000Y-3629000D02*
X8060000Y-3629000D01*
X8275000Y-3086000D02*
X8275000Y-3156000D01*
X8240000Y-3121000D02*
X8310000Y-3121000D01*
X8275000Y-3594000D02*
X8275000Y-3664000D01*
X8240000Y-3629000D02*
X8310000Y-3629000D01*
X8650000Y-2611000D02*
X8650000Y-2681000D01*
X8615000Y-2646000D02*
X8685000Y-2646000D01*
X9158000Y-2611000D02*
X9158000Y-2681000D01*
X9123000Y-2646000D02*
X9193000Y-2646000D01*
D15*
X3778284Y-4178284D02*
X3778284Y-4121715D01*
X3721715Y-4121715D01*
X3721715Y-4178284D01*
X3778284Y-4178284D01*
X3778284Y-5028285D02*
X3778284Y-4971716D01*
X3721715Y-4971716D01*
X3721715Y-5028285D01*
X3778284Y-5028285D01*
X4028284Y-4178284D02*
X4028284Y-4121715D01*
X3971715Y-4121715D01*
X3971715Y-4178284D01*
X4028284Y-4178284D01*
X4028284Y-5028285D02*
X4028284Y-4971716D01*
X3971715Y-4971716D01*
X3971715Y-5028285D01*
X4028284Y-5028285D01*
X4378285Y-7497284D02*
X4378285Y-7440715D01*
X4321716Y-7440715D01*
X4321716Y-7497284D01*
X4378285Y-7497284D01*
X4378285Y-8259284D02*
X4378285Y-8202715D01*
X4321716Y-8202715D01*
X4321716Y-8259284D01*
X4378285Y-8259284D01*
X4378285Y-8997285D02*
X4378285Y-8940716D01*
X4321716Y-8940716D01*
X4321716Y-8997285D01*
X4378285Y-8997285D01*
X4378285Y-9759285D02*
X4378285Y-9702716D01*
X4321716Y-9702716D01*
X4321716Y-9759285D01*
X4378285Y-9759285D01*
X4378285Y-10522285D02*
X4378285Y-10465716D01*
X4321716Y-10465716D01*
X4321716Y-10522285D01*
X4378285Y-10522285D01*
X4378285Y-11284284D02*
X4378285Y-11227715D01*
X4321716Y-11227715D01*
X4321716Y-11284284D01*
X4378285Y-11284284D01*
X5328285Y-2678285D02*
X5328285Y-2621716D01*
X5271716Y-2621716D01*
X5271716Y-2678285D01*
X5328285Y-2678285D01*
X5328285Y-2878284D02*
X5328285Y-2821715D01*
X5271716Y-2821715D01*
X5271716Y-2878284D01*
X5328285Y-2878284D01*
X5528285Y-2678285D02*
X5528285Y-2621716D01*
X5471716Y-2621716D01*
X5471716Y-2678285D01*
X5528285Y-2678285D01*
X5528285Y-2878284D02*
X5528285Y-2821715D01*
X5471716Y-2821715D01*
X5471716Y-2878284D01*
X5528285Y-2878284D01*
X5728284Y-2678285D02*
X5728284Y-2621716D01*
X5671715Y-2621716D01*
X5671715Y-2678285D01*
X5728284Y-2678285D01*
X5728284Y-2878284D02*
X5728284Y-2821715D01*
X5671715Y-2821715D01*
X5671715Y-2878284D01*
X5728284Y-2878284D01*
X6128284Y-7497284D02*
X6128284Y-7440715D01*
X6071715Y-7440715D01*
X6071715Y-7497284D01*
X6128284Y-7497284D01*
X6128284Y-8259284D02*
X6128284Y-8202715D01*
X6071715Y-8202715D01*
X6071715Y-8259284D01*
X6128284Y-8259284D01*
X6128284Y-8997285D02*
X6128284Y-8940716D01*
X6071715Y-8940716D01*
X6071715Y-8997285D01*
X6128284Y-8997285D01*
X6128284Y-9759285D02*
X6128284Y-9702716D01*
X6071715Y-9702716D01*
X6071715Y-9759285D01*
X6128284Y-9759285D01*
X6128284Y-10522285D02*
X6128284Y-10465716D01*
X6071715Y-10465716D01*
X6071715Y-10522285D01*
X6128284Y-10522285D01*
X6128284Y-11284284D02*
X6128284Y-11227715D01*
X6071715Y-11227715D01*
X6071715Y-11284284D01*
X6128284Y-11284284D01*
X6753284Y-4428285D02*
X6753284Y-4371716D01*
X6696715Y-4371716D01*
X6696715Y-4428285D01*
X6753284Y-4428285D01*
X6753284Y-4928285D02*
X6753284Y-4871716D01*
X6696715Y-4871716D01*
X6696715Y-4928285D01*
X6753284Y-4928285D01*
X7194951Y-4428285D02*
X7194951Y-4371716D01*
X7138382Y-4371716D01*
X7138382Y-4428285D01*
X7194951Y-4428285D01*
X7194951Y-4928285D02*
X7194951Y-4871716D01*
X7138382Y-4871716D01*
X7138382Y-4928285D01*
X7194951Y-4928285D01*
X7636618Y-4428285D02*
X7636618Y-4371716D01*
X7580049Y-4371716D01*
X7580049Y-4428285D01*
X7636618Y-4428285D01*
X7636618Y-4928285D02*
X7636618Y-4871716D01*
X7580049Y-4871716D01*
X7580049Y-4928285D01*
X7636618Y-4928285D01*
X7878284Y-7497284D02*
X7878284Y-7440715D01*
X7821715Y-7440715D01*
X7821715Y-7497284D01*
X7878284Y-7497284D01*
X7878284Y-8259284D02*
X7878284Y-8202715D01*
X7821715Y-8202715D01*
X7821715Y-8259284D01*
X7878284Y-8259284D01*
X7878284Y-8997285D02*
X7878284Y-8940716D01*
X7821715Y-8940716D01*
X7821715Y-8997285D01*
X7878284Y-8997285D01*
X7878284Y-9759285D02*
X7878284Y-9702716D01*
X7821715Y-9702716D01*
X7821715Y-9759285D01*
X7878284Y-9759285D01*
X7878284Y-10522285D02*
X7878284Y-10465716D01*
X7821715Y-10465716D01*
X7821715Y-10522285D01*
X7878284Y-10522285D01*
X7878284Y-11284284D02*
X7878284Y-11227715D01*
X7821715Y-11227715D01*
X7821715Y-11284284D01*
X7878284Y-11284284D01*
X8078284Y-4428285D02*
X8078284Y-4371716D01*
X8021715Y-4371716D01*
X8021715Y-4428285D01*
X8078284Y-4428285D01*
X8078284Y-4928285D02*
X8078284Y-4871716D01*
X8021715Y-4871716D01*
X8021715Y-4928285D01*
X8078284Y-4928285D01*
D16*
X4814560Y-8275000D02*
X4864560Y-8225000D01*
X4814560Y-8175000D01*
X4764560Y-8225000D01*
X4814560Y-8275000D01*
X4814560Y-9787500D02*
X4864560Y-9737500D01*
X4814560Y-9687500D01*
X4764560Y-9737500D01*
X4814560Y-9787500D01*
X4814560Y-11300000D02*
X4864560Y-11250000D01*
X4814560Y-11200000D01*
X4764560Y-11250000D01*
X4814560Y-11300000D01*
X5314940Y-8275000D02*
X5364940Y-8225000D01*
X5314940Y-8175000D01*
X5264940Y-8225000D01*
X5314940Y-8275000D01*
X5314940Y-9787500D02*
X5364940Y-9737500D01*
X5314940Y-9687500D01*
X5264940Y-9737500D01*
X5314940Y-9787500D01*
X5314940Y-11300000D02*
X5364940Y-11250000D01*
X5314940Y-11200000D01*
X5264940Y-11250000D01*
X5314940Y-11300000D01*
X6582185Y-8275000D02*
X6632185Y-8225000D01*
X6582185Y-8175000D01*
X6532185Y-8225000D01*
X6582185Y-8275000D01*
X6582185Y-9787500D02*
X6632185Y-9737500D01*
X6582185Y-9687500D01*
X6532185Y-9737500D01*
X6582185Y-9787500D01*
X6582185Y-11300000D02*
X6632185Y-11250000D01*
X6582185Y-11200000D01*
X6532185Y-11250000D01*
X6582185Y-11300000D01*
X7082565Y-8275000D02*
X7132565Y-8225000D01*
X7082565Y-8175000D01*
X7032565Y-8225000D01*
X7082565Y-8275000D01*
X7082565Y-9787500D02*
X7132565Y-9737500D01*
X7082565Y-9687500D01*
X7032565Y-9737500D01*
X7082565Y-9787500D01*
X7082565Y-11300000D02*
X7132565Y-11250000D01*
X7082565Y-11200000D01*
X7032565Y-11250000D01*
X7082565Y-11300000D01*
X8349810Y-8275000D02*
X8399810Y-8225000D01*
X8349810Y-8175000D01*
X8299810Y-8225000D01*
X8349810Y-8275000D01*
X8349810Y-9787500D02*
X8399810Y-9737500D01*
X8349810Y-9687500D01*
X8299810Y-9737500D01*
X8349810Y-9787500D01*
X8349810Y-11300000D02*
X8399810Y-11250000D01*
X8349810Y-11200000D01*
X8299810Y-11250000D01*
X8349810Y-11300000D01*
X8850190Y-8275000D02*
X8900190Y-8225000D01*
X8850190Y-8175000D01*
X8800190Y-8225000D01*
X8850190Y-8275000D01*
X8850190Y-9787500D02*
X8900190Y-9737500D01*
X8850190Y-9687500D01*
X8800190Y-9737500D01*
X8850190Y-9787500D01*
X8850190Y-11300000D02*
X8900190Y-11250000D01*
X8850190Y-11200000D01*
X8800190Y-11250000D01*
X8850190Y-11300000D01*
D17*
X3970000Y-2445000D02*
X4080000Y-2555000D01*
X4080000Y-2445000D02*
X3970000Y-2555000D01*
X4080000Y-2500000D02*
G75*
G03*
X4080000Y-2500000I-55000J0D01*
G01*
X3970000Y-2895000D02*
X4080000Y-3005000D01*
X4080000Y-2895000D02*
X3970000Y-3005000D01*
X4080000Y-2950000D02*
G75*
G03*
X4080000Y-2950000I-55000J0D01*
G01*
X4620000Y-2445000D02*
X4730000Y-2555000D01*
X4730000Y-2445000D02*
X4620000Y-2555000D01*
X4730000Y-2500000D02*
G75*
G03*
X4730000Y-2500000I-55000J0D01*
G01*
X4620000Y-2895000D02*
X4730000Y-3005000D01*
X4730000Y-2895000D02*
X4620000Y-3005000D01*
X4730000Y-2950000D02*
G75*
G03*
X4730000Y-2950000I-55000J0D01*
G01*
D11*
X3777619Y-12315476D02*
X3777619Y-12115476D01*
X3825238Y-12115476D01*
X3853809Y-12125000D01*
X3872857Y-12144048D01*
X3882381Y-12163095D01*
X3891905Y-12201190D01*
X3891905Y-12229762D01*
X3882381Y-12267857D01*
X3872857Y-12286905D01*
X3853809Y-12305952D01*
X3825238Y-12315476D01*
X3777619Y-12315476D01*
X3977619Y-12315476D02*
X3977619Y-12182143D01*
X3977619Y-12220238D02*
X3987143Y-12201190D01*
X3996667Y-12191667D01*
X4015714Y-12182143D01*
X4034762Y-12182143D01*
X4101428Y-12315476D02*
X4101428Y-12182143D01*
X4101428Y-12115476D02*
X4091905Y-12125000D01*
X4101428Y-12134524D01*
X4110952Y-12125000D01*
X4101428Y-12115476D01*
X4101428Y-12134524D01*
X4225238Y-12315476D02*
X4206190Y-12305952D01*
X4196667Y-12286905D01*
X4196667Y-12115476D01*
X4330000Y-12315476D02*
X4310952Y-12305952D01*
X4301429Y-12286905D01*
X4301429Y-12115476D01*
X4558571Y-12315476D02*
X4558571Y-12115476D01*
X4625238Y-12258333D01*
X4691905Y-12115476D01*
X4691905Y-12315476D01*
X4872857Y-12315476D02*
X4872857Y-12210714D01*
X4863333Y-12191667D01*
X4844286Y-12182143D01*
X4806190Y-12182143D01*
X4787143Y-12191667D01*
X4872857Y-12305952D02*
X4853810Y-12315476D01*
X4806190Y-12315476D01*
X4787143Y-12305952D01*
X4777619Y-12286905D01*
X4777619Y-12267857D01*
X4787143Y-12248809D01*
X4806190Y-12239286D01*
X4853810Y-12239286D01*
X4872857Y-12229762D01*
X4968095Y-12182143D02*
X4968095Y-12382143D01*
X4968095Y-12191667D02*
X4987143Y-12182143D01*
X5025238Y-12182143D01*
X5044286Y-12191667D01*
X5053810Y-12201190D01*
X5063333Y-12220238D01*
X5063333Y-12277381D01*
X5053810Y-12296428D01*
X5044286Y-12305952D01*
X5025238Y-12315476D01*
X4987143Y-12315476D01*
X4968095Y-12305952D01*
X5149048Y-12296428D02*
X5158571Y-12305952D01*
X5149048Y-12315476D01*
X5139524Y-12305952D01*
X5149048Y-12296428D01*
X5149048Y-12315476D01*
X5149048Y-12191667D02*
X5158571Y-12201190D01*
X5149048Y-12210714D01*
X5139524Y-12201190D01*
X5149048Y-12191667D01*
X5149048Y-12210714D01*
D12*
X3480000Y-12625000D02*
X3520000Y-12665000D01*
X3520000Y-12625000D02*
X3480000Y-12665000D01*
D11*
X3815714Y-12535476D02*
X3834762Y-12535476D01*
X3853809Y-12545000D01*
X3863333Y-12554524D01*
X3872857Y-12573571D01*
X3882381Y-12611667D01*
X3882381Y-12659286D01*
X3872857Y-12697381D01*
X3863333Y-12716428D01*
X3853809Y-12725952D01*
X3834762Y-12735476D01*
X3815714Y-12735476D01*
X3796667Y-12725952D01*
X3787143Y-12716428D01*
X3777619Y-12697381D01*
X3768095Y-12659286D01*
X3768095Y-12611667D01*
X3777619Y-12573571D01*
X3787143Y-12554524D01*
X3796667Y-12545000D01*
X3815714Y-12535476D01*
X3968095Y-12716428D02*
X3977619Y-12725952D01*
X3968095Y-12735476D01*
X3958571Y-12725952D01*
X3968095Y-12716428D01*
X3968095Y-12735476D01*
X4149048Y-12602143D02*
X4149048Y-12735476D01*
X4101428Y-12525952D02*
X4053809Y-12668809D01*
X4177619Y-12668809D01*
X4291905Y-12535476D02*
X4310952Y-12535476D01*
X4330000Y-12545000D01*
X4339524Y-12554524D01*
X4349048Y-12573571D01*
X4358571Y-12611667D01*
X4358571Y-12659286D01*
X4349048Y-12697381D01*
X4339524Y-12716428D01*
X4330000Y-12725952D01*
X4310952Y-12735476D01*
X4291905Y-12735476D01*
X4272857Y-12725952D01*
X4263333Y-12716428D01*
X4253810Y-12697381D01*
X4244286Y-12659286D01*
X4244286Y-12611667D01*
X4253810Y-12573571D01*
X4263333Y-12554524D01*
X4272857Y-12545000D01*
X4291905Y-12535476D01*
X4482381Y-12535476D02*
X4501429Y-12535476D01*
X4520476Y-12545000D01*
X4530000Y-12554524D01*
X4539524Y-12573571D01*
X4549048Y-12611667D01*
X4549048Y-12659286D01*
X4539524Y-12697381D01*
X4530000Y-12716428D01*
X4520476Y-12725952D01*
X4501429Y-12735476D01*
X4482381Y-12735476D01*
X4463333Y-12725952D01*
X4453810Y-12716428D01*
X4444286Y-12697381D01*
X4434762Y-12659286D01*
X4434762Y-12611667D01*
X4444286Y-12573571D01*
X4453810Y-12554524D01*
X4463333Y-12545000D01*
X4482381Y-12535476D01*
X4634762Y-12735476D02*
X4634762Y-12602143D01*
X4634762Y-12621190D02*
X4644286Y-12611667D01*
X4663333Y-12602143D01*
X4691905Y-12602143D01*
X4710952Y-12611667D01*
X4720476Y-12630714D01*
X4720476Y-12735476D01*
X4720476Y-12630714D02*
X4730000Y-12611667D01*
X4749048Y-12602143D01*
X4777619Y-12602143D01*
X4796667Y-12611667D01*
X4806190Y-12630714D01*
X4806190Y-12735476D01*
X4901429Y-12735476D02*
X4901429Y-12602143D01*
X4901429Y-12621190D02*
X4910952Y-12611667D01*
X4930000Y-12602143D01*
X4958571Y-12602143D01*
X4977619Y-12611667D01*
X4987143Y-12630714D01*
X4987143Y-12735476D01*
X4987143Y-12630714D02*
X4996667Y-12611667D01*
X5015714Y-12602143D01*
X5044286Y-12602143D01*
X5063333Y-12611667D01*
X5072857Y-12630714D01*
X5072857Y-12735476D01*
X5463333Y-12525952D02*
X5291905Y-12783095D01*
X5720476Y-12535476D02*
X5739524Y-12535476D01*
X5758571Y-12545000D01*
X5768095Y-12554524D01*
X5777619Y-12573571D01*
X5787143Y-12611667D01*
X5787143Y-12659286D01*
X5777619Y-12697381D01*
X5768095Y-12716428D01*
X5758571Y-12725952D01*
X5739524Y-12735476D01*
X5720476Y-12735476D01*
X5701428Y-12725952D01*
X5691905Y-12716428D01*
X5682381Y-12697381D01*
X5672857Y-12659286D01*
X5672857Y-12611667D01*
X5682381Y-12573571D01*
X5691905Y-12554524D01*
X5701428Y-12545000D01*
X5720476Y-12535476D01*
X5872857Y-12716428D02*
X5882381Y-12725952D01*
X5872857Y-12735476D01*
X5863333Y-12725952D01*
X5872857Y-12716428D01*
X5872857Y-12735476D01*
X6006190Y-12535476D02*
X6025238Y-12535476D01*
X6044286Y-12545000D01*
X6053809Y-12554524D01*
X6063333Y-12573571D01*
X6072857Y-12611667D01*
X6072857Y-12659286D01*
X6063333Y-12697381D01*
X6053809Y-12716428D01*
X6044286Y-12725952D01*
X6025238Y-12735476D01*
X6006190Y-12735476D01*
X5987143Y-12725952D01*
X5977619Y-12716428D01*
X5968095Y-12697381D01*
X5958571Y-12659286D01*
X5958571Y-12611667D01*
X5968095Y-12573571D01*
X5977619Y-12554524D01*
X5987143Y-12545000D01*
X6006190Y-12535476D01*
X6263333Y-12735476D02*
X6149048Y-12735476D01*
X6206190Y-12735476D02*
X6206190Y-12535476D01*
X6187143Y-12564048D01*
X6168095Y-12583095D01*
X6149048Y-12592619D01*
X6444286Y-12535476D02*
X6349048Y-12535476D01*
X6339524Y-12630714D01*
X6349048Y-12621190D01*
X6368095Y-12611667D01*
X6415714Y-12611667D01*
X6434762Y-12621190D01*
X6444286Y-12630714D01*
X6453809Y-12649762D01*
X6453809Y-12697381D01*
X6444286Y-12716428D01*
X6434762Y-12725952D01*
X6415714Y-12735476D01*
X6368095Y-12735476D01*
X6349048Y-12725952D01*
X6339524Y-12716428D01*
X6520476Y-12535476D02*
X6653809Y-12535476D01*
X6568095Y-12735476D01*
X6720476Y-12535476D02*
X6720476Y-12573571D01*
X6796667Y-12535476D02*
X6796667Y-12573571D01*
X7091905Y-12811667D02*
X7082381Y-12802143D01*
X7063333Y-12773571D01*
X7053809Y-12754524D01*
X7044286Y-12725952D01*
X7034762Y-12678333D01*
X7034762Y-12640238D01*
X7044286Y-12592619D01*
X7053809Y-12564048D01*
X7063333Y-12545000D01*
X7082381Y-12516428D01*
X7091905Y-12506905D01*
X7149048Y-12535476D02*
X7272857Y-12535476D01*
X7206190Y-12611667D01*
X7234762Y-12611667D01*
X7253809Y-12621190D01*
X7263333Y-12630714D01*
X7272857Y-12649762D01*
X7272857Y-12697381D01*
X7263333Y-12716428D01*
X7253809Y-12725952D01*
X7234762Y-12735476D01*
X7177619Y-12735476D01*
X7158571Y-12725952D01*
X7149048Y-12716428D01*
X7444286Y-12602143D02*
X7444286Y-12735476D01*
X7396667Y-12525952D02*
X7349048Y-12668809D01*
X7472857Y-12668809D01*
X7701428Y-12735476D02*
X7701428Y-12535476D01*
X7787143Y-12735476D02*
X7787143Y-12630714D01*
X7777619Y-12611667D01*
X7758571Y-12602143D01*
X7730000Y-12602143D01*
X7710952Y-12611667D01*
X7701428Y-12621190D01*
X7910952Y-12735476D02*
X7891905Y-12725952D01*
X7882381Y-12716428D01*
X7872857Y-12697381D01*
X7872857Y-12640238D01*
X7882381Y-12621190D01*
X7891905Y-12611667D01*
X7910952Y-12602143D01*
X7939524Y-12602143D01*
X7958571Y-12611667D01*
X7968095Y-12621190D01*
X7977619Y-12640238D01*
X7977619Y-12697381D01*
X7968095Y-12716428D01*
X7958571Y-12725952D01*
X7939524Y-12735476D01*
X7910952Y-12735476D01*
X8091905Y-12735476D02*
X8072857Y-12725952D01*
X8063333Y-12706905D01*
X8063333Y-12535476D01*
X8244286Y-12725952D02*
X8225238Y-12735476D01*
X8187143Y-12735476D01*
X8168095Y-12725952D01*
X8158571Y-12706905D01*
X8158571Y-12630714D01*
X8168095Y-12611667D01*
X8187143Y-12602143D01*
X8225238Y-12602143D01*
X8244286Y-12611667D01*
X8253809Y-12630714D01*
X8253809Y-12649762D01*
X8158571Y-12668809D01*
X8330000Y-12725952D02*
X8349048Y-12735476D01*
X8387143Y-12735476D01*
X8406190Y-12725952D01*
X8415714Y-12706905D01*
X8415714Y-12697381D01*
X8406190Y-12678333D01*
X8387143Y-12668809D01*
X8358571Y-12668809D01*
X8339524Y-12659286D01*
X8330000Y-12640238D01*
X8330000Y-12630714D01*
X8339524Y-12611667D01*
X8358571Y-12602143D01*
X8387143Y-12602143D01*
X8406190Y-12611667D01*
X8482381Y-12811667D02*
X8491905Y-12802143D01*
X8510952Y-12773571D01*
X8520476Y-12754524D01*
X8530000Y-12725952D01*
X8539524Y-12678333D01*
X8539524Y-12640238D01*
X8530000Y-12592619D01*
X8520476Y-12564048D01*
X8510952Y-12545000D01*
X8491905Y-12516428D01*
X8482381Y-12506905D01*
D13*
X3520000Y-12909000D02*
G75*
G03*
X3520000Y-12909000I-30000J0D01*
G01*
D11*
X3815714Y-12799476D02*
X3834762Y-12799476D01*
X3853809Y-12809000D01*
X3863333Y-12818524D01*
X3872857Y-12837571D01*
X3882381Y-12875667D01*
X3882381Y-12923286D01*
X3872857Y-12961381D01*
X3863333Y-12980428D01*
X3853809Y-12989952D01*
X3834762Y-12999476D01*
X3815714Y-12999476D01*
X3796667Y-12989952D01*
X3787143Y-12980428D01*
X3777619Y-12961381D01*
X3768095Y-12923286D01*
X3768095Y-12875667D01*
X3777619Y-12837571D01*
X3787143Y-12818524D01*
X3796667Y-12809000D01*
X3815714Y-12799476D01*
X3968095Y-12980428D02*
X3977619Y-12989952D01*
X3968095Y-12999476D01*
X3958571Y-12989952D01*
X3968095Y-12980428D01*
X3968095Y-12999476D01*
X4149048Y-12799476D02*
X4110952Y-12799476D01*
X4091905Y-12809000D01*
X4082381Y-12818524D01*
X4063333Y-12847095D01*
X4053809Y-12885190D01*
X4053809Y-12961381D01*
X4063333Y-12980428D01*
X4072857Y-12989952D01*
X4091905Y-12999476D01*
X4130000Y-12999476D01*
X4149048Y-12989952D01*
X4158571Y-12980428D01*
X4168095Y-12961381D01*
X4168095Y-12913762D01*
X4158571Y-12894714D01*
X4149048Y-12885190D01*
X4130000Y-12875667D01*
X4091905Y-12875667D01*
X4072857Y-12885190D01*
X4063333Y-12894714D01*
X4053809Y-12913762D01*
X4291905Y-12799476D02*
X4310952Y-12799476D01*
X4330000Y-12809000D01*
X4339524Y-12818524D01*
X4349048Y-12837571D01*
X4358571Y-12875667D01*
X4358571Y-12923286D01*
X4349048Y-12961381D01*
X4339524Y-12980428D01*
X4330000Y-12989952D01*
X4310952Y-12999476D01*
X4291905Y-12999476D01*
X4272857Y-12989952D01*
X4263333Y-12980428D01*
X4253810Y-12961381D01*
X4244286Y-12923286D01*
X4244286Y-12875667D01*
X4253810Y-12837571D01*
X4263333Y-12818524D01*
X4272857Y-12809000D01*
X4291905Y-12799476D01*
X4482381Y-12799476D02*
X4501429Y-12799476D01*
X4520476Y-12809000D01*
X4530000Y-12818524D01*
X4539524Y-12837571D01*
X4549048Y-12875667D01*
X4549048Y-12923286D01*
X4539524Y-12961381D01*
X4530000Y-12980428D01*
X4520476Y-12989952D01*
X4501429Y-12999476D01*
X4482381Y-12999476D01*
X4463333Y-12989952D01*
X4453810Y-12980428D01*
X4444286Y-12961381D01*
X4434762Y-12923286D01*
X4434762Y-12875667D01*
X4444286Y-12837571D01*
X4453810Y-12818524D01*
X4463333Y-12809000D01*
X4482381Y-12799476D01*
X4634762Y-12999476D02*
X4634762Y-12866143D01*
X4634762Y-12885190D02*
X4644286Y-12875667D01*
X4663333Y-12866143D01*
X4691905Y-12866143D01*
X4710952Y-12875667D01*
X4720476Y-12894714D01*
X4720476Y-12999476D01*
X4720476Y-12894714D02*
X4730000Y-12875667D01*
X4749048Y-12866143D01*
X4777619Y-12866143D01*
X4796667Y-12875667D01*
X4806190Y-12894714D01*
X4806190Y-12999476D01*
X4901429Y-12999476D02*
X4901429Y-12866143D01*
X4901429Y-12885190D02*
X4910952Y-12875667D01*
X4930000Y-12866143D01*
X4958571Y-12866143D01*
X4977619Y-12875667D01*
X4987143Y-12894714D01*
X4987143Y-12999476D01*
X4987143Y-12894714D02*
X4996667Y-12875667D01*
X5015714Y-12866143D01*
X5044286Y-12866143D01*
X5063333Y-12875667D01*
X5072857Y-12894714D01*
X5072857Y-12999476D01*
X5463333Y-12789952D02*
X5291905Y-13047095D01*
X5720476Y-12799476D02*
X5739524Y-12799476D01*
X5758571Y-12809000D01*
X5768095Y-12818524D01*
X5777619Y-12837571D01*
X5787143Y-12875667D01*
X5787143Y-12923286D01*
X5777619Y-12961381D01*
X5768095Y-12980428D01*
X5758571Y-12989952D01*
X5739524Y-12999476D01*
X5720476Y-12999476D01*
X5701428Y-12989952D01*
X5691905Y-12980428D01*
X5682381Y-12961381D01*
X5672857Y-12923286D01*
X5672857Y-12875667D01*
X5682381Y-12837571D01*
X5691905Y-12818524D01*
X5701428Y-12809000D01*
X5720476Y-12799476D01*
X5872857Y-12980428D02*
X5882381Y-12989952D01*
X5872857Y-12999476D01*
X5863333Y-12989952D01*
X5872857Y-12980428D01*
X5872857Y-12999476D01*
X6006190Y-12799476D02*
X6025238Y-12799476D01*
X6044286Y-12809000D01*
X6053809Y-12818524D01*
X6063333Y-12837571D01*
X6072857Y-12875667D01*
X6072857Y-12923286D01*
X6063333Y-12961381D01*
X6053809Y-12980428D01*
X6044286Y-12989952D01*
X6025238Y-12999476D01*
X6006190Y-12999476D01*
X5987143Y-12989952D01*
X5977619Y-12980428D01*
X5968095Y-12961381D01*
X5958571Y-12923286D01*
X5958571Y-12875667D01*
X5968095Y-12837571D01*
X5977619Y-12818524D01*
X5987143Y-12809000D01*
X6006190Y-12799476D01*
X6149048Y-12818524D02*
X6158571Y-12809000D01*
X6177619Y-12799476D01*
X6225238Y-12799476D01*
X6244286Y-12809000D01*
X6253809Y-12818524D01*
X6263333Y-12837571D01*
X6263333Y-12856619D01*
X6253809Y-12885190D01*
X6139524Y-12999476D01*
X6263333Y-12999476D01*
X6330000Y-12799476D02*
X6453809Y-12799476D01*
X6387143Y-12875667D01*
X6415714Y-12875667D01*
X6434762Y-12885190D01*
X6444286Y-12894714D01*
X6453809Y-12913762D01*
X6453809Y-12961381D01*
X6444286Y-12980428D01*
X6434762Y-12989952D01*
X6415714Y-12999476D01*
X6358571Y-12999476D01*
X6339524Y-12989952D01*
X6330000Y-12980428D01*
X6625238Y-12799476D02*
X6587143Y-12799476D01*
X6568095Y-12809000D01*
X6558571Y-12818524D01*
X6539524Y-12847095D01*
X6530000Y-12885190D01*
X6530000Y-12961381D01*
X6539524Y-12980428D01*
X6549048Y-12989952D01*
X6568095Y-12999476D01*
X6606190Y-12999476D01*
X6625238Y-12989952D01*
X6634762Y-12980428D01*
X6644286Y-12961381D01*
X6644286Y-12913762D01*
X6634762Y-12894714D01*
X6625238Y-12885190D01*
X6606190Y-12875667D01*
X6568095Y-12875667D01*
X6549048Y-12885190D01*
X6539524Y-12894714D01*
X6530000Y-12913762D01*
X6720476Y-12799476D02*
X6720476Y-12837571D01*
X6796667Y-12799476D02*
X6796667Y-12837571D01*
X7091905Y-13075667D02*
X7082381Y-13066143D01*
X7063333Y-13037571D01*
X7053809Y-13018524D01*
X7044286Y-12989952D01*
X7034762Y-12942333D01*
X7034762Y-12904238D01*
X7044286Y-12856619D01*
X7053809Y-12828048D01*
X7063333Y-12809000D01*
X7082381Y-12780428D01*
X7091905Y-12770905D01*
X7253809Y-12866143D02*
X7253809Y-12999476D01*
X7206190Y-12789952D02*
X7158571Y-12932809D01*
X7282381Y-12932809D01*
X7510952Y-12999476D02*
X7510952Y-12799476D01*
X7596667Y-12999476D02*
X7596667Y-12894714D01*
X7587143Y-12875667D01*
X7568095Y-12866143D01*
X7539524Y-12866143D01*
X7520476Y-12875667D01*
X7510952Y-12885190D01*
X7720476Y-12999476D02*
X7701428Y-12989952D01*
X7691905Y-12980428D01*
X7682381Y-12961381D01*
X7682381Y-12904238D01*
X7691905Y-12885190D01*
X7701428Y-12875667D01*
X7720476Y-12866143D01*
X7749048Y-12866143D01*
X7768095Y-12875667D01*
X7777619Y-12885190D01*
X7787143Y-12904238D01*
X7787143Y-12961381D01*
X7777619Y-12980428D01*
X7768095Y-12989952D01*
X7749048Y-12999476D01*
X7720476Y-12999476D01*
X7901428Y-12999476D02*
X7882381Y-12989952D01*
X7872857Y-12970905D01*
X7872857Y-12799476D01*
X8053809Y-12989952D02*
X8034762Y-12999476D01*
X7996667Y-12999476D01*
X7977619Y-12989952D01*
X7968095Y-12970905D01*
X7968095Y-12894714D01*
X7977619Y-12875667D01*
X7996667Y-12866143D01*
X8034762Y-12866143D01*
X8053809Y-12875667D01*
X8063333Y-12894714D01*
X8063333Y-12913762D01*
X7968095Y-12932809D01*
X8139524Y-12989952D02*
X8158571Y-12999476D01*
X8196667Y-12999476D01*
X8215714Y-12989952D01*
X8225238Y-12970905D01*
X8225238Y-12961381D01*
X8215714Y-12942333D01*
X8196667Y-12932809D01*
X8168095Y-12932809D01*
X8149048Y-12923286D01*
X8139524Y-12904238D01*
X8139524Y-12894714D01*
X8149048Y-12875667D01*
X8168095Y-12866143D01*
X8196667Y-12866143D01*
X8215714Y-12875667D01*
X8463333Y-12923286D02*
X8615714Y-12923286D01*
X8539524Y-12999476D02*
X8539524Y-12847095D01*
X8949048Y-12866143D02*
X8949048Y-12999476D01*
X8901429Y-12789952D02*
X8853810Y-12932809D01*
X8977619Y-12932809D01*
X9196667Y-12989952D02*
X9215714Y-12999476D01*
X9253810Y-12999476D01*
X9272857Y-12989952D01*
X9282381Y-12970905D01*
X9282381Y-12961381D01*
X9272857Y-12942333D01*
X9253810Y-12932809D01*
X9225238Y-12932809D01*
X9206190Y-12923286D01*
X9196667Y-12904238D01*
X9196667Y-12894714D01*
X9206190Y-12875667D01*
X9225238Y-12866143D01*
X9253810Y-12866143D01*
X9272857Y-12875667D01*
X9396667Y-12999476D02*
X9377619Y-12989952D01*
X9368095Y-12970905D01*
X9368095Y-12799476D01*
X9501429Y-12999476D02*
X9482381Y-12989952D01*
X9472857Y-12980428D01*
X9463333Y-12961381D01*
X9463333Y-12904238D01*
X9472857Y-12885190D01*
X9482381Y-12875667D01*
X9501429Y-12866143D01*
X9530000Y-12866143D01*
X9549048Y-12875667D01*
X9558571Y-12885190D01*
X9568095Y-12904238D01*
X9568095Y-12961381D01*
X9558571Y-12980428D01*
X9549048Y-12989952D01*
X9530000Y-12999476D01*
X9501429Y-12999476D01*
X9625238Y-12866143D02*
X9701429Y-12866143D01*
X9653810Y-12799476D02*
X9653810Y-12970905D01*
X9663333Y-12989952D01*
X9682381Y-12999476D01*
X9701429Y-12999476D01*
X9758571Y-12989952D02*
X9777619Y-12999476D01*
X9815714Y-12999476D01*
X9834762Y-12989952D01*
X9844286Y-12970905D01*
X9844286Y-12961381D01*
X9834762Y-12942333D01*
X9815714Y-12932809D01*
X9787143Y-12932809D01*
X9768095Y-12923286D01*
X9758571Y-12904238D01*
X9758571Y-12894714D01*
X9768095Y-12875667D01*
X9787143Y-12866143D01*
X9815714Y-12866143D01*
X9834762Y-12875667D01*
X9910952Y-13075667D02*
X9920476Y-13066143D01*
X9939524Y-13037571D01*
X9949048Y-13018524D01*
X9958571Y-12989952D01*
X9968095Y-12942333D01*
X9968095Y-12904238D01*
X9958571Y-12856619D01*
X9949048Y-12828048D01*
X9939524Y-12809000D01*
X9920476Y-12780428D01*
X9910952Y-12770905D01*
D14*
X3485000Y-13138000D02*
X3485000Y-13208000D01*
X3450000Y-13173000D02*
X3520000Y-13173000D01*
D11*
X3815714Y-13063476D02*
X3834762Y-13063476D01*
X3853809Y-13073000D01*
X3863333Y-13082524D01*
X3872857Y-13101571D01*
X3882381Y-13139667D01*
X3882381Y-13187286D01*
X3872857Y-13225381D01*
X3863333Y-13244428D01*
X3853809Y-13253952D01*
X3834762Y-13263476D01*
X3815714Y-13263476D01*
X3796667Y-13253952D01*
X3787143Y-13244428D01*
X3777619Y-13225381D01*
X3768095Y-13187286D01*
X3768095Y-13139667D01*
X3777619Y-13101571D01*
X3787143Y-13082524D01*
X3796667Y-13073000D01*
X3815714Y-13063476D01*
X3968095Y-13244428D02*
X3977619Y-13253952D01*
X3968095Y-13263476D01*
X3958571Y-13253952D01*
X3968095Y-13244428D01*
X3968095Y-13263476D01*
X4044286Y-13063476D02*
X4177619Y-13063476D01*
X4091905Y-13263476D01*
X4291905Y-13063476D02*
X4310952Y-13063476D01*
X4330000Y-13073000D01*
X4339524Y-13082524D01*
X4349048Y-13101571D01*
X4358571Y-13139667D01*
X4358571Y-13187286D01*
X4349048Y-13225381D01*
X4339524Y-13244428D01*
X4330000Y-13253952D01*
X4310952Y-13263476D01*
X4291905Y-13263476D01*
X4272857Y-13253952D01*
X4263333Y-13244428D01*
X4253810Y-13225381D01*
X4244286Y-13187286D01*
X4244286Y-13139667D01*
X4253810Y-13101571D01*
X4263333Y-13082524D01*
X4272857Y-13073000D01*
X4291905Y-13063476D01*
X4482381Y-13063476D02*
X4501429Y-13063476D01*
X4520476Y-13073000D01*
X4530000Y-13082524D01*
X4539524Y-13101571D01*
X4549048Y-13139667D01*
X4549048Y-13187286D01*
X4539524Y-13225381D01*
X4530000Y-13244428D01*
X4520476Y-13253952D01*
X4501429Y-13263476D01*
X4482381Y-13263476D01*
X4463333Y-13253952D01*
X4453810Y-13244428D01*
X4444286Y-13225381D01*
X4434762Y-13187286D01*
X4434762Y-13139667D01*
X4444286Y-13101571D01*
X4453810Y-13082524D01*
X4463333Y-13073000D01*
X4482381Y-13063476D01*
X4634762Y-13263476D02*
X4634762Y-13130143D01*
X4634762Y-13149190D02*
X4644286Y-13139667D01*
X4663333Y-13130143D01*
X4691905Y-13130143D01*
X4710952Y-13139667D01*
X4720476Y-13158714D01*
X4720476Y-13263476D01*
X4720476Y-13158714D02*
X4730000Y-13139667D01*
X4749048Y-13130143D01*
X4777619Y-13130143D01*
X4796667Y-13139667D01*
X4806190Y-13158714D01*
X4806190Y-13263476D01*
X4901429Y-13263476D02*
X4901429Y-13130143D01*
X4901429Y-13149190D02*
X4910952Y-13139667D01*
X4930000Y-13130143D01*
X4958571Y-13130143D01*
X4977619Y-13139667D01*
X4987143Y-13158714D01*
X4987143Y-13263476D01*
X4987143Y-13158714D02*
X4996667Y-13139667D01*
X5015714Y-13130143D01*
X5044286Y-13130143D01*
X5063333Y-13139667D01*
X5072857Y-13158714D01*
X5072857Y-13263476D01*
X5463333Y-13053952D02*
X5291905Y-13311095D01*
X5720476Y-13063476D02*
X5739524Y-13063476D01*
X5758571Y-13073000D01*
X5768095Y-13082524D01*
X5777619Y-13101571D01*
X5787143Y-13139667D01*
X5787143Y-13187286D01*
X5777619Y-13225381D01*
X5768095Y-13244428D01*
X5758571Y-13253952D01*
X5739524Y-13263476D01*
X5720476Y-13263476D01*
X5701428Y-13253952D01*
X5691905Y-13244428D01*
X5682381Y-13225381D01*
X5672857Y-13187286D01*
X5672857Y-13139667D01*
X5682381Y-13101571D01*
X5691905Y-13082524D01*
X5701428Y-13073000D01*
X5720476Y-13063476D01*
X5872857Y-13244428D02*
X5882381Y-13253952D01*
X5872857Y-13263476D01*
X5863333Y-13253952D01*
X5872857Y-13244428D01*
X5872857Y-13263476D01*
X6006190Y-13063476D02*
X6025238Y-13063476D01*
X6044286Y-13073000D01*
X6053809Y-13082524D01*
X6063333Y-13101571D01*
X6072857Y-13139667D01*
X6072857Y-13187286D01*
X6063333Y-13225381D01*
X6053809Y-13244428D01*
X6044286Y-13253952D01*
X6025238Y-13263476D01*
X6006190Y-13263476D01*
X5987143Y-13253952D01*
X5977619Y-13244428D01*
X5968095Y-13225381D01*
X5958571Y-13187286D01*
X5958571Y-13139667D01*
X5968095Y-13101571D01*
X5977619Y-13082524D01*
X5987143Y-13073000D01*
X6006190Y-13063476D01*
X6149048Y-13082524D02*
X6158571Y-13073000D01*
X6177619Y-13063476D01*
X6225238Y-13063476D01*
X6244286Y-13073000D01*
X6253809Y-13082524D01*
X6263333Y-13101571D01*
X6263333Y-13120619D01*
X6253809Y-13149190D01*
X6139524Y-13263476D01*
X6263333Y-13263476D01*
X6330000Y-13063476D02*
X6463333Y-13063476D01*
X6377619Y-13263476D01*
X6625238Y-13063476D02*
X6587143Y-13063476D01*
X6568095Y-13073000D01*
X6558571Y-13082524D01*
X6539524Y-13111095D01*
X6530000Y-13149190D01*
X6530000Y-13225381D01*
X6539524Y-13244428D01*
X6549048Y-13253952D01*
X6568095Y-13263476D01*
X6606190Y-13263476D01*
X6625238Y-13253952D01*
X6634762Y-13244428D01*
X6644286Y-13225381D01*
X6644286Y-13177762D01*
X6634762Y-13158714D01*
X6625238Y-13149190D01*
X6606190Y-13139667D01*
X6568095Y-13139667D01*
X6549048Y-13149190D01*
X6539524Y-13158714D01*
X6530000Y-13177762D01*
X6720476Y-13063476D02*
X6720476Y-13101571D01*
X6796667Y-13063476D02*
X6796667Y-13101571D01*
X7091905Y-13339667D02*
X7082381Y-13330143D01*
X7063333Y-13301571D01*
X7053809Y-13282524D01*
X7044286Y-13253952D01*
X7034762Y-13206333D01*
X7034762Y-13168238D01*
X7044286Y-13120619D01*
X7053809Y-13092048D01*
X7063333Y-13073000D01*
X7082381Y-13044428D01*
X7091905Y-13034905D01*
X7272857Y-13263476D02*
X7158571Y-13263476D01*
X7215714Y-13263476D02*
X7215714Y-13063476D01*
X7196667Y-13092048D01*
X7177619Y-13111095D01*
X7158571Y-13120619D01*
X7444286Y-13063476D02*
X7406190Y-13063476D01*
X7387143Y-13073000D01*
X7377619Y-13082524D01*
X7358571Y-13111095D01*
X7349048Y-13149190D01*
X7349048Y-13225381D01*
X7358571Y-13244428D01*
X7368095Y-13253952D01*
X7387143Y-13263476D01*
X7425238Y-13263476D01*
X7444286Y-13253952D01*
X7453809Y-13244428D01*
X7463333Y-13225381D01*
X7463333Y-13177762D01*
X7453809Y-13158714D01*
X7444286Y-13149190D01*
X7425238Y-13139667D01*
X7387143Y-13139667D01*
X7368095Y-13149190D01*
X7358571Y-13158714D01*
X7349048Y-13177762D01*
X7701428Y-13263476D02*
X7701428Y-13063476D01*
X7787143Y-13263476D02*
X7787143Y-13158714D01*
X7777619Y-13139667D01*
X7758571Y-13130143D01*
X7730000Y-13130143D01*
X7710952Y-13139667D01*
X7701428Y-13149190D01*
X7910952Y-13263476D02*
X7891905Y-13253952D01*
X7882381Y-13244428D01*
X7872857Y-13225381D01*
X7872857Y-13168238D01*
X7882381Y-13149190D01*
X7891905Y-13139667D01*
X7910952Y-13130143D01*
X7939524Y-13130143D01*
X7958571Y-13139667D01*
X7968095Y-13149190D01*
X7977619Y-13168238D01*
X7977619Y-13225381D01*
X7968095Y-13244428D01*
X7958571Y-13253952D01*
X7939524Y-13263476D01*
X7910952Y-13263476D01*
X8091905Y-13263476D02*
X8072857Y-13253952D01*
X8063333Y-13234905D01*
X8063333Y-13063476D01*
X8244286Y-13253952D02*
X8225238Y-13263476D01*
X8187143Y-13263476D01*
X8168095Y-13253952D01*
X8158571Y-13234905D01*
X8158571Y-13158714D01*
X8168095Y-13139667D01*
X8187143Y-13130143D01*
X8225238Y-13130143D01*
X8244286Y-13139667D01*
X8253809Y-13158714D01*
X8253809Y-13177762D01*
X8158571Y-13196809D01*
X8330000Y-13253952D02*
X8349048Y-13263476D01*
X8387143Y-13263476D01*
X8406190Y-13253952D01*
X8415714Y-13234905D01*
X8415714Y-13225381D01*
X8406190Y-13206333D01*
X8387143Y-13196809D01*
X8358571Y-13196809D01*
X8339524Y-13187286D01*
X8330000Y-13168238D01*
X8330000Y-13158714D01*
X8339524Y-13139667D01*
X8358571Y-13130143D01*
X8387143Y-13130143D01*
X8406190Y-13139667D01*
X8482381Y-13339667D02*
X8491905Y-13330143D01*
X8510952Y-13301571D01*
X8520476Y-13282524D01*
X8530000Y-13253952D01*
X8539524Y-13206333D01*
X8539524Y-13168238D01*
X8530000Y-13120619D01*
X8520476Y-13092048D01*
X8510952Y-13073000D01*
X8491905Y-13044428D01*
X8482381Y-13034905D01*
D15*
X3508284Y-13465284D02*
X3508284Y-13408715D01*
X3451715Y-13408715D01*
X3451715Y-13465284D01*
X3508284Y-13465284D01*
D11*
X3815714Y-13327476D02*
X3834762Y-13327476D01*
X3853809Y-13337000D01*
X3863333Y-13346524D01*
X3872857Y-13365571D01*
X3882381Y-13403667D01*
X3882381Y-13451286D01*
X3872857Y-13489381D01*
X3863333Y-13508428D01*
X3853809Y-13517952D01*
X3834762Y-13527476D01*
X3815714Y-13527476D01*
X3796667Y-13517952D01*
X3787143Y-13508428D01*
X3777619Y-13489381D01*
X3768095Y-13451286D01*
X3768095Y-13403667D01*
X3777619Y-13365571D01*
X3787143Y-13346524D01*
X3796667Y-13337000D01*
X3815714Y-13327476D01*
X3968095Y-13508428D02*
X3977619Y-13517952D01*
X3968095Y-13527476D01*
X3958571Y-13517952D01*
X3968095Y-13508428D01*
X3968095Y-13527476D01*
X4091905Y-13413190D02*
X4072857Y-13403667D01*
X4063333Y-13394143D01*
X4053809Y-13375095D01*
X4053809Y-13365571D01*
X4063333Y-13346524D01*
X4072857Y-13337000D01*
X4091905Y-13327476D01*
X4130000Y-13327476D01*
X4149048Y-13337000D01*
X4158571Y-13346524D01*
X4168095Y-13365571D01*
X4168095Y-13375095D01*
X4158571Y-13394143D01*
X4149048Y-13403667D01*
X4130000Y-13413190D01*
X4091905Y-13413190D01*
X4072857Y-13422714D01*
X4063333Y-13432238D01*
X4053809Y-13451286D01*
X4053809Y-13489381D01*
X4063333Y-13508428D01*
X4072857Y-13517952D01*
X4091905Y-13527476D01*
X4130000Y-13527476D01*
X4149048Y-13517952D01*
X4158571Y-13508428D01*
X4168095Y-13489381D01*
X4168095Y-13451286D01*
X4158571Y-13432238D01*
X4149048Y-13422714D01*
X4130000Y-13413190D01*
X4291905Y-13327476D02*
X4310952Y-13327476D01*
X4330000Y-13337000D01*
X4339524Y-13346524D01*
X4349048Y-13365571D01*
X4358571Y-13403667D01*
X4358571Y-13451286D01*
X4349048Y-13489381D01*
X4339524Y-13508428D01*
X4330000Y-13517952D01*
X4310952Y-13527476D01*
X4291905Y-13527476D01*
X4272857Y-13517952D01*
X4263333Y-13508428D01*
X4253810Y-13489381D01*
X4244286Y-13451286D01*
X4244286Y-13403667D01*
X4253810Y-13365571D01*
X4263333Y-13346524D01*
X4272857Y-13337000D01*
X4291905Y-13327476D01*
X4482381Y-13327476D02*
X4501429Y-13327476D01*
X4520476Y-13337000D01*
X4530000Y-13346524D01*
X4539524Y-13365571D01*
X4549048Y-13403667D01*
X4549048Y-13451286D01*
X4539524Y-13489381D01*
X4530000Y-13508428D01*
X4520476Y-13517952D01*
X4501429Y-13527476D01*
X4482381Y-13527476D01*
X4463333Y-13517952D01*
X4453810Y-13508428D01*
X4444286Y-13489381D01*
X4434762Y-13451286D01*
X4434762Y-13403667D01*
X4444286Y-13365571D01*
X4453810Y-13346524D01*
X4463333Y-13337000D01*
X4482381Y-13327476D01*
X4634762Y-13527476D02*
X4634762Y-13394143D01*
X4634762Y-13413190D02*
X4644286Y-13403667D01*
X4663333Y-13394143D01*
X4691905Y-13394143D01*
X4710952Y-13403667D01*
X4720476Y-13422714D01*
X4720476Y-13527476D01*
X4720476Y-13422714D02*
X4730000Y-13403667D01*
X4749048Y-13394143D01*
X4777619Y-13394143D01*
X4796667Y-13403667D01*
X4806190Y-13422714D01*
X4806190Y-13527476D01*
X4901429Y-13527476D02*
X4901429Y-13394143D01*
X4901429Y-13413190D02*
X4910952Y-13403667D01*
X4930000Y-13394143D01*
X4958571Y-13394143D01*
X4977619Y-13403667D01*
X4987143Y-13422714D01*
X4987143Y-13527476D01*
X4987143Y-13422714D02*
X4996667Y-13403667D01*
X5015714Y-13394143D01*
X5044286Y-13394143D01*
X5063333Y-13403667D01*
X5072857Y-13422714D01*
X5072857Y-13527476D01*
X5463333Y-13317952D02*
X5291905Y-13575095D01*
X5720476Y-13327476D02*
X5739524Y-13327476D01*
X5758571Y-13337000D01*
X5768095Y-13346524D01*
X5777619Y-13365571D01*
X5787143Y-13403667D01*
X5787143Y-13451286D01*
X5777619Y-13489381D01*
X5768095Y-13508428D01*
X5758571Y-13517952D01*
X5739524Y-13527476D01*
X5720476Y-13527476D01*
X5701428Y-13517952D01*
X5691905Y-13508428D01*
X5682381Y-13489381D01*
X5672857Y-13451286D01*
X5672857Y-13403667D01*
X5682381Y-13365571D01*
X5691905Y-13346524D01*
X5701428Y-13337000D01*
X5720476Y-13327476D01*
X5872857Y-13508428D02*
X5882381Y-13517952D01*
X5872857Y-13527476D01*
X5863333Y-13517952D01*
X5872857Y-13508428D01*
X5872857Y-13527476D01*
X6006190Y-13327476D02*
X6025238Y-13327476D01*
X6044286Y-13337000D01*
X6053809Y-13346524D01*
X6063333Y-13365571D01*
X6072857Y-13403667D01*
X6072857Y-13451286D01*
X6063333Y-13489381D01*
X6053809Y-13508428D01*
X6044286Y-13517952D01*
X6025238Y-13527476D01*
X6006190Y-13527476D01*
X5987143Y-13517952D01*
X5977619Y-13508428D01*
X5968095Y-13489381D01*
X5958571Y-13451286D01*
X5958571Y-13403667D01*
X5968095Y-13365571D01*
X5977619Y-13346524D01*
X5987143Y-13337000D01*
X6006190Y-13327476D01*
X6139524Y-13327476D02*
X6263333Y-13327476D01*
X6196667Y-13403667D01*
X6225238Y-13403667D01*
X6244286Y-13413190D01*
X6253809Y-13422714D01*
X6263333Y-13441762D01*
X6263333Y-13489381D01*
X6253809Y-13508428D01*
X6244286Y-13517952D01*
X6225238Y-13527476D01*
X6168095Y-13527476D01*
X6149048Y-13517952D01*
X6139524Y-13508428D01*
X6453809Y-13527476D02*
X6339524Y-13527476D01*
X6396667Y-13527476D02*
X6396667Y-13327476D01*
X6377619Y-13356048D01*
X6358571Y-13375095D01*
X6339524Y-13384619D01*
X6634762Y-13327476D02*
X6539524Y-13327476D01*
X6530000Y-13422714D01*
X6539524Y-13413190D01*
X6558571Y-13403667D01*
X6606190Y-13403667D01*
X6625238Y-13413190D01*
X6634762Y-13422714D01*
X6644286Y-13441762D01*
X6644286Y-13489381D01*
X6634762Y-13508428D01*
X6625238Y-13517952D01*
X6606190Y-13527476D01*
X6558571Y-13527476D01*
X6539524Y-13517952D01*
X6530000Y-13508428D01*
X6720476Y-13327476D02*
X6720476Y-13365571D01*
X6796667Y-13327476D02*
X6796667Y-13365571D01*
X7091905Y-13603667D02*
X7082381Y-13594143D01*
X7063333Y-13565571D01*
X7053809Y-13546524D01*
X7044286Y-13517952D01*
X7034762Y-13470333D01*
X7034762Y-13432238D01*
X7044286Y-13384619D01*
X7053809Y-13356048D01*
X7063333Y-13337000D01*
X7082381Y-13308428D01*
X7091905Y-13298905D01*
X7149048Y-13327476D02*
X7272857Y-13327476D01*
X7206190Y-13403667D01*
X7234762Y-13403667D01*
X7253809Y-13413190D01*
X7263333Y-13422714D01*
X7272857Y-13441762D01*
X7272857Y-13489381D01*
X7263333Y-13508428D01*
X7253809Y-13517952D01*
X7234762Y-13527476D01*
X7177619Y-13527476D01*
X7158571Y-13517952D01*
X7149048Y-13508428D01*
X7444286Y-13327476D02*
X7406190Y-13327476D01*
X7387143Y-13337000D01*
X7377619Y-13346524D01*
X7358571Y-13375095D01*
X7349048Y-13413190D01*
X7349048Y-13489381D01*
X7358571Y-13508428D01*
X7368095Y-13517952D01*
X7387143Y-13527476D01*
X7425238Y-13527476D01*
X7444286Y-13517952D01*
X7453809Y-13508428D01*
X7463333Y-13489381D01*
X7463333Y-13441762D01*
X7453809Y-13422714D01*
X7444286Y-13413190D01*
X7425238Y-13403667D01*
X7387143Y-13403667D01*
X7368095Y-13413190D01*
X7358571Y-13422714D01*
X7349048Y-13441762D01*
X7701428Y-13527476D02*
X7701428Y-13327476D01*
X7787143Y-13527476D02*
X7787143Y-13422714D01*
X7777619Y-13403667D01*
X7758571Y-13394143D01*
X7730000Y-13394143D01*
X7710952Y-13403667D01*
X7701428Y-13413190D01*
X7910952Y-13527476D02*
X7891905Y-13517952D01*
X7882381Y-13508428D01*
X7872857Y-13489381D01*
X7872857Y-13432238D01*
X7882381Y-13413190D01*
X7891905Y-13403667D01*
X7910952Y-13394143D01*
X7939524Y-13394143D01*
X7958571Y-13403667D01*
X7968095Y-13413190D01*
X7977619Y-13432238D01*
X7977619Y-13489381D01*
X7968095Y-13508428D01*
X7958571Y-13517952D01*
X7939524Y-13527476D01*
X7910952Y-13527476D01*
X8091905Y-13527476D02*
X8072857Y-13517952D01*
X8063333Y-13498905D01*
X8063333Y-13327476D01*
X8244286Y-13517952D02*
X8225238Y-13527476D01*
X8187143Y-13527476D01*
X8168095Y-13517952D01*
X8158571Y-13498905D01*
X8158571Y-13422714D01*
X8168095Y-13403667D01*
X8187143Y-13394143D01*
X8225238Y-13394143D01*
X8244286Y-13403667D01*
X8253809Y-13422714D01*
X8253809Y-13441762D01*
X8158571Y-13460809D01*
X8330000Y-13517952D02*
X8349048Y-13527476D01*
X8387143Y-13527476D01*
X8406190Y-13517952D01*
X8415714Y-13498905D01*
X8415714Y-13489381D01*
X8406190Y-13470333D01*
X8387143Y-13460809D01*
X8358571Y-13460809D01*
X8339524Y-13451286D01*
X8330000Y-13432238D01*
X8330000Y-13422714D01*
X8339524Y-13403667D01*
X8358571Y-13394143D01*
X8387143Y-13394143D01*
X8406190Y-13403667D01*
X8482381Y-13603667D02*
X8491905Y-13594143D01*
X8510952Y-13565571D01*
X8520476Y-13546524D01*
X8530000Y-13517952D01*
X8539524Y-13470333D01*
X8539524Y-13432238D01*
X8530000Y-13384619D01*
X8520476Y-13356048D01*
X8510952Y-13337000D01*
X8491905Y-13308428D01*
X8482381Y-13298905D01*
D16*
X3470000Y-13751000D02*
X3520000Y-13701000D01*
X3470000Y-13651000D01*
X3420000Y-13701000D01*
X3470000Y-13751000D01*
D11*
X3882381Y-13791476D02*
X3768095Y-13791476D01*
X3825238Y-13791476D02*
X3825238Y-13591476D01*
X3806190Y-13620048D01*
X3787143Y-13639095D01*
X3768095Y-13648619D01*
X3968095Y-13772428D02*
X3977619Y-13781952D01*
X3968095Y-13791476D01*
X3958571Y-13781952D01*
X3968095Y-13772428D01*
X3968095Y-13791476D01*
X4101428Y-13591476D02*
X4120476Y-13591476D01*
X4139524Y-13601000D01*
X4149048Y-13610524D01*
X4158571Y-13629571D01*
X4168095Y-13667667D01*
X4168095Y-13715286D01*
X4158571Y-13753381D01*
X4149048Y-13772428D01*
X4139524Y-13781952D01*
X4120476Y-13791476D01*
X4101428Y-13791476D01*
X4082381Y-13781952D01*
X4072857Y-13772428D01*
X4063333Y-13753381D01*
X4053809Y-13715286D01*
X4053809Y-13667667D01*
X4063333Y-13629571D01*
X4072857Y-13610524D01*
X4082381Y-13601000D01*
X4101428Y-13591476D01*
X4291905Y-13591476D02*
X4310952Y-13591476D01*
X4330000Y-13601000D01*
X4339524Y-13610524D01*
X4349048Y-13629571D01*
X4358571Y-13667667D01*
X4358571Y-13715286D01*
X4349048Y-13753381D01*
X4339524Y-13772428D01*
X4330000Y-13781952D01*
X4310952Y-13791476D01*
X4291905Y-13791476D01*
X4272857Y-13781952D01*
X4263333Y-13772428D01*
X4253810Y-13753381D01*
X4244286Y-13715286D01*
X4244286Y-13667667D01*
X4253810Y-13629571D01*
X4263333Y-13610524D01*
X4272857Y-13601000D01*
X4291905Y-13591476D01*
X4482381Y-13591476D02*
X4501429Y-13591476D01*
X4520476Y-13601000D01*
X4530000Y-13610524D01*
X4539524Y-13629571D01*
X4549048Y-13667667D01*
X4549048Y-13715286D01*
X4539524Y-13753381D01*
X4530000Y-13772428D01*
X4520476Y-13781952D01*
X4501429Y-13791476D01*
X4482381Y-13791476D01*
X4463333Y-13781952D01*
X4453810Y-13772428D01*
X4444286Y-13753381D01*
X4434762Y-13715286D01*
X4434762Y-13667667D01*
X4444286Y-13629571D01*
X4453810Y-13610524D01*
X4463333Y-13601000D01*
X4482381Y-13591476D01*
X4634762Y-13791476D02*
X4634762Y-13658143D01*
X4634762Y-13677190D02*
X4644286Y-13667667D01*
X4663333Y-13658143D01*
X4691905Y-13658143D01*
X4710952Y-13667667D01*
X4720476Y-13686714D01*
X4720476Y-13791476D01*
X4720476Y-13686714D02*
X4730000Y-13667667D01*
X4749048Y-13658143D01*
X4777619Y-13658143D01*
X4796667Y-13667667D01*
X4806190Y-13686714D01*
X4806190Y-13791476D01*
X4901429Y-13791476D02*
X4901429Y-13658143D01*
X4901429Y-13677190D02*
X4910952Y-13667667D01*
X4930000Y-13658143D01*
X4958571Y-13658143D01*
X4977619Y-13667667D01*
X4987143Y-13686714D01*
X4987143Y-13791476D01*
X4987143Y-13686714D02*
X4996667Y-13667667D01*
X5015714Y-13658143D01*
X5044286Y-13658143D01*
X5063333Y-13667667D01*
X5072857Y-13686714D01*
X5072857Y-13791476D01*
X5463333Y-13581952D02*
X5291905Y-13839095D01*
X5720476Y-13591476D02*
X5739524Y-13591476D01*
X5758571Y-13601000D01*
X5768095Y-13610524D01*
X5777619Y-13629571D01*
X5787143Y-13667667D01*
X5787143Y-13715286D01*
X5777619Y-13753381D01*
X5768095Y-13772428D01*
X5758571Y-13781952D01*
X5739524Y-13791476D01*
X5720476Y-13791476D01*
X5701428Y-13781952D01*
X5691905Y-13772428D01*
X5682381Y-13753381D01*
X5672857Y-13715286D01*
X5672857Y-13667667D01*
X5682381Y-13629571D01*
X5691905Y-13610524D01*
X5701428Y-13601000D01*
X5720476Y-13591476D01*
X5872857Y-13772428D02*
X5882381Y-13781952D01*
X5872857Y-13791476D01*
X5863333Y-13781952D01*
X5872857Y-13772428D01*
X5872857Y-13791476D01*
X6006190Y-13591476D02*
X6025238Y-13591476D01*
X6044286Y-13601000D01*
X6053809Y-13610524D01*
X6063333Y-13629571D01*
X6072857Y-13667667D01*
X6072857Y-13715286D01*
X6063333Y-13753381D01*
X6053809Y-13772428D01*
X6044286Y-13781952D01*
X6025238Y-13791476D01*
X6006190Y-13791476D01*
X5987143Y-13781952D01*
X5977619Y-13772428D01*
X5968095Y-13753381D01*
X5958571Y-13715286D01*
X5958571Y-13667667D01*
X5968095Y-13629571D01*
X5977619Y-13610524D01*
X5987143Y-13601000D01*
X6006190Y-13591476D01*
X6139524Y-13591476D02*
X6263333Y-13591476D01*
X6196667Y-13667667D01*
X6225238Y-13667667D01*
X6244286Y-13677190D01*
X6253809Y-13686714D01*
X6263333Y-13705762D01*
X6263333Y-13753381D01*
X6253809Y-13772428D01*
X6244286Y-13781952D01*
X6225238Y-13791476D01*
X6168095Y-13791476D01*
X6149048Y-13781952D01*
X6139524Y-13772428D01*
X6358571Y-13791476D02*
X6396667Y-13791476D01*
X6415714Y-13781952D01*
X6425238Y-13772428D01*
X6444286Y-13743857D01*
X6453809Y-13705762D01*
X6453809Y-13629571D01*
X6444286Y-13610524D01*
X6434762Y-13601000D01*
X6415714Y-13591476D01*
X6377619Y-13591476D01*
X6358571Y-13601000D01*
X6349048Y-13610524D01*
X6339524Y-13629571D01*
X6339524Y-13677190D01*
X6349048Y-13696238D01*
X6358571Y-13705762D01*
X6377619Y-13715286D01*
X6415714Y-13715286D01*
X6434762Y-13705762D01*
X6444286Y-13696238D01*
X6453809Y-13677190D01*
X6625238Y-13658143D02*
X6625238Y-13791476D01*
X6577619Y-13581952D02*
X6530000Y-13724809D01*
X6653809Y-13724809D01*
X6720476Y-13591476D02*
X6720476Y-13629571D01*
X6796667Y-13591476D02*
X6796667Y-13629571D01*
X7091905Y-13867667D02*
X7082381Y-13858143D01*
X7063333Y-13829571D01*
X7053809Y-13810524D01*
X7044286Y-13781952D01*
X7034762Y-13734333D01*
X7034762Y-13696238D01*
X7044286Y-13648619D01*
X7053809Y-13620048D01*
X7063333Y-13601000D01*
X7082381Y-13572428D01*
X7091905Y-13562905D01*
X7272857Y-13791476D02*
X7158571Y-13791476D01*
X7215714Y-13791476D02*
X7215714Y-13591476D01*
X7196667Y-13620048D01*
X7177619Y-13639095D01*
X7158571Y-13648619D01*
X7387143Y-13677190D02*
X7368095Y-13667667D01*
X7358571Y-13658143D01*
X7349048Y-13639095D01*
X7349048Y-13629571D01*
X7358571Y-13610524D01*
X7368095Y-13601000D01*
X7387143Y-13591476D01*
X7425238Y-13591476D01*
X7444286Y-13601000D01*
X7453809Y-13610524D01*
X7463333Y-13629571D01*
X7463333Y-13639095D01*
X7453809Y-13658143D01*
X7444286Y-13667667D01*
X7425238Y-13677190D01*
X7387143Y-13677190D01*
X7368095Y-13686714D01*
X7358571Y-13696238D01*
X7349048Y-13715286D01*
X7349048Y-13753381D01*
X7358571Y-13772428D01*
X7368095Y-13781952D01*
X7387143Y-13791476D01*
X7425238Y-13791476D01*
X7444286Y-13781952D01*
X7453809Y-13772428D01*
X7463333Y-13753381D01*
X7463333Y-13715286D01*
X7453809Y-13696238D01*
X7444286Y-13686714D01*
X7425238Y-13677190D01*
X7701428Y-13791476D02*
X7701428Y-13591476D01*
X7787143Y-13791476D02*
X7787143Y-13686714D01*
X7777619Y-13667667D01*
X7758571Y-13658143D01*
X7730000Y-13658143D01*
X7710952Y-13667667D01*
X7701428Y-13677190D01*
X7910952Y-13791476D02*
X7891905Y-13781952D01*
X7882381Y-13772428D01*
X7872857Y-13753381D01*
X7872857Y-13696238D01*
X7882381Y-13677190D01*
X7891905Y-13667667D01*
X7910952Y-13658143D01*
X7939524Y-13658143D01*
X7958571Y-13667667D01*
X7968095Y-13677190D01*
X7977619Y-13696238D01*
X7977619Y-13753381D01*
X7968095Y-13772428D01*
X7958571Y-13781952D01*
X7939524Y-13791476D01*
X7910952Y-13791476D01*
X8091905Y-13791476D02*
X8072857Y-13781952D01*
X8063333Y-13762905D01*
X8063333Y-13591476D01*
X8244286Y-13781952D02*
X8225238Y-13791476D01*
X8187143Y-13791476D01*
X8168095Y-13781952D01*
X8158571Y-13762905D01*
X8158571Y-13686714D01*
X8168095Y-13667667D01*
X8187143Y-13658143D01*
X8225238Y-13658143D01*
X8244286Y-13667667D01*
X8253809Y-13686714D01*
X8253809Y-13705762D01*
X8158571Y-13724809D01*
X8330000Y-13781952D02*
X8349048Y-13791476D01*
X8387143Y-13791476D01*
X8406190Y-13781952D01*
X8415714Y-13762905D01*
X8415714Y-13753381D01*
X8406190Y-13734333D01*
X8387143Y-13724809D01*
X8358571Y-13724809D01*
X8339524Y-13715286D01*
X8330000Y-13696238D01*
X8330000Y-13686714D01*
X8339524Y-13667667D01*
X8358571Y-13658143D01*
X8387143Y-13658143D01*
X8406190Y-13667667D01*
X8482381Y-13867667D02*
X8491905Y-13858143D01*
X8510952Y-13829571D01*
X8520476Y-13810524D01*
X8530000Y-13781952D01*
X8539524Y-13734333D01*
X8539524Y-13696238D01*
X8530000Y-13648619D01*
X8520476Y-13620048D01*
X8510952Y-13601000D01*
X8491905Y-13572428D01*
X8482381Y-13562905D01*
D17*
X3410000Y-13910000D02*
X3520000Y-14020000D01*
X3520000Y-13910000D02*
X3410000Y-14020000D01*
X3520000Y-13965000D02*
G75*
G03*
X3520000Y-13965000I-55000J0D01*
G01*
D11*
X3882381Y-14055476D02*
X3768095Y-14055476D01*
X3825238Y-14055476D02*
X3825238Y-13855476D01*
X3806190Y-13884048D01*
X3787143Y-13903095D01*
X3768095Y-13912619D01*
X3968095Y-14036428D02*
X3977619Y-14045952D01*
X3968095Y-14055476D01*
X3958571Y-14045952D01*
X3968095Y-14036428D01*
X3968095Y-14055476D01*
X4168095Y-14055476D02*
X4053809Y-14055476D01*
X4110952Y-14055476D02*
X4110952Y-13855476D01*
X4091905Y-13884048D01*
X4072857Y-13903095D01*
X4053809Y-13912619D01*
X4291905Y-13855476D02*
X4310952Y-13855476D01*
X4330000Y-13865000D01*
X4339524Y-13874524D01*
X4349048Y-13893571D01*
X4358571Y-13931667D01*
X4358571Y-13979286D01*
X4349048Y-14017381D01*
X4339524Y-14036428D01*
X4330000Y-14045952D01*
X4310952Y-14055476D01*
X4291905Y-14055476D01*
X4272857Y-14045952D01*
X4263333Y-14036428D01*
X4253810Y-14017381D01*
X4244286Y-13979286D01*
X4244286Y-13931667D01*
X4253810Y-13893571D01*
X4263333Y-13874524D01*
X4272857Y-13865000D01*
X4291905Y-13855476D01*
X4482381Y-13855476D02*
X4501429Y-13855476D01*
X4520476Y-13865000D01*
X4530000Y-13874524D01*
X4539524Y-13893571D01*
X4549048Y-13931667D01*
X4549048Y-13979286D01*
X4539524Y-14017381D01*
X4530000Y-14036428D01*
X4520476Y-14045952D01*
X4501429Y-14055476D01*
X4482381Y-14055476D01*
X4463333Y-14045952D01*
X4453810Y-14036428D01*
X4444286Y-14017381D01*
X4434762Y-13979286D01*
X4434762Y-13931667D01*
X4444286Y-13893571D01*
X4453810Y-13874524D01*
X4463333Y-13865000D01*
X4482381Y-13855476D01*
X4634762Y-14055476D02*
X4634762Y-13922143D01*
X4634762Y-13941190D02*
X4644286Y-13931667D01*
X4663333Y-13922143D01*
X4691905Y-13922143D01*
X4710952Y-13931667D01*
X4720476Y-13950714D01*
X4720476Y-14055476D01*
X4720476Y-13950714D02*
X4730000Y-13931667D01*
X4749048Y-13922143D01*
X4777619Y-13922143D01*
X4796667Y-13931667D01*
X4806190Y-13950714D01*
X4806190Y-14055476D01*
X4901429Y-14055476D02*
X4901429Y-13922143D01*
X4901429Y-13941190D02*
X4910952Y-13931667D01*
X4930000Y-13922143D01*
X4958571Y-13922143D01*
X4977619Y-13931667D01*
X4987143Y-13950714D01*
X4987143Y-14055476D01*
X4987143Y-13950714D02*
X4996667Y-13931667D01*
X5015714Y-13922143D01*
X5044286Y-13922143D01*
X5063333Y-13931667D01*
X5072857Y-13950714D01*
X5072857Y-14055476D01*
X5463333Y-13845952D02*
X5291905Y-14103095D01*
X5720476Y-13855476D02*
X5739524Y-13855476D01*
X5758571Y-13865000D01*
X5768095Y-13874524D01*
X5777619Y-13893571D01*
X5787143Y-13931667D01*
X5787143Y-13979286D01*
X5777619Y-14017381D01*
X5768095Y-14036428D01*
X5758571Y-14045952D01*
X5739524Y-14055476D01*
X5720476Y-14055476D01*
X5701428Y-14045952D01*
X5691905Y-14036428D01*
X5682381Y-14017381D01*
X5672857Y-13979286D01*
X5672857Y-13931667D01*
X5682381Y-13893571D01*
X5691905Y-13874524D01*
X5701428Y-13865000D01*
X5720476Y-13855476D01*
X5872857Y-14036428D02*
X5882381Y-14045952D01*
X5872857Y-14055476D01*
X5863333Y-14045952D01*
X5872857Y-14036428D01*
X5872857Y-14055476D01*
X6006190Y-13855476D02*
X6025238Y-13855476D01*
X6044286Y-13865000D01*
X6053809Y-13874524D01*
X6063333Y-13893571D01*
X6072857Y-13931667D01*
X6072857Y-13979286D01*
X6063333Y-14017381D01*
X6053809Y-14036428D01*
X6044286Y-14045952D01*
X6025238Y-14055476D01*
X6006190Y-14055476D01*
X5987143Y-14045952D01*
X5977619Y-14036428D01*
X5968095Y-14017381D01*
X5958571Y-13979286D01*
X5958571Y-13931667D01*
X5968095Y-13893571D01*
X5977619Y-13874524D01*
X5987143Y-13865000D01*
X6006190Y-13855476D01*
X6244286Y-13922143D02*
X6244286Y-14055476D01*
X6196667Y-13845952D02*
X6149048Y-13988809D01*
X6272857Y-13988809D01*
X6330000Y-13855476D02*
X6453809Y-13855476D01*
X6387143Y-13931667D01*
X6415714Y-13931667D01*
X6434762Y-13941190D01*
X6444286Y-13950714D01*
X6453809Y-13969762D01*
X6453809Y-14017381D01*
X6444286Y-14036428D01*
X6434762Y-14045952D01*
X6415714Y-14055476D01*
X6358571Y-14055476D01*
X6339524Y-14045952D01*
X6330000Y-14036428D01*
X6520476Y-13855476D02*
X6644286Y-13855476D01*
X6577619Y-13931667D01*
X6606190Y-13931667D01*
X6625238Y-13941190D01*
X6634762Y-13950714D01*
X6644286Y-13969762D01*
X6644286Y-14017381D01*
X6634762Y-14036428D01*
X6625238Y-14045952D01*
X6606190Y-14055476D01*
X6549048Y-14055476D01*
X6530000Y-14045952D01*
X6520476Y-14036428D01*
X6720476Y-13855476D02*
X6720476Y-13893571D01*
X6796667Y-13855476D02*
X6796667Y-13893571D01*
X7091905Y-14131667D02*
X7082381Y-14122143D01*
X7063333Y-14093571D01*
X7053809Y-14074524D01*
X7044286Y-14045952D01*
X7034762Y-13998333D01*
X7034762Y-13960238D01*
X7044286Y-13912619D01*
X7053809Y-13884048D01*
X7063333Y-13865000D01*
X7082381Y-13836428D01*
X7091905Y-13826905D01*
X7253809Y-13922143D02*
X7253809Y-14055476D01*
X7206190Y-13845952D02*
X7158571Y-13988809D01*
X7282381Y-13988809D01*
X7510952Y-14055476D02*
X7510952Y-13855476D01*
X7596667Y-14055476D02*
X7596667Y-13950714D01*
X7587143Y-13931667D01*
X7568095Y-13922143D01*
X7539524Y-13922143D01*
X7520476Y-13931667D01*
X7510952Y-13941190D01*
X7720476Y-14055476D02*
X7701428Y-14045952D01*
X7691905Y-14036428D01*
X7682381Y-14017381D01*
X7682381Y-13960238D01*
X7691905Y-13941190D01*
X7701428Y-13931667D01*
X7720476Y-13922143D01*
X7749048Y-13922143D01*
X7768095Y-13931667D01*
X7777619Y-13941190D01*
X7787143Y-13960238D01*
X7787143Y-14017381D01*
X7777619Y-14036428D01*
X7768095Y-14045952D01*
X7749048Y-14055476D01*
X7720476Y-14055476D01*
X7901428Y-14055476D02*
X7882381Y-14045952D01*
X7872857Y-14026905D01*
X7872857Y-13855476D01*
X8053809Y-14045952D02*
X8034762Y-14055476D01*
X7996667Y-14055476D01*
X7977619Y-14045952D01*
X7968095Y-14026905D01*
X7968095Y-13950714D01*
X7977619Y-13931667D01*
X7996667Y-13922143D01*
X8034762Y-13922143D01*
X8053809Y-13931667D01*
X8063333Y-13950714D01*
X8063333Y-13969762D01*
X7968095Y-13988809D01*
X8139524Y-14045952D02*
X8158571Y-14055476D01*
X8196667Y-14055476D01*
X8215714Y-14045952D01*
X8225238Y-14026905D01*
X8225238Y-14017381D01*
X8215714Y-13998333D01*
X8196667Y-13988809D01*
X8168095Y-13988809D01*
X8149048Y-13979286D01*
X8139524Y-13960238D01*
X8139524Y-13950714D01*
X8149048Y-13931667D01*
X8168095Y-13922143D01*
X8196667Y-13922143D01*
X8215714Y-13931667D01*
X8291905Y-14131667D02*
X8301428Y-14122143D01*
X8320476Y-14093571D01*
X8330000Y-14074524D01*
X8339524Y-14045952D01*
X8349048Y-13998333D01*
X8349048Y-13960238D01*
X8339524Y-13912619D01*
X8330000Y-13884048D01*
X8320476Y-13865000D01*
X8301428Y-13836428D01*
X8291905Y-13826905D01*
M02*
