G04 #@! TF.GenerationSoftware,KiCad,Pcbnew,(6.0.8)*
G04 #@! TF.CreationDate,2023-03-12T22:57:18+11:00*
G04 #@! TF.ProjectId,test_microcontroller,74657374-5f6d-4696-9372-6f636f6e7472,rev?*
G04 #@! TF.SameCoordinates,Original*
G04 #@! TF.FileFunction,Paste,Top*
G04 #@! TF.FilePolarity,Positive*
%FSLAX46Y46*%
G04 Gerber Fmt 4.6, Leading zero omitted, Abs format (unit mm)*
G04 Created by KiCad (PCBNEW (6.0.8)) date 2023-03-12 22:57:18*
%MOMM*%
%LPD*%
G01*
G04 APERTURE LIST*
%ADD10R,0.600000X1.450000*%
%ADD11R,0.300000X1.450000*%
%ADD12R,1.600000X0.550000*%
%ADD13R,0.550000X1.600000*%
G04 APERTURE END LIST*
D10*
X82250000Y-27255000D03*
X81450000Y-27255000D03*
D11*
X80250000Y-27255000D03*
X79250000Y-27255000D03*
X78750000Y-27255000D03*
X77750000Y-27255000D03*
D10*
X76550000Y-27255000D03*
X75750000Y-27255000D03*
X75750000Y-27255000D03*
X76550000Y-27255000D03*
D11*
X77250000Y-27255000D03*
X78250000Y-27255000D03*
X79750000Y-27255000D03*
X80750000Y-27255000D03*
D10*
X81450000Y-27255000D03*
X82250000Y-27255000D03*
D12*
X50000000Y-45200000D03*
X50000000Y-46000000D03*
X50000000Y-46800000D03*
X50000000Y-47600000D03*
X50000000Y-48400000D03*
X50000000Y-49200000D03*
X50000000Y-50000000D03*
X50000000Y-50800000D03*
D13*
X51450000Y-52250000D03*
X52250000Y-52250000D03*
X53050000Y-52250000D03*
X53850000Y-52250000D03*
X54650000Y-52250000D03*
X55450000Y-52250000D03*
X56250000Y-52250000D03*
X57050000Y-52250000D03*
D12*
X58500000Y-50800000D03*
X58500000Y-50000000D03*
X58500000Y-49200000D03*
X58500000Y-48400000D03*
X58500000Y-47600000D03*
X58500000Y-46800000D03*
X58500000Y-46000000D03*
X58500000Y-45200000D03*
D13*
X57050000Y-43750000D03*
X56250000Y-43750000D03*
X55450000Y-43750000D03*
X54650000Y-43750000D03*
X53850000Y-43750000D03*
X53050000Y-43750000D03*
X52250000Y-43750000D03*
X51450000Y-43750000D03*
M02*
