G04 #@! TF.GenerationSoftware,KiCad,Pcbnew,(6.0.5)*
G04 #@! TF.CreationDate,2022-08-13T18:19:54+10:00*
G04 #@! TF.ProjectId,test_microcontroller,74657374-5f6d-4696-9372-6f636f6e7472,rev?*
G04 #@! TF.SameCoordinates,Original*
G04 #@! TF.FileFunction,Soldermask,Top*
G04 #@! TF.FilePolarity,Negative*
%FSLAX46Y46*%
G04 Gerber Fmt 4.6, Leading zero omitted, Abs format (unit mm)*
G04 Created by KiCad (PCBNEW (6.0.5)) date 2022-08-13 18:19:54*
%MOMM*%
%LPD*%
G01*
G04 APERTURE LIST*
%ADD10R,1.600000X1.600000*%
%ADD11O,1.600000X1.600000*%
%ADD12R,1.508000X1.508000*%
%ADD13C,1.508000*%
%ADD14C,1.600000*%
%ADD15C,1.400000*%
%ADD16O,1.400000X1.400000*%
%ADD17R,1.200000X1.200000*%
%ADD18C,1.200000*%
%ADD19R,1.350000X1.350000*%
%ADD20O,1.350000X1.350000*%
%ADD21C,0.650000*%
%ADD22R,0.600000X1.450000*%
%ADD23R,0.300000X1.450000*%
%ADD24O,1.000000X1.600000*%
%ADD25O,1.000000X2.100000*%
%ADD26C,2.000000*%
%ADD27R,1.600000X0.550000*%
%ADD28R,0.550000X1.600000*%
%ADD29R,1.000000X0.800000*%
%ADD30R,2.000000X4.500000*%
G04 APERTURE END LIST*
D10*
X43500000Y-74690000D03*
D11*
X43500000Y-82310000D03*
D12*
X65821850Y-97375000D03*
D13*
X70825650Y-97375000D03*
D12*
X83498100Y-97375000D03*
D13*
X88501900Y-97375000D03*
D12*
X65821850Y-82250000D03*
D13*
X70825650Y-82250000D03*
D12*
X65821850Y-112500000D03*
D13*
X70825650Y-112500000D03*
D14*
X37500000Y-50000000D03*
X40000000Y-50000000D03*
D10*
X61000000Y-74690000D03*
D11*
X61000000Y-82310000D03*
D15*
X86500000Y-26460000D03*
D16*
X91580000Y-26460000D03*
D14*
X80500000Y-44000000D03*
X80500000Y-49000000D03*
D17*
X55500000Y-39250000D03*
D18*
X55500000Y-37750000D03*
D19*
X57000000Y-26500000D03*
D20*
X57000000Y-28500000D03*
X55000000Y-26500000D03*
X55000000Y-28500000D03*
X53000000Y-26500000D03*
X53000000Y-28500000D03*
D15*
X42250000Y-34500000D03*
D16*
X47330000Y-34500000D03*
D14*
X71666668Y-44000000D03*
X71666668Y-49000000D03*
D15*
X80250000Y-31210000D03*
D16*
X80250000Y-36290000D03*
D21*
X76110000Y-25810000D03*
X81890000Y-25810000D03*
D22*
X82250000Y-27255000D03*
X81450000Y-27255000D03*
D23*
X80250000Y-27255000D03*
X79250000Y-27255000D03*
X78750000Y-27255000D03*
X77750000Y-27255000D03*
D22*
X76550000Y-27255000D03*
X75750000Y-27255000D03*
X75750000Y-27255000D03*
X76550000Y-27255000D03*
D23*
X77250000Y-27255000D03*
X78250000Y-27255000D03*
X79750000Y-27255000D03*
X80750000Y-27255000D03*
D22*
X81450000Y-27255000D03*
X82250000Y-27255000D03*
D24*
X74680000Y-22160000D03*
X83320000Y-22160000D03*
D25*
X83320000Y-26340000D03*
X74680000Y-26340000D03*
D10*
X78500000Y-104940000D03*
D11*
X78500000Y-112560000D03*
D15*
X75250000Y-31170000D03*
D16*
X75250000Y-36250000D03*
D12*
X48145600Y-82250000D03*
D13*
X53149400Y-82250000D03*
D26*
X46750000Y-25000000D03*
X40250000Y-25000000D03*
X46750000Y-29500000D03*
X40250000Y-29500000D03*
D27*
X50000000Y-45200000D03*
X50000000Y-46000000D03*
X50000000Y-46800000D03*
X50000000Y-47600000D03*
X50000000Y-48400000D03*
X50000000Y-49200000D03*
X50000000Y-50000000D03*
X50000000Y-50800000D03*
D28*
X51450000Y-52250000D03*
X52250000Y-52250000D03*
X53050000Y-52250000D03*
X53850000Y-52250000D03*
X54650000Y-52250000D03*
X55450000Y-52250000D03*
X56250000Y-52250000D03*
X57050000Y-52250000D03*
D27*
X58500000Y-50800000D03*
X58500000Y-50000000D03*
X58500000Y-49200000D03*
X58500000Y-48400000D03*
X58500000Y-47600000D03*
X58500000Y-46800000D03*
X58500000Y-46000000D03*
X58500000Y-45200000D03*
D28*
X57050000Y-43750000D03*
X56250000Y-43750000D03*
X55450000Y-43750000D03*
X54650000Y-43750000D03*
X53850000Y-43750000D03*
X53050000Y-43750000D03*
X52250000Y-43750000D03*
X51450000Y-43750000D03*
D12*
X83498100Y-82250000D03*
D13*
X88501900Y-82250000D03*
D17*
X71500000Y-27960000D03*
D18*
X70000000Y-27960000D03*
D15*
X77750000Y-31210000D03*
D16*
X77750000Y-36290000D03*
D15*
X82750000Y-31210000D03*
D16*
X82750000Y-36290000D03*
D29*
X55500000Y-67450000D03*
X55500000Y-66050000D03*
X53000000Y-66050000D03*
X53000000Y-67450000D03*
D12*
X48145600Y-112500000D03*
D13*
X53149400Y-112500000D03*
D15*
X53000000Y-57250000D03*
D16*
X53000000Y-62330000D03*
D10*
X43500000Y-89690000D03*
D11*
X43500000Y-97310000D03*
D12*
X48145600Y-97375000D03*
D13*
X53149400Y-97375000D03*
D12*
X83498100Y-112500000D03*
D13*
X88501900Y-112500000D03*
D14*
X37500000Y-41500000D03*
X40000000Y-41500000D03*
D10*
X43500000Y-104940000D03*
D11*
X43500000Y-112560000D03*
D14*
X76083334Y-44000000D03*
X76083334Y-49000000D03*
D10*
X78500000Y-89690000D03*
D11*
X78500000Y-97310000D03*
D10*
X61000000Y-89690000D03*
D11*
X61000000Y-97310000D03*
D10*
X61000000Y-104940000D03*
D11*
X61000000Y-112560000D03*
D10*
X78500000Y-74690000D03*
D11*
X78500000Y-82310000D03*
D30*
X44500000Y-50000000D03*
X44500000Y-41500000D03*
D15*
X55500000Y-57250000D03*
D16*
X55500000Y-62330000D03*
D14*
X67250000Y-44000000D03*
X67250000Y-49000000D03*
M02*
