G04 #@! TF.GenerationSoftware,KiCad,Pcbnew,(6.0.8)*
G04 #@! TF.CreationDate,2023-03-12T22:57:18+11:00*
G04 #@! TF.ProjectId,test_microcontroller,74657374-5f6d-4696-9372-6f636f6e7472,rev?*
G04 #@! TF.SameCoordinates,Original*
G04 #@! TF.FileFunction,Copper,L2,Bot*
G04 #@! TF.FilePolarity,Positive*
%FSLAX46Y46*%
G04 Gerber Fmt 4.6, Leading zero omitted, Abs format (unit mm)*
G04 Created by KiCad (PCBNEW (6.0.8)) date 2023-03-12 22:57:18*
%MOMM*%
%LPD*%
G01*
G04 APERTURE LIST*
G04 #@! TA.AperFunction,ComponentPad*
%ADD10R,1.600000X1.600000*%
G04 #@! TD*
G04 #@! TA.AperFunction,ComponentPad*
%ADD11O,1.600000X1.600000*%
G04 #@! TD*
G04 #@! TA.AperFunction,ComponentPad*
%ADD12R,1.508000X1.508000*%
G04 #@! TD*
G04 #@! TA.AperFunction,ComponentPad*
%ADD13C,1.508000*%
G04 #@! TD*
G04 #@! TA.AperFunction,ComponentPad*
%ADD14C,1.600000*%
G04 #@! TD*
G04 #@! TA.AperFunction,ComponentPad*
%ADD15C,1.400000*%
G04 #@! TD*
G04 #@! TA.AperFunction,ComponentPad*
%ADD16O,1.400000X1.400000*%
G04 #@! TD*
G04 #@! TA.AperFunction,ComponentPad*
%ADD17R,1.200000X1.200000*%
G04 #@! TD*
G04 #@! TA.AperFunction,ComponentPad*
%ADD18C,1.200000*%
G04 #@! TD*
G04 #@! TA.AperFunction,ComponentPad*
%ADD19R,1.700000X1.700000*%
G04 #@! TD*
G04 #@! TA.AperFunction,ComponentPad*
%ADD20O,1.700000X1.700000*%
G04 #@! TD*
G04 #@! TA.AperFunction,ComponentPad*
%ADD21O,1.000000X1.600000*%
G04 #@! TD*
G04 #@! TA.AperFunction,ComponentPad*
%ADD22O,1.000000X2.100000*%
G04 #@! TD*
G04 #@! TA.AperFunction,ComponentPad*
%ADD23R,1.800000X1.800000*%
G04 #@! TD*
G04 #@! TA.AperFunction,ComponentPad*
%ADD24C,1.800000*%
G04 #@! TD*
G04 #@! TA.AperFunction,ComponentPad*
%ADD25C,1.500000*%
G04 #@! TD*
G04 #@! TA.AperFunction,ViaPad*
%ADD26C,0.800000*%
G04 #@! TD*
G04 #@! TA.AperFunction,Conductor*
%ADD27C,0.250000*%
G04 #@! TD*
G04 #@! TA.AperFunction,Conductor*
%ADD28C,0.200000*%
G04 #@! TD*
G04 APERTURE END LIST*
D10*
X43500000Y-74690000D03*
D11*
X43500000Y-82310000D03*
D12*
X65821850Y-97375000D03*
D13*
X70825650Y-97375000D03*
D12*
X83498100Y-97375000D03*
D13*
X88501900Y-97375000D03*
D12*
X65821850Y-82250000D03*
D13*
X70825650Y-82250000D03*
D12*
X65821850Y-112500000D03*
D13*
X70825650Y-112500000D03*
D14*
X37500000Y-47750000D03*
X40000000Y-47750000D03*
D10*
X61000000Y-74690000D03*
D11*
X61000000Y-82310000D03*
D15*
X89000000Y-26500000D03*
D16*
X89000000Y-34120000D03*
D14*
X80500000Y-44000000D03*
X80500000Y-49000000D03*
D17*
X55500000Y-39250000D03*
D18*
X55500000Y-37750000D03*
D19*
X57000000Y-26500000D03*
D20*
X57000000Y-29040000D03*
X54460000Y-26500000D03*
X54460000Y-29040000D03*
X51920000Y-26500000D03*
X51920000Y-29040000D03*
D15*
X42250000Y-34500000D03*
D16*
X49870000Y-34500000D03*
D14*
X71666668Y-44000000D03*
X71666668Y-49000000D03*
D15*
X80250000Y-31210000D03*
D16*
X80250000Y-38830000D03*
D21*
X74680000Y-22160000D03*
X83320000Y-22160000D03*
D22*
X83320000Y-26340000D03*
X74680000Y-26340000D03*
D10*
X78500000Y-104940000D03*
D11*
X78500000Y-112560000D03*
D15*
X75250000Y-31170000D03*
D16*
X75250000Y-38790000D03*
D12*
X48145600Y-82250000D03*
D13*
X53149400Y-82250000D03*
D12*
X41498100Y-25000000D03*
D13*
X46501900Y-25000000D03*
D12*
X83498100Y-82250000D03*
D13*
X88501900Y-82250000D03*
D17*
X71500000Y-27960000D03*
D18*
X70000000Y-27960000D03*
D15*
X77750000Y-31210000D03*
D16*
X77750000Y-38830000D03*
D15*
X82750000Y-31210000D03*
D16*
X82750000Y-38830000D03*
D23*
X53000000Y-69000000D03*
D24*
X55540000Y-69000000D03*
D12*
X48145600Y-112500000D03*
D13*
X53149400Y-112500000D03*
D15*
X53000000Y-57250000D03*
D16*
X53000000Y-64870000D03*
D10*
X43500000Y-89690000D03*
D11*
X43500000Y-97310000D03*
D12*
X48145600Y-97375000D03*
D13*
X53149400Y-97375000D03*
D12*
X83498100Y-112500000D03*
D13*
X88501900Y-112500000D03*
D14*
X37500000Y-42750000D03*
X40000000Y-42750000D03*
D10*
X43500000Y-104940000D03*
D11*
X43500000Y-112560000D03*
D14*
X76083334Y-44000000D03*
X76083334Y-49000000D03*
D10*
X78500000Y-89690000D03*
D11*
X78500000Y-97310000D03*
D10*
X61000000Y-89690000D03*
D11*
X61000000Y-97310000D03*
D10*
X61000000Y-104940000D03*
D11*
X61000000Y-112560000D03*
D10*
X78500000Y-74690000D03*
D11*
X78500000Y-82310000D03*
D25*
X44250000Y-47700000D03*
X44250000Y-42820000D03*
D15*
X56500000Y-56190000D03*
D16*
X56500000Y-63810000D03*
D14*
X67250000Y-44000000D03*
X67250000Y-49000000D03*
D26*
X49500000Y-41750000D03*
X54750000Y-48500000D03*
X53000000Y-40500000D03*
X77750000Y-41199500D03*
X54000000Y-41199500D03*
X53250000Y-103500000D03*
X53250000Y-106000000D03*
X57250000Y-76250000D03*
X57250000Y-73000000D03*
X53250000Y-91000000D03*
X53250000Y-88500000D03*
X70750000Y-76250000D03*
X71000000Y-91000000D03*
X70750000Y-73250000D03*
X70750000Y-103500000D03*
X70750000Y-106000000D03*
X71000000Y-88500000D03*
X88500000Y-103500000D03*
X88500000Y-106000000D03*
X88500000Y-90750000D03*
X80750000Y-71250000D03*
X88500000Y-88500000D03*
X77250000Y-71000000D03*
X54750000Y-47250000D03*
X58750000Y-43750000D03*
X54500000Y-45750000D03*
X53000000Y-46750000D03*
X62000000Y-42500000D03*
X56500000Y-48500000D03*
X48000000Y-50000000D03*
X53000000Y-33000000D03*
X56500000Y-50500000D03*
X65000000Y-42500000D03*
D27*
X54750000Y-48500000D02*
X51750000Y-48500000D01*
X49500000Y-46250000D02*
X49500000Y-41750000D01*
X51750000Y-48500000D02*
X49500000Y-46250000D01*
D28*
X79500000Y-40500000D02*
X80250000Y-39750000D01*
X80250000Y-39750000D02*
X80250000Y-38830000D01*
X53000000Y-40500000D02*
X79500000Y-40500000D01*
X77699500Y-41250000D02*
X54050500Y-41250000D01*
X77750000Y-41199500D02*
X77699500Y-41250000D01*
X54050500Y-41250000D02*
X54000000Y-41199500D01*
D27*
X57250000Y-76250000D02*
X57250000Y-73000000D01*
X53250000Y-103500000D02*
X53250000Y-106000000D01*
X53250000Y-88500000D02*
X53250000Y-91000000D01*
X70750000Y-103500000D02*
X70750000Y-106000000D01*
X70750000Y-73250000D02*
X70750000Y-76250000D01*
X71000000Y-88500000D02*
X71000000Y-91000000D01*
X88500000Y-103500000D02*
X88500000Y-106000000D01*
X88500000Y-88500000D02*
X88500000Y-90750000D01*
X77250000Y-71000000D02*
X77500000Y-71250000D01*
X77500000Y-71250000D02*
X80750000Y-71250000D01*
X54750000Y-47250000D02*
X55250000Y-47250000D01*
X55250000Y-47250000D02*
X58750000Y-43750000D01*
X53000000Y-46750000D02*
X53500000Y-46750000D01*
X53500000Y-46750000D02*
X54500000Y-45750000D01*
X56500000Y-48500000D02*
X58000000Y-48500000D01*
X58000000Y-48500000D02*
X62000000Y-44500000D01*
X62000000Y-44500000D02*
X62000000Y-42500000D01*
X48000000Y-38000000D02*
X48000000Y-50000000D01*
X53000000Y-33000000D02*
X48000000Y-38000000D01*
X59000000Y-50500000D02*
X64750000Y-44750000D01*
X56500000Y-50500000D02*
X59000000Y-50500000D01*
X65000000Y-44500000D02*
X65000000Y-42500000D01*
X64750000Y-44750000D02*
X65000000Y-44500000D01*
M02*
